<svg width="1316" height="2181" viewBox="0 0 1316 2181" fill="none" xmlns="http://www.w3.org/2000/svg">
<rect x="2" y="2" width="1312" height="2177" rx="18" stroke="black" stroke-width="4"/>
<line x1="1.17305e-07" y1="74" x2="1316" y2="74.0002" stroke="black" stroke-width="4"/>
<g clip-path="url(#clip0)">
<path d="M1259.42 36.6129C1259.29 36.1241 1259.03 35.6761 1258.66 35.3144C1258.29 34.9527 1257.83 34.6899 1257.32 34.5528C1255.45 34.1201 1248 34.1201 1248 34.1201C1248 34.1201 1240.55 34.1201 1238.68 34.594C1238.17 34.7312 1237.71 34.9939 1237.34 35.3556C1236.97 35.7173 1236.71 36.1653 1236.58 36.6541C1236.24 38.4522 1236.07 40.2763 1236.08 42.1033C1236.07 43.9441 1236.24 45.7821 1236.58 47.5937C1236.72 48.0674 1236.99 48.4983 1237.36 48.8447C1237.73 49.1912 1238.18 49.4415 1238.68 49.5715C1240.55 50.0453 1248 50.0453 1248 50.0453C1248 50.0453 1255.45 50.0453 1257.32 49.5715C1257.83 49.4343 1258.29 49.1716 1258.66 48.8098C1259.03 48.4481 1259.29 48.0002 1259.42 47.5113C1259.76 45.7268 1259.92 43.9166 1259.92 42.1033C1259.93 40.2625 1259.76 38.4246 1259.42 36.6129V36.6129Z" stroke="black" stroke-width="2.5" stroke-linecap="round" stroke-linejoin="round"/>
<path d="M1245.56 45.4721L1251.79 42.1037L1245.56 38.7354V45.4721Z" stroke="black" stroke-width="2.5" stroke-linecap="round" stroke-linejoin="round"/>
</g>
<path d="M1118.92 49.5718C1123.7 49.5718 1127.58 45.8823 1127.58 41.3311C1127.58 36.7798 1123.7 33.0903 1118.92 33.0903C1114.13 33.0903 1110.25 36.7798 1110.25 41.3311C1110.25 45.8823 1114.13 49.5718 1118.92 49.5718Z" stroke="black" stroke-width="3" stroke-linecap="round" stroke-linejoin="round"/>
<path d="M1129.75 51.6318L1125.04 47.1509" stroke="black" stroke-width="3" stroke-linecap="round" stroke-linejoin="round"/>
<g clip-path="url(#clip1)">
<path d="M1172.08 36.1804V52.6619L1179.67 48.5415L1188.33 52.6619L1195.92 48.5415V32.0601L1188.33 36.1804L1179.67 32.0601L1172.08 36.1804Z" stroke="black" stroke-width="3" stroke-linecap="round" stroke-linejoin="round"/>
<path d="M1179.67 32.0601V48.5415" stroke="black" stroke-width="3" stroke-linecap="round" stroke-linejoin="round"/>
<path d="M1188.33 36.1807V52.6621" stroke="black" stroke-width="3" stroke-linecap="round" stroke-linejoin="round"/>
</g>
<ellipse cx="59.5" cy="42.2788" rx="4.5" ry="4.27884" fill="#181818"/>
<ellipse cx="79.5" cy="42.2788" rx="4.5" ry="4.27884" fill="#181818"/>
<ellipse cx="99.5" cy="42.2788" rx="4.5" ry="4.27884" fill="#181818"/>
<path d="M406.511 47.18C405.441 47.18 404.471 46.95 403.601 46.49C402.741 46.02 402.061 45.375 401.561 44.555C401.071 43.725 400.826 42.79 400.826 41.75C400.826 40.71 401.071 39.78 401.561 38.96C402.061 38.13 402.741 37.485 403.601 37.025C404.471 36.555 405.446 36.32 406.526 36.32C407.436 36.32 408.256 36.48 408.986 36.8C409.726 37.12 410.346 37.58 410.846 38.18L409.286 39.62C408.576 38.8 407.696 38.39 406.646 38.39C405.996 38.39 405.416 38.535 404.906 38.825C404.396 39.105 403.996 39.5 403.706 40.01C403.426 40.52 403.286 41.1 403.286 41.75C403.286 42.4 403.426 42.98 403.706 43.49C403.996 44 404.396 44.4 404.906 44.69C405.416 44.97 405.996 45.11 406.646 45.11C407.696 45.11 408.576 44.695 409.286 43.865L410.846 45.305C410.346 45.915 409.726 46.38 408.986 46.7C408.246 47.02 407.421 47.18 406.511 47.18ZM417.064 47.18C415.564 47.18 414.394 46.765 413.554 45.935C412.724 45.105 412.309 43.92 412.309 42.38V36.5H414.739V42.29C414.739 44.17 415.519 45.11 417.079 45.11C417.839 45.11 418.419 44.885 418.819 44.435C419.219 43.975 419.419 43.26 419.419 42.29V36.5H421.819V42.38C421.819 43.92 421.399 45.105 420.559 45.935C419.729 46.765 418.564 47.18 417.064 47.18ZM430.911 47L428.886 44.075H428.766H426.651V47H424.221V36.5H428.766C429.696 36.5 430.501 36.655 431.181 36.965C431.871 37.275 432.401 37.715 432.771 38.285C433.141 38.855 433.326 39.53 433.326 40.31C433.326 41.09 433.136 41.765 432.756 42.335C432.386 42.895 431.856 43.325 431.166 43.625L433.521 47H430.911ZM430.866 40.31C430.866 39.72 430.676 39.27 430.296 38.96C429.916 38.64 429.361 38.48 428.631 38.48H426.651V42.14H428.631C429.361 42.14 429.916 41.98 430.296 41.66C430.676 41.34 430.866 40.89 430.866 40.31ZM437.279 38.48H433.919V36.5H443.069V38.48H439.709V47H437.279V38.48ZM450.764 44.75H445.889L444.959 47H442.469L447.149 36.5H449.549L454.244 47H451.694L450.764 44.75ZM449.999 42.905L448.334 38.885L446.669 42.905H449.999ZM455.334 36.5H457.764V47H455.334V36.5ZM469.886 36.5V47H467.891L462.656 40.625V47H460.256V36.5H462.266L467.486 42.875V36.5H469.886ZM481.643 47.18C480.573 47.18 479.603 46.95 478.733 46.49C477.873 46.02 477.193 45.375 476.693 44.555C476.203 43.725 475.958 42.79 475.958 41.75C475.958 40.71 476.203 39.78 476.693 38.96C477.193 38.13 477.873 37.485 478.733 37.025C479.603 36.555 480.578 36.32 481.658 36.32C482.568 36.32 483.388 36.48 484.118 36.8C484.858 37.12 485.478 37.58 485.978 38.18L484.418 39.62C483.708 38.8 482.828 38.39 481.778 38.39C481.128 38.39 480.548 38.535 480.038 38.825C479.528 39.105 479.128 39.5 478.838 40.01C478.558 40.52 478.418 41.1 478.418 41.75C478.418 42.4 478.558 42.98 478.838 43.49C479.128 44 479.528 44.4 480.038 44.69C480.548 44.97 481.128 45.11 481.778 45.11C482.828 45.11 483.708 44.695 484.418 43.865L485.978 45.305C485.478 45.915 484.858 46.38 484.118 46.7C483.378 47.02 482.553 47.18 481.643 47.18ZM494.329 44.75H489.454L488.524 47H486.034L490.714 36.5H493.114L497.809 47H495.259L494.329 44.75ZM493.564 42.905L491.899 38.885L490.234 42.905H493.564ZM498.898 36.5H501.328V45.02H506.593V47H498.898V36.5ZM507.951 36.5H510.381V45.02H515.646V47H507.951V36.5Z" fill="black"/>
<rect x="1.5" y="-1.5" width="131" height="26" rx="13" transform="matrix(1 0 0 -1 392 53)" stroke="black" stroke-width="3"/>
<path d="M329.614 45.02V47H321.679V45.425L325.729 41.6C326.159 41.19 326.449 40.84 326.599 40.55C326.749 40.25 326.824 39.955 326.824 39.665C326.824 39.245 326.679 38.925 326.389 38.705C326.109 38.475 325.694 38.36 325.144 38.36C324.684 38.36 324.269 38.45 323.899 38.63C323.529 38.8 323.219 39.06 322.969 39.41L321.199 38.27C321.609 37.66 322.174 37.185 322.894 36.845C323.614 36.495 324.439 36.32 325.369 36.32C326.149 36.32 326.829 36.45 327.409 36.71C327.999 36.96 328.454 37.32 328.774 37.79C329.104 38.25 329.269 38.795 329.269 39.425C329.269 39.995 329.149 40.53 328.909 41.03C328.669 41.53 328.204 42.1 327.514 42.74L325.099 45.02H329.614ZM335.087 47.18C334.217 47.18 333.442 46.965 332.762 46.535C332.082 46.105 331.547 45.485 331.157 44.675C330.777 43.855 330.587 42.88 330.587 41.75C330.587 40.62 330.777 39.65 331.157 38.84C331.547 38.02 332.082 37.395 332.762 36.965C333.442 36.535 334.217 36.32 335.087 36.32C335.957 36.32 336.732 36.535 337.412 36.965C338.092 37.395 338.622 38.02 339.002 38.84C339.392 39.65 339.587 40.62 339.587 41.75C339.587 42.88 339.392 43.855 339.002 44.675C338.622 45.485 338.092 46.105 337.412 46.535C336.732 46.965 335.957 47.18 335.087 47.18ZM335.087 45.125C335.727 45.125 336.227 44.85 336.587 44.3C336.957 43.75 337.142 42.9 337.142 41.75C337.142 40.6 336.957 39.75 336.587 39.2C336.227 38.65 335.727 38.375 335.087 38.375C334.457 38.375 333.957 38.65 333.587 39.2C333.227 39.75 333.047 40.6 333.047 41.75C333.047 42.9 333.227 43.75 333.587 44.3C333.957 44.85 334.457 45.125 335.087 45.125ZM348.525 45.02V47H340.59V45.425L344.64 41.6C345.07 41.19 345.36 40.84 345.51 40.55C345.66 40.25 345.735 39.955 345.735 39.665C345.735 39.245 345.59 38.925 345.3 38.705C345.02 38.475 344.605 38.36 344.055 38.36C343.595 38.36 343.18 38.45 342.81 38.63C342.44 38.8 342.13 39.06 341.88 39.41L340.11 38.27C340.52 37.66 341.085 37.185 341.805 36.845C342.525 36.495 343.35 36.32 344.28 36.32C345.06 36.32 345.74 36.45 346.32 36.71C346.91 36.96 347.365 37.32 347.685 37.79C348.015 38.25 348.18 38.795 348.18 39.425C348.18 39.995 348.06 40.53 347.82 41.03C347.58 41.53 347.115 42.1 346.425 42.74L344.01 45.02H348.525ZM353.577 36.5V47H351.147V38.45H349.047V36.5H353.577Z" fill="black"/>
<rect x="1.5" y="-1.5" width="80" height="26" rx="13" transform="matrix(1 0 0 -1 297 53)" stroke="black" stroke-width="3"/>
<path d="M564.513 45.05V47H556.383V36.5H564.318V38.45H558.798V40.73H563.673V42.62H558.798V45.05H564.513ZM572.959 47L570.424 43.355L567.934 47H565.144L569.029 41.66L565.339 36.5H568.099L570.514 39.905L572.884 36.5H575.509L571.849 41.57L575.764 47H572.959ZM586.345 36.5V47H583.915V42.695H579.145V47H576.715V36.5H579.145V40.64H583.915V36.5H586.345ZM588.829 36.5H591.259V47H588.829V36.5ZM601.461 41.54C602.061 41.73 602.531 42.05 602.871 42.5C603.211 42.94 603.381 43.485 603.381 44.135C603.381 45.055 603.021 45.765 602.301 46.265C601.591 46.755 600.551 47 599.181 47H593.751V36.5H598.881C600.161 36.5 601.141 36.745 601.821 37.235C602.511 37.725 602.856 38.39 602.856 39.23C602.856 39.74 602.731 40.195 602.481 40.595C602.241 40.995 601.901 41.31 601.461 41.54ZM596.166 38.33V40.805H598.581C599.181 40.805 599.636 40.7 599.946 40.49C600.256 40.28 600.411 39.97 600.411 39.56C600.411 39.15 600.256 38.845 599.946 38.645C599.636 38.435 599.181 38.33 598.581 38.33H596.166ZM599.001 45.17C599.641 45.17 600.121 45.065 600.441 44.855C600.771 44.645 600.936 44.32 600.936 43.88C600.936 43.01 600.291 42.575 599.001 42.575H596.166V45.17H599.001ZM605.221 36.5H607.651V47H605.221V36.5ZM612.317 38.48H608.957V36.5H618.107V38.48H614.747V47H612.317V38.48ZM619.415 36.5H621.845V47H619.415V36.5ZM629.422 47.18C628.332 47.18 627.347 46.945 626.467 46.475C625.597 46.005 624.912 45.36 624.412 44.54C623.922 43.71 623.677 42.78 623.677 41.75C623.677 40.72 623.922 39.795 624.412 38.975C624.912 38.145 625.597 37.495 626.467 37.025C627.347 36.555 628.332 36.32 629.422 36.32C630.512 36.32 631.492 36.555 632.362 37.025C633.232 37.495 633.917 38.145 634.417 38.975C634.917 39.795 635.167 40.72 635.167 41.75C635.167 42.78 634.917 43.71 634.417 44.54C633.917 45.36 633.232 46.005 632.362 46.475C631.492 46.945 630.512 47.18 629.422 47.18ZM629.422 45.11C630.042 45.11 630.602 44.97 631.102 44.69C631.602 44.4 631.992 44 632.272 43.49C632.562 42.98 632.707 42.4 632.707 41.75C632.707 41.1 632.562 40.52 632.272 40.01C631.992 39.5 631.602 39.105 631.102 38.825C630.602 38.535 630.042 38.39 629.422 38.39C628.802 38.39 628.242 38.535 627.742 38.825C627.242 39.105 626.847 39.5 626.557 40.01C626.277 40.52 626.137 41.1 626.137 41.75C626.137 42.4 626.277 42.98 626.557 43.49C626.847 44 627.242 44.4 627.742 44.69C628.242 44.97 628.802 45.11 629.422 45.11ZM646.623 36.5V47H644.628L639.393 40.625V47H636.993V36.5H639.003L644.223 42.875V36.5H646.623Z" fill="black"/>
<rect x="1.5" y="-1.5" width="124" height="26" rx="13" transform="matrix(1 0 0 -1 538 53)" stroke="black" stroke-width="3"/>
<path d="M703.966 47L703.951 40.7L700.861 45.89H699.766L696.691 40.835V47H694.411V36.5H696.421L700.351 43.025L704.221 36.5H706.216L706.246 47H703.966ZM716.867 45.05V47H708.737V36.5H716.672V38.45H711.152V40.73H716.027V42.62H711.152V45.05H716.867ZM718.8 36.5H723.57C724.71 36.5 725.715 36.72 726.585 37.16C727.465 37.59 728.145 38.2 728.625 38.99C729.115 39.78 729.36 40.7 729.36 41.75C729.36 42.8 729.115 43.72 728.625 44.51C728.145 45.3 727.465 45.915 726.585 46.355C725.715 46.785 724.71 47 723.57 47H718.8V36.5ZM723.45 45.005C724.5 45.005 725.335 44.715 725.955 44.135C726.585 43.545 726.9 42.75 726.9 41.75C726.9 40.75 726.585 39.96 725.955 39.38C725.335 38.79 724.5 38.495 723.45 38.495H721.23V45.005H723.45ZM731.193 36.5H733.623V47H731.193V36.5ZM743.03 44.75H738.155L737.225 47H734.735L739.415 36.5H741.815L746.51 47H743.96L743.03 44.75ZM742.265 42.905L740.6 38.885L738.935 42.905H742.265Z" fill="black"/>
<rect x="1.5" y="-1.5" width="83" height="26" rx="13" transform="matrix(1 0 0 -1 677 53)" stroke="black" stroke-width="3"/>
<path d="M803.834 36.5C804.764 36.5 805.569 36.655 806.249 36.965C806.939 37.275 807.469 37.715 807.839 38.285C808.209 38.855 808.394 39.53 808.394 40.31C808.394 41.08 808.209 41.755 807.839 42.335C807.469 42.905 806.939 43.345 806.249 43.655C805.569 43.955 804.764 44.105 803.834 44.105H801.719V47H799.289V36.5H803.834ZM803.699 42.125C804.429 42.125 804.984 41.97 805.364 41.66C805.744 41.34 805.934 40.89 805.934 40.31C805.934 39.72 805.744 39.27 805.364 38.96C804.984 38.64 804.429 38.48 803.699 38.48H801.719V42.125H803.699ZM816.819 47L814.794 44.075H814.674H812.559V47H810.129V36.5H814.674C815.604 36.5 816.409 36.655 817.089 36.965C817.779 37.275 818.309 37.715 818.679 38.285C819.049 38.855 819.234 39.53 819.234 40.31C819.234 41.09 819.044 41.765 818.664 42.335C818.294 42.895 817.764 43.325 817.074 43.625L819.429 47H816.819ZM816.774 40.31C816.774 39.72 816.584 39.27 816.204 38.96C815.824 38.64 815.269 38.48 814.539 38.48H812.559V42.14H814.539C815.269 42.14 815.824 41.98 816.204 41.66C816.584 41.34 816.774 40.89 816.774 40.31ZM826.245 47.18C825.155 47.18 824.17 46.945 823.29 46.475C822.42 46.005 821.735 45.36 821.235 44.54C820.745 43.71 820.5 42.78 820.5 41.75C820.5 40.72 820.745 39.795 821.235 38.975C821.735 38.145 822.42 37.495 823.29 37.025C824.17 36.555 825.155 36.32 826.245 36.32C827.335 36.32 828.315 36.555 829.185 37.025C830.055 37.495 830.74 38.145 831.24 38.975C831.74 39.795 831.99 40.72 831.99 41.75C831.99 42.78 831.74 43.71 831.24 44.54C830.74 45.36 830.055 46.005 829.185 46.475C828.315 46.945 827.335 47.18 826.245 47.18ZM826.245 45.11C826.865 45.11 827.425 44.97 827.925 44.69C828.425 44.4 828.815 44 829.095 43.49C829.385 42.98 829.53 42.4 829.53 41.75C829.53 41.1 829.385 40.52 829.095 40.01C828.815 39.5 828.425 39.105 827.925 38.825C827.425 38.535 826.865 38.39 826.245 38.39C825.625 38.39 825.065 38.535 824.565 38.825C824.065 39.105 823.67 39.5 823.38 40.01C823.1 40.52 822.96 41.1 822.96 41.75C822.96 42.4 823.1 42.98 823.38 43.49C823.67 44 824.065 44.4 824.565 44.69C825.065 44.97 825.625 45.11 826.245 45.11ZM833.816 36.5H838.586C839.726 36.5 840.731 36.72 841.601 37.16C842.481 37.59 843.161 38.2 843.641 38.99C844.131 39.78 844.376 40.7 844.376 41.75C844.376 42.8 844.131 43.72 843.641 44.51C843.161 45.3 842.481 45.915 841.601 46.355C840.731 46.785 839.726 47 838.586 47H833.816V36.5ZM838.466 45.005C839.516 45.005 840.351 44.715 840.971 44.135C841.601 43.545 841.916 42.75 841.916 41.75C841.916 40.75 841.601 39.96 840.971 39.38C840.351 38.79 839.516 38.495 838.466 38.495H836.246V45.005H838.466ZM850.873 47.18C849.373 47.18 848.203 46.765 847.363 45.935C846.533 45.105 846.118 43.92 846.118 42.38V36.5H848.548V42.29C848.548 44.17 849.328 45.11 850.888 45.11C851.648 45.11 852.228 44.885 852.628 44.435C853.028 43.975 853.228 43.26 853.228 42.29V36.5H855.628V42.38C855.628 43.92 855.208 45.105 854.368 45.935C853.538 46.765 852.373 47.18 850.873 47.18ZM863.055 47.18C861.985 47.18 861.015 46.95 860.145 46.49C859.285 46.02 858.605 45.375 858.105 44.555C857.615 43.725 857.37 42.79 857.37 41.75C857.37 40.71 857.615 39.78 858.105 38.96C858.605 38.13 859.285 37.485 860.145 37.025C861.015 36.555 861.99 36.32 863.07 36.32C863.98 36.32 864.8 36.48 865.53 36.8C866.27 37.12 866.89 37.58 867.39 38.18L865.83 39.62C865.12 38.8 864.24 38.39 863.19 38.39C862.54 38.39 861.96 38.535 861.45 38.825C860.94 39.105 860.54 39.5 860.25 40.01C859.97 40.52 859.83 41.1 859.83 41.75C859.83 42.4 859.97 42.98 860.25 43.49C860.54 44 860.94 44.4 861.45 44.69C861.96 44.97 862.54 45.11 863.19 45.11C864.24 45.11 865.12 44.695 865.83 43.865L867.39 45.305C866.89 45.915 866.27 46.38 865.53 46.7C864.79 47.02 863.965 47.18 863.055 47.18ZM871.103 38.48H867.743V36.5H876.893V38.48H873.533V47H871.103V38.48Z" fill="black"/>
<rect x="1.5" y="-1.5" width="120" height="26" rx="13" transform="matrix(1 0 0 -1 775 53)" stroke="black" stroke-width="3"/>
<path d="M934.43 36.5H939.2C940.34 36.5 941.345 36.72 942.215 37.16C943.095 37.59 943.775 38.2 944.255 38.99C944.745 39.78 944.99 40.7 944.99 41.75C944.99 42.8 944.745 43.72 944.255 44.51C943.775 45.3 943.095 45.915 942.215 46.355C941.345 46.785 940.34 47 939.2 47H934.43V36.5ZM939.08 45.005C940.13 45.005 940.965 44.715 941.585 44.135C942.215 43.545 942.53 42.75 942.53 41.75C942.53 40.75 942.215 39.96 941.585 39.38C940.965 38.79 940.13 38.495 939.08 38.495H936.86V45.005H939.08ZM954.953 45.05V47H946.823V36.5H954.758V38.45H949.238V40.73H954.113V42.62H949.238V45.05H954.953ZM960.336 47.18C959.506 47.18 958.701 47.07 957.921 46.85C957.151 46.62 956.531 46.325 956.061 45.965L956.886 44.135C957.336 44.465 957.871 44.73 958.491 44.93C959.111 45.13 959.731 45.23 960.351 45.23C961.041 45.23 961.551 45.13 961.881 44.93C962.211 44.72 962.376 44.445 962.376 44.105C962.376 43.855 962.276 43.65 962.076 43.49C961.886 43.32 961.636 43.185 961.326 43.085C961.026 42.985 960.616 42.875 960.096 42.755C959.296 42.565 958.641 42.375 958.131 42.185C957.621 41.995 957.181 41.69 956.811 41.27C956.451 40.85 956.271 40.29 956.271 39.59C956.271 38.98 956.436 38.43 956.766 37.94C957.096 37.44 957.591 37.045 958.251 36.755C958.921 36.465 959.736 36.32 960.696 36.32C961.366 36.32 962.021 36.4 962.661 36.56C963.301 36.72 963.861 36.95 964.341 37.25L963.591 39.095C962.621 38.545 961.651 38.27 960.681 38.27C960.001 38.27 959.496 38.38 959.166 38.6C958.846 38.82 958.686 39.11 958.686 39.47C958.686 39.83 958.871 40.1 959.241 40.28C959.621 40.45 960.196 40.62 960.966 40.79C961.766 40.98 962.421 41.17 962.931 41.36C963.441 41.55 963.876 41.85 964.236 42.26C964.606 42.67 964.791 43.225 964.791 43.925C964.791 44.525 964.621 45.075 964.281 45.575C963.951 46.065 963.451 46.455 962.781 46.745C962.111 47.035 961.296 47.18 960.336 47.18ZM966.452 36.5H968.882V47H966.452V36.5ZM978.468 41.585H980.688V45.845C980.118 46.275 979.458 46.605 978.708 46.835C977.958 47.065 977.203 47.18 976.443 47.18C975.353 47.18 974.373 46.95 973.503 46.49C972.633 46.02 971.948 45.375 971.448 44.555C970.958 43.725 970.713 42.79 970.713 41.75C970.713 40.71 970.958 39.78 971.448 38.96C971.948 38.13 972.638 37.485 973.518 37.025C974.398 36.555 975.388 36.32 976.488 36.32C977.408 36.32 978.243 36.475 978.993 36.785C979.743 37.095 980.373 37.545 980.883 38.135L979.323 39.575C978.573 38.785 977.668 38.39 976.608 38.39C975.938 38.39 975.343 38.53 974.823 38.81C974.303 39.09 973.898 39.485 973.608 39.995C973.318 40.505 973.173 41.09 973.173 41.75C973.173 42.4 973.318 42.98 973.608 43.49C973.898 44 974.298 44.4 974.808 44.69C975.328 44.97 975.918 45.11 976.578 45.11C977.278 45.11 977.908 44.96 978.468 44.66V41.585ZM992.576 36.5V47H990.581L985.346 40.625V47H982.946V36.5H984.956L990.176 42.875V36.5H992.576Z" fill="black"/>
<rect x="1.5" y="-1.5" width="105" height="26" rx="13" transform="matrix(1 0 0 -1 910 53)" stroke="black" stroke-width="3"/>
<defs>
<clipPath id="clip0">
<rect width="26" height="24.7222" fill="white" transform="translate(1235 30)"/>
</clipPath>
<clipPath id="clip1">
<rect width="26" height="24.7222" fill="white" transform="translate(1171 30)"/>
</clipPath>
</defs>
</svg>
