<svg xmlns="http://www.w3.org/2000/svg" viewBox="0 0 185.84 93.89"><path d="M182.21,18.67c.08.1.17.19.26.29L171.77,5.72c-.17-.2-.34-.4-.52-.59l0,0c-.24-.27-.5-.54-.77-.79l-.21-.19-.66-.58-.14-.12-.1-.07c-.29-.23-.6-.46-.91-.67l-.13-.08c-.28-.19-.57-.36-.86-.53l-.28-.15c-.3-.17-.61-.32-.92-.46l-.12-.06c-.35-.16-.71-.3-1.08-.43l-.29-.1c-.3-.11-.6-.2-.91-.28l-.26-.07c-.38-.1-.76-.19-1.16-.26l-.25,0c-.32-.06-.65-.1-1-.13l-.33,0C160.45,0,160,0,159.62,0h0l-1,0L17,7.45c-.56,0-1.12.08-1.67.16h-.08a13.74,13.74,0,0,0-1.42.29L13.54,8l-.26.07-.45.15c-.37.12-.74.24-1.1.38l-.28.09c-.13.05-.25.12-.38.18-.33.14-.66.29-1,.46l-.35.16-.27.16q-.53.3-1,.63c-.13.08-.26.14-.38.22l-.14.11c-.53.37-1,.76-1.53,1.18l0,0c-.36.31-.71.64-1,1l-.28.3c-.18.19-.36.37-.52.56l-.18.23q-.22.27-.42.54c-.19.23-.36.47-.53.71L3,15.7c-.16.25-.31.5-.46.76l-.33.6c-.14.26-.26.53-.39.8s-.19.41-.27.62-.22.57-.32.86-.15.41-.21.62-.17.62-.25.93-.11.4-.15.6c-.07.35-.12.7-.17,1.06,0,.17-.06.34-.07.52-.06.53-.09,1.07-.1,1.61L0,65.13a15.28,15.28,0,0,0,3.38,9.79l10.7,13.24c-.14-.17-.26-.35-.39-.53a15.6,15.6,0,0,0,13.5,6.24l141.64-7.43A17.74,17.74,0,0,0,185.55,69.2l.29-40.44A15.26,15.26,0,0,0,182.21,18.67Zm-165,71.15Zm.09.07.2.14.07,0Zm1,.7.18.11.12.09Zm7.17,2.3a.75.75,0,0,0,.15,0l.28,0ZM173.87,56c0,.51,0,1-.08,1.52,0,.17-.06.33-.08.49,0,.34-.09.67-.16,1s-.09.38-.14.57-.14.59-.23.87-.13.4-.2.59-.19.54-.3.81-.17.39-.26.58-.23.51-.36.76l-.31.56c-.14.24-.28.48-.43.72L171,65c-.16.23-.33.46-.5.68l-.39.5-.66.74-.27.29c-.32.33-.66.65-1,1a15.33,15.33,0,0,1-1.44,1.11l-.49.32c-.31.2-.63.4-1,.58s-.39.21-.59.31-.61.3-.92.43l-.62.26c-.34.13-.69.24-1,.35s-.44.15-.67.2l-.29.08c-.44.1-.88.2-1.33.27h-.06c-.53.08-1.05.13-1.59.16L16.5,79.66a14,14,0,0,1-1.59,0H14.5c-.54,0-1.07-.11-1.59-.2l-.28-.06-.92-.23c0-.24,0-.48,0-.72v-.12L12,37.87a12.79,12.79,0,0,1,.09-1.52c0-.16,0-.33.07-.49,0-.33.09-.66.16-1s.09-.38.14-.57.14-.59.23-.87.13-.4.2-.59.19-.54.3-.8.17-.4.26-.59.23-.51.36-.75l.31-.57c.14-.24.29-.48.44-.71s.23-.36.35-.54.33-.45.5-.67l.39-.5c.22-.26.44-.51.67-.75l.26-.28c.32-.33.66-.65,1-.95a15.33,15.33,0,0,1,1.44-1.11l.48-.32c.32-.2.64-.4,1-.58l.58-.31c.31-.15.62-.3.93-.43l.62-.26c.34-.13.69-.24,1-.35s.44-.15.67-.21l.29-.07c.44-.1.89-.2,1.34-.27h.05c.53-.08,1.05-.13,1.59-.16l141.64-7.42c.44,0,.87,0,1.3,0l.55,0c.32,0,.64.05,1,.09l.49.06.39.08c.25,0,.49.09.73.15l.26.06.11,0a8,8,0,0,1,0,.85Zm4.43-40.6h0l.06,0Zm.51.31a1.18,1.18,0,0,1,.19.11l.13.08.47.35C179.35,16.07,179.08,15.89,178.81,15.72Zm1.18.82,0,0,.24.19.66.58h0Q180.49,16.93,180,16.54Zm1.13,1,0,0c.27.25.53.52.77.79l.12.14C181.75,18.14,181.44,17.82,181.12,17.51Z" style="fill:#0d0d0d"/><path d="M137.2,26.73l-16.39.86,0,2.33L119,27.68l-4.63.25-.08,11.18L105.6,28.38l-4.69.25-.06,8.18-4.42-5.46a3.11,3.11,0,0,0-.23-.28,8.07,8.07,0,0,0-.59-.58l-.21-.18-.26-.18-.28-.2c-.13-.09-.28-.17-.42-.25l-.28-.16-.51-.23-.26-.11c-.27-.1-.54-.19-.83-.27a9.21,9.21,0,0,0-1.33-.26l-.3,0c-.46-.05-.93-.08-1.42-.09h-.07c-.28,0-.57,0-.86,0-.47,0-.91.07-1.35.13l-.16,0-.18,0c-.44.07-.88.16-1.3.27l-.06,0h0a9.4,9.4,0,0,0-.94.31l-.19.07-.26.13-.55.25-.12.06a1.88,1.88,0,0,0-.24.14l-.45.27-.14.09a1.24,1.24,0,0,0-.18.14,3.87,3.87,0,0,0-.45.35l-.17.12-.3.28c-.18.17-.34.34-.5.52l0,.05a9,9,0,0,0-.72,1l-.14.24a9,9,0,0,0-.57,1.17,10.42,10.42,0,0,0-.65,2.86l-3.68-4.55-.17-.21-.24-.24a3.42,3.42,0,0,0-.4-.36l0,0a5.7,5.7,0,0,0-.75-.49l-.19-.1a6.38,6.38,0,0,0-.92-.4,6.24,6.24,0,0,0-.69-.2l-.23,0-.53-.09-.29,0a5.17,5.17,0,0,0-.57,0l-.3,0H69.8l-.76,0-9,.47L60,43,50.5,31.27l-4.66.25L37.93,55l10.7,13.24L52.74,56l3.08,3.81L58,59.73l6.22,7.69-1.39-4.18-2.92-3.61,1.7-.09-2.83-8.71-3.05-3.77.78-2.3L60,44.58l-.07,9.27,10.7,13.24.07-10,4.65,5.76,3.5-.18c.67,0,1.28-.1,1.82-.17h0a6.81,6.81,0,0,0,.71-.15h.06l.37-.12.24-.11.09,0a1.32,1.32,0,0,0,.2-.12l.19-.15,0,0,0,0,.16-.17a1.86,1.86,0,0,0,.21-.28,2.92,2.92,0,0,0,.33-1.44A3.67,3.67,0,0,0,83,58.38a2,2,0,0,0-.28-.46l-3.88-4.81c.23,0,.47,0,.69-.07l.14,0h0a4.78,4.78,0,0,0,.57-.12l.12,0,.12,0,.19-.07.34-.16,0,0a1.32,1.32,0,0,0,.2-.12,1.37,1.37,0,0,0,.24-.18l.07-.07.06-.06h0l2,2.48a6,6,0,0,1,.79.25l6.8,8.41a7.54,7.54,0,0,1-1.11-1.92,10.1,10.1,0,0,1-.65-3.93l0-3.58,5.64,7,.11.13a.94.94,0,0,0,.1.1,2.7,2.7,0,0,0,.31.28c.08.07.18.12.26.18l.23.14a4,4,0,0,0,.67.3L97,62a4.54,4.54,0,0,0,.92.18,1.42,1.42,0,0,0,.29,0,3.89,3.89,0,0,0,.49,0l.45,0a6,6,0,0,0,.75-.07l.25,0,.27-.06.24,0,.57-.19,0,0,.07,0,.35-.16a4.23,4.23,0,0,0,.42-.25l0,0,0,0,.33-.25.36-.36.06-.07a3.35,3.35,0,0,0,.29-.44,2.64,2.64,0,0,0,.23-.35,5.73,5.73,0,0,0,.25-.62c0-.14.11-.26.16-.41s.11-.54.16-.83.06-.26.08-.41a10.91,10.91,0,0,0,.09-1.44l0-4.54,9,11.08q-1.69-2.1-1.67-6.34l0-3.27,5.56,6.88.1.12a3.89,3.89,0,0,0,.36.34l.1.06.17.11a2.73,2.73,0,0,0,.54.27l.2.08a4.2,4.2,0,0,0,.83.19h.15a5.3,5.3,0,0,0,.57,0h.41a5.19,5.19,0,0,0,.7-.07l.2,0,.25-.05.24,0,.5-.17h0l0,0,.35-.16a2.6,2.6,0,0,0,.36-.21l0,0,0,0,.28-.22a2.29,2.29,0,0,0,.27-.27l.06-.06,0,0a3.41,3.41,0,0,0,.25-.37,3.13,3.13,0,0,0,.2-.3c.08-.15.14-.32.21-.49s.1-.21.14-.34a5.38,5.38,0,0,0,.13-.63,1.76,1.76,0,0,0,.07-.33,7.83,7.83,0,0,0,.08-1.11l.11-15,1.51-.08-.06,9.27L137.2,63.6l.14-19.2-3-3.72L147.9,40ZM71.35,48.91a4.68,4.68,0,0,1-.6.23V47.58l.91,1.12A3.53,3.53,0,0,1,71.35,48.91Zm6.75-5.28.72,0v.59c0,.11,0,.22,0,.34Zm15.29.66c0,.15,0,.28-.08.42s-.09.57-.16.82S93,45.81,93,46a5.56,5.56,0,0,1-.25.61,2.12,2.12,0,0,1-.23.35,3.82,3.82,0,0,1-.35.51,4.43,4.43,0,0,1-.69.61l0,0a3.88,3.88,0,0,1-.8.44l-.07,0a6.55,6.55,0,0,1-.67.2,8.92,8.92,0,0,1,.39-1.3,9,9,0,0,1,.57-1.17L91,46a9,9,0,0,1,.72-1,7.15,7.15,0,0,1,.53-.57c.15-.14.31-.27.47-.4a3.87,3.87,0,0,1,.45-.35l.29-.21C93.43,43.77,93.42,44.05,93.39,44.29Zm5.48-2.47.41,0c.32,0,.63,0,.93,0s.4,0,.6,0v1.25c0,.42,0,.82,0,1.21Zm15.37,1.07a7.83,7.83,0,0,1-.08,1.11,3.2,3.2,0,0,1-.07.33A3.88,3.88,0,0,1,114,45a2.68,2.68,0,0,1-.13.34c-.07.17-.13.34-.21.49a3.13,3.13,0,0,1-.2.3,2.86,2.86,0,0,1-.28.4l-.06.06a3.7,3.7,0,0,1-.55.49l0,0a3.39,3.39,0,0,1-.73.39l0,0-.16.05,0-5.65,2.64-.14Z" style="fill:#0d0d0d"/><path d="M169.35,14.23a14.46,14.46,0,0,1,15.52,14.58l-.3,40.44a16.7,16.7,0,0,1-15.74,16.23L27.2,92.9A14.46,14.46,0,0,1,11.68,78.31L12,37.87A16.7,16.7,0,0,1,27.71,21.65Z" style="fill:#2340ad"/><polygon points="147.91 39.97 147.88 43.85 142.02 44.16 141.88 63.35 137.2 63.6 137.34 44.4 131.48 44.71 131.51 40.83 147.91 39.97" style="fill:#fff"/><path d="M129.68,40.92l-.1,14.42c0,3.18-.77,5.54-2.23,7.06s-3.76,2.37-6.88,2.53-5.41-.44-6.85-1.81-2.14-3.65-2.12-6.83l.11-14.42,4.69-.25-.11,15c0,3.16,1.42,4.67,4.33,4.51s4.4-1.8,4.42-5l.11-15Z" style="fill:#fff"/><path d="M108.24,46.5a10.23,10.23,0,0,1,.67,4l0,5.93a10.66,10.66,0,0,1-.72,4,8.26,8.26,0,0,1-2,3,9.24,9.24,0,0,1-3.07,1.89,13.16,13.16,0,0,1-4,.79,12.28,12.28,0,0,1-4-.38,7.66,7.66,0,0,1-3-1.56,7,7,0,0,1-1.92-2.76,10.1,10.1,0,0,1-.65-3.93l0-5.94a11.2,11.2,0,0,1,.71-4,8.37,8.37,0,0,1,2-3,9,9,0,0,1,3-1.9,13.34,13.34,0,0,1,4-.79,12.35,12.35,0,0,1,4,.37,7.77,7.77,0,0,1,3,1.58A7.2,7.2,0,0,1,108.24,46.5Zm-4.06,9.59,0-4.74c0-2.1-.42-3.6-1.28-4.46a4.65,4.65,0,0,0-3.69-1.18,5.25,5.25,0,0,0-3.76,1.57,6.86,6.86,0,0,0-1.33,4.6l0,4.73q0,3.15,1.26,4.44a4.63,4.63,0,0,0,3.74,1.17,5.17,5.17,0,0,0,3.73-1.56,6.72,6.72,0,0,0,1.32-4.57" style="fill:#fff"/><path d="M87.5,57.74a4.94,4.94,0,0,1,.35,1.94c0,2.34-.69,4-2,5.11s-3.44,1.68-6.3,1.83l-8.9.47L70.79,44l8.95-.47a9.23,9.23,0,0,1,3.5.39,5.81,5.81,0,0,1,2.29,1.37,4.83,4.83,0,0,1,1.26,2,7.11,7.11,0,0,1,.38,2.38,5.15,5.15,0,0,1-.87,2.76,6,6,0,0,1-2.61,2.16,5.89,5.89,0,0,1,1.54.61,5,5,0,0,1,1.34,1A5.14,5.14,0,0,1,87.5,57.74ZM83,61.34a2.92,2.92,0,0,0,.33-1.44A3.67,3.67,0,0,0,83,58.38a1.91,1.91,0,0,0-.78-.9,3.63,3.63,0,0,0-1.37-.41,12.62,12.62,0,0,0-2,0l-3.49.18,0,5.69,3.5-.18c.67,0,1.28-.1,1.82-.17a4.84,4.84,0,0,0,1.39-.4,2.14,2.14,0,0,0,.9-.81m-7.5-13.69,0,5.68,2.6-.14a14.82,14.82,0,0,0,1.7-.17,4,4,0,0,0,1.4-.46,2.47,2.47,0,0,0,1-.92,3.05,3.05,0,0,0,.35-1.56,2.73,2.73,0,0,0-.33-1.51,2,2,0,0,0-.93-.79,3.71,3.71,0,0,0-1.4-.28,16.16,16.16,0,0,0-1.7,0l-2.6.14" style="fill:#fff"/><path d="M61.21,44.51l7.56,22.68-4.52.23-1.39-4.18-8.29.44L53.15,68l-4.52.24,7.91-23.48ZM55.82,59.84l5.82-.3-2.83-8.71-3,9" style="fill:#fff"/></svg>