<svg xmlns="http://www.w3.org/2000/svg" xmlns:xlink="http://www.w3.org/1999/xlink" viewBox="0 0 286.09 289.37"><defs><linearGradient id="a" x1="1215.18" y1="-806.39" x2="1214.35" y2="-823.54" gradientTransform="translate(-574.81 1485.48) rotate(-27.24)" gradientUnits="userSpaceOnUse"><stop offset="0" stop-color="#fff"/><stop offset="0.18" stop-color="#fcfcfc"/><stop offset="0.29" stop-color="#f4f4f4"/><stop offset="0.38" stop-color="#e5e5e5"/><stop offset="0.47" stop-color="#d1d1d1"/><stop offset="0.54" stop-color="#b6b6b6"/><stop offset="0.61" stop-color="#959595"/><stop offset="0.68" stop-color="#6e6e6e"/><stop offset="0.74" stop-color="#414141"/><stop offset="0.8" stop-color="#101010"/><stop offset="0.82"/><stop offset="0.97"/><stop offset="1"/></linearGradient></defs><polygon points="269.59 268.97 16.59 287.94 16.59 117.82 269.59 100.49 269.59 268.97" style="fill:#b3b3b3;stroke:#000;stroke-miterlimit:10"/><path d="M232.46,26.12C208.81,7.32,177.3-1.85,143.7.31S78.26,15.78,54.32,37.79,17.09,88,17.09,117v.26l8.84-.6.39,0,233.7-16h.13l8.94-.61v-.26C269.08,71,256.09,44.88,232.46,26.12ZM26.53,116.07c.07-20.45,7.33-40,19.71-56.64L66,69.39l5.49,7.94a67.14,67.14,0,0,0-11.32,36.43ZM102.75,50V50l0,0,9,5.32,12.89,21.37a46.26,46.26,0,0,0-16.4,13.4L83.49,77.59l-5.56-8a89.54,89.54,0,0,1,24.8-20.16l0,.5,0,0ZM77.64,69.33v0l0,.06-10.89,0L46.57,59.19A125.78,125.78,0,0,1,91.74,22.33L102.4,40l.31,9A90.25,90.25,0,0,0,77.64,69.33ZM60.7,113.48A66.73,66.73,0,0,1,71.81,77.53l.54.78,0,.06h.06l0,0,0,0,11.76,0-.08-.11,23.81,12a35.12,35.12,0,0,0-7.09,20.47ZM101.37,111a34.53,34.53,0,0,1,7-20.2l34.45,17.36Zm7.36-20.64a45.53,45.53,0,0,1,16.2-13.19l18.51,30.68Zm34.36,16.48L125,76.87a50.07,50.07,0,0,1,18-4.79Zm0-35.24a50.91,50.91,0,0,0-18.32,4.88l-12.9-21.38-.34-10.12a97.86,97.86,0,0,1,26.9-7.1l4.66,8.6Zm0-43.51-4.54,9.25a98.82,98.82,0,0,0-27,7.09v-.11l0,0,0,0v-.06l0,0L102,38.56v.12L91.86,21.89A138.32,138.32,0,0,1,143.09,8.28ZM209.8,60.39l-.05.07a74,74,0,0,0-24.76-17l.31-9.17L195.85,15.4c18.05,6.58,33.42,17.24,44.6,30.78L220.66,58.86l-10.77,1.47,0,0,0,0h-.06ZM185,44.46l0-.37a73.51,73.51,0,0,1,24.49,16.84l-5.4,8.57L179.29,85.37a37.86,37.86,0,0,0-16.2-11.18L176,51.05l8.92-6.49,0,0v-.06l.05,0Zm.49-11.23v-.12L176,40l0,0V40l-.06,0,0,0v.2a91.67,91.67,0,0,0-26.87-3.61l-5-9.28V8.24a127.88,127.88,0,0,1,51.39,7ZM144.11,47.44l5-10.27A90.88,90.88,0,0,1,176,40.8l-.34,10.06L162.71,74a46.77,46.77,0,0,0-18.62-2.5V47.39Zm18.34,27-18.36,33V72A46.26,46.26,0,0,1,162.45,74.48Zm.37.18a37.54,37.54,0,0,1,16,11l-34.45,22.08ZM145,108l34.17-21.9a30.46,30.46,0,0,1,6.91,19.09Zm41.61-2.85a31,31,0,0,0-7-19.34l23.82-15.26-.08.12L215,69l0,0,0-.06h.07l0,0,.41-.65a59.4,59.4,0,0,1,10.84,34.06Zm40.27-2.75a59.88,59.88,0,0,0-11.05-34.52L221.36,59l19.41-12.44a84.21,84.21,0,0,1,19.35,53.5ZM260.64,100c-.08-26.65-12.18-50.89-34.12-68.3s-51.38-26-82.67-24S82.93,22.14,60.65,42.64,26.08,89.2,26,116.1l-8.18.56C18,57.24,74.62,5.31,143.85.86c68.86-4.43,124.64,39.81,124.82,98.63Z"/><polygon points="260.59 209.82 26.59 226.83 26.59 128.87 260.59 112.74 260.59 209.82" style="fill:#fff;stroke:#000;stroke-miterlimit:10"/><path d="M38.59,139.53v74.91l78.13-5.65c0-.15,0-.31,0-.47a29.31,29.31,0,0,1,26.8-28.85,24.64,24.64,0,0,1,26.74,25c0,.15,0,.31,0,.47l77.35-5.59V125Z" style="fill:#fff;stroke:#000;stroke-miterlimit:10"/><path d="M122.09,149.58l1-.1V165l-1,.11Z"/><path d="M127.09,149l1.85-.13L136.33,161c.13.22.25.43.36.64s.23.48.4.81V148.56l1-.1v15.77l-1.86.13-7.41-12.17c-.13-.23-.25-.44-.35-.63s-.23-.45-.38-.78v13.85l-1,.1Z"/><path d="M142.09,163.7V148.2l9-.63v1.32l-8,.56v5.93l7-.49v1.29l-7,.49v6.93Z"/><path d="M159.09,146.74a6.07,6.07,0,0,1,2.54.3,4.6,4.6,0,0,1,1.88,1.26,5.62,5.62,0,0,1,1.17,2.1,9.11,9.11,0,0,1,.41,2.83v2.13a9.77,9.77,0,0,1-.41,2.9,6.82,6.82,0,0,1-1.17,2.26,5.68,5.68,0,0,1-1.88,1.52,6.75,6.75,0,0,1-2.54.66,6.07,6.07,0,0,1-2.54-.3,4.6,4.6,0,0,1-1.88-1.26,5.64,5.64,0,0,1-1.18-2.1,9.19,9.19,0,0,1-.4-2.84v-2.12a10.12,10.12,0,0,1,.39-2.9,6.64,6.64,0,0,1,1.17-2.26,5.62,5.62,0,0,1,1.89-1.52A6.8,6.8,0,0,1,159.09,146.74Zm.5,14.63a4.4,4.4,0,0,0,3.29-1.69,6.9,6.9,0,0,0,1.21-4.34v-1.87a6.23,6.23,0,0,0-1.21-4.18,3.79,3.79,0,0,0-3.29-1.22,4.4,4.4,0,0,0-3.29,1.68,6.89,6.89,0,0,0-1.21,4.35V156a6.17,6.17,0,0,0,1.21,4.18A3.78,3.78,0,0,0,159.59,161.37Z"/><path d="M170.94,193.17c0-.25,0-.49,0-.73,0-11.26-12.51-19.5-28-18.41s-28,11.14-28,22.43a14.56,14.56,0,0,0,.13,1.87v21.83l56-4.07V193.16Z"/><polygon points="270.73 99.23 277.59 75.11 277.59 106.1 270.73 99.23" style="fill:#fff"/><path d="M277.09,78.7v26.19l-5.8-5.8,5.8-20.39m1-7.17-7.92,27.85,7.92,7.93V71.53Z"/><polygon points="278.09 71.53 286 98.29 278.09 107.31 278.09 71.53"/><line x1="270.59" y1="99.37" x2="270.59" y2="269.37" style="fill:none;stroke:#000;stroke-miterlimit:10"/><line x1="285.59" y1="98.37" x2="285.59" y2="268.37" style="fill:none;stroke:#000;stroke-miterlimit:10"/><line x1="277.59" y1="107.37" x2="277.59" y2="269.37" style="fill:none;stroke:#000;stroke-miterlimit:10"/><polygon points="0.56 117.67 7.59 93.22 7.59 124.63 0.56 117.67" style="fill:#fff"/><path d="M7.09,96.77v26.66l-6-5.91,6-20.75m1-7.1L0,117.82l8.09,8V89.67Z"/><polygon points="8.09 89.67 16.17 116.71 8.09 125.83 8.09 89.67"/><line x1="0.59" y1="117.37" x2="0.59" y2="289.37" style="fill:none;stroke:#000;stroke-miterlimit:10"/><line x1="16.59" y1="116.37" x2="16.59" y2="288.37" style="fill:none;stroke:#000;stroke-miterlimit:10"/><line x1="8.59" y1="125.37" x2="8.59" y2="289.37" style="fill:none;stroke:#000;stroke-miterlimit:10"/><path d="M27,226.29,260.39,210c12.21,11.7-25.86,24.3-87.95,28.64S46.87,237.45,27,226.29Z" style="fill:#fff;stroke:#000;stroke-miterlimit:10"/><path d="M262.63,214.84a3,3,0,0,1-.06.42s0,.09,0,.14-.1.36-.16.55a1.12,1.12,0,0,1-.05.13l-.17.41-.09.18c-.06.12-.13.24-.2.36l-.12.2-.23.34a2.14,2.14,0,0,0-.13.19l-.33.41-.1.12c-.15.17-.31.35-.49.52a.93.93,0,0,1-.14.14l-.41.39-.21.19-.42.35c-.08.06-.15.13-.24.19l-.47.36-.23.17-.78.54-.09.06-.76.48-.27.16-.72.41a2.69,2.69,0,0,1-.29.16c-.33.19-.67.37-1,.55h0l-1.15.56-.33.16-1,.47-.24.11c-.45.2-.92.39-1.4.59l-.35.14-1.39.55-.16.06-.28.11-.82.3-.41.14-.72.26-.46.16-.72.24-.47.16-.68.22-.65.21-.67.21-.67.2-.69.21-.69.2-.71.21-.71.2-.62.17-1.06.29-.62.16-1.12.29-.59.15-1.37.35-.37.09-1.79.42-.32.07-1.94.44-.55.12-2.26.49-.29.06-2.09.42-.59.12-2.41.46-.93.17-.93.17-.95.17-1,.16-1,.17-.94.16-1,.17-.95.16-1,.16-1,.15-1,.16-1,.15-1,.16-1.06.15-1,.14-1.07.15-.25,0-3.29.43-.43.06-3.38.42-.63.07c-1.13.13-2.27.27-3.42.39l-.58.07-3.65.38h-.12c-1.21.13-2.44.25-3.68.36l-.53,0c-1.21.12-2.44.23-3.67.33l-.7.06-3.74.31-.59,0-4,.3-5.16.33-.41,0-4.92.28-.64,0-4.78.23-.75,0-4.72.18-.74,0-5,.15-.72,0-5,.1h-.81a18.84,18.84,0,0,0-4,.35h-.16c-1.29-.29-3.87-1-3.87-1h-.9s-2.39.72-3.58,1H126a12.87,12.87,0,0,0-3.31-.32h-1l-2.76,0h-.69l-3.36-.08-.84,0-2.52-.07-1,0-2.73-.09-.55,0-3.2-.14-.84,0-2.39-.12-1,0-2.52-.13-.61,0-3-.19-.8,0-2.24-.15-1-.07-2.23-.17-.76,0-2.85-.24-.52,0L80.94,238l-.93-.09-1.87-.18-.92-.09-2.06-.22-.64-.06-2.59-.3-.57-.06-2-.24-.87-.11-1.65-.22-.9-.12-1.66-.23-.78-.1-2.37-.35h0l-2.33-.36-.7-.12-1.63-.27-.8-.14-1.57-.28-.69-.13-2.24-.42-.29-.06-1.9-.39-.62-.13-1.87-.41L46,232.8c-.73-.16-1.45-.33-2.15-.51l-1-.24-.54-.13-1.25-.33-.27-.07-1.46-.41L39,231l-1-.29-1.27-.4-.29-.09-1.49-.49-.41-.15-1-.36L33,229l-.84-.33-.53-.21-.78-.32-.49-.21c-.26-.11-.51-.22-.75-.34l-.45-.21L28.4,227l-.37-.18c-.36-.18-.94-.56-.94-.56v23.8a1.28,1.28,0,0,0,.53.56l.37.18.76.38.45.2c.24.12.49.23.75.34l.49.21.78.33.53.21.84.32.52.19c.33.13.67.25,1,.36l.41.15,1.5.5.28.08,1.27.4.13,0,.86.25.41.12,1.46.41.28.07,1.24.33.54.14.79.19.17,0c.7.18,1.42.35,2.15.51l.46.11,1.87.41.34.07.28.06,1.9.39.29.06,2.24.43.2,0,.49.09,1.57.28.8.14,1.63.27.5.09.2,0c.77.12,1.55.25,2.33.36h0l2.37.35.21,0,.57.08,1.66.23.9.11,1.65.22.55.07.32,0,2,.24.57.06,2.59.3h.13l.51.05,2.06.22.92.09,1.87.18.57.06.36,0,2.31.21.52,0,2.85.24h.2l.56.05,2.23.16,1,.07,2.24.15.57,0,.23,0,3,.18.61,0,2.52.13.45,0,.54,0,2.39.12.84,0,3.2.13h.11l.44,0,2.74.09,1,0,2.52.07.6,0h.24l3.36.08h.69l2.76,0h1a7.22,7.22,0,0,0,3.31-.48h.29a23.81,23.81,0,0,0,3.58,1h.9a5.33,5.33,0,0,1,3.87,0h.16a11.39,11.39,0,0,1,4-.55h.81l5-.1.72,0,5-.15h.74l4.72-.18.75,0,4.78-.23.64,0,4.92-.28.41,0,5.16-.34,4-.3.59,0,3.74-.31.7-.06,3.67-.32.53-.05,3.68-.36.12,0,3.65-.38.58-.07q1.72-.18,3.42-.39l.63-.07,3.38-.42.43-.05,3.29-.44.17,0h.08l1.07-.15,1-.15,1-.15,1-.15,1-.16,1-.15,1-.16,1-.16.95-.16,1-.17.94-.16,1-.17,1-.16.95-.17.94-.17.87-.16h.05l2.41-.46.59-.12,2.09-.42.29-.06,2.26-.49.55-.12,1.94-.44.24-.05.08,0,1.79-.42.37-.09,1.37-.34.59-.15,1.12-.3.62-.16,1.06-.29.38-.1.24-.07.71-.2L240,252l.69-.2.69-.21.67-.2.67-.21.65-.21.43-.14.25-.08.47-.15.72-.25.46-.16.72-.25.41-.15.83-.31.27-.1h0l.12-.05c.48-.18.94-.36,1.39-.55l.35-.14c.48-.19,1-.39,1.4-.59l.06,0,.18-.08,1-.47.33-.15,1.15-.57h0c.36-.18.7-.36,1-.55a2.69,2.69,0,0,0,.29-.16c.25-.13.49-.27.72-.41l.17-.1.1-.06.76-.48.09-.06c.28-.18.53-.36.79-.54l.06-.05.16-.12.48-.36.23-.19.42-.35.14-.12.07-.07.41-.39a.93.93,0,0,0,.14-.14c.18-.17.34-.35.49-.52l0,0,.08-.1.33-.41c0-.06.09-.12.13-.19l.23-.34a.86.86,0,0,0,.07-.1s0-.07.05-.1.14-.24.2-.36l.09-.18.17-.41a.54.54,0,0,1,.05-.11v0a3.8,3.8,0,0,0,.16-.55s0-.09,0-.14,0-.28.07-.41,0-.06,0-.08-.15-.29-.15-.29v-23.8S262.65,214.72,262.63,214.84Z"/><path d="M116.55,217.46l2.5,4.44a1.93,1.93,0,0,0,1.5,1,5.82,5.82,0,0,1,4.54,3c1,1.76.9,3.61-.22,4.62a1.22,1.22,0,0,0-.09,1.52l2.5,4.44a1.74,1.74,0,0,0,1.87.95l39.52-13c.62-.21.79-1,.38-1.69l-2.5-4.44a1.93,1.93,0,0,0-1.5-1,5.85,5.85,0,0,1-4.54-3c-1-1.76-.9-3.61.22-4.62a1.23,1.23,0,0,0,.08-1.52l-2.5-4.44a1.72,1.72,0,0,0-1.86-.95l-39.52,13C116.31,216,116.14,216.73,116.55,217.46Z" style="fill:#fff;stroke:#000"/><polygon points="130.79 216.08 130.09 214.84 129.56 215.01 130.26 216.25 130.79 216.08"/><polygon points="131.84 217.94 131.14 216.7 130.61 216.88 131.31 218.11 131.84 217.94"/><polygon points="132.89 219.8 132.19 218.56 131.66 218.74 132.36 219.98 132.89 219.8"/><polygon points="133.94 221.66 133.24 220.42 132.71 220.6 133.41 221.84 133.94 221.66"/><polygon points="134.98 223.52 134.28 222.28 133.75 222.46 134.45 223.7 134.98 223.52"/><polygon points="136.03 225.38 135.33 224.15 134.8 224.32 135.5 225.56 136.03 225.38"/><polygon points="137.08 227.25 136.38 226 135.85 226.18 136.55 227.42 137.08 227.25"/><polygon points="138.12 229.11 137.43 227.87 136.9 228.04 137.59 229.28 138.12 229.11"/><polygon points="139.17 230.97 138.47 229.73 137.94 229.9 138.64 231.14 139.17 230.97"/><polygon points="140.22 232.83 139.52 231.59 138.99 231.76 139.69 233 140.22 232.83"/><polygon points="141 221.58 142.47 217.39 143.51 217.54 142.03 221.73 141 221.58"/><polygon points="160.8 220.8 159.16 220.56 157.94 224.05 156.9 223.9 158.13 220.41 156.49 220.17 156.75 219.44 161.06 220.07 160.8 220.8"/><polygon points="153.81 219.78 153.47 220.74 155.91 221.09 155.65 221.83 153.22 221.47 152.84 222.53 155.47 222.92 155.21 223.65 151.56 223.12 150.24 222.93 149.01 220.85 148.56 221.07 148.02 222.6 146.97 222.45 148.46 218.23 149.5 218.38 148.93 220.01 151.58 218.69 153.01 218.89 149.94 220.39 151.55 223.09 153.03 218.9 156.65 219.42 156.39 220.16 153.81 219.78"/><path d="M147,219.05a1.84,1.84,0,0,0-.5-.31,2.29,2.29,0,0,0-.56-.15,1.88,1.88,0,0,0-.58,0,1.12,1.12,0,0,0-.44.17,1.53,1.53,0,0,0-.36.32,1.41,1.41,0,0,0-.25.47l-.17.49a1.08,1.08,0,0,0,0,1,1.12,1.12,0,0,0,.81.4,2.06,2.06,0,0,0,.74,0,2.88,2.88,0,0,0,.61-.17l.27-.11.4.7-.23.1a4.25,4.25,0,0,1-.89.25,3.87,3.87,0,0,1-1.17,0,2,2,0,0,1-1.52-.78,1.65,1.65,0,0,1-.07-1.5l.16-.47a2.31,2.31,0,0,1,1.07-1.31,2.86,2.86,0,0,1,1.84-.28,3.74,3.74,0,0,1,.95.25,2.61,2.61,0,0,1,.69.43l.15.15-.76.54Z"/><polygon points="140.41 217.86 139.19 221.31 138.16 221.16 139.38 217.71 137.76 217.47 138.01 216.74 142.29 217.36 142.03 218.09 140.41 217.86"/><path d="M131.46,214.33c-.43,0-1.73,0-5.68-6.71a17.22,17.22,0,0,1-1.77-6.13,10.65,10.65,0,0,0-.21-1.17l-.19-.43,9.21-4.74.24.39a2.88,2.88,0,0,0,.58.44,11.23,11.23,0,0,1,4.45,5.51c2.85,6.62,2.79,8.31,1.81,8.81a.87.87,0,0,1-.46.11,2.33,2.33,0,0,1-1.39-.66q.12,1.45-.63,1.83a.9.9,0,0,1-.46.11,2.82,2.82,0,0,1-1.76-1c.19,1.25,0,2-.57,2.32a1,1,0,0,1-.47.11,2.74,2.74,0,0,1-1.64-.88c.11,1.05-.09,1.71-.61,2a1,1,0,0,1-.45.1Z" style="fill:url(#a)"/><path d="M132.64,195.81c.43.7,3,1.21,5,5.87,1.79,4.17,3,7.69,2.05,8.18a.47.47,0,0,1-.24,0c-.51,0-1.3-.63-2.19-1.7.42,1.57.43,2.68-.06,2.93a.59.59,0,0,1-.23.05c-.62,0-1.64-.93-2.76-2.44.65,2,.78,3.53.2,3.83a.6.6,0,0,1-.24,0c-.57,0-1.49-.8-2.51-2.11.5,1.74.55,3,0,3.26a.42.42,0,0,1-.22.05c-1,0-3.11-2.84-5.25-6.47-1.59-2.71-1.65-6.52-1.95-7.24l8.38-4.31m.36-1.31-.82.42-8.38,4.31-.83.43.37.86c0,.12.11.63.17,1a17.71,17.71,0,0,0,1.84,6.3c4.09,7,5.45,7,6.11,7a1.45,1.45,0,0,0,.68-.16,1.72,1.72,0,0,0,.88-1.4,2.16,2.16,0,0,0,1.14.36,1.53,1.53,0,0,0,.7-.16,1.83,1.83,0,0,0,.91-1.67,2,2,0,0,0,1.19.39,1.46,1.46,0,0,0,.69-.16,1.73,1.73,0,0,0,.88-1.35,2,2,0,0,0,.91.23,1.46,1.46,0,0,0,.69-.16c1.29-.66,1.45-2.43-1.58-9.46a11.7,11.7,0,0,0-4.64-5.73c-.16-.11-.37-.25-.44-.31l-.47-.75Z"/></svg>