<svg width="117" height="75" viewBox="0 0 117 75" fill="none" xmlns="http://www.w3.org/2000/svg">
<path d="M91.5415 36.1668C91.6608 36.1668 91.8994 36.0378 92.0187 36.0378C92.3765 35.9089 92.7344 35.9089 93.2116 35.7799C93.3309 35.7799 93.4501 35.7798 93.6886 35.6509C94.2851 35.5219 94.7623 35.5219 95.3587 35.5219C95.9552 35.5219 96.5516 35.5219 97.1481 35.5219C97.2674 35.5219 97.506 35.5219 97.6253 35.5219C97.8639 35.5219 98.2217 35.5219 98.4602 35.6509C98.6988 35.6509 98.8181 35.6509 99.0567 35.7799C99.2953 35.7799 99.6532 35.9088 99.8918 35.9088C100.13 35.9088 100.25 35.9089 100.488 36.0378C100.727 36.0378 101.085 36.1668 101.323 36.2957C101.443 36.2957 101.681 36.4248 101.8 36.4248C102.158 36.5537 102.516 36.6827 102.874 36.8117C102.993 36.8117 102.993 36.8116 103.113 36.9406C103.59 37.0696 103.948 37.3276 104.425 37.4565C104.544 37.4565 104.663 37.5855 104.783 37.5855C105.021 37.7144 105.379 37.8435 105.618 37.9725C105.737 38.1014 105.976 38.1014 106.095 38.2303C106.333 38.3593 106.572 38.4883 106.811 38.6173C106.93 38.7463 107.168 38.8752 107.288 38.8752C107.526 39.0042 107.765 39.1332 108.003 39.3911C108.123 39.5201 108.242 39.6491 108.361 39.6491C108.719 39.907 108.958 40.165 109.316 40.4229C109.435 40.5519 109.554 40.5519 109.674 40.6809C110.031 41.0678 110.389 41.3257 110.747 41.7126C110.867 41.8416 110.986 41.9706 111.105 42.0995C111.224 42.2285 111.463 42.4865 111.582 42.6155C111.701 42.7444 111.821 42.8734 111.94 43.0024C112.059 43.1314 112.298 43.3893 112.417 43.6472C112.656 43.9052 112.894 44.2921 113.133 44.5501L101.204 26.6227C100.965 26.3648 100.846 26.1068 100.608 25.8489C100.608 25.8489 100.608 25.72 100.488 25.72C100.369 25.462 100.13 25.333 100.011 25.0751C99.8918 24.9461 99.7724 24.8171 99.6532 24.6881C99.5339 24.4302 99.2954 24.3012 99.1761 24.1723C99.0568 24.0433 98.9375 23.9143 98.8182 23.7853C98.4603 23.3984 98.1024 23.0114 97.7445 22.7535C97.6252 22.6245 97.506 22.6246 97.3867 22.4956C97.0289 22.2377 96.7902 21.9797 96.4324 21.7217C96.3131 21.7217 96.3131 21.5928 96.1938 21.5928C96.0746 21.5928 96.0745 21.4638 95.9552 21.4638C95.7166 21.3348 95.478 21.2059 95.2395 20.9479C95.1202 20.8189 94.8816 20.69 94.7623 20.69C94.5237 20.561 94.2851 20.432 94.0466 20.303C93.9273 20.1741 93.8079 20.1741 93.5694 20.0451C93.3308 19.9161 92.973 19.7871 92.7344 19.6582C92.6151 19.6582 92.4958 19.5292 92.3765 19.5292C92.0186 19.4002 91.5415 19.1423 91.0643 19.0133C90.945 19.0133 90.9451 19.0133 90.8258 18.8843C90.4679 18.7553 90.11 18.6264 89.7521 18.4974C89.6328 18.4974 89.3942 18.3684 89.2749 18.3684C89.0364 18.2395 88.6785 18.2395 88.44 18.1105C88.2014 18.1105 88.0821 17.9815 87.8435 17.9815C87.6049 17.9815 87.247 17.8525 87.0084 17.8525C86.7698 17.8525 86.6505 17.8525 86.4119 17.7236C86.1734 17.7236 85.8155 17.7235 85.577 17.5946C85.4577 17.5946 85.3383 17.5946 85.219 17.5946C85.0997 17.5946 85.0998 17.5946 84.9805 17.5946C84.3841 17.5946 83.7876 17.5946 83.1912 17.5946C82.714 17.5946 82.2367 17.7236 81.7596 17.7236C81.6403 17.7236 81.6404 17.7236 81.5211 17.7236C81.4018 17.7236 81.2824 17.7235 81.0439 17.8525C80.686 17.8525 80.3281 17.9815 79.851 18.1105C79.7317 18.1105 79.4931 18.2394 79.3738 18.2394C79.2545 18.2394 79.1353 18.2395 79.016 18.3684C78.8967 18.3684 78.7774 18.4974 78.6581 18.4974C78.0616 18.6264 77.5844 18.8843 76.988 19.0133H76.8687L73.4092 13.8544C73.1707 13.4674 72.9321 13.0805 72.5743 12.6936L72.455 12.5646C72.2164 12.3067 71.9779 12.0487 71.8586 11.7907C71.7393 11.5328 71.5007 11.4038 71.3814 11.1459C71.1428 10.8879 70.9042 10.63 70.6657 10.3721C70.5464 10.2431 70.427 9.9851 70.1885 9.85613C70.1885 9.85613 70.1885 9.85616 70.0692 9.72719C69.592 9.21129 68.9955 8.69538 68.5184 8.17949C68.3991 8.05052 68.2798 7.92156 68.0412 7.79258C67.564 7.40566 67.2062 7.14773 66.729 6.76081C66.6097 6.63184 66.4905 6.63182 66.4905 6.50285C66.3712 6.37387 66.2518 6.37386 66.2518 6.24488C65.894 5.98694 65.6555 5.85796 65.2976 5.60002C65.059 5.47104 64.8204 5.34208 64.7011 5.21311C64.3433 4.95516 63.9854 4.82619 63.6275 4.56824C63.3889 4.43927 63.2696 4.31031 63.031 4.18134C62.6732 3.92339 62.196 3.79442 61.8381 3.53647C61.7188 3.4075 61.4802 3.40748 61.3609 3.27851C60.7645 3.02056 60.168 2.76261 59.5716 2.63364C59.4523 2.63364 59.3331 2.5047 59.2138 2.5047C58.7366 2.37572 58.2594 2.11774 57.663 1.98877C57.4244 1.98877 57.1858 1.85983 56.9473 1.85983C56.5894 1.73085 56.1122 1.60186 55.7543 1.60186C55.5158 1.60186 55.2772 1.47284 55.0386 1.47284C54.6808 1.34387 54.2036 1.3439 53.8457 1.3439C53.6072 1.3439 53.2492 1.34393 53.0106 1.21496C52.6527 1.21496 52.1756 1.08594 51.8177 1.08594C51.6984 1.08594 51.5791 1.08594 51.3405 1.08594C51.1019 1.08594 50.8634 1.08594 50.7441 1.08594C50.6248 1.08594 50.3863 1.08594 50.267 1.08594C49.6706 1.08594 49.0741 1.08594 48.4777 1.08594C47.8812 1.08594 47.2848 1.21496 46.6883 1.21496C46.569 1.21496 46.5689 1.21496 46.4496 1.21496C46.3303 1.21496 46.2111 1.21496 46.0919 1.21496C45.734 1.21496 45.2568 1.3439 44.8989 1.3439C44.6604 1.3439 44.5411 1.47284 44.3025 1.47284C43.9446 1.60182 43.4675 1.60183 43.1096 1.73081C42.9903 1.73081 42.871 1.73085 42.7517 1.85983H42.6324C42.2745 1.9888 41.9166 1.98874 41.678 2.11771C41.4394 2.11771 41.3201 2.24673 41.0816 2.24673C40.7237 2.37571 40.2465 2.50466 39.8887 2.63364C39.7694 2.63364 39.6501 2.63361 39.6501 2.76258C39.173 2.89155 38.6957 3.1495 38.2186 3.40745C38.0993 3.40745 37.9801 3.53647 37.8608 3.53647C37.5029 3.66544 37.145 3.92334 36.7871 4.05232C36.6678 4.18129 36.5485 4.18131 36.3099 4.31028C35.9521 4.43925 35.7136 4.56826 35.3557 4.82621C35.1171 4.95518 34.9978 5.08414 34.7593 5.21311C34.5207 5.34208 34.1627 5.47109 33.9241 5.72904C33.9241 5.72904 33.8049 5.72901 33.8049 5.85798C33.6856 5.98695 33.5662 5.98697 33.4469 6.11594C33.2084 6.24492 32.8506 6.50282 32.612 6.63179C32.3734 6.76076 32.2541 6.8898 32.0155 7.01877C31.7769 7.14775 31.5384 7.40569 31.1805 7.66364C31.0613 7.66364 31.0612 7.79258 30.9419 7.79258C30.8226 7.92156 30.8226 7.92157 30.7034 8.05055C30.3455 8.30849 30.1068 8.56641 29.749 8.82436C29.6297 8.95333 29.5104 9.08229 29.2718 9.21126C28.9139 9.46921 28.5562 9.85619 28.1983 10.2431C28.079 10.2431 28.0789 10.3721 27.9596 10.3721C27.4825 10.888 27.0054 11.4039 26.5282 11.9198C26.4089 12.0487 26.2895 12.1777 26.1703 12.3067C25.6931 12.8226 25.3352 13.3385 24.9774 13.8544C24.9774 13.8544 24.9774 13.8543 24.8581 13.9833C24.3809 14.6282 23.9038 15.2731 23.4267 16.0469C23.3074 16.1759 23.3073 16.3049 23.188 16.4338C22.7108 17.0787 22.353 17.8525 21.9951 18.4974C21.8758 18.6264 21.8759 18.7553 21.7566 18.8843C21.3987 19.6581 21.0408 20.303 20.6829 21.0769C20.6829 21.2058 20.5637 21.3348 20.5637 21.3348C20.2058 22.1087 19.9672 22.8825 19.6093 23.6563C19.3707 24.4302 19.1322 25.333 18.8936 26.1069C18.8936 26.2358 18.7743 26.3648 18.7743 26.4938C18.5357 27.2676 18.4164 28.0415 18.1779 28.9443C18.1779 29.0733 18.1779 29.2022 18.0586 29.4601C17.9393 30.234 17.82 31.1368 17.7007 31.9107C17.7007 32.0396 17.7007 32.1686 17.7007 32.2976C17.5814 33.2004 17.5814 34.1032 17.5814 35.006C17.2235 35.006 16.8656 35.006 16.5078 35.006C16.1499 35.006 15.792 35.006 15.4341 35.135C15.3148 35.135 15.3149 35.135 15.1956 35.135C14.7184 35.135 14.3606 35.264 13.8834 35.393C13.7641 35.393 13.6448 35.3929 13.5255 35.5219C13.5255 35.5219 13.5255 35.5219 13.4062 35.5219C12.9291 35.6509 12.4519 35.7799 12.0941 35.9088C11.9748 35.9088 11.9747 35.9088 11.8554 35.9088C11.3782 36.0378 10.9011 36.2957 10.424 36.5537C10.3047 36.5537 10.1853 36.6827 10.066 36.8117C9.70817 36.9406 9.35039 37.1986 9.11181 37.3276C9.11181 37.3276 9.11169 37.3276 8.9924 37.3276C8.87311 37.4566 8.75391 37.4565 8.63462 37.5855C8.27675 37.8434 8.03811 37.9724 7.68024 38.2303C7.68024 38.2303 7.56098 38.2304 7.56098 38.3594C7.44168 38.4883 7.32245 38.4883 7.32245 38.6173C6.96458 38.8753 6.72594 39.1332 6.36807 39.3911C6.24878 39.5201 6.24884 39.5201 6.12955 39.6491C6.01026 39.6491 6.01014 39.7781 6.01014 39.9071C5.53298 40.423 5.05585 40.9388 4.69798 41.4547L4.57871 41.5837C4.34013 41.9706 4.10158 42.2285 3.863 42.6155C3.74371 42.7444 3.74362 42.8734 3.62433 43.0024C3.50504 43.2603 3.26658 43.5183 3.14729 43.9052C3.028 44.0342 3.02791 44.2922 2.90862 44.4211C2.78933 44.6791 2.67012 44.937 2.55083 45.1949C2.43154 45.3239 2.43146 45.5819 2.31217 45.7109C2.19288 45.9688 2.07367 46.2267 1.95438 46.6136C1.83509 46.8716 1.835 47.0005 1.71571 47.2585C1.59642 47.5164 1.59648 47.9034 1.47719 48.1613C1.47719 48.2903 1.35793 48.5483 1.35793 48.6772C1.23864 49.0642 1.23852 49.3221 1.23852 49.709C1.23852 49.838 1.23855 50.096 1.11926 50.2249C1.11926 50.7408 1 51.2567 1 51.7726C1 53.3203 1.23858 54.8679 1.59645 56.2866L13.5255 74.214C13.1676 72.7953 12.929 71.2476 12.929 69.6999C12.929 69.184 12.929 68.6681 13.0483 68.1522C13.0483 68.0233 13.0483 67.7654 13.1676 67.6364C13.1676 67.2495 13.287 66.9915 13.287 66.6045C13.287 66.3466 13.4062 66.2177 13.4062 66.0887C13.5255 65.8307 13.5255 65.4438 13.6448 65.1859C13.6448 64.9279 13.7641 64.7989 13.8834 64.541C14.0027 64.283 14.1219 64.0251 14.2412 63.6382C14.3605 63.5092 14.3606 63.2513 14.4799 63.1223C14.5992 62.8644 14.7184 62.6064 14.8377 62.3484C14.957 62.2195 14.957 61.9616 15.0763 61.8326C15.1956 61.5746 15.4341 61.3167 15.5534 60.9297C15.6727 60.8008 15.6728 60.6718 15.792 60.5428C16.0306 60.1559 16.2692 59.7689 16.5078 59.511L16.627 59.382C16.9849 58.8662 17.462 58.3502 17.9392 57.8344C18.0585 57.7054 18.1778 57.5764 18.2971 57.4474C18.5357 57.1895 18.8936 56.9316 19.2515 56.6736C19.3708 56.5447 19.49 56.4156 19.7285 56.2866C19.9671 56.0287 20.3251 55.8997 20.6829 55.6418C20.8022 55.5128 20.9215 55.3839 21.1601 55.3839C21.518 55.1259 21.7565 54.9969 22.1144 54.868C22.2336 54.739 22.353 54.739 22.4723 54.61C22.9494 54.3521 23.4265 54.2231 23.9037 53.9651C24.023 53.9651 24.0231 53.9652 24.1424 53.8362C24.6195 53.7072 24.9774 53.5783 25.4545 53.4493C25.5738 53.4493 25.6932 53.4492 25.9317 53.3203C26.4089 53.1913 26.7667 53.1913 27.2439 53.0623C27.6018 53.0623 28.0789 52.9334 28.4368 52.9334C28.7947 52.9334 29.1526 52.9334 29.5104 52.9334C29.5104 52.0306 29.6297 51.1278 29.6297 50.2249C29.6297 50.096 29.6297 49.9669 29.6297 49.838C29.749 49.0641 29.8683 48.1614 29.9876 47.3875C29.9876 47.2585 29.9876 47.1295 30.1069 46.8716C30.2262 46.0977 30.4648 45.195 30.7034 44.4211C30.7034 44.2922 30.8226 44.1631 30.8226 44.0342C31.0612 43.2603 31.2997 42.3575 31.5383 41.5837C31.7769 40.8099 32.1348 40.036 32.4927 39.2622C32.4927 39.1332 32.612 39.0042 32.612 39.0042C32.9698 38.2304 33.3277 37.5855 33.6856 36.8117C33.8049 36.6827 33.8048 36.5537 33.9241 36.4248C34.282 35.7799 34.7592 35.006 35.117 34.3611C35.2363 34.2322 35.2364 34.1032 35.3557 33.9742C35.8329 33.3294 36.31 32.5555 36.7871 31.9107C36.7871 31.9107 36.7871 31.7817 36.9064 31.7817C37.2643 31.2658 37.7414 30.7499 38.0993 30.234C38.2186 30.1051 38.3379 29.976 38.4572 29.847C38.9344 29.3312 39.4115 28.8153 39.8887 28.2994C40.0079 28.1705 40.008 28.1704 40.1273 28.0415C40.4852 27.6545 40.843 27.3966 41.2008 27.0097C41.3201 26.8807 41.4394 26.7517 41.678 26.6227C42.0359 26.3648 42.2745 26.1068 42.6324 25.8489C42.7517 25.7199 42.9903 25.591 43.1096 25.462C43.3482 25.204 43.5867 25.0751 43.9446 24.8171C44.1831 24.6881 44.3024 24.5592 44.541 24.4302C44.7796 24.1723 45.1374 24.0433 45.376 23.9143C45.4953 23.7853 45.7339 23.6564 45.8532 23.5274C46.0918 23.3984 46.3304 23.1404 46.6883 23.0115C46.9269 22.8825 47.0462 22.7535 47.2848 22.6246C47.5233 22.4956 47.8811 22.2376 48.239 22.1086C48.3583 21.9797 48.5969 21.9797 48.7162 21.8507C49.0741 21.7218 49.432 21.4638 49.7898 21.3348C49.9091 21.3348 50.0283 21.2059 50.1476 21.2059C50.6248 20.9479 51.102 20.819 51.5792 20.561C51.6985 20.561 51.8177 20.432 51.8177 20.432C52.1756 20.303 52.6527 20.1741 53.0106 20.0451C53.2492 20.0451 53.3685 19.9161 53.6071 19.9161C53.9649 19.7872 54.3229 19.6582 54.5614 19.6582C54.8 19.6582 54.9193 19.5292 55.1579 19.5292C55.5158 19.4002 55.9929 19.4002 56.3508 19.2713C56.5894 19.2713 56.7087 19.1423 56.9473 19.1423C57.3051 19.0133 57.7823 19.0133 58.1402 19.0133C58.3787 19.0133 58.498 19.0133 58.7366 18.8843C59.3331 18.7553 59.9295 18.7553 60.526 18.7553C61.1224 18.7553 61.7189 18.7553 62.3153 18.7553C62.4346 18.7553 62.6732 18.7553 62.7925 18.7553C63.1504 18.7553 63.5081 18.7553 63.866 18.7553C64.2239 18.7553 64.701 18.7553 65.0589 18.8843C65.2975 18.8843 65.6555 18.8843 65.894 19.0133C66.2519 19.0133 66.7291 19.1423 67.0869 19.1423C67.3255 19.1423 67.5641 19.2713 67.8027 19.2713C68.1605 19.4002 68.6377 19.4002 68.9956 19.5292C69.2341 19.5292 69.4727 19.6582 69.7113 19.6582C70.1884 19.7871 70.6657 19.9161 71.2621 20.174C71.3814 20.174 71.5006 20.303 71.6199 20.303C72.2163 20.561 72.8128 20.69 73.4092 20.9479C73.5285 21.0769 73.7672 21.0769 73.8864 21.2059C74.2443 21.3349 74.7215 21.5928 75.0793 21.8507C75.3179 21.9797 75.5565 22.1087 75.6758 22.2376C76.0337 22.3666 76.3916 22.6246 76.7494 22.8825C76.988 23.0115 77.2266 23.1404 77.3459 23.2694C77.7038 23.5274 77.9424 23.6563 78.3003 23.9143C78.5389 24.0433 78.6581 24.1722 78.8967 24.3012C79.3739 24.6881 79.7317 24.946 80.2089 25.333C80.3282 25.4619 80.4475 25.591 80.6861 25.72C81.044 26.1069 81.4017 26.3648 81.7596 26.7517L88.3206 36.6827C88.5591 36.5537 88.7978 36.5537 89.0364 36.4248C89.6329 36.1668 90.1099 36.0378 90.7064 35.9088C91.1835 36.2957 91.3029 36.2958 91.5415 36.1668Z" fill="white" stroke="black" stroke-miterlimit="10" stroke-linecap="round" stroke-linejoin="round"/>
<path d="M59.623 18.2472C72.1868 17.4809 82.956 24.8886 87.3832 36.0002C89.537 35.1062 91.8104 34.5953 94.2036 34.4676C106.289 33.829 115.861 43.408 115.622 55.9245C115.622 60.0116 114.425 63.9709 112.511 67.4193L12.5983 73.0389C12.2393 71.634 12 70.1014 12 68.5687C12.1197 59.7561 19.0596 52.3484 27.4355 51.8375C27.7945 51.8375 28.1535 51.8375 28.5124 51.8375C28.9911 34.2122 42.8711 19.269 59.623 18.2472Z" fill="white" stroke="black" stroke-miterlimit="10" stroke-linecap="round" stroke-linejoin="round"/>
</svg>
