<svg width="69" height="46" viewBox="0 0 69 46" fill="none" xmlns="http://www.w3.org/2000/svg">
<path d="M54.0762 22.1407C54.1461 22.1407 54.286 22.0645 54.3559 22.0645C54.5657 21.9883 54.7755 21.9883 55.0552 21.9121C55.1251 21.9121 55.195 21.9121 55.3349 21.8359C55.6845 21.7597 55.9642 21.7597 56.3139 21.7597C56.6635 21.7597 57.0132 21.7597 57.3628 21.7597C57.4328 21.7597 57.5726 21.7597 57.6426 21.7597C57.7824 21.7597 57.9922 21.7597 58.132 21.8359C58.2719 21.8359 58.3418 21.8359 58.4817 21.9121C58.6215 21.9121 58.8314 21.9883 58.9712 21.9883C59.1111 21.9883 59.181 21.9883 59.3209 22.0645C59.4607 22.0645 59.6705 22.1407 59.8103 22.2169C59.8803 22.2169 60.0201 22.2931 60.0901 22.2931C60.2999 22.3693 60.5097 22.4455 60.7195 22.5217C60.7894 22.5217 60.7893 22.5217 60.8593 22.5979C61.139 22.6741 61.3488 22.8265 61.6285 22.9027C61.6984 22.9027 61.7684 22.9789 61.8383 22.9789C61.9782 23.0551 62.1879 23.1313 62.3278 23.2075C62.3977 23.2837 62.5376 23.2837 62.6075 23.3599C62.7474 23.4361 62.8872 23.5123 63.0271 23.5885C63.097 23.6647 63.2369 23.7409 63.3068 23.7409C63.4467 23.8171 63.5865 23.8933 63.7264 24.0457C63.7963 24.1219 63.8662 24.1981 63.9362 24.1981C64.146 24.3505 64.2859 24.5029 64.4956 24.6553C64.5656 24.7315 64.6354 24.7315 64.7054 24.8077C64.9152 25.0363 65.125 25.1887 65.3348 25.4173C65.4047 25.4935 65.4746 25.5697 65.5446 25.6459C65.6145 25.7221 65.7543 25.8745 65.8242 25.9507C65.8941 26.0269 65.9641 26.1031 66.034 26.1793C66.104 26.2555 66.2439 26.4079 66.3138 26.5603C66.4536 26.7127 66.5935 26.9413 66.7333 27.0937L59.7404 16.5018C59.6006 16.3494 59.5306 16.197 59.3908 16.0446C59.3908 16.0446 59.3908 15.9684 59.3209 15.9684C59.2509 15.816 59.1111 15.7398 59.0411 15.5874C58.9712 15.5112 58.9012 15.435 58.8313 15.3588C58.7614 15.2064 58.6216 15.1302 58.5517 15.054C58.4817 14.9778 58.4118 14.9016 58.3418 14.8254C58.1321 14.5968 57.9223 14.3682 57.7125 14.2158C57.6425 14.1396 57.5727 14.1396 57.5027 14.0634C57.2929 13.911 57.1531 13.7586 56.9433 13.6062C56.8733 13.6062 56.8734 13.53 56.8034 13.53C56.7335 13.53 56.7335 13.4538 56.6635 13.4538C56.5237 13.3776 56.3838 13.3014 56.244 13.149C56.174 13.0728 56.0342 12.9966 55.9642 12.9966C55.8244 12.9204 55.6845 12.8442 55.5447 12.768C55.4748 12.6918 55.4048 12.6918 55.2649 12.6156C55.1251 12.5394 54.9153 12.4632 54.7755 12.387C54.7056 12.387 54.6356 12.3108 54.5657 12.3108C54.3559 12.2346 54.0762 12.0822 53.7965 12.006C53.7265 12.006 53.7266 12.006 53.6566 11.9298C53.4468 11.8536 53.237 11.7774 53.0273 11.7012C52.9573 11.7012 52.8174 11.625 52.7475 11.625C52.6077 11.5488 52.3979 11.5488 52.258 11.4726C52.1182 11.4726 52.0483 11.3964 51.9084 11.3964C51.7685 11.3964 51.5587 11.3202 51.4188 11.3202C51.279 11.3202 51.2091 11.3202 51.0692 11.244C50.9293 11.244 50.7196 11.244 50.5797 11.1678C50.5098 11.1678 50.4398 11.1678 50.3699 11.1678C50.3 11.1678 50.3 11.1678 50.2301 11.1678C49.8804 11.1678 49.5308 11.1678 49.1812 11.1678C48.9014 11.1678 48.6217 11.244 48.342 11.244C48.272 11.244 48.2721 11.244 48.2021 11.244C48.1322 11.244 48.0623 11.244 47.9224 11.3202C47.7126 11.3202 47.5028 11.3964 47.2231 11.4726C47.1532 11.4726 47.0133 11.5488 46.9434 11.5488C46.8734 11.5488 46.8036 11.5488 46.7336 11.625C46.6637 11.625 46.5937 11.7012 46.5238 11.7012C46.1742 11.7774 45.8944 11.9298 45.5448 12.006H45.4749L43.4469 8.95796C43.3071 8.72936 43.1672 8.50074 42.9574 8.27214L42.8875 8.19595C42.7477 8.04355 42.6078 7.89112 42.5379 7.73872C42.468 7.58632 42.3281 7.51012 42.2582 7.35772C42.1183 7.20532 41.9785 7.05293 41.8386 6.90053C41.7687 6.82433 41.6987 6.67191 41.5589 6.59571C41.5589 6.59571 41.5589 6.59573 41.489 6.51953C41.2092 6.21472 40.8596 5.90991 40.5798 5.60511C40.5099 5.52891 40.44 5.45271 40.3001 5.37651C40.0204 5.14791 39.8106 4.99552 39.5309 4.76692C39.461 4.69072 39.3911 4.69071 39.3911 4.61451C39.3212 4.53831 39.2512 4.5383 39.2512 4.4621C39.0414 4.30969 38.9016 4.23349 38.6918 4.08109C38.5519 4.00489 38.4121 3.9287 38.3421 3.8525C38.1324 3.7001 37.9226 3.6239 37.7128 3.47149C37.5729 3.39529 37.503 3.3191 37.3631 3.2429C37.1533 3.0905 36.8736 3.0143 36.6638 2.8619C36.5939 2.7857 36.454 2.78569 36.3841 2.70949C36.0345 2.55708 35.6848 2.40468 35.3352 2.32848C35.2652 2.32848 35.1954 2.2523 35.1254 2.2523C34.8457 2.1761 34.566 2.02368 34.2163 1.94748C34.0765 1.94748 33.9366 1.8713 33.7968 1.8713C33.587 1.79509 33.3073 1.71888 33.0975 1.71888C32.9576 1.71888 32.8178 1.64266 32.6779 1.64266C32.4681 1.56645 32.1884 1.56647 31.9786 1.56647C31.8388 1.56647 31.6289 1.56649 31.4891 1.49029C31.2793 1.49029 30.9996 1.41406 30.7898 1.41406C30.7198 1.41406 30.6499 1.41406 30.51 1.41406C30.3702 1.41406 30.2303 1.41406 30.1604 1.41406C30.0905 1.41406 29.9507 1.41406 29.8807 1.41406C29.5311 1.41406 29.1815 1.41406 28.8318 1.41406C28.4822 1.41406 28.1325 1.49029 27.7829 1.49029C27.7129 1.49029 27.7129 1.49029 27.643 1.49029C27.573 1.49029 27.5032 1.49029 27.4332 1.49029C27.2234 1.49029 26.9437 1.56647 26.7339 1.56647C26.5941 1.56647 26.5241 1.64266 26.3843 1.64266C26.1745 1.71886 25.8948 1.71887 25.685 1.79507C25.6151 1.79507 25.5451 1.79509 25.4752 1.8713H25.4053C25.1955 1.9475 24.9857 1.94746 24.8458 2.02366C24.7059 2.02366 24.636 2.09989 24.4962 2.09989C24.2864 2.17609 24.0067 2.25228 23.7969 2.32848C23.7269 2.32848 23.657 2.32846 23.657 2.40466C23.3773 2.48086 23.0976 2.63327 22.8178 2.78567C22.7479 2.78567 22.678 2.8619 22.6081 2.8619C22.3983 2.9381 22.1885 3.09047 21.9787 3.16667C21.9088 3.24287 21.8389 3.24288 21.699 3.31908C21.4892 3.39528 21.3494 3.4715 21.1396 3.6239C20.9998 3.70011 20.9298 3.7763 20.79 3.8525C20.6501 3.9287 20.4403 4.00492 20.3004 4.15732C20.3004 4.15732 20.2305 4.1573 20.2305 4.2335C20.1606 4.3097 20.0906 4.30971 20.0207 4.38591C19.8808 4.46211 19.6711 4.61449 19.5312 4.69069C19.3913 4.76689 19.3214 4.84313 19.1816 4.91933C19.0417 4.99553 18.9019 5.14793 18.6921 5.30033C18.6222 5.30033 18.6221 5.37651 18.5522 5.37651C18.4823 5.45271 18.4823 5.45272 18.4124 5.52892C18.2026 5.68133 18.0627 5.83371 17.8529 5.98611C17.783 6.06231 17.713 6.1385 17.5732 6.2147C17.3634 6.36711 17.1537 6.59575 16.9439 6.82435C16.8739 6.82435 16.8739 6.90053 16.804 6.90053C16.5242 7.20533 16.2446 7.51015 15.9648 7.81495C15.8949 7.89115 15.8249 7.96734 15.755 8.04354C15.4753 8.34835 15.2655 8.65316 15.0557 8.95796C15.0557 8.95796 15.0557 8.95794 14.9858 9.03414C14.7061 9.41515 14.4264 9.79618 14.1467 10.2534C14.0768 10.3296 14.0767 10.4058 14.0068 10.482C13.7271 10.863 13.5173 11.3202 13.3075 11.7012C13.2376 11.7774 13.2376 11.8536 13.1677 11.9298C12.9579 12.387 12.7481 12.768 12.5383 13.2252C12.5383 13.3014 12.4684 13.3776 12.4684 13.3776C12.2586 13.8348 12.1187 14.292 11.9089 14.7492C11.7691 15.2064 11.6292 15.7398 11.4894 16.197C11.4894 16.2732 11.4194 16.3494 11.4194 16.4256C11.2796 16.8828 11.2097 17.3401 11.0698 17.8735C11.0698 17.9497 11.0698 18.0258 10.9999 18.1782C10.93 18.6354 10.86 19.1689 10.7901 19.6261C10.7901 19.7023 10.7901 19.7785 10.7901 19.8547C10.7201 20.3881 10.7202 20.9215 10.7202 21.4549C10.5104 21.4549 10.3006 21.4549 10.0908 21.4549C9.88099 21.4549 9.67119 21.4549 9.4614 21.5311C9.39147 21.5311 9.39151 21.5311 9.32158 21.5311C9.04186 21.5311 8.83209 21.6073 8.55237 21.6835C8.48245 21.6835 8.41248 21.6835 8.34255 21.7597C8.34255 21.7597 8.34257 21.7597 8.27264 21.7597C7.99293 21.8359 7.71323 21.9121 7.50344 21.9883C7.43351 21.9883 7.43346 21.9883 7.36353 21.9883C7.08381 22.0645 6.80413 22.2169 6.52441 22.3693C6.45449 22.3693 6.38452 22.4455 6.31459 22.5217C6.10481 22.5979 5.89507 22.7503 5.75521 22.8265C5.75521 22.8265 5.75514 22.8265 5.68521 22.8265C5.61529 22.9027 5.54541 22.9027 5.47548 22.9789C5.26569 23.1313 5.1258 23.2075 4.91601 23.3599C4.91601 23.3599 4.8461 23.3599 4.8461 23.4361C4.77617 23.5123 4.70628 23.5123 4.70628 23.5885C4.49649 23.7409 4.3566 23.8933 4.14681 24.0457C4.07688 24.1219 4.07691 24.1219 4.00698 24.1981C3.93706 24.1981 3.93699 24.2743 3.93699 24.3505C3.65727 24.6553 3.37757 24.9601 3.16778 25.2649L3.09787 25.3411C2.95801 25.5697 2.81817 25.7221 2.67832 25.9507C2.60839 26.0269 2.60833 26.1031 2.53841 26.1793C2.46848 26.3317 2.32869 26.4841 2.25876 26.7127C2.18883 26.7889 2.18878 26.9414 2.11885 27.0176C2.04892 27.17 1.97904 27.3223 1.90911 27.4748C1.83918 27.551 1.83913 27.7034 1.7692 27.7796C1.69927 27.932 1.6294 28.0843 1.55947 28.3129C1.48954 28.4653 1.48949 28.5415 1.41956 28.6939C1.34963 28.8463 1.34966 29.075 1.27973 29.2274C1.27973 29.3036 1.20982 29.456 1.20982 29.5322C1.13989 29.7608 1.13982 29.9132 1.13982 30.1418C1.13982 30.218 1.13984 30.3704 1.06991 30.4466C1.06991 30.7514 1 31.0562 1 31.361C1 32.2754 1.13986 33.1898 1.34965 34.028L8.34255 44.6199C8.13277 43.7817 7.99291 42.8673 7.99291 41.9529C7.99291 41.6481 7.99289 41.3433 8.06282 41.0385C8.06282 40.9623 8.0628 40.8099 8.13273 40.7337C8.13273 40.5051 8.20273 40.3527 8.20273 40.1241C8.20273 39.9717 8.27264 39.8955 8.27264 39.8193C8.34257 39.6669 8.34254 39.4383 8.41247 39.2859C8.41247 39.1335 8.48245 39.0573 8.55237 38.9049C8.6223 38.7525 8.69218 38.6001 8.76211 38.3715C8.83204 38.2953 8.83209 38.1429 8.90202 38.0667C8.97195 37.9143 9.04183 37.7618 9.11176 37.6094C9.18169 37.5332 9.18174 37.3809 9.25167 37.3047C9.3216 37.1523 9.46138 36.9999 9.53131 36.7713C9.60124 36.6951 9.60129 36.6189 9.67122 36.5427C9.81108 36.3141 9.95092 36.0854 10.0908 35.933L10.1607 35.8568C10.3705 35.552 10.6502 35.2472 10.9299 34.9424C10.9998 34.8662 11.0698 34.79 11.1397 34.7138C11.2796 34.5614 11.4894 34.409 11.6992 34.2566C11.7691 34.1804 11.839 34.1042 11.9788 34.028C12.1187 33.8756 12.3285 33.7994 12.5383 33.647C12.6082 33.5708 12.6782 33.4946 12.818 33.4946C13.0278 33.3422 13.1676 33.266 13.3774 33.1898C13.4473 33.1136 13.5173 33.1136 13.5872 33.0374C13.867 32.885 14.1466 32.8088 14.4263 32.6564C14.4963 32.6564 14.4963 32.6564 14.5663 32.5802C14.846 32.504 15.0557 32.4278 15.3355 32.3516C15.4054 32.3516 15.4753 32.3516 15.6152 32.2754C15.8949 32.1992 16.1047 32.1992 16.3844 32.123C16.5942 32.123 16.8739 32.0468 17.0837 32.0468C17.2935 32.0468 17.5033 32.0468 17.7131 32.0468C17.7131 31.5134 17.783 30.98 17.783 30.4466C17.783 30.3704 17.783 30.2942 17.783 30.218C17.8529 29.7608 17.9229 29.2274 17.9928 28.7702C17.9928 28.694 17.9928 28.6178 18.0627 28.4654C18.1326 28.0081 18.2725 27.4748 18.4124 27.0176C18.4124 26.9414 18.4823 26.8651 18.4823 26.7889C18.6221 26.3317 18.762 25.7983 18.9018 25.3411C19.0417 24.8839 19.2515 24.4267 19.4613 23.9695C19.4613 23.8933 19.5312 23.8171 19.5312 23.8171C19.741 23.3599 19.9508 22.9789 20.1606 22.5217C20.2305 22.4455 20.2305 22.3693 20.3004 22.2931C20.5102 21.9121 20.7899 21.4549 20.9997 21.0739C21.0696 20.9977 21.0697 20.9215 21.1396 20.8453C21.4193 20.4643 21.699 20.0071 21.9787 19.6261C21.9787 19.6261 21.9787 19.5498 22.0486 19.5498C22.2584 19.245 22.5381 18.9403 22.7479 18.6355C22.8179 18.5593 22.8878 18.483 22.9577 18.4068C23.2375 18.102 23.5171 17.7973 23.7969 17.4925C23.8668 17.4163 23.8668 17.4163 23.9368 17.3401C24.1466 17.1114 24.3563 16.9591 24.5661 16.7305C24.636 16.6543 24.7059 16.578 24.8458 16.5018C25.0556 16.3494 25.1955 16.197 25.4053 16.0446C25.4752 15.9684 25.6151 15.8922 25.685 15.816C25.8249 15.6636 25.9647 15.5874 26.1745 15.435C26.3143 15.3588 26.3843 15.2826 26.5241 15.2064C26.664 15.054 26.8737 14.9778 27.0136 14.9016C27.0835 14.8254 27.2234 14.7492 27.2933 14.673C27.4332 14.5968 27.5731 14.4444 27.7829 14.3682C27.9227 14.292 27.9927 14.2158 28.1325 14.1396C28.2724 14.0634 28.4821 13.911 28.6919 13.8348C28.7618 13.7586 28.9017 13.7586 28.9716 13.6824C29.1814 13.6062 29.3912 13.4538 29.601 13.3776C29.6709 13.3776 29.7408 13.3014 29.8107 13.3014C30.0905 13.149 30.3702 13.0728 30.6499 12.9204C30.7199 12.9204 30.7898 12.8442 30.7898 12.8442C30.9996 12.768 31.2793 12.6918 31.4891 12.6156C31.6289 12.6156 31.6988 12.5394 31.8387 12.5394C32.0485 12.4632 32.2583 12.387 32.3982 12.387C32.538 12.387 32.608 12.3108 32.7478 12.3108C32.9576 12.2346 33.2373 12.2346 33.4471 12.1584C33.587 12.1584 33.6569 12.0822 33.7968 12.0822C34.0065 12.006 34.2863 12.006 34.496 12.006C34.6359 12.006 34.7058 12.006 34.8457 11.9298C35.1953 11.8536 35.545 11.8536 35.8946 11.8536C36.2443 11.8536 36.5939 11.8536 36.9436 11.8536C37.0135 11.8536 37.1534 11.8536 37.2233 11.8536C37.4331 11.8536 37.6428 11.8536 37.8526 11.8536C38.0624 11.8536 38.3421 11.8536 38.5519 11.9298C38.6917 11.9298 38.9016 11.9298 39.0414 12.006C39.2512 12.006 39.5309 12.0822 39.7407 12.0822C39.8806 12.0822 40.0204 12.1584 40.1603 12.1584C40.3701 12.2346 40.6498 12.2346 40.8596 12.3108C40.9994 12.3108 41.1393 12.387 41.2791 12.387C41.5588 12.4632 41.8386 12.5394 42.1882 12.6918C42.2582 12.6918 42.3281 12.768 42.398 12.768C42.7476 12.9204 43.0973 12.9966 43.4469 13.149C43.5168 13.2252 43.6567 13.2252 43.7267 13.3014C43.9364 13.3776 44.2162 13.53 44.4259 13.6824C44.5658 13.7586 44.7057 13.8348 44.7756 13.911C44.9854 13.9872 45.1952 14.1396 45.405 14.292C45.5448 14.3682 45.6847 14.4444 45.7546 14.5206C45.9644 14.673 46.1043 14.7492 46.3141 14.9016C46.4539 14.9778 46.5239 15.054 46.6637 15.1302C46.9434 15.3588 47.1532 15.5112 47.4329 15.7398C47.5029 15.816 47.5728 15.8922 47.7127 15.9684C47.9224 16.197 48.1322 16.3494 48.342 16.578L52.1881 22.4455C52.3279 22.3693 52.4678 22.3693 52.6077 22.2931C52.9573 22.1407 53.237 22.0645 53.5866 21.9883C53.8664 22.2169 53.9363 22.2169 54.0762 22.1407Z" fill="white" stroke="black" stroke-miterlimit="10" stroke-linecap="round" stroke-linejoin="round"/>
<path d="M34.917 11.1932C42.282 10.7405 48.595 15.1171 51.1903 21.6822C52.4529 21.1539 53.7855 20.8521 55.1884 20.7766C62.2729 20.3993 67.8844 26.0589 67.7441 33.4539C67.7441 35.8687 67.0427 38.2079 65.9204 40.2453L7.35072 43.5656C7.14029 42.7355 7 41.83 7 40.9245C7.07014 35.7177 11.1384 31.3411 16.0484 31.0392C16.2588 31.0392 16.4693 31.0392 16.6797 31.0392C16.9603 20.6257 25.0969 11.7969 34.917 11.1932Z" fill="white" stroke="black" stroke-miterlimit="10" stroke-linecap="round" stroke-linejoin="round"/>
</svg>
