<svg width="180" height="104" viewBox="0 0 180 104" fill="none" xmlns="http://www.w3.org/2000/svg">
<path d="M154.549 37.7292C154.311 37.2641 154.073 37.0316 153.597 36.5666C153.597 36.5666 153.597 36.5665 153.359 36.334C153.121 36.1015 152.883 35.8691 152.645 35.4041C152.407 35.1716 152.169 34.9389 152.169 34.7064C151.931 34.4739 151.693 34.2414 151.455 34.0089C151.216 33.7764 151.217 33.7764 150.979 33.5439C150.502 33.0789 149.788 32.6139 149.312 32.1489C149.074 31.9164 149.074 31.9163 148.836 31.6838C148.36 31.2188 147.884 30.9864 147.408 30.7539L147.17 30.5213L146.931 30.2888C146.693 30.0563 146.217 29.8238 145.979 29.5913C145.741 29.3588 145.503 29.3588 145.265 29.1263C144.789 28.8938 144.551 28.6613 144.075 28.4288C143.837 28.1963 143.598 28.1962 143.36 27.9637C142.884 27.7312 142.408 27.4987 141.932 27.2662C141.694 27.2662 141.456 27.0336 141.456 27.0336C140.742 26.8011 140.266 26.5686 139.551 26.3361C139.313 26.3361 139.314 26.3361 139.075 26.3361C138.599 26.1036 137.885 26.1036 137.409 25.8711C137.171 25.8711 136.933 25.8711 136.695 25.6386C136.219 25.6386 135.743 25.406 135.267 25.406C135.029 25.406 134.79 25.4061 134.314 25.1736C133.838 25.1736 133.362 24.9411 133.124 24.9411C132.886 24.9411 132.41 24.9411 132.172 24.9411C131.696 24.9411 131.219 24.9411 130.981 24.9411C130.743 24.9411 130.743 24.9411 130.505 24.9411H130.267C129.315 24.9411 128.363 24.9411 127.41 24.9411C126.696 24.9411 125.982 24.9411 125.268 25.1736H125.03C124.792 25.1736 124.554 25.1736 124.316 25.1736C123.601 25.1736 123.125 25.406 122.649 25.406C122.411 25.406 122.173 25.4061 121.935 25.6386C121.697 25.6386 121.459 25.6386 121.459 25.6386C121.221 25.6386 121.221 25.6386 120.983 25.8711C120.031 26.1036 119.316 26.3361 118.364 26.5686H118.126L112.889 19.3608C112.413 18.8958 112.175 18.1982 111.698 17.7332L111.46 17.5008C111.222 17.0357 110.746 16.8032 110.508 16.3382C110.27 16.1057 110.032 15.6406 109.794 15.4081C109.318 14.9431 109.08 14.7106 108.604 14.2456C108.365 14.0131 108.128 13.7806 107.89 13.5481C107.175 12.8505 106.223 12.153 105.509 11.4554C105.271 11.2229 105.033 11.223 104.795 10.9905C104.08 10.5255 103.366 10.0604 102.89 9.59537C102.652 9.59537 102.652 9.36292 102.414 9.36292C102.176 9.36292 102.176 9.13032 101.938 9.13032C101.462 8.89781 100.986 8.43288 100.509 8.20037C100.271 7.96786 99.7954 7.73538 99.5574 7.50287C99.0813 7.27036 98.605 7.03779 97.8908 6.57277C97.6527 6.34026 97.1765 6.34023 96.9385 6.10772C96.2243 5.87521 95.7484 5.64279 95.0342 5.17776C94.7961 5.17776 94.5579 4.94517 94.3199 4.94517C93.3676 4.48015 92.4155 4.24773 91.4632 4.01521C91.2252 4.01521 91.225 4.01513 90.987 3.78262C90.2728 3.55011 89.3205 3.31763 88.6063 3.08512C88.3683 3.08512 87.8924 2.85266 87.6543 2.85266C86.9401 2.62015 86.4639 2.62013 85.7497 2.38762C85.2736 2.38762 85.0355 2.15502 84.5594 2.15502C83.8452 2.15502 83.369 1.92257 82.6548 1.92257C82.1787 1.92257 81.7026 1.92262 81.4645 1.69011C80.7503 1.69011 80.2744 1.69003 79.5602 1.45752C79.3221 1.45752 79.084 1.45752 78.8459 1.45752C78.6078 1.45752 78.1317 1.45752 77.8936 1.45752C77.6555 1.45752 77.4176 1.45752 77.1796 1.45752C76.2273 1.45752 75.2751 1.45752 74.561 1.45752C73.6087 1.45752 72.6563 1.69011 71.7041 1.69011H71.4661C71.228 1.69011 70.9898 1.69011 70.7518 1.69011C70.0376 1.69011 69.5616 1.92257 68.8474 1.92257C68.6094 1.92257 68.1332 1.92251 67.8951 2.15502C67.181 2.15502 66.7047 2.38756 65.9905 2.62007C65.7525 2.62007 65.5146 2.62015 65.2765 2.85266H65.0385C64.5624 3.08517 64.0861 3.08506 63.3719 3.31757C63.1339 3.31757 62.8957 3.55017 62.4196 3.55017C61.7054 3.78268 60.9914 4.01516 60.5153 4.24767C60.2772 4.24767 60.2771 4.24761 60.039 4.48012C59.3248 4.71263 58.6106 4.9452 57.6584 5.41022C57.4203 5.41022 57.1824 5.64267 57.1824 5.64267C56.7063 5.87518 55.9922 6.10781 55.5161 6.34031C55.278 6.34031 55.0398 6.57277 54.8018 6.57277C54.3256 6.80528 53.8496 7.03776 53.3735 7.27027C53.1354 7.50278 52.8973 7.50281 52.4212 7.73532C51.945 7.96783 51.707 8.20031 51.2309 8.43282H50.9929C50.7548 8.66533 50.5166 8.66536 50.2785 8.89787C49.8024 9.13038 49.3263 9.36286 49.0882 9.59537C48.8502 9.82788 48.6121 10.0604 48.1359 10.0604C47.6598 10.2929 47.4218 10.5255 46.9456 10.9905C46.7076 10.9905 46.7077 11.223 46.4696 11.223C46.2316 11.223 46.2317 11.4554 45.9936 11.4554C45.5175 11.9204 45.0411 12.153 44.565 12.618C44.327 12.8505 44.0891 13.083 43.851 13.083C43.3749 13.548 42.6605 14.0131 42.1844 14.4782L41.9464 14.7106C41.2322 15.4081 40.518 16.1057 39.8038 16.8033C39.5657 17.0358 39.5659 17.2682 39.3278 17.2682C38.6136 17.9657 37.8993 18.6633 37.4232 19.3608C36.709 20.2909 35.9951 21.2209 35.2809 22.151C35.2809 22.3835 35.0426 22.3835 35.0426 22.616C34.3284 23.5461 33.8524 24.476 33.1383 25.406C33.1383 25.6385 32.9003 25.8711 32.9003 25.8711C32.4241 26.8011 31.7098 27.9636 31.2337 28.8937C31.2337 29.1262 30.9957 29.1262 30.9957 29.3587C30.5195 30.5213 30.0435 31.4514 29.5673 32.6139C29.0912 33.7765 28.8532 34.939 28.377 36.1016C28.377 36.3341 28.3771 36.3341 28.139 36.5666C27.901 37.7292 27.4248 38.8917 27.1867 40.0543C27.1867 40.2868 27.1868 40.5193 26.9487 40.7518C26.7107 41.9143 26.4724 43.0769 26.4724 44.2394C26.4724 44.4719 26.4724 44.7045 26.4724 44.7045C26.2344 45.867 26.2344 47.262 26.2344 48.4246C25.7583 48.4246 25.0442 48.4246 24.5681 48.4246C24.092 48.4246 23.6157 48.4245 22.9015 48.657C22.6635 48.657 22.6635 48.657 22.6635 48.657C21.9493 48.657 21.2351 48.8896 20.5209 49.1221C20.2828 49.1221 20.283 49.1221 20.0449 49.1221C20.0449 49.1221 20.045 49.1221 19.8069 49.1221C19.0927 49.3546 18.3785 49.5871 17.6643 49.8196H17.4263C16.7121 50.0521 15.9979 50.2847 15.2837 50.7497C15.0456 50.7497 14.8074 50.9821 14.8074 50.9821C14.3313 51.2146 13.8552 51.4473 13.3791 51.6798C13.141 51.6798 12.9031 51.9122 12.9031 52.1447C12.4269 52.3772 11.9509 52.8423 11.4748 53.0748C11.4748 53.0748 11.2365 53.0747 11.2365 53.3072C10.9984 53.3072 10.9985 53.5398 10.7605 53.7723C10.2843 54.2373 9.80826 54.4698 9.33214 54.9348L9.09414 55.1674L8.85584 55.3999C8.14166 56.0974 7.42771 56.795 6.71353 57.4925C6.71353 57.4925 6.71329 57.4925 6.47523 57.725C5.99911 58.19 5.76105 58.655 5.28493 59.3526C5.04687 59.5851 5.04698 59.8176 4.80892 60.0501C4.57086 60.5151 4.33268 60.7476 4.09462 61.2126C3.85656 61.4451 3.85668 61.6776 3.61861 61.9101C3.38055 62.3751 3.14261 62.6077 3.14261 63.0727C2.90455 63.3052 2.90432 63.5377 2.90432 63.7702C2.66625 64.2352 2.66637 64.4677 2.42831 64.9327C2.42831 65.1652 2.19031 65.3978 2.19031 65.8628C1.95224 66.3278 1.95207 66.7929 1.71401 67.0254C1.71401 67.2579 1.47601 67.4904 1.47601 67.7229C1.47601 68.1879 1.238 68.653 1.238 69.118C1.238 69.3505 1.238 69.583 1.238 69.8155C1.238 70.5131 1 71.2105 1 71.908C1 74.2331 1.23812 76.3257 1.9523 78.1858L20.2829 103.297C19.5687 101.204 19.3306 99.1118 19.3306 97.0192C19.3306 96.3217 19.3305 95.6241 19.5686 94.9266C19.5686 94.6941 19.5686 94.4616 19.5686 94.2291C19.5686 93.7641 19.8069 93.299 19.8069 92.8339C19.8069 92.6014 20.0449 92.3689 20.0449 92.1364C20.0449 91.6714 20.2828 91.2064 20.5209 90.9739C20.5209 90.7414 20.7589 90.5089 20.7589 90.0439C20.997 89.5789 20.9971 89.3464 21.2352 88.8814C21.2352 88.6489 21.4732 88.4162 21.4732 88.1837C21.7113 87.7187 21.9492 87.4862 21.9492 87.0212C22.1873 86.7887 22.1874 86.5562 22.4255 86.3237C22.6636 85.8587 22.9015 85.6261 23.1395 85.1611C23.3776 84.9286 23.3778 84.6961 23.6158 84.4636C24.0919 83.9986 24.33 83.5336 24.8061 82.836C24.8061 82.836 24.8061 82.8361 25.0441 82.6036C25.7583 81.906 26.4725 81.2085 27.1867 80.5109C27.4248 80.2784 27.6627 80.0459 27.9007 80.0459C28.3769 79.5809 28.8532 79.3484 29.3293 78.8833C29.5674 78.6508 29.8053 78.6509 30.0433 78.4184C30.5195 78.1859 30.9955 77.7208 31.4717 77.4883C31.7097 77.2558 31.9479 77.2558 32.186 77.0233C32.6621 76.7908 33.1381 76.5583 33.6143 76.3258C33.8523 76.3258 34.0905 76.0933 34.3286 76.0933C35.0428 75.8608 35.757 75.3957 36.4712 75.1632H36.7092C37.4234 74.9307 38.1376 74.6982 38.8518 74.4657C39.0898 74.4657 39.3277 74.4656 39.5658 74.2331C40.28 74.0006 40.9942 74.0007 41.7084 73.7682C42.4226 73.7682 42.8988 73.5356 43.613 73.5356C44.0891 73.5356 44.8032 73.5356 45.2793 73.5356C45.2793 72.3731 45.2793 70.9781 45.5173 69.8155C45.5173 69.583 45.5173 69.3505 45.5173 69.3505C45.7554 68.1879 45.7556 67.0254 45.9936 65.8628C45.9936 65.6303 45.9936 65.3978 46.2316 65.1653C46.4697 64.0028 46.7078 62.8402 47.1839 61.6777C47.1839 61.4452 47.1839 61.4451 47.4219 61.2126C47.66 60.0501 48.1361 58.8875 48.6122 57.725C49.0884 56.5624 49.5644 55.3998 50.0405 54.4698C50.0405 54.2373 50.2785 54.2374 50.2785 54.0049C50.7547 53.0748 51.469 51.9122 51.9452 50.9821C51.9452 50.7496 52.1832 50.5172 52.1832 50.5172C52.8973 49.5872 53.3733 48.6571 54.0875 47.7271C54.0875 47.4946 54.3258 47.4945 54.3258 47.262C55.0399 46.332 55.7539 45.4019 56.4681 44.4719C56.4681 44.4719 56.4683 44.4719 56.7064 44.2394C57.4206 43.5419 57.8965 42.8443 58.6107 42.1468C58.8488 41.9143 58.8489 41.6817 59.087 41.6817C59.8012 40.9842 60.5151 40.2868 61.2293 39.5892L61.4676 39.3566C61.9437 38.8916 62.6578 38.4266 63.1339 37.9616C63.372 37.7291 63.6101 37.4966 63.8482 37.4966C64.3243 37.0316 64.8004 36.799 65.2765 36.334C65.5146 36.1015 65.7525 35.869 65.9905 35.869C66.4667 35.6365 66.7047 35.404 67.1808 34.939C67.4189 34.7065 67.657 34.474 68.1331 34.474C68.6093 34.2415 69.0854 34.009 69.3234 33.7765C69.5615 33.544 69.7997 33.5439 70.0377 33.3114C70.5139 33.0789 70.7519 32.8464 71.2281 32.6139C71.4661 32.3814 71.7042 32.3814 72.1804 32.1489C72.6565 31.9164 73.1325 31.6839 73.6087 31.4514C73.8467 31.2189 74.0846 31.2188 74.3227 30.9863C74.7988 30.7538 75.5132 30.5213 75.9893 30.2888C76.2273 30.2888 76.4653 30.0562 76.4653 30.0562C77.1795 29.8237 77.8936 29.5913 78.8459 29.1263C79.084 29.1263 79.0841 29.1262 79.3222 28.8937C80.0364 28.6612 80.5123 28.4287 81.2265 28.1962C81.4646 28.1962 81.7027 27.9637 82.1788 27.9637C82.6549 27.7312 83.1309 27.7312 83.8451 27.4987C84.0832 27.4987 84.3213 27.2662 84.7974 27.2662C85.5116 27.0337 85.9878 27.0337 86.702 26.8012C86.9401 26.8012 87.4163 26.8011 87.6543 26.5686C88.3685 26.5686 88.8445 26.3361 89.5586 26.3361C89.7967 26.3361 90.2729 26.3361 90.5109 26.3361C91.4632 26.3361 92.4153 26.1037 93.3676 26.1037C94.3198 26.1037 95.2723 26.1037 95.9865 26.1037C96.2245 26.1037 96.4624 26.1037 96.7005 26.1037C97.1766 26.1037 97.891 26.1037 98.3671 26.1037C99.0813 26.1037 99.5572 26.1036 100.271 26.3361C100.748 26.3361 101.224 26.3361 101.462 26.5686C102.176 26.5686 102.652 26.8012 103.366 26.8012C103.842 26.8012 104.08 27.0336 104.557 27.0336C105.271 27.2661 105.747 27.2662 106.461 27.4987C106.699 27.4987 107.175 27.7311 107.413 27.7311C108.127 27.9636 109.08 28.1963 109.794 28.4288C110.032 28.4288 110.032 28.4287 110.27 28.6612C111.222 28.8937 112.175 29.3588 113.127 29.5913C113.365 29.5913 113.603 29.8238 113.841 29.8238C114.555 30.0563 115.031 30.2888 115.745 30.7539C115.983 30.9864 116.46 30.9863 116.698 31.2188C117.174 31.4513 117.65 31.6839 118.364 32.1489C118.602 32.3814 119.078 32.6139 119.316 32.8464C119.792 33.0789 120.268 33.544 120.745 33.7765C120.983 34.009 121.221 34.2415 121.697 34.474C122.411 34.939 123.125 35.404 123.602 35.869C123.84 36.1015 124.077 36.1015 124.316 36.334C124.792 36.799 125.506 37.2641 125.982 37.7292L136.219 51.6798C136.695 51.4473 136.933 51.4472 137.409 51.2147C138.361 50.9822 139.076 50.7497 140.028 50.5172C140.504 50.5172 140.742 50.2846 141.218 50.2846C141.456 50.2846 141.694 50.2847 141.932 50.0522C142.408 50.0522 143.123 49.8196 143.599 49.8196C143.837 49.8196 144.075 49.8196 144.313 49.8196C145.027 49.8196 145.979 49.5871 146.931 49.5871C147.884 49.5871 148.836 49.5871 149.788 49.5871C150.026 49.5871 150.264 49.5871 150.502 49.5871C150.978 49.5871 151.454 49.5871 151.693 49.5871C151.931 49.5871 152.407 49.5871 152.645 49.5871C153.121 49.5871 153.597 49.5871 153.835 49.8196C154.073 49.8196 154.311 49.8197 154.787 50.0522C155.264 50.0522 155.74 50.2846 156.216 50.2846C156.454 50.2846 156.692 50.2847 156.93 50.5172C157.406 50.7497 158.12 50.7496 158.596 50.9821C158.834 50.9821 158.835 50.9821 159.073 50.9821C159.787 51.2146 160.501 51.4473 160.977 51.6798C161.215 51.6798 161.453 51.9122 161.453 51.9122C161.929 52.1447 162.405 52.3772 162.882 52.6097C163.12 52.6097 163.358 52.8423 163.596 53.0748C164.072 53.3073 164.31 53.5398 164.786 53.7723C165.024 54.0048 165.262 54.0048 165.5 54.2373C165.738 54.4698 166.214 54.7023 166.453 54.9348C166.691 55.1673 166.928 55.1674 167.167 55.3999C167.643 55.6324 168.119 56.0975 168.595 56.33C168.833 56.5625 168.833 56.5624 169.071 56.7949C169.785 57.2599 170.261 57.725 170.737 58.19C170.976 58.4225 171.214 58.6551 171.214 58.6551C171.452 58.8876 171.69 59.1201 171.928 59.3526C172.166 59.5851 172.404 59.8176 172.404 60.0501C172.642 60.2826 172.88 60.5151 173.118 60.9802C173.356 61.4452 173.832 61.9102 174.07 62.3752L154.549 37.7292Z" fill="white"/>
<path d="M74.561 1.45752C75.2751 1.45752 76.2273 1.45752 77.1796 1.45752C77.4176 1.45752 77.6555 1.45752 77.8936 1.45752C78.1317 1.45752 78.6078 1.45752 78.8459 1.45752C79.084 1.45752 79.3221 1.45752 79.5602 1.45752C80.2744 1.69003 80.7503 1.69011 81.4645 1.69011C81.7026 1.92262 82.1787 1.92257 82.6548 1.92257C83.369 1.92257 83.8452 2.15502 84.5594 2.15502C85.0355 2.15502 85.2736 2.38762 85.7497 2.38762C86.4639 2.62013 86.9401 2.62015 87.6543 2.85266C87.8924 2.85266 88.3683 3.08512 88.6063 3.08512C89.3205 3.31763 90.2728 3.55011 90.987 3.78262C91.225 4.01513 91.2252 4.01521 91.4633 4.01521C92.4155 4.24772 93.3676 4.48015 94.3199 4.94517C94.5579 4.94517 94.7961 5.17776 95.0342 5.17776C95.7484 5.64279 96.2243 5.87521 96.9385 6.10772C97.1765 6.34023 97.6527 6.34026 97.8908 6.57277C98.605 7.03779 99.0813 7.27036 99.5574 7.50287C99.7955 7.73538 100.271 7.96786 100.509 8.20037C100.986 8.43288 101.462 8.89781 101.938 9.13032C102.176 9.13032 102.176 9.36292 102.414 9.36292C102.652 9.36292 102.652 9.59537 102.89 9.59537C103.366 10.0604 104.08 10.5255 104.795 10.9905C105.033 11.223 105.271 11.2229 105.509 11.4554C106.223 12.153 107.175 12.8505 107.89 13.5481C108.128 13.7806 108.365 14.0131 108.604 14.2456C109.08 14.7106 109.318 14.9431 109.794 15.4081C110.032 15.6406 110.27 16.1057 110.508 16.3382C110.746 16.8032 111.222 17.0357 111.46 17.5008L111.698 17.7332C112.175 18.1982 112.413 18.8958 112.889 19.3608L118.126 26.5686H118.364C119.316 26.3361 120.031 26.1036 120.983 25.8711C121.221 25.6386 121.221 25.6386 121.459 25.6386C121.459 25.6386 121.697 25.6386 121.935 25.6386C122.173 25.4061 122.411 25.406 122.649 25.406C123.125 25.406 123.601 25.1736 124.316 25.1736C124.554 25.1736 124.792 25.1736 125.03 25.1736H125.268C125.982 24.9411 126.696 24.9411 127.41 24.9411C128.363 24.9411 129.315 24.9411 130.267 24.9411H130.505C130.743 24.9411 130.743 24.9411 130.981 24.9411C131.219 24.9411 131.696 24.9411 132.172 24.9411C132.41 24.9411 132.886 24.9411 133.124 24.9411C133.362 24.9411 133.838 25.1736 134.314 25.1736C134.79 25.4061 135.029 25.406 135.267 25.406C135.743 25.406 136.219 25.6386 136.695 25.6386C136.933 25.8711 137.171 25.8711 137.409 25.8711C137.885 26.1036 138.599 26.1036 139.075 26.3361C139.314 26.3361 139.313 26.3361 139.551 26.3361C140.266 26.5686 140.742 26.8011 141.456 27.0336C141.456 27.0336 141.694 27.2662 141.932 27.2662C142.408 27.4987 142.884 27.7312 143.36 27.9637C143.598 28.1962 143.837 28.1963 144.075 28.4288C144.551 28.6613 144.789 28.8938 145.265 29.1263C145.503 29.3588 145.741 29.3588 145.979 29.5913C146.217 29.8238 146.693 30.0563 146.931 30.2888L147.17 30.5213L147.408 30.7539C147.884 30.9864 148.36 31.2188 148.836 31.6838C149.074 31.9163 149.074 31.9164 149.312 32.1489C149.788 32.6139 150.502 33.0789 150.979 33.5439C151.217 33.7764 151.216 33.7764 151.455 34.0089C151.693 34.2414 151.931 34.4739 152.169 34.7064C152.169 34.9389 152.407 35.1716 152.645 35.4041C152.883 35.8691 153.121 36.1015 153.359 36.334C153.597 36.5665 153.597 36.5666 153.597 36.5666C154.073 37.0316 154.311 37.2641 154.549 37.7292L174.07 62.3752C173.832 61.9102 173.356 61.4452 173.118 60.9802C172.88 60.5151 172.642 60.2826 172.404 60.0501C172.404 59.8176 172.166 59.5851 171.928 59.3526C171.69 59.1201 171.452 58.8876 171.214 58.6551C171.214 58.6551 170.976 58.4225 170.737 58.19C170.261 57.725 169.785 57.2599 169.071 56.7949C168.833 56.5624 168.833 56.5625 168.595 56.33C168.119 56.0975 167.643 55.6324 167.167 55.3999C166.928 55.1674 166.691 55.1673 166.453 54.9348C166.214 54.7023 165.738 54.4698 165.5 54.2373C165.262 54.0048 165.024 54.0048 164.786 53.7723C164.31 53.5398 164.072 53.3073 163.596 53.0748C163.358 52.8423 163.12 52.6097 162.882 52.6097C162.405 52.3772 161.929 52.1447 161.453 51.9122C161.453 51.9122 161.215 51.6798 160.977 51.6798C160.501 51.4473 159.787 51.2146 159.073 50.9821C158.835 50.9821 158.834 50.9821 158.596 50.9821C158.12 50.7496 157.406 50.7497 156.93 50.5172C156.692 50.2847 156.454 50.2846 156.216 50.2846C155.74 50.2846 155.264 50.0522 154.787 50.0522C154.311 49.8197 154.073 49.8196 153.835 49.8196C153.597 49.5871 153.121 49.5871 152.645 49.5871C152.407 49.5871 151.931 49.5871 151.693 49.5871C151.454 49.5871 150.978 49.5871 150.502 49.5871C150.264 49.5871 150.026 49.5871 149.788 49.5871C148.836 49.5871 147.884 49.5871 146.931 49.5871C145.979 49.5871 145.027 49.8196 144.313 49.8196C144.075 49.8196 143.837 49.8196 143.599 49.8196C143.123 49.8196 142.408 50.0522 141.932 50.0522C141.694 50.2847 141.456 50.2846 141.218 50.2846C140.742 50.2846 140.504 50.5172 140.028 50.5172C139.076 50.7497 138.361 50.9822 137.409 51.2147C136.933 51.4472 136.695 51.4473 136.219 51.6798L125.982 37.7292C125.506 37.2641 124.792 36.799 124.316 36.334C124.077 36.1015 123.84 36.1015 123.602 35.869C123.125 35.404 122.411 34.939 121.697 34.474C121.221 34.2415 120.983 34.009 120.745 33.7765C120.268 33.544 119.792 33.0789 119.316 32.8464C119.078 32.6139 118.602 32.3814 118.364 32.1489C117.65 31.6839 117.174 31.4513 116.698 31.2188C116.46 30.9863 115.983 30.9864 115.745 30.7539C115.031 30.2888 114.555 30.0563 113.841 29.8238C113.603 29.8238 113.365 29.5913 113.127 29.5913C112.175 29.3588 111.222 28.8937 110.27 28.6612C110.032 28.4287 110.032 28.4288 109.794 28.4288C109.08 28.1963 108.127 27.9636 107.413 27.7311C107.175 27.7311 106.699 27.4987 106.461 27.4987C105.747 27.2662 105.271 27.2661 104.557 27.0336C104.08 27.0336 103.842 26.8012 103.366 26.8012C102.652 26.8012 102.176 26.5686 101.462 26.5686C101.224 26.3361 100.748 26.3361 100.271 26.3361C99.5572 26.1036 99.0813 26.1037 98.3671 26.1037C97.891 26.1037 97.1766 26.1037 96.7005 26.1037C96.4624 26.1037 96.2245 26.1037 95.9865 26.1037C95.2723 26.1037 94.3198 26.1037 93.3676 26.1037C92.4153 26.1037 91.4632 26.3361 90.5109 26.3361C90.2729 26.3361 89.7967 26.3361 89.5586 26.3361C88.8445 26.3361 88.3685 26.5686 87.6543 26.5686C87.4163 26.8011 86.9401 26.8012 86.702 26.8012C85.9878 27.0337 85.5116 27.0337 84.7974 27.2662C84.3213 27.2662 84.0832 27.4987 83.8451 27.4987C83.1309 27.7312 82.6549 27.7312 82.1788 27.9637C81.7027 27.9637 81.4646 28.1962 81.2265 28.1962C80.5123 28.4287 80.0364 28.6612 79.3222 28.8937C79.0841 29.1262 79.084 29.1263 78.8459 29.1263C77.8936 29.5913 77.1795 29.8237 76.4653 30.0562C76.4653 30.0562 76.2273 30.2888 75.9893 30.2888C75.5132 30.5213 74.7988 30.7538 74.3227 30.9863C74.0846 31.2188 73.8467 31.2189 73.6087 31.4514C73.1325 31.6839 72.6565 31.9164 72.1804 32.1489C71.7042 32.3814 71.4661 32.3814 71.2281 32.6139C70.7519 32.8464 70.5139 33.0789 70.0377 33.3114C69.7997 33.5439 69.5615 33.544 69.3234 33.7765C69.0854 34.009 68.6093 34.2415 68.1331 34.474C67.657 34.474 67.4189 34.7065 67.1808 34.939C66.7047 35.404 66.4667 35.6365 65.9905 35.869C65.7525 35.869 65.5146 36.1015 65.2765 36.334C64.8004 36.799 64.3243 37.0316 63.8482 37.4966C63.6102 37.4966 63.372 37.7291 63.1339 37.9616C62.6578 38.4266 61.9437 38.8916 61.4676 39.3566L61.2293 39.5892C60.5151 40.2867 59.8012 40.9842 59.087 41.6817C58.8489 41.6817 58.8488 41.9143 58.6107 42.1468C57.8965 42.8443 57.4206 43.5419 56.7064 44.2394C56.4683 44.4719 56.4681 44.4719 56.4681 44.4719C55.7539 45.4019 55.0399 46.332 54.3258 47.262C54.3258 47.4945 54.0875 47.4946 54.0875 47.7271C53.3733 48.6571 52.8973 49.5872 52.1832 50.5172C52.1832 50.5172 51.9452 50.7496 51.9452 50.9821C51.469 51.9122 50.7547 53.0748 50.2786 54.0049C50.2786 54.2374 50.0405 54.2373 50.0405 54.4698C49.5644 55.3998 49.0884 56.5624 48.6122 57.725C48.1361 58.8875 47.66 60.0501 47.4219 61.2126C47.1839 61.4451 47.1839 61.4452 47.1839 61.6777C46.7078 62.8402 46.4697 64.0028 46.2316 65.1653C45.9936 65.3978 45.9936 65.6303 45.9936 65.8628C45.7556 67.0254 45.7554 68.1879 45.5173 69.3505C45.5173 69.3505 45.5173 69.583 45.5173 69.8155C45.2793 70.9781 45.2793 72.3731 45.2793 73.5356M74.561 1.45752L67.8951 2.15502M74.561 1.45752C73.6087 1.45752 72.6563 1.69011 71.7041 1.69011H71.4661C71.228 1.69011 70.9898 1.69011 70.7518 1.69011C70.0376 1.69011 69.5616 1.92257 68.8474 1.92257C68.6094 1.92257 68.1332 1.92251 67.8951 2.15502M67.8951 2.15502C67.181 2.15502 66.7047 2.38756 65.9905 2.62007C65.7525 2.62007 65.5146 2.62015 65.2765 2.85266H65.0385C64.5624 3.08517 64.0861 3.08506 63.3719 3.31757C63.1339 3.31757 62.8957 3.55017 62.4196 3.55017C61.7054 3.78268 60.9914 4.01516 60.5153 4.24767C60.2772 4.24767 60.2771 4.24761 60.039 4.48012C59.3248 4.71263 58.6106 4.9452 57.6584 5.41022C57.4203 5.41022 57.1824 5.64267 57.1824 5.64267C56.7063 5.87518 55.9922 6.10781 55.5161 6.34032C55.278 6.34032 55.0398 6.57277 54.8018 6.57277C54.3256 6.80528 53.8496 7.03776 53.3735 7.27027C53.1354 7.50278 52.8973 7.50281 52.4212 7.73532C51.945 7.96783 51.707 8.20031 51.2309 8.43282H50.9928C50.7548 8.66533 50.5166 8.66536 50.2786 8.89787C49.8024 9.13038 49.3263 9.36286 49.0882 9.59537C48.8502 9.82788 48.6121 10.0604 48.1359 10.0604C47.6598 10.2929 47.4218 10.5255 46.9456 10.9905C46.7076 10.9905 46.7077 11.223 46.4696 11.223C46.2316 11.223 46.2317 11.4554 45.9936 11.4554C45.5175 11.9204 45.0411 12.153 44.565 12.618C44.327 12.8505 44.0891 13.083 43.851 13.083C43.3749 13.548 42.6605 14.0131 42.1844 14.4782L41.9464 14.7106C41.2322 15.4081 40.518 16.1057 39.8038 16.8033C39.5657 17.0358 39.5659 17.2682 39.3278 17.2682C38.6136 17.9657 37.8993 18.6633 37.4232 19.3608C36.709 20.2909 35.9951 21.2209 35.2809 22.151C35.2809 22.3835 35.0426 22.3835 35.0426 22.616C34.3284 23.5461 33.8524 24.476 33.1383 25.406C33.1383 25.6385 32.9003 25.8711 32.9003 25.8711C32.4241 26.8011 31.7098 27.9636 31.2337 28.8937C31.2337 29.1262 30.9957 29.1262 30.9957 29.3587C30.5195 30.5213 30.0435 31.4514 29.5673 32.6139C29.0912 33.7765 28.8532 34.939 28.377 36.1016C28.377 36.3341 28.3771 36.3341 28.139 36.5666C27.901 37.7292 27.4248 38.8917 27.1867 40.0543C27.1867 40.2868 27.1868 40.5193 26.9487 40.7518C26.7107 41.9143 26.4724 43.0769 26.4724 44.2394C26.4724 44.4719 26.4724 44.7045 26.4724 44.7045C26.2344 45.867 26.2344 47.262 26.2344 48.4246C25.7583 48.4246 25.0442 48.4246 24.5681 48.4246C24.092 48.4246 23.6157 48.4245 22.9015 48.657C22.6635 48.657 22.6635 48.657 22.6635 48.657C21.9493 48.657 21.2351 48.8896 20.5209 49.1221C20.2828 49.1221 20.283 49.1221 20.0449 49.1221C20.0449 49.1221 20.045 49.1221 19.8069 49.1221C19.0927 49.3546 18.3785 49.5871 17.6643 49.8196H17.4263C16.7121 50.0521 15.9979 50.2847 15.2837 50.7497C15.0456 50.7497 14.8074 50.9821 14.8074 50.9821C14.3313 51.2146 13.8552 51.4473 13.3791 51.6798C13.141 51.6798 12.9031 51.9122 12.9031 52.1447C12.4269 52.3772 11.9509 52.8423 11.4748 53.0748C11.4748 53.0748 11.2365 53.0747 11.2365 53.3072C10.9984 53.3072 10.9985 53.5398 10.7605 53.7723C10.2843 54.2373 9.80826 54.4698 9.33214 54.9348L9.09414 55.1674L8.85584 55.3999C8.14166 56.0974 7.42771 56.795 6.71353 57.4925C6.71353 57.4925 6.71329 57.4925 6.47523 57.725C5.99911 58.19 5.76105 58.655 5.28493 59.3526C5.04687 59.5851 5.04698 59.8176 4.80892 60.0501C4.57086 60.5151 4.33268 60.7476 4.09462 61.2126C3.85656 61.4451 3.85668 61.6776 3.61861 61.9101C3.38055 62.3751 3.14261 62.6077 3.14261 63.0727C2.90455 63.3052 2.90432 63.5377 2.90432 63.7702C2.66625 64.2352 2.66637 64.4677 2.42831 64.9327C2.42831 65.1652 2.19031 65.3978 2.19031 65.8628C1.95224 66.3278 1.95207 66.7929 1.71401 67.0254C1.71401 67.2579 1.47601 67.4904 1.47601 67.7229C1.47601 68.1879 1.238 68.653 1.238 69.118C1.238 69.3505 1.238 69.583 1.238 69.8155C1.238 70.5131 1 71.2105 1 71.908C1 74.2331 1.23812 76.3257 1.9523 78.1858L20.2829 103.297C19.5687 101.204 19.3306 99.1118 19.3306 97.0192C19.3306 96.3217 19.3305 95.6241 19.5686 94.9266C19.5686 94.6941 19.5686 94.4616 19.5686 94.2291C19.5686 93.7641 19.8069 93.2989 19.8069 92.8339C19.8069 92.6014 20.0449 92.3689 20.0449 92.1364C20.0449 91.6714 20.2828 91.2064 20.5209 90.9739C20.5209 90.7414 20.7589 90.5089 20.7589 90.0439C20.997 89.5789 20.9971 89.3464 21.2352 88.8814C21.2352 88.6489 21.4732 88.4162 21.4732 88.1837C21.7113 87.7187 21.9492 87.4862 21.9492 87.0212C22.1873 86.7887 22.1874 86.5562 22.4255 86.3237C22.6636 85.8587 22.9015 85.6261 23.1395 85.1611C23.3776 84.9286 23.3778 84.6961 23.6158 84.4636C24.0919 83.9986 24.33 83.5336 24.8061 82.836C24.8061 82.836 24.8061 82.8361 25.0441 82.6036C25.7583 81.906 26.4725 81.2085 27.1867 80.5109C27.4248 80.2784 27.6627 80.0459 27.9007 80.0459C28.3769 79.5809 28.8532 79.3483 29.3293 78.8833C29.5674 78.6508 29.8053 78.6509 30.0433 78.4184C30.5195 78.1859 30.9955 77.7208 31.4717 77.4883C31.7097 77.2558 31.9479 77.2558 32.186 77.0233C32.6621 76.7908 33.1381 76.5583 33.6143 76.3258C33.8523 76.3258 34.0905 76.0933 34.3286 76.0933C35.0428 75.8608 35.757 75.3957 36.4712 75.1632H36.7092C37.4234 74.9307 38.1376 74.6982 38.8518 74.4657C39.0898 74.4657 39.3277 74.4656 39.5658 74.2331C40.28 74.0006 40.9942 74.0007 41.7084 73.7682C42.4226 73.7682 42.8988 73.5356 43.613 73.5356C44.0891 73.5356 44.8032 73.5356 45.2793 73.5356M45.2793 73.5356V65.1653" stroke="black" stroke-miterlimit="10" stroke-linecap="round" stroke-linejoin="round"/>
<path d="M92.561 24.956C112.082 24.026 128.508 34.2564 135.65 50.0671C138.983 48.9045 142.554 48.2069 146.125 47.9744C164.693 47.0444 179.691 60.53 179.215 78.4333C179.215 84.2461 177.311 89.8263 174.454 94.709L19.9523 102.614C19.2381 100.522 19 98.4291 19 96.3365C19.2381 84.0135 29.951 73.3181 43.0444 72.6206C43.5205 72.6206 44.2346 72.6206 44.7107 72.6206C45.1868 47.5095 66.6123 26.3511 92.561 24.956Z" fill="white" stroke="black" stroke-miterlimit="10" stroke-linecap="round" stroke-linejoin="round"/>
</svg>
