<svg xmlns="http://www.w3.org/2000/svg" viewBox="0 0 118 129.93"><polygon points="0.5 102.46 0.5 87.39 39.5 114.5 39.5 129.43 0.5 102.46" style="fill:#333;stroke:#000;stroke-linejoin:round"/><polygon points="78.53 82.92 117.5 109.28 39.22 114.22 0.52 87.53 78.53 82.92" style="fill:#fff;stroke:#000;stroke-linejoin:round"/><polygon points="116.5 110.28 116.5 27.46 77.5 0.5 77.5 83.31 116.5 110.28" style="fill:none;stroke:#000;stroke-linejoin:round"/><polygon points="39.38 32.32 116.96 27.77 78.08 0.78 0.5 5.33 39.38 32.32" style="fill:none;stroke:#000;stroke-linejoin:round"/><polygon points="39.5 114.83 39.5 73.42 39.5 32.01 0.5 5.05 0.5 87.87 39.5 114.83" style="fill:none;stroke:#000;stroke-linejoin:round"/><polygon points="39.5 129.28 117.5 124 117.5 108.7 39.5 114.46 39.5 129.28" style="fill:#666;stroke:#000;stroke-linejoin:round"/><path d="M34.81,45.53,49.23,66.78H40.69L30.27,51.64,28,54.56V66.78H20v-38h8V42.94L38.72,28.78H47.8Z" style="opacity:0.45"/><path d="M49,74.78v12H41v-38H56.26a13,13,0,0,1,6.05,1.29,12.24,12.24,0,0,1,4,3.23,13,13,0,0,1,2.27,4.23,13.08,13.08,0,0,1,0,8.56,12.79,12.79,0,0,1-2.26,4.2,12.38,12.38,0,0,1-4,3.21,13,13,0,0,1-6,1.28Zm4.69-6a7.69,7.69,0,0,0,5.23-1.62,6.13,6.13,0,0,0,1.86-4.88,6.15,6.15,0,0,0-1.86-4.85,7.59,7.59,0,0,0-5.23-1.65H49v13Z" style="opacity:0.45"/><path d="M71,96.46q7,0,7-7.86V63.78h8V87.7q0,7.9-3.63,11.51T71,102.81q-7.78,0-11.39-3.6T56,87.7V63.78h8V88.6Q64,96.46,71,96.46Z" style="opacity:0.45"/></svg>