<svg xmlns="http://www.w3.org/2000/svg" xmlns:xlink="http://www.w3.org/1999/xlink" width="452.94" height="207.79" viewBox="0 0 452.94 207.79"><defs><style>.cls-1{fill:none;}.cls-2{isolation:isolate;}.cls-3{clip-path:url(#clip-path);}.cls-4{fill:#152667;}.cls-5{fill:#0f1b49;}.cls-6{clip-path:url(#clip-path-2);}.cls-7{fill:gray;}.cls-8{fill:#b3b3b3;}.cls-9{clip-path:url(#clip-path-3);}.cls-10{fill:#142460;}.cls-11{fill:#142563;}.cls-12{fill:#13235d;}.cls-13{clip-path:url(#clip-path-4);}.cls-14{fill:#13215b;}.cls-15{clip-path:url(#clip-path-5);}.cls-16{fill:#101c4c;}.cls-17{clip-path:url(#clip-path-6);}.cls-18{clip-path:url(#clip-path-7);}.cls-19{clip-path:url(#clip-path-8);}.cls-20{clip-path:url(#clip-path-9);}.cls-21{fill:#122058;}.cls-22{fill:#111f55;}.cls-23{fill:#111e52;}.cls-24{fill:#101d4f;}.cls-25{clip-path:url(#clip-path-10);}.cls-26{fill:#a3a3a3;}.cls-27{fill:#a8a8a8;}.cls-28{fill:#adadad;}.cls-29{fill:#9e9e9e;}.cls-30{fill:#999;}.cls-31{fill:#949494;}.cls-32{fill:#8f8f8f;}.cls-33{fill:#8a8a8a;}.cls-34{fill:#858585;}.cls-35{clip-path:url(#clip-path-11);}.cls-36{clip-path:url(#clip-path-12);}.cls-37{clip-path:url(#clip-path-13);}.cls-38{clip-path:url(#clip-path-14);}.cls-39{clip-path:url(#clip-path-15);}.cls-40{clip-path:url(#clip-path-16);}.cls-41{clip-path:url(#clip-path-17);}.cls-42{clip-path:url(#clip-path-18);}.cls-43{clip-path:url(#clip-path-19);}.cls-44{clip-path:url(#clip-path-20);}.cls-45{clip-path:url(#clip-path-21);}.cls-46{clip-path:url(#clip-path-22);}.cls-47{clip-path:url(#clip-path-23);}.cls-48{clip-path:url(#clip-path-24);}.cls-49{clip-path:url(#clip-path-25);}.cls-50{clip-path:url(#clip-path-26);}.cls-51{clip-path:url(#clip-path-27);}.cls-52{clip-path:url(#clip-path-28);}.cls-53{clip-path:url(#clip-path-29);}.cls-54{clip-path:url(#clip-path-30);}.cls-55{clip-path:url(#clip-path-31);}.cls-56{clip-path:url(#clip-path-32);}.cls-57{clip-path:url(#clip-path-33);}.cls-58{clip-path:url(#clip-path-34);}.cls-59{clip-path:url(#clip-path-35);}.cls-60{fill:#fff;}.cls-61{fill:#2340ad;}</style><clipPath id="clip-path"><path class="cls-1" d="M423.72,187.18l-21.4-26.48c15.05-.79,27.37-13.49,27.48-28.33l21.4,26.48C451.09,173.69,438.77,186.39,423.72,187.18Z"/></clipPath><clipPath id="clip-path-2"><path class="cls-1" d="M425,10.38l21.4,26.48A25.15,25.15,0,0,1,452,53l-21.4-26.48A25.15,25.15,0,0,0,425,10.38Z"/></clipPath><clipPath id="clip-path-3"><path class="cls-1" d="M403.46,1A25.7,25.7,0,0,1,425,10.37l21.4,26.48a25.7,25.7,0,0,0-21.54-9.36Z"/></clipPath><clipPath id="clip-path-4"><path class="cls-1" d="M153.09,143,131.7,116.52,153.09,143Z"/></clipPath><clipPath id="clip-path-5"><path class="cls-1" d="M164.44,132.09l-10.7-13.23,10.7,13.23Z"/></clipPath><clipPath id="clip-path-6"><path class="cls-1" d="M143,105.61l.09-.25,2.51,3.09c.79,1,1.85,2.3,2.65,3.28l2.75,3.41,2.8,3.46,2.8,3.47,2.75,3.4,2.65,3.28,2.5,3.09a1.86,1.86,0,0,0-.1.25L143,105.61Z"/></clipPath><clipPath id="clip-path-7"><path class="cls-1" d="M144.66,96.61l21.4,26.48a24.78,24.78,0,0,1-1.52,8.75q-10.71-13.25-21.41-26.48A24.56,24.56,0,0,0,144.66,96.61Z"/></clipPath><clipPath id="clip-path-8"><path class="cls-1" d="M135.15,143.93a3.4,3.4,0,0,1-.61-.75l-1.25-1.55L130,137.56l-5.55-6.87,10.7,13.24Z"/></clipPath><clipPath id="clip-path-9"><path class="cls-1" d="M143,105.61l21.41,26.48a18.94,18.94,0,0,1-4.44,6.65,20.53,20.53,0,0,1-6.91,4.25L131.7,116.52,153.09,143a29.67,29.67,0,0,1-9,1.78,28,28,0,0,1-8.94-.84l-21.39-26.47,10.69,13.23,1.4,1.74,1.4,1.73,1.38,1.71,1.37,1.69,1.34,1.66,1.31,1.62,1.27,1.57,1.23,1.52a17.53,17.53,0,0,1-6.81-3.53,14.07,14.07,0,0,1-1.86-1.92L105.08,112a14.07,14.07,0,0,0,1.86,1.92,17.39,17.39,0,0,0,6.81,3.53,28,28,0,0,0,8.94.84,29.61,29.61,0,0,0,9-1.78,20.39,20.39,0,0,0,6.9-4.25A18.68,18.68,0,0,0,143,105.61Z"/></clipPath><clipPath id="clip-path-10"><path class="cls-1" d="M135.29,133l-21.4-26.48a5.47,5.47,0,0,0,.45.51c1.92,1.94,4.72,2.83,8.41,2.63s6.45-1.37,8.39-3.51,2.94-5.58,3-10.29l21.4,26.48c0,4.71-1,8.13-3,10.29s-4.74,3.32-8.39,3.51-6.49-.69-8.41-2.63C135.59,133.38,135.43,133.21,135.29,133Z"/></clipPath><clipPath id="clip-path-11"><path class="cls-1" d="M113.89,106.55c-1.62-2-2.41-5.15-2.38-9.47l21.41,26.48c0,4.32.76,7.47,2.37,9.47Z"/></clipPath><clipPath id="clip-path-12"><path class="cls-1" d="M95.46,109h0l2.5,3.1,2.65,3.28,2.75,3.4,2.8,3.47,2.8,3.46,2.75,3.4c.79,1,1.85,2.3,2.65,3.28l2.5,3.09h0Q106.16,122.26,95.46,109Z"/></clipPath><clipPath id="clip-path-13"><path class="cls-1" d="M143.26,74.34A17.05,17.05,0,0,0,140.75,70l21.4,26.48a17.05,17.05,0,0,1,2.51,4.31,23.06,23.06,0,0,1,1.49,8.9l-21.4-26.48A23.06,23.06,0,0,0,143.26,74.34Z"/></clipPath><clipPath id="clip-path-14"><path class="cls-1" d="M131.81,75.74l21.4,26.48q2.43,3,2.38,9.51l-21.4-26.48Q134.24,78.74,131.81,75.74Z"/></clipPath><clipPath id="clip-path-15"><path class="cls-1" d="M95.47,109a21.91,21.91,0,0,0,1.22-6.36l21.4,26.48a21.91,21.91,0,0,1-1.22,6.36Q106.16,122.26,95.47,109Z"/></clipPath><clipPath id="clip-path-16"><path class="cls-1" d="M126.48,138.49,105.08,112a16.65,16.65,0,0,1-2.47-4.29,23.2,23.2,0,0,1-1.46-8.83l21.4,26.48A23.19,23.19,0,0,0,124,134.2,16.35,16.35,0,0,0,126.48,138.49Z"/></clipPath><clipPath id="clip-path-17"><path class="cls-1" d="M95,110.19c.17-.38.33-.77.47-1.17L98,112.11c.79,1,1.85,2.3,2.65,3.28l2.75,3.41,2.8,3.46,2.8,3.46,2.75,3.41,2.65,3.27,2.5,3.1q-.23.6-.48,1.17a15.75,15.75,0,0,1-4.15,5.53,18.9,18.9,0,0,1-6.34,3.51,30.36,30.36,0,0,1-8.25,1.49,31.18,31.18,0,0,1-8.68-.63,14.32,14.32,0,0,1-6.36-3.14L61.21,117a14.32,14.32,0,0,0,6.36,3.14,31.18,31.18,0,0,0,8.68.63,30.36,30.36,0,0,0,8.25-1.49,19,19,0,0,0,6.34-3.51A15.75,15.75,0,0,0,95,110.19Z"/></clipPath><clipPath id="clip-path-18"><path class="cls-1" d="M131.34,75.21c.16.17.32.34.47.53l21.4,26.48c-.15-.19-.31-.36-.47-.53L131.35,75.22c.74.93,1.74,2.17,2.49,3.09l2.65,3.28,2.75,3.4,2.8,3.47,2.8,3.46,2.75,3.4,2.65,3.28,2.5,3.09c-2-1.94-4.72-2.83-8.32-2.64L123,72.57C126.62,72.38,129.39,73.27,131.34,75.21Z"/></clipPath><clipPath id="clip-path-19"><path class="cls-1" d="M133,112.92l-21.4-26.48q0-7.11,3-10.35c2-2.15,4.77-3.33,8.42-3.52l21.4,26.48c-3.65.19-6.45,1.37-8.42,3.52S133,108.18,133,112.92Z"/></clipPath><clipPath id="clip-path-20"><path class="cls-1" d="M61.21,117h0l2.5,3.1c.8,1,1.86,2.3,2.65,3.28l2.75,3.4,2.8,3.47,2.8,3.46,2.75,3.41,2.65,3.27,2.5,3.09h0Q71.9,130.2,61.21,117Z"/></clipPath><clipPath id="clip-path-21"><path class="cls-1" d="M89.93,136.14l-21.4-26.48.09.11a6.21,6.21,0,0,0,3.1,2,14.73,14.73,0,0,0,4.6.4,11.05,11.05,0,0,0,6.78-2.35c1.66-1.41,2.65-3.61,3-6.58l21.4,26.48c-.33,3-1.32,5.17-3,6.58a11.05,11.05,0,0,1-6.78,2.35,14.73,14.73,0,0,1-4.6-.4,6.21,6.21,0,0,1-3.1-2Z"/></clipPath><clipPath id="clip-path-22"><path class="cls-1" d="M59.69,115.38A11.88,11.88,0,0,0,61.21,117q10.7,13.24,21.4,26.48a12.55,12.55,0,0,1-1.52-1.57Z"/></clipPath><clipPath id="clip-path-23"><path class="cls-1" d="M68.53,109.66A8.69,8.69,0,0,1,66.89,106q10.69,13.24,21.4,26.48a8.69,8.69,0,0,0,1.64,3.68Z"/></clipPath><clipPath id="clip-path-24"><path class="cls-1" d="M88.29,132.46,66.92,106l7.88,9.76,13.49,16.68Z"/></clipPath><clipPath id="clip-path-25"><path class="cls-1" d="M140.74,70l21.41,26.48a14.46,14.46,0,0,0-1.84-1.91A17.11,17.11,0,0,0,153.47,91a28,28,0,0,0-9-.84,29.28,29.28,0,0,0-9,1.78,19.86,19.86,0,0,0-6.86,4.28,18.63,18.63,0,0,0-4.42,6.68,24.83,24.83,0,0,0-1.59,9.06L101.24,85.52a25,25,0,0,1,1.6-9.06,18.73,18.73,0,0,1,4.41-6.68,20,20,0,0,1,6.87-4.28,29.22,29.22,0,0,1,9-1.78,28,28,0,0,1,9,.84,17.15,17.15,0,0,1,6.85,3.56A14.36,14.36,0,0,1,140.74,70Z"/></clipPath><clipPath id="clip-path-26"><path class="cls-1" d="M66.89,106a26.66,26.66,0,0,1-.52-5.9q10.71,13.24,21.41,26.48a26.13,26.13,0,0,0,.51,5.9Q77.6,119.25,66.92,106S66.89,106,66.89,106Z"/></clipPath><clipPath id="clip-path-27"><path class="cls-1" d="M97,81.84a19.39,19.39,0,0,0-1.47-6.66L98,78.28l2.65,3.28,2.75,3.4,2.8,3.47,2.8,3.46,2.75,3.4,2.65,3.28c.75.93,1.75,2.16,2.49,3.09a19.39,19.39,0,0,1,1.47,6.66C112,100.38,100.66,91.37,97,81.84Z"/></clipPath><clipPath id="clip-path-28"><path class="cls-1" d="M81.09,141.86l-21.4-26.48a14.9,14.9,0,0,1-2.35-4.25,25.06,25.06,0,0,1-1.27-8.73l21.4,26.48a25.06,25.06,0,0,0,1.27,8.73A14.9,14.9,0,0,0,81.09,141.86Z"/></clipPath><clipPath id="clip-path-29"><path class="cls-1" d="M95.5,75.18a14.49,14.49,0,0,0-2-3.38l21.4,26.48a14.49,14.49,0,0,1,2,3.38l-1.22-1.52L104.8,86.68,102,83.24l-1.37-1.69c-.79-1-1.85-2.3-2.65-3.28A33.43,33.43,0,0,1,95.5,75.18Z"/></clipPath><clipPath id="clip-path-30"><path class="cls-1" d="M84.65,77.32l21.4,26.48a10.65,10.65,0,0,1,2,5.06L86.62,82.38A10.65,10.65,0,0,0,84.65,77.32Z"/></clipPath><clipPath id="clip-path-31"><path class="cls-1" d="M98.76,101.45,88.06,88.21l10.71,13.24Z"/></clipPath><clipPath id="clip-path-32"><path class="cls-1" d="M90.63,105,69.24,78.48,90.63,105Z"/></clipPath><clipPath id="clip-path-33"><path class="cls-1" d="M83.8,76.46a5.77,5.77,0,0,1,.85.86l21.4,26.48a5.77,5.77,0,0,0-.85-.86q-2.15-1.71-6.43-1.49L77.37,75,88.06,88.21l10.7,13.24q-5.4.28-8.13,3.5L69.24,78.48c.74.93,1.74,2.17,2.49,3.09l2.65,3.28,2.75,3.4,2.8,3.47L90.63,105q-2.73,3.22-2.77,10.33L66.46,88.8q0-7.11,2.77-10.33T77.36,75C80.23,74.82,82.37,75.32,83.8,76.46Z"/></clipPath><clipPath id="clip-path-34"><path class="cls-1" d="M93.47,71.8l21.4,26.48a13.78,13.78,0,0,0-2-2q-5-4.17-14.07-3.69L77.43,66.11q9-.48,14.07,3.69A13.78,13.78,0,0,1,93.47,71.8Z"/></clipPath><clipPath id="clip-path-35"><path class="cls-1" d="M77.58,113.72,56.18,87.24a25.59,25.59,0,0,1,1.49-9,17.12,17.12,0,0,1,4.22-6.44,18.78,18.78,0,0,1,6.67-4,30.41,30.41,0,0,1,8.87-1.68l21.4,26.48A30.41,30.41,0,0,0,90,94.27a18.78,18.78,0,0,0-6.67,4,17.12,17.12,0,0,0-4.22,6.44A25.59,25.59,0,0,0,77.58,113.72Z"/></clipPath></defs><g id="레이어_2" data-name="레이어 2"><g id="레이어_1-2" data-name="레이어 1"><g class="cls-2"><g class="cls-3"><g class="cls-2"><path d="M423.72,187.18l-21.4-26.48a27.43,27.43,0,0,0,2.73-.28l21.4,26.48a27.43,27.43,0,0,1-2.73.28"/><path d="M426.45,186.9l-21.4-26.48a27.38,27.38,0,0,0,3.4-.73l21.4,26.48a27.38,27.38,0,0,1-3.4.73"/><path d="M429.85,186.17l-21.4-26.48a28.2,28.2,0,0,0,3-1l21.4,26.48a28.2,28.2,0,0,1-3,1"/><path d="M432.87,185.15l-21.4-26.48a30.07,30.07,0,0,0,2.82-1.32l21.4,26.48a28.93,28.93,0,0,1-2.82,1.32"/><path d="M435.69,183.83l-21.4-26.48a29.51,29.51,0,0,0,2.75-1.66l21.4,26.48a29.51,29.51,0,0,1-2.75,1.66"/><path d="M438.44,182.17,417,155.69a30.44,30.44,0,0,0,2.79-2.15L441.23,180a30.44,30.44,0,0,1-2.79,2.15"/><path d="M441.23,180l-21.4-26.48a28.89,28.89,0,0,0,3-3L444.25,177a28.89,28.89,0,0,1-3,3"/><path d="M444.25,177l-21.4-26.48a28.11,28.11,0,0,0,6.95-18.13l21.4,26.48A28.11,28.11,0,0,1,444.25,177"/></g></g></g><polygon class="cls-4" points="374.68 131.66 353.27 105.18 363.83 104.63 385.23 131.11 374.68 131.66"/><polygon points="451.2 158.85 429.8 132.37 430.56 26.48 451.96 52.96 451.2 158.85"/><polygon class="cls-4" points="347.8 133.07 326.4 106.59 335.95 106.09 357.36 132.57 347.8 133.07"/><polygon class="cls-5" points="398.69 87.27 377.29 60.79 377.36 52.05 398.76 78.53 398.69 87.27"/><polygon class="cls-4" points="385.54 87.96 364.14 61.48 377.29 60.79 398.69 87.27 385.54 87.96"/><polygon class="cls-5" points="385.23 131.11 363.83 104.63 364.14 61.48 385.54 87.96 385.23 131.11"/><g class="cls-2"><g class="cls-6"><g class="cls-2"><path d="M452,53l-21.4-26.48A25.15,25.15,0,0,0,425,10.38l21.4,26.48A25.15,25.15,0,0,1,452,53"/></g></g></g><polygon class="cls-4" points="318.6 134.6 297.19 108.12 307.74 107.57 329.14 134.05 318.6 134.6"/><polygon class="cls-7" points="374.68 131.66 353.27 105.18 353.58 62.03 374.99 88.51 374.68 131.66"/><polygon class="cls-4" points="361.83 89.2 340.43 62.72 353.58 62.03 374.99 88.51 361.83 89.2"/><polygon class="cls-7" points="347.8 133.07 326.4 106.59 307.98 74.63 329.38 101.11 347.8 133.07"/><polygon class="cls-5" points="329.14 134.05 307.74 107.57 307.98 74.63 329.38 101.11 329.14 134.05"/><polygon class="cls-7" points="318.6 134.6 297.19 108.12 297.57 56.24 318.97 82.72 318.6 134.6"/><polygon class="cls-5" points="313.58 134.86 292.18 108.38 292.25 99.52 313.65 126 313.58 134.86"/><polygon class="cls-8" points="361.9 80.47 340.5 53.99 377.36 52.05 398.76 78.53 361.9 80.47"/><polygon class="cls-7" points="361.83 89.2 340.43 62.72 340.5 53.99 361.9 80.47 361.83 89.2"/><polygon class="cls-5" points="357.36 132.57 335.95 106.09 336.33 54.2 357.73 80.68 357.36 132.57"/><polygon class="cls-4" points="279.45 136.65 258.05 110.17 292.18 108.38 313.58 134.86 279.45 136.65"/><polygon class="cls-7" points="347.33 114.23 325.93 87.75 326.17 54.74 347.57 81.22 347.33 114.23"/><polygon class="cls-8" points="347.57 81.22 326.17 54.74 336.33 54.2 357.73 80.68 347.57 81.22"/><polygon class="cls-8" points="290.06 127.23 268.66 100.75 292.25 99.52 313.65 126 290.06 127.23"/><polygon class="cls-5" points="310.35 113.4 288.94 86.92 289.01 78.06 310.41 104.55 310.35 113.4"/><polygon class="cls-4" points="263.1 137.51 241.7 111.03 251.21 110.53 272.61 137.01 263.1 137.51"/><polygon class="cls-4" points="290.15 114.46 268.75 87.98 288.94 86.92 310.35 113.4 290.15 114.46"/><polygon class="cls-5" points="290.06 127.23 268.66 100.75 268.75 87.98 290.15 114.46 290.06 127.23"/><polygon class="cls-5" points="347.33 114.23 325.93 87.75 307.33 55.72 328.74 82.2 347.33 114.23"/><g class="cls-2"><g class="cls-9"><g class="cls-2"><path class="cls-10" d="M424.86,27.49,403.46,1c.53,0,1.05,0,1.57,0l21.41,26.48c-.52,0-1.05,0-1.58,0"/><path class="cls-11" d="M426.44,27.45,405,1a25.91,25.91,0,0,1,16.15,5.6l21.4,26.48a25.9,25.9,0,0,0-16.14-5.6"/><path class="cls-10" d="M442.58,33.05,421.18,6.57a25.72,25.72,0,0,1,3,2.82l21.4,26.48a25.72,25.72,0,0,0-3-2.82"/><path class="cls-12" d="M445.57,35.87,424.17,9.39c.29.33.57.65.84,1l21.4,26.48c-.27-.34-.55-.66-.84-1"/></g></g></g><polygon class="cls-8" points="318.97 82.72 297.57 56.24 307.33 55.72 328.74 82.2 318.97 82.72"/><polygon class="cls-8" points="290.22 105.6 268.82 79.12 289.01 78.06 310.41 104.55 290.22 105.6"/><polygon class="cls-4" points="244.67 138.48 223.27 112 232.19 111.53 253.59 138.01 244.67 138.48"/><polygon class="cls-5" points="313.17 91.75 291.77 65.27 291.83 56.54 313.24 83.02 313.17 91.75"/><polygon class="cls-4" points="290.31 92.95 268.91 66.47 291.77 65.27 313.17 91.75 290.31 92.95"/><polygon class="cls-5" points="290.22 105.6 268.81 79.12 268.91 66.47 290.31 92.95 290.22 105.6"/><polygon class="cls-4" points="225.65 139.47 204.24 112.99 213.82 112.49 235.22 138.97 225.65 139.47"/><polygon class="cls-7" points="279.45 136.65 258.05 110.17 258.42 58.29 279.82 84.77 279.45 136.65"/><polygon class="cls-5" points="272.61 137.01 251.21 110.53 251.58 58.65 272.98 85.13 272.61 137.01"/><polygon class="cls-7" points="263.11 137.51 241.7 111.03 241.92 81.42 263.32 107.91 263.11 137.51"/><polygon class="cls-5" points="253.59 138.01 232.19 111.53 241.92 81.42 263.32 107.91 253.59 138.01"/><polygon class="cls-8" points="279.82 84.77 258.42 58.29 291.83 56.54 313.24 83.02 279.82 84.77"/><polygon class="cls-4" points="209.3 140.33 187.9 113.85 197.41 113.35 218.81 139.83 209.3 140.33"/><polygon class="cls-7" points="244.67 138.48 223.27 112 214.03 82.83 235.43 109.31 244.67 138.48"/><polygon class="cls-5" points="235.22 138.97 213.82 112.49 214.03 82.83 235.43 109.31 235.22 138.97"/><polygon class="cls-8" points="261.65 85.72 240.25 59.24 251.58 58.65 272.98 85.13 261.65 85.72"/><polygon class="cls-7" points="249.26 124.44 227.86 97.95 240.25 59.24 261.65 85.72 249.26 124.44"/><polygon class="cls-4" points="190.87 141.3 169.47 114.82 178.39 114.35 199.79 140.83 190.87 141.3"/><polygon class="cls-4" points="171.85 142.29 150.45 115.81 160.02 115.31 181.43 141.79 171.85 142.29"/><polygon class="cls-5" points="249.26 124.44 227.86 97.95 215.96 60.51 237.36 86.99 249.26 124.44"/><polygon class="cls-7" points="225.65 139.47 204.24 112.99 204.62 61.11 226.02 87.59 225.65 139.47"/><polygon class="cls-5" points="218.81 139.83 197.41 113.35 197.79 61.47 219.19 87.94 218.81 139.83"/><polygon class="cls-7" points="209.3 140.33 187.9 113.85 188.11 84.25 209.51 110.72 209.3 140.33"/><polygon class="cls-5" points="199.79 140.83 178.39 114.35 188.11 84.24 209.51 110.72 199.79 140.83"/><polygon class="cls-8" points="226.02 87.59 204.62 61.11 215.96 60.51 237.36 86.99 226.02 87.59"/><g class="cls-2"><g class="cls-13"><g class="cls-2"><path class="cls-14" d="M151,143.69l-21.41-26.48c.74-.2,1.46-.44,2.15-.7l.45-.18,21.4,26.48-.45.18c-.69.26-1.41.5-2.14.7"/></g></g></g><polygon class="cls-7" points="190.87 141.3 169.47 114.82 160.24 85.64 181.64 112.13 190.87 141.3"/><polygon class="cls-5" points="181.43 141.79 160.02 115.31 160.24 85.64 181.64 112.13 181.43 141.79"/><polygon class="cls-7" points="195.46 127.25 174.06 100.78 186.45 62.06 207.85 88.54 195.46 127.25"/><polygon class="cls-5" points="195.46 127.25 174.06 100.78 162.16 63.33 183.56 89.81 195.46 127.25"/><polygon class="cls-7" points="171.85 142.29 150.45 115.81 150.82 63.93 172.22 90.41 171.85 142.29"/><g class="cls-2"><g class="cls-15"><g class="cls-2"><path class="cls-16" d="M161.18,137.49,139.78,111a19.44,19.44,0,0,0,3.26-5.4,24.65,24.65,0,0,0,1.62-9l21.4,26.48a24.65,24.65,0,0,1-1.62,9,19.21,19.21,0,0,1-3.26,5.4"/></g></g></g><g class="cls-2"><g class="cls-17"><g class="cls-2"><path class="cls-16" d="M161.18,137.49,139.78,111a19.44,19.44,0,0,0,3.26-5.4,24.65,24.65,0,0,0,1.62-9l21.4,26.48a24.65,24.65,0,0,1-1.62,9,19.21,19.21,0,0,1-3.26,5.4"/></g></g></g><g class="cls-2"><g class="cls-18"><g class="cls-2"><path class="cls-16" d="M161.18,137.49,139.78,111a19.44,19.44,0,0,0,3.26-5.4,24.65,24.65,0,0,0,1.62-9l21.4,26.48a24.65,24.65,0,0,1-1.62,9,19.21,19.21,0,0,1-3.26,5.4"/></g></g></g><polygon class="cls-8" points="207.85 88.54 186.45 62.06 197.79 61.47 219.19 87.94 207.85 88.54"/><g class="cls-2"><g class="cls-19"><g class="cls-2"><path class="cls-11" d="M128.78,140.76l-21.4-26.48a17.73,17.73,0,0,0,6.37,3.17,26.63,26.63,0,0,0,7,.89l21.4,26.48a26.63,26.63,0,0,1-7-.89,17.73,17.73,0,0,1-6.37-3.17"/></g></g></g><polygon points="49.48 206.79 28.08 180.31 402.31 160.7 423.72 187.18 49.48 206.79"/><polygon class="cls-5" points="166.06 123.09 144.66 96.61 144.75 83.24 166.15 109.72 166.06 123.09"/><g class="cls-2"><g class="cls-20"><g class="cls-2"><path class="cls-12" d="M126.48,138.48,105.08,112l.49.59L127,139.07c-.17-.19-.34-.39-.5-.59"/><path class="cls-10" d="M127,139.07l-21.41-26.48a15.66,15.66,0,0,0,1.37,1.33l.44.36,21.4,26.48-.44-.36a15.54,15.54,0,0,1-1.36-1.33"/><path class="cls-11" d="M128.78,140.76l-21.4-26.48a17.73,17.73,0,0,0,6.37,3.17,26.63,26.63,0,0,0,7,.89l21.4,26.48a26.63,26.63,0,0,1-7-.89,17.73,17.73,0,0,1-6.37-3.17"/><path class="cls-10" d="M142.16,144.82l-21.4-26.48c.63,0,1.27,0,1.93,0a33,33,0,0,0,3.38-.34l21.4,26.48a33,33,0,0,1-3.38.34c-.66,0-1.3,0-1.93,0"/><path class="cls-12" d="M147.47,144.43,126.07,118a28.78,28.78,0,0,0,3.47-.74L151,143.69a29.37,29.37,0,0,1-3.48.74"/><path class="cls-14" d="M151,143.69l-21.41-26.48c.74-.2,1.46-.44,2.15-.7l.45-.18,21.4,26.48-.45.18c-.69.26-1.41.5-2.14.7"/><path class="cls-21" d="M153.54,142.81l-21.4-26.48a21.87,21.87,0,0,0,2.19-1l21.4,26.48a21.87,21.87,0,0,1-2.19,1"/><path class="cls-22" d="M155.73,141.8l-21.4-26.48a20.88,20.88,0,0,0,1.88-1.14l21.4,26.48a20.88,20.88,0,0,1-1.88,1.14"/><path class="cls-23" d="M157.61,140.66l-21.4-26.48a19.51,19.51,0,0,0,1.76-1.35l21.4,26.48a19.51,19.51,0,0,1-1.76,1.35"/><path class="cls-24" d="M159.37,139.31,138,112.83l.62-.57c.42-.4.81-.81,1.19-1.25l21.4,26.48c-.38.44-.77.85-1.18,1.25l-.63.57"/><path class="cls-16" d="M161.18,137.49,139.78,111a19.44,19.44,0,0,0,3.26-5.4,24.65,24.65,0,0,0,1.62-9l21.4,26.48a24.65,24.65,0,0,1-1.62,9,19.21,19.21,0,0,1-3.26,5.4"/></g></g></g><g class="cls-2"><g class="cls-25"><g class="cls-2"><path class="cls-26" d="M135.29,133l-21.4-26.48.24.28,21.4,26.48-.24-.28"/><path class="cls-27" d="M135.53,133.31l-21.4-26.48.21.23c.23.22.46.44.71.64l21.4,26.48c-.25-.2-.48-.42-.71-.64l-.21-.23"/><path class="cls-28" d="M136.45,134.18l-21.4-26.48a10.48,10.48,0,0,0,6.69,2l21.4,26.48a10.48,10.48,0,0,1-6.69-2"/><path class="cls-27" d="M143.14,136.2l-21.4-26.48,1,0c.59,0,1.16-.09,1.7-.17L145.86,136c-.55.08-1.12.14-1.71.17l-1,0"/><path class="cls-26" d="M145.86,136l-21.41-26.48a14.93,14.93,0,0,0,1.72-.36l21.4,26.48a14.76,14.76,0,0,1-1.71.36"/><path class="cls-29" d="M147.57,135.64l-21.4-26.48a12.62,12.62,0,0,0,1.27-.43l21.4,26.48a12.62,12.62,0,0,1-1.27.43"/><path class="cls-30" d="M148.84,135.21l-21.4-26.48a11,11,0,0,0,1-.49l21.41,26.48c-.34.18-.69.34-1,.49"/><path class="cls-31" d="M149.89,134.72l-21.41-26.48a9.71,9.71,0,0,0,.94-.56l21.4,26.48c-.3.2-.61.39-.93.56"/><path class="cls-32" d="M150.82,134.16l-21.4-26.48c.31-.22.61-.45.9-.7l21.4,26.48a10.3,10.3,0,0,1-.9.7"/><path class="cls-33" d="M151.72,133.46,130.32,107a10.32,10.32,0,0,0,.82-.8l.13-.15,21.4,26.48-.13.15a10.32,10.32,0,0,1-.82.8"/><path class="cls-34" d="M152.67,132.51,131.27,106c1.87-2.16,2.81-5.54,2.85-10.14l21.4,26.48c0,4.6-1,8-2.85,10.14"/></g></g></g><polygon class="cls-7" points="155.52 122.37 134.12 95.89 134.19 85.25 155.59 111.73 155.52 122.37"/><g class="cls-2"><g class="cls-35"><g class="cls-2"><path class="cls-16" d="M135.29,133l-21.4-26.48c-1.62-2-2.41-5.15-2.38-9.47l21.41,26.48c0,4.32.76,7.47,2.37,9.47"/></g></g></g><g class="cls-2"><g class="cls-36"><g class="cls-2"><path class="cls-16" d="M113.92,140.53l-21.4-26.48A16.2,16.2,0,0,0,95,110.19a20.72,20.72,0,0,0,1.7-7.54l21.4,26.48a20.72,20.72,0,0,1-1.7,7.54,16.2,16.2,0,0,1-2.47,3.86"/></g></g></g><polygon class="cls-8" points="172.22 90.41 150.82 63.93 162.16 63.33 183.56 89.81 172.22 90.41"/><g class="cls-2"><g class="cls-37"><g class="cls-2"><path class="cls-16" d="M166.15,109.72l-21.4-26.48a23.06,23.06,0,0,0-1.49-8.9A16.79,16.79,0,0,0,140.74,70l21.41,26.48a17.05,17.05,0,0,1,2.51,4.31,23.06,23.06,0,0,1,1.49,8.9"/></g></g></g><g class="cls-2"><g class="cls-38"><g class="cls-2"><path class="cls-34" d="M155.59,111.73l-21.4-26.48q0-6.51-2.38-9.51l21.4,26.48q2.43,3,2.38,9.51"/></g></g></g><g class="cls-2"><g class="cls-39"><g class="cls-2"><path class="cls-16" d="M113.92,140.53l-21.4-26.48A16.2,16.2,0,0,0,95,110.19a20.72,20.72,0,0,0,1.7-7.54l21.4,26.48a20.72,20.72,0,0,1-1.7,7.54,16.2,16.2,0,0,1-2.47,3.86"/></g></g></g><g class="cls-2"><g class="cls-40"><g class="cls-2"><path class="cls-34" d="M126.48,138.49,105.08,112a16.65,16.65,0,0,1-2.47-4.29,23.2,23.2,0,0,1-1.46-8.83l21.4,26.48A23.19,23.19,0,0,0,124,134.2a16.35,16.35,0,0,0,2.46,4.29"/></g></g></g><polygon class="cls-5" points="132.91 123.56 111.51 97.08 111.59 86.44 132.99 112.92 132.91 123.56"/><g class="cls-2"><g class="cls-41"><g class="cls-2"><path class="cls-10" d="M81.52,142.36l-21.4-26.48A11,11,0,0,0,61.21,117l.45.38,21.4,26.48-.45-.38a12.22,12.22,0,0,1-1.09-1.07"/><path class="cls-11" d="M83.06,143.81l-21.4-26.48a14.57,14.57,0,0,0,5.91,2.76,28.75,28.75,0,0,0,6.48.69l21.4,26.48a28.75,28.75,0,0,1-6.48-.69,14.57,14.57,0,0,1-5.91-2.76"/><path class="cls-10" d="M95.45,147.26l-21.4-26.48c.71,0,1.45,0,2.2-.06,1.21-.06,2.37-.18,3.49-.34l21.4,26.48c-1.12.16-2.28.28-3.49.34-.75,0-1.49.06-2.2.06"/><path class="cls-12" d="M101.14,146.86l-21.4-26.48a31.75,31.75,0,0,0,3.42-.73l21.4,26.48a31.75,31.75,0,0,1-3.42.73"/><path class="cls-14" d="M104.56,146.13l-21.4-26.48c.45-.13.9-.27,1.34-.42s.8-.28,1.19-.44l21.4,26.48c-.39.16-.78.31-1.19.44s-.89.29-1.34.42"/><path class="cls-21" d="M107.09,145.27l-21.4-26.48a18.43,18.43,0,0,0,2-.91l21.4,26.48a17.55,17.55,0,0,1-2,.91"/><path class="cls-22" d="M109.05,144.36l-21.4-26.48a18,18,0,0,0,1.71-1l21.4,26.48a18,18,0,0,1-1.71,1"/><path class="cls-23" d="M110.76,143.33l-21.4-26.48a16.5,16.5,0,0,0,1.48-1.13l.13-.11,21.4,26.48a.69.69,0,0,1-.13.11,16.5,16.5,0,0,1-1.48,1.13"/><path class="cls-24" d="M112.37,142.09,91,115.61a14.27,14.27,0,0,0,1.55-1.56l21.4,26.48a13.43,13.43,0,0,1-1.55,1.56"/><path class="cls-16" d="M113.92,140.53l-21.4-26.48A16.2,16.2,0,0,0,95,110.19a20.72,20.72,0,0,0,1.7-7.54l21.4,26.48a20.72,20.72,0,0,1-1.7,7.54,16.2,16.2,0,0,1-2.47,3.86"/></g></g></g><polygon class="cls-8" points="107.48 129.68 86.08 103.2 96.69 102.65 118.09 129.13 107.48 129.68"/><g class="cls-2"><g class="cls-42"><g class="cls-2"><path class="cls-10" d="M144.42,99.05,123,72.57l1,0L145.39,99l-1,0"/><path class="cls-11" d="M145.39,99,124,72.55a10.41,10.41,0,0,1,6.67,2l21.4,26.48a10.4,10.4,0,0,0-6.66-2"/><path class="cls-10" d="M152.05,101.07l-21.4-26.48c.24.2.47.4.69.62l.23.25L153,101.94l-.23-.25c-.22-.22-.45-.42-.69-.62"/><path class="cls-12" d="M153,101.94l-21.4-26.48.24.28,21.4,26.48-.24-.28"/></g></g></g><g class="cls-2"><g class="cls-43"><g class="cls-2"><path class="cls-16" d="M133,112.92l-21.4-26.48q0-6.91,2.85-10.16l21.4,26.48Q133,106,133,112.92"/><path class="cls-24" d="M135.84,102.76l-21.4-26.48a1.46,1.46,0,0,1,.16-.19,8.4,8.4,0,0,1,.8-.78l21.4,26.48a8.4,8.4,0,0,0-.8.78c-.05.06-.11.12-.16.19"/><path class="cls-23" d="M136.8,101.79,115.4,75.31a10.71,10.71,0,0,1,.92-.71l21.4,26.48a10.71,10.71,0,0,0-.92.71"/><path class="cls-22" d="M137.72,101.08,116.32,74.6c.3-.2.62-.39.94-.57l21.41,26.48c-.33.18-.65.37-.95.57"/><path class="cls-21" d="M138.67,100.51,117.26,74a11.42,11.42,0,0,1,1.06-.49L139.72,100a11.23,11.23,0,0,0-1.05.49"/><path class="cls-14" d="M139.72,100l-21.4-26.48a12,12,0,0,1,1.28-.43L141,99.59a12,12,0,0,0-1.28.43"/><path class="cls-12" d="M141,99.59,119.6,73.11a14.31,14.31,0,0,1,1.71-.37l21.4,26.48a14.31,14.31,0,0,0-1.71.37"/><path class="cls-10" d="M142.71,99.22l-21.4-26.48c.55-.08,1.12-.14,1.71-.17l21.4,26.48c-.59,0-1.16.09-1.71.17"/></g></g></g><polygon class="cls-7" points="122.55 125.37 101.15 98.89 101.25 85.52 122.65 112 122.55 125.37"/><g class="cls-2"><g class="cls-44"><g class="cls-2"><path class="cls-10" d="M81.52,142.36l-21.4-26.48A11,11,0,0,0,61.21,117l.45.38,21.4,26.48-.45-.38a12.22,12.22,0,0,1-1.09-1.07"/></g></g></g><g class="cls-2"><g class="cls-45"><g class="cls-2"><path class="cls-26" d="M89.93,136.14l-21.4-26.48.09.11a1.34,1.34,0,0,0,.11.14l21.4,26.48-.11-.14-.09-.11"/><path class="cls-27" d="M90.13,136.39l-21.4-26.48a6.22,6.22,0,0,0,.7.66l21.41,26.48a5.55,5.55,0,0,1-.71-.66"/><path class="cls-28" d="M90.84,137.05,69.43,110.57a6.69,6.69,0,0,0,2.29,1.16,13.17,13.17,0,0,0,3.5.42l21.4,26.48a13.17,13.17,0,0,1-3.5-.42,6.64,6.64,0,0,1-2.28-1.16"/><path class="cls-27" d="M96.62,138.63l-21.4-26.48c.35,0,.72,0,1.1,0,.56,0,1.09-.09,1.61-.16l21.4,26.48c-.52.07-1,.13-1.61.16-.38,0-.75,0-1.1,0"/><path class="cls-26" d="M99.33,138.45,77.93,112a14.48,14.48,0,0,0,1.57-.34l21.4,26.48a14.48,14.48,0,0,1-1.57.34"/><path class="cls-29" d="M100.9,138.11,79.5,111.63a10.35,10.35,0,0,0,1.15-.39l21.4,26.48a10.35,10.35,0,0,1-1.15.39"/><path class="cls-30" d="M102.05,137.72l-21.4-26.48a8.63,8.63,0,0,0,.92-.43L103,137.29a8.63,8.63,0,0,1-.92.43"/><path class="cls-31" d="M103,137.29l-21.4-26.48a8.3,8.3,0,0,0,.81-.49l21.4,26.48a7.26,7.26,0,0,1-.81.49"/><path class="cls-32" d="M103.78,136.8l-21.4-26.48q.38-.25.72-.54l.05,0,21.4,26.48,0,0q-.34.28-.72.54"/><path class="cls-33" d="M104.55,136.21l-21.4-26.48a6.12,6.12,0,0,0,.72-.72l21.4,26.48a6.12,6.12,0,0,1-.72.72"/><path class="cls-34" d="M105.27,135.49,83.87,109a10.42,10.42,0,0,0,2.21-5.81l21.4,26.48a10.42,10.42,0,0,1-2.21,5.81"/></g></g></g><g class="cls-2"><g class="cls-46"><g class="cls-2"><path class="cls-12" d="M81.09,141.86l-21.4-26.48c.14.17.28.34.43.5l21.4,26.48c-.15-.16-.29-.33-.43-.5"/><path class="cls-10" d="M81.52,142.36l-21.4-26.48A11,11,0,0,0,61.21,117l.45.38,21.4,26.48-.45-.38a12.22,12.22,0,0,1-1.09-1.07"/></g></g></g><g class="cls-2"><g class="cls-47"><g class="cls-2"><path class="cls-16" d="M89.93,136.14,68.52,109.66A8.81,8.81,0,0,1,66.89,106l21.4,26.48a8.69,8.69,0,0,0,1.64,3.68"/></g></g></g><g class="cls-2"><g class="cls-48"><g class="cls-2"><path class="cls-16" d="M88.29,132.46,66.89,106a26.66,26.66,0,0,1-.52-5.9l21.41,26.48a26.13,26.13,0,0,0,.51,5.9"/></g></g></g><g class="cls-2"><g class="cls-49"><g class="cls-2"><path class="cls-34" d="M122.65,112,101.24,85.52a25,25,0,0,1,1.6-9.06A18.79,18.79,0,0,1,106.12,71l21.4,26.48a19,19,0,0,0-3.28,5.48,24.83,24.83,0,0,0-1.59,9.06"/><path class="cls-33" d="M127.52,97.46,106.12,71c.36-.42.74-.82,1.13-1.2l.73-.67,21.4,26.48c-.25.22-.49.44-.72.67a16.16,16.16,0,0,0-1.14,1.2"/><path class="cls-32" d="M129.38,95.59,108,69.11a17.61,17.61,0,0,1,1.75-1.34l21.4,26.48a17.61,17.61,0,0,0-1.75,1.34"/><path class="cls-31" d="M131.13,94.25l-21.4-26.48a18.7,18.7,0,0,1,1.84-1.11L133,93.14a20,20,0,0,0-1.84,1.11"/><path class="cls-30" d="M133,93.14l-21.4-26.48a20.17,20.17,0,0,1,2.1-1l21.4,26.48a20.17,20.17,0,0,0-2.1,1"/><path class="cls-29" d="M135.07,92.16l-21.4-26.48.45-.18c.71-.27,1.45-.51,2.21-.72l21.4,26.48c-.76.21-1.49.45-2.21.72l-.45.18"/><path class="cls-26" d="M137.73,91.26l-21.4-26.48a27.63,27.63,0,0,1,3.4-.73l21.41,26.48a27.4,27.4,0,0,0-3.41.73"/><path class="cls-27" d="M141.14,90.53,119.73,64.05c1.08-.16,2.2-.27,3.35-.33.66,0,1.31,0,1.94,0l21.4,26.48c-.63,0-1.28,0-1.94,0-1.15.06-2.27.17-3.34.33"/><path class="cls-28" d="M146.42,90.15,125,63.67a26.45,26.45,0,0,1,7,.89,17.24,17.24,0,0,1,6.33,3.13l21.4,26.48A17.27,17.27,0,0,0,153.47,91a26.58,26.58,0,0,0-7.05-.89"/><path class="cls-27" d="M159.79,94.17l-21.4-26.48.52.43a16,16,0,0,1,1.31,1.29l21.4,26.48a14.51,14.51,0,0,0-1.31-1.29l-.52-.43"/><path class="cls-26" d="M161.62,95.89l-21.4-26.48c.18.2.36.41.52.62l21.41,26.48c-.17-.21-.35-.42-.53-.62"/></g></g></g><g class="cls-2"><g class="cls-50"><g class="cls-2"><path class="cls-16" d="M88.29,132.46,66.89,106a26.66,26.66,0,0,1-.52-5.9l21.41,26.48a26.13,26.13,0,0,0,.51,5.9"/></g></g></g><polygon class="cls-4" points="108.02 108.86 86.62 82.38 96.97 81.84 118.37 108.32 108.02 108.86"/><g class="cls-2"><g class="cls-51"><g class="cls-2"><path class="cls-16" d="M118.37,108.32,97,81.84a17,17,0,0,0-3.5-10l21.4,26.48a17,17,0,0,1,3.5,10"/></g></g></g><g class="cls-2"><g class="cls-52"><g class="cls-2"><path class="cls-34" d="M81.09,141.86l-21.4-26.48a14.9,14.9,0,0,1-2.35-4.25,25.06,25.06,0,0,1-1.27-8.73l21.4,26.48a25.06,25.06,0,0,0,1.27,8.73,14.9,14.9,0,0,0,2.35,4.25"/></g></g></g><g class="cls-2"><g class="cls-53"><g class="cls-2"><path class="cls-16" d="M118.37,108.32,97,81.84a17,17,0,0,0-3.5-10l21.4,26.48a17,17,0,0,1,3.5,10"/></g></g></g><g class="cls-2"><g class="cls-54"><g class="cls-2"><path class="cls-34" d="M108,108.86,86.62,82.38a10.65,10.65,0,0,0-2-5.06l21.4,26.48a10.65,10.65,0,0,1,2,5.06"/></g></g></g><polygon class="cls-5" points="87.78 126.56 66.38 100.08 66.46 88.8 87.86 115.28 87.78 126.56"/><g class="cls-2"><g class="cls-55"><g class="cls-2"><path class="cls-10" d="M97.11,101.61,75.71,75.13c.53-.08,1.08-.13,1.65-.16l1,0,21.4,26.48-1,0c-.58,0-1.13.08-1.66.16"/></g></g></g><g class="cls-2"><g class="cls-56"><g class="cls-2"><path class="cls-16" d="M87.86,115.28,66.46,88.8q0-7.11,2.77-10.33l0,0,21.4,26.48,0,0q-2.73,3.22-2.77,10.33"/></g></g></g><g class="cls-2"><g class="cls-57"><g class="cls-2"><path class="cls-16" d="M87.86,115.28,66.46,88.8q0-7.11,2.77-10.33l0,0,21.4,26.48,0,0q-2.73,3.22-2.77,10.33"/><path class="cls-24" d="M90.67,104.9,69.27,78.42a7.65,7.65,0,0,1,.9-.9L91.57,104a7.65,7.65,0,0,0-.9.9"/><path class="cls-23" d="M91.57,104,70.17,77.52a8.8,8.8,0,0,1,.83-.65l21.41,26.48a7.81,7.81,0,0,0-.84.65"/><path class="cls-22" d="M92.41,103.35,71,76.87a8.48,8.48,0,0,1,.88-.52l21.4,26.48a7.41,7.41,0,0,0-.87.52"/><path class="cls-21" d="M93.28,102.83,71.88,76.35a8,8,0,0,1,1-.46l21.4,26.48a8,8,0,0,0-1,.46"/><path class="cls-14" d="M94.26,102.37,72.86,75.89a11.46,11.46,0,0,1,1.21-.41L95.47,102a11.46,11.46,0,0,0-1.21.41"/><path class="cls-12" d="M95.47,102,74.07,75.48a13.57,13.57,0,0,1,1.64-.35l21.4,26.48a13.57,13.57,0,0,0-1.64.35"/><path class="cls-10" d="M97.11,101.61,75.71,75.13c.53-.08,1.08-.13,1.65-.16l1,0,21.4,26.48-1,0c-.58,0-1.13.08-1.66.16"/><path class="cls-11" d="M99.76,101.42,78.36,74.94a8.64,8.64,0,0,1,5.44,1.52h0l21.4,26.48h0a8.64,8.64,0,0,0-5.44-1.52"/><path class="cls-10" d="M105.2,102.94,83.8,76.46a5.39,5.39,0,0,1,.65.62l21.4,26.48a5.39,5.39,0,0,0-.65-.62"/><path class="cls-12" d="M105.85,103.56,84.45,77.08l.2.24,21.4,26.48-.2-.24"/></g></g></g><polygon class="cls-7" points="77.47 128.88 56.07 102.4 56.18 87.24 77.58 113.72 77.47 128.88"/><g class="cls-2"><g class="cls-58"><g class="cls-2"><path class="cls-27" d="M98.83,92.59,77.43,66.11c.64,0,1.26,0,1.88,0l21.4,26.48c-.61,0-1.24,0-1.88,0"/><path class="cls-28" d="M100.71,92.54,79.31,66.06q7.51,0,12,3.57l21.4,26.48q-4.45-3.56-12-3.57"/><path class="cls-27" d="M112.69,96.11,91.29,69.63l.21.17A14.62,14.62,0,0,1,93,71.24l21.4,26.48a14.62,14.62,0,0,0-1.5-1.44l-.21-.17"/><path class="cls-26" d="M114.4,97.72,93,71.24c.16.18.32.37.47.56l21.4,26.48c-.15-.19-.31-.38-.47-.56"/></g></g></g><g class="cls-2"><g class="cls-59"><g class="cls-2"><path class="cls-34" d="M77.58,113.72,56.18,87.24a25.59,25.59,0,0,1,1.49-9A17.5,17.5,0,0,1,60.78,73l21.4,26.48a17.5,17.5,0,0,0-3.11,5.28,25.59,25.59,0,0,0-1.49,9"/><path class="cls-33" d="M82.18,99.48,60.78,73a13.55,13.55,0,0,1,1.11-1.16c.18-.18.38-.36.57-.53l21.4,26.48c-.19.17-.39.35-.57.53a13.55,13.55,0,0,0-1.11,1.16"/><path class="cls-32" d="M83.86,97.79,62.46,71.31A18.68,18.68,0,0,1,64.12,70l21.4,26.48a18.68,18.68,0,0,0-1.66,1.27"/><path class="cls-31" d="M85.52,96.52,64.12,70A20.15,20.15,0,0,1,65.86,69L87.27,95.46a18.91,18.91,0,0,0-1.75,1.06"/><path class="cls-30" d="M87.27,95.46,65.86,69a21.5,21.5,0,0,1,2-.93l21.4,26.48a20.18,20.18,0,0,0-2,.93"/><path class="cls-29" d="M89.26,94.53,67.86,68.05l.7-.26c.58-.21,1.18-.4,1.8-.58l21.4,26.48c-.62.18-1.22.37-1.8.58l-.7.26"/><path class="cls-26" d="M91.76,93.69,70.36,67.21a30.52,30.52,0,0,1,3.53-.75l21.4,26.48a30.52,30.52,0,0,0-3.53.75"/><path class="cls-27" d="M95.29,92.94,73.89,66.46a35.36,35.36,0,0,1,3.54-.35l21.4,26.48a35.36,35.36,0,0,0-3.54.35"/></g></g></g><polygon class="cls-4" points="50.63 47.1 29.23 20.62 403.46 1.01 424.86 27.49 50.63 47.1"/><path d="M424.87,26.52c15.59-.82,28.18,11,28.06,26.39l-.76,105.89c-.11,15.36-12.87,28.52-28.46,29.34L49.47,207.75c-15.58.82-28.18-11-28.07-26.38l.76-105.88C22.27,60.12,35.05,47,50.64,46.13ZM451.2,158.85,452,53c.11-14.84-12-26.26-27.1-25.47L50.63,47.1c-15.05.79-27.38,13.5-27.49,28.33l-.76,105.89c-.11,14.84,12.05,26.26,27.1,25.47l374.24-19.61c15-.79,27.37-13.49,27.48-28.33"/><polygon class="cls-60" points="313.24 83.02 313.17 91.75 290.31 92.95 290.22 105.6 310.41 104.55 310.35 113.4 290.15 114.46 290.06 127.23 313.65 126 313.58 134.86 279.45 136.65 279.82 84.77 313.24 83.02"/><polygon class="cls-60" points="219.19 87.94 218.81 139.83 209.3 140.33 209.51 110.72 199.79 140.83 190.87 141.3 181.64 112.13 181.43 141.79 171.85 142.29 172.22 90.41 183.56 89.81 195.46 127.25 207.85 88.54 219.19 87.94"/><polygon class="cls-60" points="357.73 80.68 357.36 132.57 347.8 133.07 329.38 101.11 329.14 134.05 318.6 134.6 318.97 82.72 328.74 82.2 347.33 114.23 347.57 81.22 357.73 80.68"/><path class="cls-60" d="M164.66,100.82a23.06,23.06,0,0,1,1.49,8.9l-.09,13.37a24.65,24.65,0,0,1-1.62,9,19,19,0,0,1-4.44,6.65,20.53,20.53,0,0,1-6.91,4.25,29.55,29.55,0,0,1-9,1.78,28,28,0,0,1-8.94-.84,17.46,17.46,0,0,1-6.81-3.53,15.55,15.55,0,0,1-4.32-6.2,23.19,23.19,0,0,1-1.47-8.83l.1-13.37a24.83,24.83,0,0,1,1.59-9.06,18.63,18.63,0,0,1,4.42-6.68A19.86,19.86,0,0,1,135.52,92a29.28,29.28,0,0,1,9-1.78,28,28,0,0,1,9,.84,17.11,17.11,0,0,1,6.84,3.56A16.32,16.32,0,0,1,164.66,100.82Zm-9.14,21.55.07-10.64q.06-7.11-2.85-10c-2-1.94-4.72-2.83-8.32-2.64s-6.45,1.37-8.42,3.52-3,5.61-3,10.35l-.08,10.64q0,7,2.83,10c1.92,1.94,4.72,2.83,8.41,2.63s6.45-1.37,8.39-3.51,2.94-5.58,3-10.29"/><polygon class="cls-60" points="398.76 78.53 398.69 87.27 385.54 87.96 385.23 131.11 374.68 131.66 374.99 88.51 361.83 89.2 361.9 80.47 398.76 78.53"/><polygon class="cls-60" points="272.98 85.13 272.61 137.01 263.11 137.51 263.32 107.91 253.59 138.01 244.67 138.48 235.43 109.31 235.22 138.97 225.65 139.47 226.02 87.59 237.36 86.99 249.26 124.44 261.65 85.72 272.98 85.13"/><path class="cls-60" d="M98.83,92.59q9-.48,14.07,3.69t5.47,12l-10.35.54q-.69-4.22-2.82-5.92t-6.43-1.49q-5.42.28-8.14,3.5t-2.77,10.33l-.08,11.29a26.1,26.1,0,0,0,.51,5.89A8.6,8.6,0,0,0,90,136.25a6.21,6.21,0,0,0,3.1,2,14.73,14.73,0,0,0,4.6.4,11.05,11.05,0,0,0,6.78-2.35c1.66-1.41,2.65-3.61,3-6.58l10.61-.55a20.72,20.72,0,0,1-1.7,7.54,15.75,15.75,0,0,1-4.15,5.53,18.9,18.9,0,0,1-6.34,3.51,30.36,30.36,0,0,1-8.25,1.49,31.18,31.18,0,0,1-8.68-.63,14.32,14.32,0,0,1-6.36-3.14,13.74,13.74,0,0,1-3.87-5.82,25.06,25.06,0,0,1-1.27-8.73l.11-15.16a25.59,25.59,0,0,1,1.49-9,17.12,17.12,0,0,1,4.22-6.44,18.78,18.78,0,0,1,6.67-4A30.41,30.41,0,0,1,98.83,92.59Z"/><path d="M428.63,26.58l.56.05c.56.06,1.11.13,1.66.22l.44.06c.66.12,1.32.27,2,.43l.44.12c.52.15,1,.3,1.54.48l.5.17c.63.22,1.24.46,1.83.73l.21.1c.53.24,1.05.51,1.57.79l.47.26c.5.28,1,.58,1.46.89l.22.14c.54.37,1.05.75,1.56,1.15l.4.32c.38.32.76.64,1.12,1l.36.33q.69.64,1.32,1.35c.32.35.63.71.92,1.08L425.78,9.75q-.42-.52-.87-1l-.05-.06q-.63-.71-1.32-1.35L423.18,7c-.37-.34-.74-.66-1.12-1l-.25-.21-.15-.11c-.51-.4-1-.78-1.56-1.15l-.22-.14c-.48-.31-1-.6-1.46-.89L418,3.25c-.52-.28-1-.55-1.58-.79l-.2-.1c-.59-.27-1.21-.51-1.83-.73l-.5-.17c-.51-.18-1-.33-1.54-.48l-.44-.12c-.65-.16-1.31-.31-2-.43l-.44-.06c-.55-.09-1.1-.16-1.66-.22l-.56,0c-.7-.06-1.4-.1-2.11-.1h0c-.54,0-1.08,0-1.63,0L29.24,19.65l-1.44.11-.48.06c-.31,0-.61.07-.91.12h0q-.82.14-1.62.3l-.48.11-1.13.28-.27.06-.3.1-.92.28-.57.19q-.48.16-1,.36l-.37.14-.11,0-1.16.5-.23.11c-.46.21-.92.44-1.36.68l-.06,0-.29.16c-.34.18-.67.37-1,.57l-.47.29-.85.55-.24.15-.22.16c-.34.24-.68.48-1,.73l-.34.26c-.43.33-.86.68-1.27,1l-.05,0-.13.12c-.45.4-.89.81-1.32,1.24l-.27.26c-.45.46-.89.93-1.31,1.42L8,30.22l-.35.42-.35.43c-.17.21-.33.43-.5.65l-.31.41-.53.75a4,4,0,0,0-.23.34c-.25.37-.49.74-.72,1.12l-.09.16c-.2.33-.39.66-.57,1-.08.13-.15.27-.22.41s-.27.51-.39.77-.16.33-.23.49-.23.48-.33.73-.15.34-.22.52-.2.47-.29.72l-.2.54-.25.72c-.06.19-.12.37-.17.56s-.15.49-.22.73l-.15.57L1.46,43l-.12.57-.15.77-.09.56c-.05.27-.08.55-.11.82s-.05.35-.07.53-.06.61-.08.92l0,.45c0,.45,0,.91-.05,1.38L0,154.89a26,26,0,0,0,5.75,16.67L27.15,198A25.6,25.6,0,0,1,23.51,192l4.42,5.47c.27.33.55.66.84,1l.05.06c.41.45.83.88,1.27,1.3l.35.32c.35.33.71.64,1.08.95l.24.2.15.11c.49.38,1,.75,1.5,1.1l.22.14c.46.3.93.59,1.4.86l.46.25c.5.27,1,.53,1.53.77l.19.09c.57.26,1.17.49,1.77.71l.48.16c.49.17,1,.32,1.49.46l.43.12c.62.16,1.26.3,1.9.41l.42.07c.53.08,1.07.15,1.61.21l.54.05c.67,0,1.35.09,2,.09h0c.52,0,1,0,1.57,0l-21.4-26.48c-.54,0-1.07,0-1.6,0s-1.36,0-2-.09l-.54,0c-.51-.06-1-.12-1.52-.2l.75-104.58c0-.44,0-.88,0-1.33,0-.14,0-.29,0-.43,0-.3,0-.59.07-.88s0-.35.07-.52.06-.53.1-.79.06-.36.1-.54.08-.5.14-.74a5.59,5.59,0,0,1,.12-.56c.05-.24.11-.48.17-.72s.09-.36.15-.55.13-.47.2-.7.11-.36.17-.54l.24-.7.19-.52c.09-.24.19-.47.28-.7l.21-.5c.1-.24.21-.47.32-.7s.14-.32.22-.47.25-.5.38-.74l.21-.4q.27-.51.57-1s.05-.09.07-.13q.33-.56.69-1.08l.23-.34c.17-.24.33-.48.51-.72s.2-.27.31-.4.31-.41.47-.62.23-.27.35-.41.28-.35.43-.51c.41-.47.83-.93,1.26-1.37l.27-.26c.41-.41.83-.8,1.27-1.19l.17-.16c.4-.34.81-.68,1.23-1l.33-.25,1-.7.45-.31.81-.52.46-.28,1-.55.35-.19c.43-.23.86-.45,1.3-.65l.22-.1,1.13-.49.46-.18c.31-.12.62-.24.93-.34l.54-.18.9-.28.54-.15,1.11-.27.45-.11c.52-.11,1-.21,1.57-.29l.92-.11.45-.06c.46-.05.92-.08,1.39-.11l-.74-.91.75-.06L424.87,26.52c.56,0,1.11,0,1.65,0C427.23,26.48,427.93,26.52,428.63,26.58Z"/><path class="cls-61" d="M144.42,99.05c3.6-.19,6.37.7,8.32,2.64s2.89,5.3,2.85,10l-.07,10.64c0,4.71-1,8.13-3,10.29s-4.74,3.32-8.39,3.51-6.49-.69-8.41-2.63-2.86-5.28-2.82-10l.07-10.64q.06-7.11,3-10.35C138,100.42,140.77,99.24,144.42,99.05Z"/><path class="cls-61" d="M424.86,27.49,50.63,47.1c-15.05.79-27.38,13.5-27.49,28.33l-.76,105.89c-.11,14.84,12.05,26.26,27.1,25.47l374.24-19.61c15-.79,27.37-13.49,27.48-28.33L452,53C452.07,38.12,439.91,26.7,424.86,27.49Zm-336.57,105A8.6,8.6,0,0,0,90,136.25a6.21,6.21,0,0,0,3.1,2,14.73,14.73,0,0,0,4.6.4,11.05,11.05,0,0,0,6.78-2.35c1.66-1.41,2.65-3.61,3-6.58l10.61-.55a20.72,20.72,0,0,1-1.7,7.54,15.75,15.75,0,0,1-4.15,5.53,19,19,0,0,1-6.34,3.51,30.36,30.36,0,0,1-8.25,1.49,31.18,31.18,0,0,1-8.68-.63,14.32,14.32,0,0,1-6.36-3.14,13.74,13.74,0,0,1-3.87-5.82,25.06,25.06,0,0,1-1.27-8.73l.11-15.16a25.59,25.59,0,0,1,1.49-9,17.12,17.12,0,0,1,4.22-6.44,18.78,18.78,0,0,1,6.67-4,30.41,30.41,0,0,1,8.87-1.68q9-.48,14.07,3.69t5.47,12l-10.35.54q-.69-4.22-2.82-5.92t-6.43-1.49q-5.42.28-8.14,3.5t-2.77,10.33l-.08,11.28a26.13,26.13,0,0,0,.51,5.9m77.77-9.37a24.65,24.65,0,0,1-1.62,9,19,19,0,0,1-4.44,6.65,20.53,20.53,0,0,1-6.91,4.25,29.61,29.61,0,0,1-9,1.78,28,28,0,0,1-8.94-.84,17.46,17.46,0,0,1-6.81-3.53,15.67,15.67,0,0,1-4.33-6.2,23.39,23.39,0,0,1-1.46-8.83l.1-13.37a24.83,24.83,0,0,1,1.59-9.06,18.63,18.63,0,0,1,4.42-6.68A19.86,19.86,0,0,1,135.52,92a29.22,29.22,0,0,1,9-1.78,28,28,0,0,1,9,.84,17.18,17.18,0,0,1,6.84,3.56,16.32,16.32,0,0,1,4.35,6.22,23.06,23.06,0,0,1,1.49,8.9l-.09,13.37m52.75,16.74-9.51.5.21-29.61-9.72,30.11-8.92.47-9.23-29.17-.22,29.66-9.57.5.37-51.88,11.34-.6,11.9,37.44,12.39-38.71,11.34-.6-.38,51.89m53.8-2.82-9.51.5.22-29.6L253.59,138l-8.92.47-9.24-29.17L235.22,139l-9.58.5L226,87.59l11.34-.6,11.9,37.45,12.39-38.72L273,85.13,272.61,137m41-2.15-34.13,1.79.37-51.88L313.24,83l-.07,8.73L290.31,93l-.09,12.65,20.19-1-.06,8.85-20.2,1.06-.09,12.77L313.65,126l-.07,8.86m43.78-2.29-9.56.5-18.42-32-.24,32.94-10.55.55L319,82.72l9.76-.52,18.6,32,.24-33,10.16-.54-.37,51.89m41.33-45.3L385.54,88l-.31,43.15-10.56.55L375,88.51l-13.15.69.07-8.73,36.86-1.94-.07,8.74"/></g></g></svg>