<svg xmlns="http://www.w3.org/2000/svg" xmlns:xlink="http://www.w3.org/1999/xlink" width="436.87" height="200.41" viewBox="0 0 436.87 200.41"><defs><style>.cls-1{fill:none;}.cls-2{isolation:isolate;}.cls-3{clip-path:url(#clip-path);}.cls-4{clip-path:url(#clip-path-2);}.cls-5{fill:#142460;}.cls-6{fill:#142563;}.cls-7{fill:#13235d;}.cls-8{fill:#152667;}.cls-9{fill:#fff;}.cls-10{fill:#2340ad;}</style><clipPath id="clip-path"><path class="cls-1" d="M409.92,10.37l21.4,26.48A25.17,25.17,0,0,1,436.87,53l-21.4-26.48A25.17,25.17,0,0,0,409.92,10.37Z"/></clipPath><clipPath id="clip-path-2"><path class="cls-1" d="M409.92,10.37l21.4,26.48a25.72,25.72,0,0,0-21.55-9.37L388.37,1A25.72,25.72,0,0,1,409.92,10.37Z"/></clipPath></defs><g id="레이어_2" data-name="레이어 2"><g id="레이어_1-2" data-name="레이어 1"><g class="cls-2"><g class="cls-3"><g class="cls-2"><path d="M436.87,53l-21.4-26.48a25.17,25.17,0,0,0-5.55-16.1l21.4,26.48A25.17,25.17,0,0,1,436.87,53"/></g></g></g><g class="cls-2"><g class="cls-4"><g class="cls-2"><path class="cls-5" d="M409.77,27.48,388.37,1c.53,0,1.05,0,1.57,0l21.4,26.48c-.52,0-1,0-1.57,0"/><path class="cls-6" d="M411.34,27.44,389.94,1a25.91,25.91,0,0,1,16.15,5.6L427.49,33a25.91,25.91,0,0,0-16.15-5.6"/><path class="cls-5" d="M427.49,33,406.09,6.56a25.8,25.8,0,0,1,3,2.83l21.4,26.48a25.8,25.8,0,0,0-3-2.83"/><path class="cls-7" d="M430.48,35.87,409.08,9.39c.29.32.56.64.84,1l21.4,26.48c-.27-.34-.55-.66-.84-1"/></g></g></g><polygon class="cls-8" points="50.59 46.31 29.19 19.83 388.37 1 409.77 27.48 50.59 46.31"/><path class="cls-9" d="M251.26,93.37a22.37,22.37,0,0,1,1.45,8.6l-.1,12.89a23.3,23.3,0,0,1-1.57,8.69,18.13,18.13,0,0,1-4.28,6.42,19.66,19.66,0,0,1-6.66,4.09,28.66,28.66,0,0,1-8.68,1.73,27,27,0,0,1-8.64-.82,16.85,16.85,0,0,1-6.57-3.4,15.14,15.14,0,0,1-4.17-6,22.31,22.31,0,0,1-1.41-8.53l.09-12.89a24.1,24.1,0,0,1,1.54-8.75A18.1,18.1,0,0,1,216.51,89a19.5,19.5,0,0,1,6.63-4.13,29,29,0,0,1,8.65-1.72,27.83,27.83,0,0,1,8.67.81,16.75,16.75,0,0,1,6.6,3.43A15.82,15.82,0,0,1,251.26,93.37Zm-8.82,20.81.08-10.27q0-6.87-2.76-9.69t-8-2.55c-3.52.18-6.23,1.32-8.12,3.4s-2.87,5.4-2.91,10l-.07,10.27q0,6.8,2.73,9.62c1.85,1.89,4.56,2.73,8.12,2.55s6.21-1.32,8.1-3.4,2.83-5.38,2.86-9.91"/><path class="cls-9" d="M277.87,80.71q8.73-.46,13.57,3.52c3.23,2.67,5,6.52,5.29,11.59l-10.05.53c-.45-2.7-1.34-4.62-2.69-5.77s-3.42-1.65-6.18-1.51c-3.53.19-6.14,1.43-7.86,3.72s-2.58,5.77-2.61,10.4l-.07,9q-.09,13.51,10.15,13a10.86,10.86,0,0,0,6.93-2.71,9.15,9.15,0,0,0,2.81-7.09l0-3.4-9.05.47.06-8.18,18.6-1-.09,12.77a17.78,17.78,0,0,1-1.43,7.22,14.66,14.66,0,0,1-3.94,5.29,18.32,18.32,0,0,1-6.08,3.36,29.51,29.51,0,0,1-7.9,1.43q-9.56.51-14.86-4.21t-5.24-14.56l.1-12.88A25.46,25.46,0,0,1,258.8,93a17.67,17.67,0,0,1,4.07-6.44,18.41,18.41,0,0,1,6.44-4.12A27.86,27.86,0,0,1,277.87,80.71Z"/><polygon class="cls-9" points="381.69 76.88 381.63 85.3 359.56 86.46 359.48 98.67 378.97 97.65 378.91 106.19 359.42 107.22 359.33 119.55 382.08 118.36 382.02 126.91 349.09 128.63 349.45 78.57 381.69 76.88"/><path class="cls-9" d="M342.84,78.91l-.22,31.29q-.08,10.35-4.86,15.31T322.87,131q-10.19.52-14.87-3.93t-4.6-14.81L303.63,81l10.18-.53-.24,32.46q-.07,10.29,9.39,9.79t9.59-10.78l.24-32.47Z"/><polygon class="cls-9" points="189.36 86.96 189.06 128.47 209.23 127.41 209.17 135.97 178.81 137.56 179.17 87.49 189.36 86.96"/><polygon class="cls-9" points="173.95 87.77 173.9 95.7 169.31 95.94 169.06 130.13 173.65 129.89 173.59 137.83 154.55 138.83 154.61 130.89 159.08 130.66 159.32 96.46 154.85 96.69 154.91 88.76 173.95 87.77"/><path class="cls-9" d="M151.84,100.32a18.75,18.75,0,0,1,.88,5.53,20.35,20.35,0,0,1-.95,5.62,17.88,17.88,0,0,1-2.93,5.64A16.78,16.78,0,0,1,136,123.64l-9.29.48-.11,16.18-10.18.53.36-50.07,19.42-1A15.86,15.86,0,0,1,143.87,91,14.4,14.4,0,0,1,149,95,15.59,15.59,0,0,1,151.84,100.32ZM140,112.93a8.56,8.56,0,0,0,2.53-6.55c0-2.8-.8-4.89-2.44-6.25s-4-2-7-1.8l-6.26.32-.12,17.1,6.25-.33a10.9,10.9,0,0,0,7-2.49"/><polygon class="cls-9" points="111.23 91.05 111.17 99.48 89.1 100.63 89.01 112.84 108.5 111.82 108.44 120.37 88.95 121.39 88.86 133.72 111.63 132.53 111.56 141.08 78.62 142.81 78.98 92.74 111.23 91.05"/><path d="M410.7,9.75q-.42-.52-.87-1l-.05-.06q-.63-.69-1.32-1.35L408.1,7c-.36-.34-.74-.66-1.12-1-.09-.06-.16-.14-.25-.21l-.15-.11q-.76-.6-1.56-1.14l-.22-.14c-.48-.32-1-.61-1.46-.9l-.47-.26c-.52-.28-1.05-.55-1.58-.79l-.2-.1c-.6-.26-1.21-.51-1.83-.73l-.5-.17c-.51-.17-1-.33-1.55-.48l-.44-.12c-.65-.16-1.3-.31-2-.43l-.44-.06c-.55-.09-1.1-.16-1.66-.22l-.56,0c-.7-.06-1.4-.1-2.11-.1h0c-.54,0-1.08,0-1.63,0L29.19,18.86q-.72,0-1.44.12l-.47.06-.92.11h0c-.55.08-1.09.18-1.63.29l-.47.11-1.14.28-.27.07c-.1,0-.2.06-.3.09l-.92.29-.57.18-1,.36-.37.14L19.6,21l-1.17.5-.22.1c-.46.22-.91.44-1.36.68l-.06,0-.3.17-1,.56-.47.29-.85.55-.24.15-.22.16c-.34.24-.68.48-1,.74l-.34.25c-.43.33-.85.68-1.27,1l0,0-.13.12q-.67.6-1.32,1.23l-.27.27c-.45.46-.89.93-1.31,1.42l-.1.11-.35.42-.35.42-.5.66c-.11.13-.21.27-.31.4l-.53.75-.24.35c-.24.37-.48.74-.71,1.12a.75.75,0,0,0-.07.12c-.21.34-.41.69-.6,1l-.21.42c-.14.25-.27.51-.4.77s-.15.32-.22.48-.23.49-.34.73l-.21.52c-.1.24-.2.48-.29.72l-.2.54-.25.72c-.06.19-.12.38-.17.57s-.15.48-.22.73l-.15.56-.18.75-.12.57c-.06.26-.1.51-.15.77l-.09.57c-.05.27-.08.54-.11.81s0,.36-.07.54-.06.6-.08.9l0,.46c0,.46-.05.92-.05,1.38L0,148.47a26,26,0,0,0,5.75,16.68l21.4,26.48a25.67,25.67,0,0,1-3.64-6.1L27.93,191h0c.27.33.55.66.84,1l.05.06c.41.45.83.88,1.27,1.3l.35.32c.35.32.71.64,1.08.94l.24.21.15.11c.49.38,1,.75,1.5,1.1l.22.14c.46.3.93.58,1.41.86l.45.25c.5.27,1,.53,1.53.76l.19.1c.57.26,1.17.49,1.77.71l.48.16c.49.17,1,.32,1.49.46l.43.12c.62.16,1.26.29,1.9.41l.42.06c.53.09,1.07.16,1.61.21l.54.05c.67.06,1.35.09,2,.1h0c.52,0,1,0,1.57,0l-21.4-26.48c-.54,0-1.07,0-1.6,0s-1.36,0-2-.1l-.54-.05c-.51-.05-1-.11-1.52-.19l.71-98.95c0-.45,0-.89,0-1.33,0-.15,0-.3,0-.44,0-.3,0-.59.07-.88l.06-.52c0-.26.07-.52.11-.78l.09-.55c0-.25.09-.5.14-.74s.08-.37.13-.55.11-.48.17-.72.09-.37.14-.55l.21-.71c.06-.18.11-.36.17-.54l.24-.7.19-.52c.09-.23.19-.46.28-.7s.13-.3.19-.46c.23-.53.48-1.06.75-1.58.05-.1.1-.21.16-.31.27-.52.56-1,.86-1.55l0,0c.31-.51.64-1,1-1.5l.21-.29c.33-.48.68-.94,1-1.39a2.43,2.43,0,0,1,.2-.25c.25-.31.52-.62.79-.92l.78-.84.66-.66.84-.79.76-.67.59-.48.92-.71.62-.44c.36-.26.74-.51,1.11-.75l.41-.26c.53-.32,1.06-.63,1.61-.92.1,0,.2-.09.3-.15.45-.23.9-.45,1.36-.65l.54-.24c.4-.17.82-.33,1.23-.49l.54-.2c.56-.19,1.12-.38,1.7-.54l.08,0c.61-.18,1.23-.32,1.86-.45l.59-.11c.46-.09.92-.17,1.39-.23l.44-.06c.62-.07,1.24-.13,1.87-.16l-.73-.91.74-.06L409.78,26.52c.56,0,1.11,0,1.66,0s1.4,0,2.1.1l.56.05c.56.06,1.12.13,1.66.22l.44.06c.67.12,1.32.27,2,.43l.44.12c.53.15,1,.31,1.55.48l.5.17c.62.22,1.23.47,1.83.73l.2.1c.54.24,1.06.51,1.58.79l.47.26c.5.29,1,.58,1.46.9l.22.14c.54.36,1.05.74,1.56,1.14l.4.32c.38.32.76.64,1.12,1l.36.33q.69.66,1.32,1.35c.32.35.63.71.92,1.08Z"/><path class="cls-10" d="M231.73,91.67q5.22-.27,8,2.55t2.76,9.69l-.08,10.27q0,6.79-2.86,9.91t-8.1,3.4c-3.56.18-6.27-.66-8.12-2.55s-2.76-5.09-2.73-9.62l.07-10.27c0-4.58,1-7.91,2.91-10S228.21,91.85,231.73,91.67Z"/><path class="cls-10" d="M133.14,98.33c3-.16,5.33.43,7,1.8s2.46,3.45,2.44,6.25a8.56,8.56,0,0,1-2.53,6.55,10.9,10.9,0,0,1-7,2.49l-6.25.33.12-17.1Z"/><path class="cls-10" d="M436.87,53a25.21,25.21,0,0,0-5.31-15.8,24.52,24.52,0,0,0-3.5-3.63,23.23,23.23,0,0,0-2-1.54,25.19,25.19,0,0,0-3.3-1.93c-.77-.37-1.57-.71-2.38-1-.41-.15-.82-.29-1.23-.41a26.71,26.71,0,0,0-8-1.19c-.47,0-.94,0-1.41,0l-17.88.94L50.59,46.31A29.14,29.14,0,0,0,31.24,55.2l-.07.07A30.07,30.07,0,0,0,28.1,59c-.16.24-.33.48-.49.73a30.36,30.36,0,0,0-2,3.63,27.89,27.89,0,0,0-1.5,4.1c-.07.23-.13.46-.19.69a27.08,27.08,0,0,0-.83,6.45L22.38,174.9a25.8,25.8,0,0,0,.51,5.39c.09.43.19.86.3,1.28a24.83,24.83,0,0,0,6.16,11c.29.3.59.6.9.88a25.13,25.13,0,0,0,6.25,4.31c.39.19.78.37,1.18.53a26.47,26.47,0,0,0,11.8,2l340.36-17.84,18.82-1a29.2,29.2,0,0,0,27.49-28.33ZM111.56,141.08l-32.94,1.73L79,92.74l32.25-1.69-.06,8.43L89.1,100.63,89,112.84l19.49-1-.06,8.55-19.49,1-.09,12.33,22.76-1.19-.06,8.55m40.21-29.61a17.88,17.88,0,0,1-2.93,5.64A16.78,16.78,0,0,1,136,123.64l-9.29.48-.11,16.18-10.18.53.36-50.07,19.42-1A15.86,15.86,0,0,1,143.87,91,14.4,14.4,0,0,1,149,95a15.59,15.59,0,0,1,2.85,5.36,18.4,18.4,0,0,1,.87,5.53,20,20,0,0,1-.94,5.62M173.9,95.7l-4.59.24-.25,34.19,4.59-.24-.06,7.94-19,1,.06-7.94,4.47-.23.24-34.2-4.46.23,0-7.93,19-1,0,7.93M209.17,136l-30.36,1.59.36-50.07L189.36,87l-.3,41.51,20.17-1.06-.06,8.56m43.44-21.11a24.78,24.78,0,0,1-.89,6.72,19.84,19.84,0,0,1-.68,2q-.39.95-.84,1.83a18.22,18.22,0,0,1-2.14,3.2,17.1,17.1,0,0,1-1.3,1.39,19.66,19.66,0,0,1-6.66,4.09,27.2,27.2,0,0,1-6.35,1.53c-.76.09-1.54.16-2.33.2s-1.58.06-2.33,0a25.75,25.75,0,0,1-4.32-.41c-.68-.12-1.34-.27-2-.45s-1.26-.38-1.85-.61a17.93,17.93,0,0,1-1.72-.77,15.3,15.3,0,0,1-3-2,14.46,14.46,0,0,1-3.36-4.24,15.42,15.42,0,0,1-.81-1.74c-.12-.3-.23-.61-.34-.93a19.58,19.58,0,0,1-.54-2c-.07-.34-.14-.69-.2-1-.12-.71-.2-1.45-.26-2.21s-.08-1.56-.07-2.37l.09-12.89c0-.83,0-1.63.11-2.4,0-.39.07-.78.12-1.15q.15-1.14.39-2.19a21.21,21.21,0,0,1,.57-2.05c.11-.32.22-.65.35-1a18.76,18.76,0,0,1,1.82-3.51A17.19,17.19,0,0,1,216.51,89a19.5,19.5,0,0,1,6.63-4.13c.65-.24,1.31-.46,2-.66s1.38-.36,2.1-.5a32.69,32.69,0,0,1,9.11-.48c.72.07,1.42.16,2.11.29s1.35.27,2,.44c.44.12.84.27,1.25.42a16.91,16.91,0,0,1,2.34,1,15.42,15.42,0,0,1,3,2,14,14,0,0,1,1.28,1.27,16.09,16.09,0,0,1,2.92,4.74,18.43,18.43,0,0,1,.9,2.92c.07.34.14.69.2,1a27.13,27.13,0,0,1,.35,4.63l-.1,12.89m44.1,1.22a17.78,17.78,0,0,1-1.43,7.22,14.66,14.66,0,0,1-3.94,5.29,18.32,18.32,0,0,1-6.08,3.36,29.51,29.51,0,0,1-7.9,1.43q-9.56.51-14.86-4.21t-5.24-14.56l.1-12.88A25.46,25.46,0,0,1,258.8,93a17.67,17.67,0,0,1,4.07-6.44,18.41,18.41,0,0,1,6.44-4.12,27.86,27.86,0,0,1,8.56-1.71q8.73-.46,13.57,3.52t5.29,11.59l-10.05.53c-.45-2.7-1.34-4.62-2.69-5.77s-3.42-1.65-6.18-1.51c-3.53.19-6.14,1.43-7.86,3.72s-2.58,5.77-2.61,10.4l-.07,9q-.09,13.51,10.15,13a10.86,10.86,0,0,0,6.93-2.71,9.15,9.15,0,0,0,2.81-7.09l0-3.4-9.05.47.06-8.18,18.6-1-.09,12.77m45.91-5.88q-.08,10.35-4.86,15.31T322.87,131q-10.19.52-14.87-3.93t-4.6-14.81L303.63,81l10.18-.53-.24,32.46q-.07,10.29,9.39,9.79t9.59-10.78l.24-32.47,10-.53-.22,31.29M382,126.91l-32.93,1.72.36-50.06,32.24-1.69-.06,8.42-22.06,1.16-.09,12.21,19.49-1-.06,8.54-19.49,1-.09,12.34,22.75-1.19-.06,8.55"/></g></g></svg>