<svg xmlns="http://www.w3.org/2000/svg" width="118" height="129.5" viewBox="0 0 118 129.5"><defs><style>.cls-1,.cls-5{fill:none;}.cls-1,.cls-2,.cls-3,.cls-4,.cls-5{stroke:#000;stroke-linejoin:round;}.cls-2{fill:#333;}.cls-3{fill:#fff;}.cls-4{fill:#666;}.cls-5{stroke-linecap:round;}</style></defs><g id="레이어_2" data-name="레이어 2"><g id="레이어_1-2" data-name="레이어 1"><polygon class="cls-1" points="116.83 109.62 116.83 27.37 78.1 0.58 78.1 82.84 116.83 109.62"/><polygon class="cls-2" points="0.52 102.22 0.52 87.25 39.26 114.17 39.26 129 0.52 102.22"/><polygon class="cls-3" points="78.53 82.63 117.5 109 39.22 113.94 0.52 87.25 78.53 82.63"/><polygon class="cls-1" points="39.38 32.04 116.96 27.48 78.08 0.5 0.5 5.05 39.38 32.04"/><polygon class="cls-1" points="39.26 114.17 39.26 73.04 39.26 31.92 0.52 5.14 0.52 87.39 39.26 114.17"/><polygon class="cls-4" points="39.5 129 117.5 123.72 117.5 108.41 39.5 114.17 39.5 129"/><path class="cls-2" d="M92.58,49.93c3.83-3-1.08-7.93-1.08-7.93s2,0-1-5c0,0-.24-1.17-1.56-.15a4,4,0,0,0-1.36-1.72h0a3.56,3.56,0,0,0-2.28-.58h0l-.08,0c-.29,0-.48.07-.48.07l0,0L83.5,35c3-1,2-2,2-2-4.33-1.73-6.4.28-6.88.85-.47-1.51-1.15-2.61-2.12-2.85,0,0-3,1-3,4s1,2,2,4c0,0-6,5-2,14,0,0,5,6,11,2,1,2,2,2,3,1a4.94,4.94,0,0,1,3-1c5,1,3-3,3-3C93.89,50.44,93.36,50,92.58,49.93Z"/><path class="cls-5" d="M73,52.5s-8.18,1.55-13,16h0s-6,16-27,20"/><path class="cls-5" d="M84.5,55s-3-9-11-2C73.5,53,78.5,59,84.5,55Z"/><path class="cls-5" d="M79.5,50s1-5-4-11c0,0-6,5-2,14"/><path class="cls-5" d="M79.52,47.42S80.5,32,76.5,31c0,0-3,1-3,4s1,2,2,4"/><path class="cls-5" d="M79.64,49.8S86.5,52,89.5,51c0,0,5-3,4,1,0,0,2,4-3,3a4.94,4.94,0,0,0-3,1c-1,1-2,1-3-1"/><path class="cls-5" d="M78.5,34s2-3,7-1c0,0,1,1-2,2,0,0-3,1-2,5a3.55,3.55,0,0,0,2,3c2,1,2,4,2,4s.06,3.38-2.47,3.69"/><path class="cls-5" d="M85.32,48.68S91.5,49,91.5,42c0,0,5,5,1,8"/><path class="cls-5" d="M84.73,34.63S90.5,33,89.5,43a2.26,2.26,0,0,0,1.11,2.87"/><path class="cls-5" d="M91.5,42s2,0-1-5c0,0-.24-1.21-1.62-.11"/><path class="cls-5" d="M87.58,35.13S83.5,35,84.5,38c0,0,3.44,5.31.22,6.15"/><path class="cls-5" d="M86,41.13s2.76,2.5,3.63.69c0,0-1.13-4.82-5.13-4.82"/><path class="cls-5" d="M88.5,43a4.38,4.38,0,0,0-1,3,2,2,0,0,1-2,2"/><path class="cls-5" d="M72.81,51.23S67.5,47,62.5,48c0,0,5,6,7,6"/><path class="cls-5" d="M73.5,53s-1,7,2,10c0,0,2-7,1-8"/><path class="cls-5" d="M76.5,57l6,4S81.42,56.74,80,56.37"/><path class="cls-5" d="M62,63.46A12.13,12.13,0,0,0,54.5,54a12.68,12.68,0,0,1,2,6s.17,3.5,5.08,4.25"/><path class="cls-5" d="M59.57,69.43a12.13,12.13,0,0,1,12.06.95,12.64,12.64,0,0,0-6.09,1.7s-3,1.82-6.37-1.83"/></g></g></svg>