<svg xmlns="http://www.w3.org/2000/svg" viewBox="0 0 1084.75 955.06"><polygon points="1083.5 821 1083.57 686.18 909.5 562.13 909.79 697.29 1083.5 821" style="fill:#b3b3b3;stroke:#000;stroke-miterlimit:10"/><path d="M1035.49,712.58c-.4-10.83-8.85-23.9-18.58-29.21-9.1-5-16.08-1.3-16.39,7.88h0v32.33l35,25.66V712.59Z" style="fill:#fff;stroke:#000;stroke-miterlimit:10"/><path d="M1030.49,711.88c1.6-11.44-23.09-37.65-27-16.63h0v25.3l27,19.24v-27.9Z" style="fill:#fff;stroke:#000;stroke-miterlimit:10"/><line x1="1020.76" y1="692.25" x2="1003.4" y2="695.72" style="fill:#fff;stroke:#000;stroke-miterlimit:10"/><line x1="1003.4" y1="704.94" x2="1027.48" y2="701.06" style="fill:#fff;stroke:#000;stroke-miterlimit:10"/><line x1="1003.4" y1="714.14" x2="1030.68" y2="711" style="fill:#fff;stroke:#000;stroke-miterlimit:10"/><line x1="1006.9" y1="723.28" x2="1030.81" y2="721.09" style="fill:#fff;stroke:#000;stroke-miterlimit:10"/><line x1="1019.37" y1="731.89" x2="1030.68" y2="731.29" style="fill:#fff;stroke:#000;stroke-miterlimit:10"/><line x1="1012.24" y1="687.41" x2="1030.81" y2="712.69" style="fill:#fff;stroke:#000;stroke-miterlimit:10"/><line x1="1030.81" y1="722.86" x2="1006.21" y2="688.6" style="fill:#fff;stroke:#000;stroke-miterlimit:10"/><line x1="1030.81" y1="733.01" x2="1003.52" y2="694.33" style="fill:#fff;stroke:#000;stroke-miterlimit:10"/><line x1="1026.67" y1="737.39" x2="1003.4" y2="703.34" style="fill:#fff;stroke:#000;stroke-miterlimit:10"/><line x1="1013.56" y1="727.75" x2="1003.52" y2="712.74" style="fill:#fff;stroke:#000;stroke-miterlimit:10"/><path d="M986.49,678.58c-.4-10.83-8.85-23.9-18.58-29.21-9.1-5-16.08-1.3-16.39,7.88h0v32.33l35,25.66V678.59Z" style="fill:#fff;stroke:#000;stroke-miterlimit:10"/><path d="M981.49,677.88c1.6-11.44-23.09-37.65-27-16.63h0v25.3l27,19.24v-27.9Z" style="fill:#fff;stroke:#000;stroke-miterlimit:10"/><line x1="971.76" y1="658.25" x2="954.4" y2="661.72" style="fill:#fff;stroke:#000;stroke-miterlimit:10"/><line x1="954.4" y1="670.94" x2="978.48" y2="667.06" style="fill:#fff;stroke:#000;stroke-miterlimit:10"/><line x1="954.4" y1="680.14" x2="981.68" y2="677" style="fill:#fff;stroke:#000;stroke-miterlimit:10"/><line x1="957.9" y1="689.28" x2="981.81" y2="687.09" style="fill:#fff;stroke:#000;stroke-miterlimit:10"/><line x1="970.37" y1="697.89" x2="981.68" y2="697.29" style="fill:#fff;stroke:#000;stroke-miterlimit:10"/><line x1="963.24" y1="653.41" x2="981.81" y2="678.69" style="fill:#fff;stroke:#000;stroke-miterlimit:10"/><line x1="981.81" y1="688.86" x2="957.21" y2="654.6" style="fill:#fff;stroke:#000;stroke-miterlimit:10"/><line x1="981.81" y1="699.01" x2="954.52" y2="660.33" style="fill:#fff;stroke:#000;stroke-miterlimit:10"/><line x1="977.67" y1="703.39" x2="954.4" y2="669.34" style="fill:#fff;stroke:#000;stroke-miterlimit:10"/><line x1="964.56" y1="693.75" x2="954.52" y2="678.74" style="fill:#fff;stroke:#000;stroke-miterlimit:10"/><polygon points="452.5 249.08 18.5 280.54 18.5 124.85 452.5 93.39 452.5 249.08" style="fill:#c8cccc;stroke:#000;stroke-miterlimit:10"/><polygon points="875.5 295.64 550.5 319.83 550.5 164.19 875.5 140 875.5 295.64" style="fill:#c8cccc;stroke:#000;stroke-miterlimit:10"/><rect y="118.94" width="20" height="165" style="fill:#fff"/><polygon points="0.98 119.7 10.5 87.23 10.5 129.78 0.98 119.7" style="fill:#fff"/><path d="M10,90.71v37.82l-8.45-9L10,90.71m1-7L.42,119.84,11,131V83.74Z"/><polygon points="11 83.74 21.58 119.84 11 131.04 11 83.74"/><line x1="0.5" y1="119.94" x2="0.5" y2="283.94" style="fill:none;stroke:#000;stroke-miterlimit:10"/><line x1="20.5" y1="119.94" x2="20.5" y2="283.94" style="fill:none;stroke:#000;stroke-miterlimit:10"/><line x1="10.5" y1="127.94" x2="10.5" y2="283.94" style="fill:none;stroke:#000;stroke-miterlimit:10"/><rect x="876" y="127.94" width="20" height="165" style="fill:#fff"/><polygon points="875.99 128.87 885.5 96.39 885.5 138.95 875.99 128.87" style="fill:#fff"/><path d="M885,99.87v37.82l-8.45-9L885,99.87m1-7L875.42,129,886,140.2V92.91Z"/><polygon points="886 92.91 896.58 129 886 140.2 886 92.91"/><line x1="875.5" y1="128.94" x2="875.5" y2="292.94" style="fill:none;stroke:#000;stroke-miterlimit:10"/><line x1="895.5" y1="128.94" x2="895.5" y2="292.94" style="fill:none;stroke:#000;stroke-miterlimit:10"/><line x1="885.5" y1="136.94" x2="885.5" y2="292.94" style="fill:none;stroke:#000;stroke-miterlimit:10"/><polygon points="884 550.41 857.74 532.14 736.82 539.96 762.56 558.35 884 550.71 884 550.41" style="fill:#fff"/><polygon points="683.5 432.89 683.3 444.62 256.5 474.47 256.71 462.74 683.5 432.89" style="stroke:#000;stroke-miterlimit:10"/><polygon points="257.5 462.88 257.3 474.63 0.5 291.76 0.71 280.01 257.5 462.88" style="stroke:#000;stroke-miterlimit:10"/><polygon points="709.7 451.51 831.5 442.99 831.31 453.73 709.51 462.25 709.7 451.51"/><path d="M831,443.53l-.17,9.73L710,461.71l.17-9.74L831,443.53m1-1.08L709.21,451,709,462.78l122.8-8.58.2-11.75Z"/><polygon points="709.5 451.08 709.3 462.95 683.5 444.58 683.71 432.71 709.5 451.08" style="stroke:#000;stroke-miterlimit:10"/><polygon points="1083.5 821.19 1083.3 832.91 629.64 865.22 614.15 854.01 1083.5 821.19" style="stroke:#000;stroke-miterlimit:10"/><polygon points="426.5 867.13 426.3 878.87 297.5 887.88 297.71 876.13 426.5 867.13" style="stroke:#000;stroke-miterlimit:10"/><polygon points="297.5 876.1 297.3 887.82 123.5 764.05 123.71 752.33 297.5 876.1" style="stroke:#000;stroke-miterlimit:10"/><polygon points="531.5 942.33 531.3 954.1 425.5 878.76 425.71 866.99 531.5 942.33" style="stroke:#000;stroke-miterlimit:10"/><polygon points="719.5 929.08 719.3 940.8 531.5 953.94 531.71 942.22 719.5 929.08" style="stroke:#000;stroke-miterlimit:10"/><polygon points="909.41 697.34 1083.32 821.19 613.97 854.01 719.39 929.08 531.5 942.22 426.08 867.14 297.53 876.13 123.61 752.29 909.41 697.34" style="fill:#fff;stroke:#000;stroke-miterlimit:10"/><polygon points="538.13 832.15 545.64 845.32 541 854.37 541.48 935.04 536 935.39 535.53 854.72 530.79 846.41 538.13 832.15"/><polygon points="689.14 821.58 696.63 834.75 692 843.8 692.48 924.48 687 924.83 686.53 844.16 681.8 835.85 689.14 821.58"/><path d="M594.08,842.33,609,835l.53,97.21L558,935.82l-.09-18.51-3.91.28v-.38l3-.29V890.8l-4,.3v-.4l4-.28-.16-30.19,14.16-7V841l-3.15-7.28,3.87-8.2,3.95,7.57L572,840.75l.07,12.14L582,848v-13.3l-3.16-7.28,3.86-8.2,3.95,7.57L583,834.52l.07,13,9.93-4.87V828.1l-3.18-7.27,3.87-8.21,3.95,7.58L594,827.9ZM609,887.94l-.28-53L594,842.18l.21,38.86L598,888.3l11-.77m-37-5.59-.15-28.17L558,860.57l.16,29.71,10.18-.72,3.66-7.7m22-.92-.2-38.47L583,847.76l.19,33.82,3.75,7.2,3.31-.23,3.75-7.89m-11,.28-.18-33.09L572,853.15l.16,29.19,3.77,7.21,3.31-.23,3.76-7.91m26,31.53-.13-25.29-10.47.73-3.4,7.13.07,11.32,3.56,6.83,10.37-.72m-37-5-.06-10.83-3.64-7-10.3.72.14,26,10.19-.71,3.67-7.71m22-1.47-.06-11.59-3.77-7.23-3.56.25L583,895.94l.07,12,3.79,7.27,3.35-.23,3.79-8m-11,.9-.06-11.82-3.77-7.23-3.56.25L572,896.71l.07,12,3.79,7.27,3.35-.23,3.79-8m26,24.13L608.91,914l-10.5.73L595,921.89l.06,10.7,13.94-1m-37,2.33,0-10.35-3.65-7-10.3.72.1,18,13.9-1m22-1.45-.06-11-3.77-7.23-3.56.25L583,922.57l.07,11.34,10.93-.76m-11,.79-.06-11.2-3.77-7.23-3.56.25L572,923.34l.07,11.34,10.93-.76"/><path d="M680,882.24l-4,.28.14,26.12,3.86-.27v.39l-4,.28.1,18.53L625,931.15l-.51-97.1L639,839.11V824.78l-4.06-7.11,3.87-8.2,4,7.57L639,824.92l.08,14.5,9.92,3.45v-13l-3-7.11,3.86-8.2,3.95,7.57L650,830l.07,13.26,9.93,3.47V834.54l-3-7.1,3.87-8.21,4,7.58L661,834.69l.07,12.38L675,851.92v30.23l5-.31Zm-41-4.3L638.79,839,624,833.85l.29,52.58,11-.77,3.7-7.78m36,4.06-.16-29.51L661,847.6l.16,27.95,3.72,7.15L675,882m-25-5-.18-33.82L639,839.35l.21,38.1,3.83,7.34,3.3-.23,3.66-7.69m11-.93-.15-29L650,843.19l.19,33.48L654,884l3.31-.23,3.67-7.71m-22,27.85-.06-11.52-3.46-6.64-10.48.74.14,25.28,10.37-.73,3.49-7.32m36,5.19-.14-26.32-10.29.72-3.57,7.5.07,11.3,3.75,7.19,10.18-.71m-25-5.68-.06-11.68-3.69-7.07-3.55.25L639,892.2l.07,11.69,3.88,7.44,3.34-.24L650,903.3m11-.36-.06-12.45-3.69-7.07-3.55.25-3.7,7.76.07,11.69,3.88,7.44,3.34-.24,3.71-7.79m-22,27.41,0-11.13-3.47-6.65-10.48.73.1,17.56,13.9-1m37-2.53-.09-17.86-10.33.72L662,917.33l.06,10.83,13.94-1m-26,1.76-.06-11.06-3.68-7.07-3.56.25-3.7,7.76.06,11.17,10.94-.76m11-.29-.06-11.83L657.26,910l-3.56.25-3.7,7.76.06,11.17,10.94-.76"/><polygon points="831.02 478.1 857.69 496.65 735.85 504.31 710.11 485.93 831.02 478.1" style="fill:#fff"/><polygon points="858 496.62 858 532.44 736 540.24 736 504.69 858 496.62" style="fill:#c8cccc"/><polygon points="736 539.78 857 532.03 857 497.08 736 505.09 736 539.78" style="fill:none"/><polygon points="856.5 496.32 830.91 478.51 711.26 486.26 735.97 503.9 856.5 496.32" style="fill:none"/><path d="M736.38,504.31l121.93-8.07-26.68-18.55L709.45,485.6l26.55,19v-.23Zm94.53-25.8,25.6,17.81L736,503.9l-24.71-17.64Z"/><path d="M735.23,504.68l-.23-.16v36.19l123-7.87V497ZM857,532l-121,7.74V505.09l121-8Z"/><path d="M735.23,504.74,858,497v-.58l-.28-.2L735,504.35v.23Z"/><polygon points="884 550.65 884 586.47 762 594.28 762 558.73 884 550.65" style="fill:#c8cccc"/><path d="M761,594.74V558.33l123-8.14v36.68Zm1-35.61v34.68l121-7.74v-35Z"/><polygon points="885.06 585.37 911.72 603.91 789.88 611.58 764.14 593.19 885.06 585.37" style="fill:#fff"/><polygon points="912 603.88 912 639.7 790 647.5 790 611.96 912 603.88" style="fill:#c8cccc"/><polygon points="910.54 603.58 884.94 585.78 765.3 593.52 790 611.17 910.54 603.58" style="fill:none"/><polygon points="790 647.04 911 639.3 911 604.35 790 612.35 790 647.04" style="fill:none"/><path d="M790.38,611.58l121.93-8.07L885.63,585l-122.18,7.91,26.55,19v-.23Zm94.56-25.8,25.6,17.8L790,611.17l-24.7-17.65Z"/><path d="M789.23,611.94l-.23-.16V648l123-7.87V604.21ZM911,639.3,790,647V612.35l121-8Z"/><path d="M789.23,612,912,604.28v-.59l-.28-.2L789,611.62v.22Z"/><polygon points="979 683.45 979.41 707.61 821.92 838.92 747 844.15 747 815.15 856.56 691.1 979 683.45"/><polygon points="857 691.81 857 721.05 791 674.9 791 645.93 857 691.81" style="fill:#c8cccc"/><path d="M857,721.94l-67-46.85v-30l67,46.57Zm-66-47.22,65,45.45V692l-65-45.18Z"/><polygon points="856.89 720.86 829.47 722.74 763.34 675.69 790.76 674.08 856.89 720.86" style="fill:#fff"/><polygon points="762.77 705.14 736.64 706.67 802 752.91 802 752.96 827.86 751.18 762.77 705.14" style="fill:#fff"/><polygon points="762.89 704.73 829.02 751.51 802 753.36 802 753.76 830.18 751.83 763.01 704.32 735.59 705.93 736.11 706.3 762.89 704.73"/><polygon points="762.77 705.14 827.86 751.18 802 752.96 802 753.36 829.02 751.51 762.89 704.73 736.11 706.3 736.64 706.67 762.77 705.14"/><polygon points="801 781.45 801 753.55 736 707.31 736 735.21 801 781.45" style="fill:#c8cccc"/><polygon points="801 753.21 736 707.23 736 707.24 801 753.48 801 753.21" style="fill:#c8cccc"/><polygon points="803 753.79 803 783.09 735 734.71 735 706.83 736 706.55 736 735.91 802 782.87 802 753.76 803 753.79"/><polygon points="736.64 706.67 736.64 706.67 801.72 752.98 802 752.96 802 752.91 736.64 706.67"/><polygon points="802 753.39 802 753.79 803 753.76 803 753.36 802 753.39"/><polygon points="736 706.34 736.56 706.3 736.03 705.93 735 705.96 735 706.55 736 706.83 736 706.34"/><polygon points="803 753.39 802 753.36 802 752.96 802.16 752.98 737.08 706.67 737.09 706.67 736.56 706.3 735.91 706.34 803 753.12 803 753.39"/><path d="M801,753.6v27.92l-65-46.24V707.12l1-.29v28.95L802,782V753.79S801.05,753.6,801,753.6Z"/><path d="M736,706.39v.44l1,.29v.47l64,45.27v.74s1,.23,1,.19v-.45Z"/><polygon points="802 753.12 735.87 706.34 802 753.39 802 753.12"/><polygon points="735.77 735.78 709.64 737.32 775 783.56 775 783.6 800.86 781.83 735.77 735.78" style="fill:#fff"/><polygon points="736.01 734.96 708.59 736.58 709.11 736.95 735.89 735.37 802.02 782.15 775 784.01 775 784.41 803.18 782.48 736.01 734.96"/><polygon points="735.77 735.78 800.86 781.83 775 783.6 775 784.01 802.02 782.15 735.89 735.37 709.11 736.95 709.64 737.32 735.77 735.78"/><polygon points="774 812.1 774 784.2 709 737.95 709 765.86 774 812.1" style="fill:#c8cccc"/><polygon points="774 783.86 709 737.88 709 737.88 774 784.13 774 783.86" style="fill:#c8cccc"/><polygon points="775 813.38 708 765.71 708 737.48 709 737.19 709 766.92 774 813.16 774 784.41 775 784.44 775 813.38"/><polygon points="709.64 737.32 709.64 737.32 774.72 783.62 775 783.6 775 783.56 709.64 737.32"/><polygon points="709 736.99 709.14 736.95 708.61 736.58 708 736.61 708 737.19 709 737.48 709 736.99"/><polygon points="774 784.03 774 784.44 775 784.41 775 784.01 774 784.03"/><polygon points="774 783.77 774 784.03 775 784.01 775 783.6 774.74 783.62 709.66 737.32 709.67 737.32 709.14 736.95 708.49 736.99 774 783.77"/><path d="M774,783.75v27.92l-65-46.24v.14l66,47V783.94A1.76,1.76,0,0,1,774,783.75Z"/><path d="M709,738v.4l65,46v.38l.51.2H774v-.8l-65-46.25Z"/><polygon points="708.87 736.99 775 784.03 775 783.77 708.87 736.99"/><polygon points="747 842.86 747 814.87 681 767.91 681 795.67 747 842.86" style="fill:#c8cccc"/><polygon points="708.77 766.43 682.94 767.95 748 814.2 748 814.25 773.86 812.48 708.77 766.43" style="fill:#fff"/><polygon points="682.94 767.95 682.64 767.97 747.72 814.27 748 814.25 748 814.2 682.94 767.95" style="fill:#fff"/><path d="M747,814.68v0Z"/><polygon points="911.67 637.79 977.85 682.95 856.02 690.61 790.76 645.61 911.67 637.79" style="fill:#fff"/><path d="M855.9,691l-66.33-45.74,122.22-7.9,67.26,45.89Zm-64-45.08,64.19,44.26,120.53-7.58-65.1-44.42Z"/><polygon points="669.23 439.8 791 667.22 790.2 612.38 762.78 593.03 763.58 558.35 735.36 539.8 736.16 505.12 708.74 485.76 709.55 451.89 669.23 439.8"/><path d="M790.94,673.67,763,675.31v.59l66.42,47.25,28.7-2ZM764.5,676l26.14-1.54,65.09,46-26.15,1.79Z"/><polygon points="829 722.64 764 676.66 764 704.56 829 750.81 829 722.64" style="fill:#c8cccc"/><path d="M763.84,675.47l-.84.08v29.38l67,47.66V722.27ZM829,751.7l-66-47v-29l66,46.69Z"/><path d="M763,704.74l66,47V722.46l-66-46.69Zm1-28.08,65,46v28.17l-65-46.25Z"/><path d="M747,814.68v0Z" style="fill:none"/><polygon points="681 795.67 747 842.86 747 814.87 681 767.91 681 795.67" style="fill:none"/><path d="M708.38,766.43,682.24,768l65.08,46.3,26.15-1.8Z" style="fill:none"/><path d="M708.44,766l-26.39,1.55-2,.17v28.41l67,47.89V815L774.87,813ZM747,842.86l-66-47.19V767.92l66,47Zm.32-28.59L682.24,768l26.14-1.54,65.09,46Z"/><path d="M884,549.92l-26.15-18.19-122.18,7.9,26.78,19.13L884,551.11Zm-146.12-9.63,119.64-7.74,25.6,17.8-120.54,7.59Z"/><polygon points="452.5 92.92 550.5 165.01 550.5 321.32 452.5 248.43 452.5 92.92" style="fill:#c8cccc;stroke:#000;stroke-miterlimit:10"/><polygon points="895.5 148.92 1047.5 255.65 1047.5 411.69 895.5 304.15 895.5 148.92" style="fill:#c8cccc;stroke:#000;stroke-miterlimit:10"/><rect x="1028" y="245.94" width="20" height="165" style="fill:#fff"/><polygon points="1027.98 246.32 1037.5 213.85 1037.5 256.4 1027.98 246.32" style="fill:#fff"/><path d="M1037,217.33v37.81l-8.45-8.95,8.45-28.86m1-7-10.58,36.1,10.58,11.2v-47.3Z"/><polygon points="1038 210.36 1048.58 246.46 1038 257.66 1038 210.36"/><line x1="1027.5" y1="245.94" x2="1027.5" y2="409.94" style="fill:none;stroke:#000;stroke-miterlimit:10"/><line x1="1048.5" y1="245.94" x2="1048.5" y2="409.94" style="fill:none;stroke:#000;stroke-miterlimit:10"/><line x1="1037.5" y1="253.94" x2="1037.5" y2="410.94" style="fill:none;stroke:#000;stroke-miterlimit:10"/><polygon points="831 442.58 831 478.4 709 486.21 709 450.66 831 442.58" style="fill:#c8cccc"/><path d="M709,486.67V450.26l123-8.14V478.8Zm1-35.61v34.68L831,478V443.05Z"/><path d="M815,441.81s8.07,5.65,23.39,10.49,0-9.68,0-9.68l-16.94-4.84Z"/><path d="M556.5,3.94c.07,4.54-7.06,4.54-7,0S556.57-.6,556.5,3.94Z" style="stroke:#000;stroke-miterlimit:10;stroke-width:1.073510123547831px"/><path d="M556.5,13.94c.07,4.54-7.06,4.54-7,0S556.57,9.4,556.5,13.94Z" style="stroke:#000;stroke-miterlimit:10;stroke-width:1.0735101235477562px"/><path d="M556.5,22.94c.07,4.54-7.06,4.54-7,0S556.57,18.4,556.5,22.94Z" style="stroke:#000;stroke-miterlimit:10;stroke-width:1.073510123547906px"/><path d="M556.5,32.94c.07,4.54-7.06,4.54-7,0S556.57,28.4,556.5,32.94Z" style="stroke:#000;stroke-miterlimit:10;stroke-width:1.0735101235477562px"/><path d="M556.5,42.94c.07,4.54-7.06,4.54-7,0S556.57,38.4,556.5,42.94Z" style="stroke:#000;stroke-miterlimit:10;stroke-width:1.0735101235477562px"/><path d="M553,56.44c-4.54.07-4.54-7.06,0-7S557.55,56.51,553,56.44Z" style="stroke:#000;stroke-miterlimit:10;stroke-width:1.0735101235480558px"/><path d="M553.5,171.44c-7.78.12-7.78-12.11,0-12C561.29,159.33,561.29,171.56,553.5,171.44Z" style="stroke:#000;stroke-miterlimit:10;stroke-width:0.9795161495969823px"/><path d="M552.79,99.47,542.53,80.61l10.26-18,10.25,18Z" style="stroke:#000;stroke-miterlimit:10"/><path d="M562.5,112.94c.21,9.72-19.2,9.72-19,0C543.3,103.22,562.71,103.22,562.5,112.94Z" style="stroke:#000;stroke-miterlimit:10;stroke-width:0.9951634336564352px"/><path d="M552.92,152.51c10,0,18.17-5,18.17-11.07H534.74C534.74,147.55,542.88,152.51,552.92,152.51Z" style="stroke:#000;stroke-miterlimit:10"/><path d="M482.8,126.71a7.54,7.54,0,0,0,7.79-7.27H475A7.54,7.54,0,0,0,482.8,126.71Z" style="stroke:#000;stroke-miterlimit:10"/><rect x="479.5" y="104.44" width="7" height="16" style="fill:none;stroke:#000;stroke-miterlimit:10"/><path d="M481.69,105.44c11.43.81,5.7-13.78,2.06-18h-1.4C479.64,91.44,473.27,102.32,481.69,105.44Z" style="stroke:#000;stroke-miterlimit:10"/><path d="M503.57,135.71a7.54,7.54,0,0,0,7.79-7.27H495.78A7.54,7.54,0,0,0,503.57,135.71Z" style="stroke:#000;stroke-miterlimit:10"/><rect x="500.5" y="113.44" width="7" height="16" style="fill:none;stroke:#000;stroke-miterlimit:10"/><path d="M502.47,114.44c11.42.81,5.69-13.78,2-18h-1.39C500.41,100.44,494,111.32,502.47,114.44Z" style="stroke:#000;stroke-miterlimit:10"/><polygon points="495.2 182.81 488.94 172.49 495.2 162.16 501.45 172.49 495.2 182.81" style="fill:none;stroke:#000;stroke-miterlimit:10"/><polygon points="518.57 192.61 512.32 182.29 518.57 171.97 524.83 182.29 518.57 192.61" style="fill:none;stroke:#000;stroke-miterlimit:10"/><polygon points="538.05 184.82 531.79 174.5 538.05 164.18 544.3 174.5 538.05 184.82" style="fill:none;stroke:#000;stroke-miterlimit:10"/><path d="M553.5,92.94v48.5c1.47-9.1-20-33-38.45-3.26,0,0-9.12,11.73-19.55,9.12v15.64" style="fill:none;stroke:#000;stroke-miterlimit:10"/><path d="M483.79,127s1,18.89,11.34,20.19" style="fill:none;stroke:#000;stroke-miterlimit:10"/><path d="M548.74,130.59s-12.06-9.33-23.74,17.94c0,0-2.6,7.79-6.49,7.79,0,0-16.88,3.89-15.59-20.78" style="fill:none;stroke:#000;stroke-miterlimit:10"/><path d="M623,126.71a7.54,7.54,0,0,1-7.79-7.27h15.59A7.54,7.54,0,0,1,623,126.71Z" style="stroke:#000;stroke-miterlimit:10"/><rect x="619.5" y="104.44" width="7" height="16" style="fill:none;stroke:#000;stroke-miterlimit:10"/><path d="M624.14,105.44c-11.42.81-5.7-13.78-2.06-18h1.4C626.19,91.44,632.56,102.32,624.14,105.44Z" style="stroke:#000;stroke-miterlimit:10"/><path d="M602.26,135.71a7.54,7.54,0,0,1-7.79-7.27h15.58A7.54,7.54,0,0,1,602.26,135.71Z" style="stroke:#000;stroke-miterlimit:10"/><rect x="598.5" y="113.44" width="7" height="16" style="fill:none;stroke:#000;stroke-miterlimit:10"/><path d="M603.36,114.44c-11.42.81-5.69-13.78-2.05-18h1.4C605.42,100.44,611.79,111.32,603.36,114.44Z" style="stroke:#000;stroke-miterlimit:10"/><polygon points="610.63 182.81 616.89 172.49 610.63 162.16 604.38 172.49 610.63 182.81" style="fill:none;stroke:#000;stroke-miterlimit:10"/><polygon points="587.26 192.61 593.52 182.29 587.26 171.97 581 182.29 587.26 192.61" style="fill:none;stroke:#000;stroke-miterlimit:10"/><path d="M552.5,92.94v48.5c-1.46-9.1,20-33,38.45-3.26,0,0,9.13,11.73,19.55,9.12v15.64" style="fill:none;stroke:#000;stroke-miterlimit:10"/><path d="M622.05,127s-1,18.89-11.35,20.19" style="fill:none;stroke:#000;stroke-miterlimit:10"/><path d="M557.09,130.59s12.06-9.33,23.74,17.94c0,0,2.6,7.79,6.5,7.79,0,0,16.88,3.89,15.58-20.78" style="fill:none;stroke:#000;stroke-miterlimit:10"/><line x1="518.5" y1="155.94" x2="518.5" y2="172.94" style="stroke:#000;stroke-miterlimit:10"/><line x1="537.5" y1="144.94" x2="537.5" y2="164.94" style="stroke:#000;stroke-miterlimit:10"/><polygon points="566.62 184.82 560.36 174.5 566.62 164.18 572.87 174.5 566.62 184.82" style="fill:none;stroke:#000;stroke-miterlimit:10"/><line x1="566.5" y1="144.94" x2="566.5" y2="164.94" style="stroke:#000;stroke-miterlimit:10"/><polygon points="553.63 197.81 547.37 187.48 553.63 177.16 559.89 187.48 553.63 197.81" style="fill:none;stroke:#000;stroke-miterlimit:10"/><line x1="553.5" y1="148.94" x2="553.5" y2="177.94" style="stroke:#000;stroke-miterlimit:10"/></svg>