<svg xmlns="http://www.w3.org/2000/svg" viewBox="0 0 204.75 98.19"><path d="M195.52,21.31C171,25.78,138.52,34.73,103.09,36c-36.61,1.25-69.67,0-94-3V38.2c24.33,3,57.43,4.23,94.06,3,35.44-1.2,67.89-10.14,92.48-14.6Z" style="stroke:#000;stroke-miterlimit:10"/><polygon points="6.1 89.18 6.06 33.2 10.1 32.93 10.17 90.57 6.1 89.18" style="fill:#fff;stroke:#000;stroke-miterlimit:10"/><polygon points="3.26 27.42 8.1 14.81 12.64 26.7 10.04 31.13 5.82 31.42 3.26 27.42" style="fill:#fff"/><path d="M8.1,16.2l4,10.45-2.35,4-3.66.26L3.81,27.36,8.1,16.2M7.6,12v.1l.5,1.31.5-1.3V12Zm.5,1.41L2.7,27.48l2.85,4.46,4.79-.33,2.85-4.86L8.1,13.41Z"/><path d="M8,97.65a11.2,11.2,0,0,0,6.05-1.8,3.87,3.87,0,0,0,.71-5.32c-1.78-2.22-4.16-4-6.77-3.85S3,88.9,1.25,91.33C0,93,.34,95.58,2,96.55A10.37,10.37,0,0,0,8,97.65Z" style="fill:#fff;stroke:#000;stroke-miterlimit:10"/><polygon points="194.1 79.72 194.1 20.42 198.1 20.12 198.1 81.19 194.1 79.72" style="fill:#fff;stroke:#000;stroke-miterlimit:10"/><polygon points="190.75 15.65 195.21 2.77 200.48 14.93 197.85 19.43 193.46 19.73 190.75 15.65" style="fill:#fff"/><path d="M195.26,4.14l4.66,10.76-2.37,4-3.84.26-2.41-3.63,4-11.44M194.6,0V.1l.56,1.29L195.6.11V0Zm.56,1.39-5,14.33,3,4.53,4.94-.34L201,15,195.16,1.39Z"/><path d="M196.53,87.12a11.63,11.63,0,0,0,6.24-1.83,3.85,3.85,0,0,0,.66-5.4c-1.86-2.26-4.34-4.07-7-3.91s-5.12,2.26-6.92,4.73a3.74,3.74,0,0,0,.8,5.31A11,11,0,0,0,196.53,87.12Z" style="fill:#fff;stroke:#000;stroke-miterlimit:10"/></svg>