<svg xmlns="http://www.w3.org/2000/svg" viewBox="0 0 252.2 144.38"><line x1="246" y1="97.3" x2="225" y2="97.3" style="fill:#fff"/><ellipse cx="244" cy="112.3" rx="7.5" ry="9.5" style="fill:#fff;stroke:#000;stroke-miterlimit:10;stroke-width:1.0013466964164923px"/><path d="M229,128.8a10.72,10.72,0,0,0,.93-4.44c0-5.12-3.43-9.27-7.66-9.27s-7.66,4.15-7.66,9.27a10.88,10.88,0,0,0,.93,4.44Z" style="fill:#fff;stroke:#000;stroke-miterlimit:10"/><path d="M121.84,132.8h0c.18-5.3-3.32-9.67-7.66-9.67s-7.83,4.37-7.65,9.67h15.3Z" style="fill:#fff;stroke:#000;stroke-miterlimit:10"/><rect x="4.5" y="18.8" width="7" height="83" style="fill:#fff;stroke:#000;stroke-miterlimit:10;stroke-width:0.9816370846419615px"/><ellipse cx="8" cy="16.3" rx="7.5" ry="9.5" style="fill:#fff;stroke:#000;stroke-miterlimit:10;stroke-width:1.00134669641665px"/><ellipse cx="8" cy="101.3" rx="7.5" ry="9.5" style="fill:#fff;stroke:#000;stroke-miterlimit:10;stroke-width:1.0013466964165272px"/><rect x="36.5" y="32.8" width="7" height="83" style="fill:#fff;stroke:#000;stroke-miterlimit:10;stroke-width:0.9816370846414803px"/><ellipse cx="40" cy="29.3" rx="7.5" ry="9.5" style="fill:#fff;stroke:#000;stroke-miterlimit:10;stroke-width:1.001346696416947px"/><ellipse cx="40" cy="115.3" rx="7.5" ry="9.5" style="fill:#fff;stroke:#000;stroke-miterlimit:10;stroke-width:1.001346696416849px"/><rect x="240.5" y="25.8" width="7" height="83" style="fill:#fff;stroke:#000;stroke-miterlimit:10;stroke-width:0.9816370846420899px"/><ellipse cx="244" cy="23.3" rx="7.5" ry="9.5" style="fill:#fff;stroke:#000;stroke-miterlimit:10;stroke-width:1.001346696416517px"/><rect x="218.5" y="43.8" width="7" height="83" style="fill:#fff;stroke:#000;stroke-miterlimit:10;stroke-width:0.9816370846420844px"/><rect x="181.5" y="52.8" width="7" height="83" style="fill:#fff;stroke:#000;stroke-miterlimit:10;stroke-width:0.9816370846420899px"/><path d="M192.46,135.8a10.84,10.84,0,0,0,.37-2.82c0-5.13-3.43-9.28-7.67-9.28s-7.66,4.15-7.66,9.28a10.84,10.84,0,0,0,.37,2.82Z" style="fill:#fff;stroke:#000;stroke-miterlimit:10"/><rect x="73.5" y="47.8" width="7" height="83" style="fill:#fff;stroke:#000;stroke-miterlimit:10;stroke-width:0.9816370846420844px"/><path d="M84.68,126.8a9.71,9.71,0,0,0,.08-1.21c0-5.12-3.43-9.28-7.66-9.28s-7.67,4.16-7.67,9.28a9.71,9.71,0,0,0,.08,1.21Z" style="fill:#fff;stroke:#000;stroke-miterlimit:10"/><rect x="110.5" y="54.8" width="7" height="83" style="fill:#fff;stroke:#000;stroke-miterlimit:10;stroke-width:0.9816370846414749px"/><rect x="149.5" y="55.8" width="7" height="83" style="fill:#fff;stroke:#000;stroke-miterlimit:10;stroke-width:0.9816370846419669px"/><path d="M160.49,135.8a9.71,9.71,0,0,0,.08-1.21c0-5.12-3.43-9.28-7.67-9.28s-7.66,4.16-7.66,9.28a9.71,9.71,0,0,0,.08,1.21Z" style="fill:#fff;stroke:#000;stroke-miterlimit:10"/><ellipse cx="77" cy="45.3" rx="7.5" ry="9.5" style="fill:#fff;stroke:#000;stroke-miterlimit:10;stroke-width:1.00134669641665px"/><ellipse cx="114" cy="51.3" rx="7.5" ry="9.5" style="fill:#fff;stroke:#000;stroke-miterlimit:10;stroke-width:1.001346696417021px"/><ellipse cx="153" cy="53.3" rx="7.5" ry="9.5" style="fill:#fff;stroke:#000;stroke-miterlimit:10;stroke-width:1.0013466964169226px"/><ellipse cx="185" cy="50.3" rx="7.5" ry="9.5" style="fill:#fff;stroke:#000;stroke-miterlimit:10;stroke-width:1.0013466964166151px"/><ellipse cx="222" cy="41.3" rx="7.5" ry="9.5" style="fill:#fff;stroke:#000;stroke-miterlimit:10;stroke-width:1.0013466964169226px"/><path d="M251.61,6.93l0,.25c-.05.42-.12.84-.21,1.25l-.06.23c-.1.4-.21.81-.34,1.21l0,.08-.13.33c-.14.38-.29.77-.46,1.14-.08.18-.18.35-.27.53s-.3.61-.48.91-.27.44-.41.66-.29.46-.45.69-.32.43-.49.65-.34.45-.52.67-.41.47-.62.71l-.49.54c-.23.25-.48.48-.72.72l-.53.52c-.35.32-.71.63-1.08.95l-.26.22c-.47.39-1,.77-1.47,1.15l-.4.28c-.38.27-.77.55-1.18.82l-.6.39-1.11.69-.65.39-1.19.68-.67.36c-.48.26-1,.51-1.48.76l-.46.23q-1,.49-2,1l-.54.23c-.54.24-1.08.48-1.64.71l-.78.31c-.5.2-1,.4-1.53.59l-.88.33-1.64.59-.82.28-2,.65-.59.19c-.88.27-1.78.54-2.7.8l-1,.28-1.89.51-1.22.31-1.78.43c-.75.18-1.53.35-2.31.52l-1.12.25c-1.16.25-2.35.49-3.56.72l-3.11.56-.8.14-3.11.5-.12,0c-1,.16-2.06.3-3.1.44l-2.32.31-1.69.21-2.49.28c-.54.06-1.08.13-1.64.18-.93.1-1.88.19-2.83.27l-1.42.14-4.38.35c-1.72.12-3.45.22-5.19.32l-.58,0c-1.66.09-3.32.16-5,.22l-.8,0c-1.81.06-3.62.11-5.44.14l-.82,0-4.72,0H155.5c-1,0-2,0-3,0h-.7l-4.35-.08c-1.07,0-2.13-.07-3.2-.07-.5,0-1.51-.07-2-.09l-.31,0-4.68-.21-.94,0c-1.59-.08-3.18-.18-4.78-.28l-.81-.06c-1.74-.11-3.47-.24-5.21-.38a7.62,7.62,0,0,0-1.35-.05,12.92,12.92,0,0,1-4.28-.42,4.51,4.51,0,0,0-.53-.07q-3.18-.3-6.34-.66h-.11q-3.31-.37-6.62-.79l-.21,0q-3.39-.44-6.76-.92l-.58-.09Q95,33,91.37,32.35L91,32.29c-2.76-.47-5.51-.95-8.23-1.47l-.67-.12c-1.43-.28-2.86-.55-4.27-.84l-.76-.16c-1.31-.26-2.61-.54-3.91-.82l-.59-.12q-2.64-.59-5.24-1.18l-.57-.14q-2.55-.6-5.06-1.23L61,26l-3.4-.88-.35-.1-3-.82-1-.29-2.42-.68-1-.29-3.24-1-.08,0-3.09-1-1-.31L40.16,20l-1-.33c-.89-.3-1.77-.6-2.63-.91l-.42-.14-3-1.08-.84-.31-2.12-.81L29.29,16,27,15.1l-.58-.23c-.92-.38-1.84-.76-2.74-1.15l-.69-.3-2-.89-.86-.39-2-.91-.65-.31c-.84-.4-1.67-.81-2.49-1.22l-.51-.27-1.92-1L11.86,8l-1.7-.93L9.5,6.74,7.28,5.45,7,5.27,5.15,4.13,4.5,3.71c-.5-.32-1-.64-1.47-1l-.6-.4C1.77,1.89,1.13,1.44.5,1v12.2A12,12,0,0,0,2,14.51l.6.39c.48.32,1,.64,1.48.95l.64.41,1.85,1.11.29.17c.72.43,1.47.85,2.22,1.27l.65.35,1.71.92.75.39c.63.33,1.28.65,1.93,1l.51.26,2.49,1.2.65.29,2,.9.84.37,2,.88.69.29,2.74,1.13.58.23,2.27.88.91.35L32,29l.83.31,3,1.05.39.13c.88.31,1.76.61,2.65.9l1,.32,2.26.73.94.3,3.12,1h.06c1.07.32,2.15.64,3.25,1l1,.28,2.43.68,1,.28,3.06.81.32.08c1.12.3,2.26.58,3.41.87l.32.08.39.09c1.68.41,3.37.82,5.07,1.21l.57.13c1.74.39,3.48.78,5.25,1.15l.15,0,.44.09,3.91.8.75.15,4.28.82.38.07.28.05c2.73.5,5.47,1,8.24,1.43l.13,0,.24,0c2.43.39,4.88.77,7.34,1.12l.32,0,.26,0q3.38.48,6.77.91l.14,0h.07c2.2.28,4.4.54,6.62.78h.11q3.16.35,6.33.64h.19q2.81.26,5.61.48l.26,0h.11c1.74.14,3.48.26,5.22.38l.48,0,.32,0,4.79.28.41,0,.53,0,4.68.21h.23c1.43.05,2.85.1,4.27.13l.57,0h.44c1.46,0,2.91.06,4.35.08h.67a13.17,13.17,0,0,0,3.84-.35l.59,1h.69a23.58,23.58,0,0,0,4,0,6.27,6.27,0,0,1,.87,0h.43c1.82,0,3.63-.08,5.43-.14h.34l.46,0c1.67-.06,3.34-.13,5-.22l.59,0c1.74-.1,3.47-.2,5.19-.33,1.48-.1,2.94-.22,4.38-.35l1.42-.13c.95-.09,1.9-.17,2.83-.27l1.64-.18,2.49-.28,1.69-.22c.78-.09,1.55-.19,2.32-.3l.56-.07,2.53-.37.13,0,3.11-.5.8-.14,3.1-.56h0c1.21-.23,2.4-.48,3.56-.72l1.12-.25,2.31-.52.31-.07,1.47-.37,1.22-.3,1.89-.51,1-.28.12,0c.88-.25,1.74-.51,2.58-.77l.58-.19,1.74-.56.28-.09.82-.29,1.64-.58.88-.33.73-.27.8-.32.78-.32,1.64-.7.53-.23.13-.06q1-.44,1.92-.9c.16-.07.3-.15.45-.23.4-.19.79-.39,1.17-.59l.32-.17.66-.36,1.2-.68.65-.39.42-.25.69-.45.6-.38c.41-.28.8-.55,1.18-.83l.4-.28.07,0c.49-.36.95-.72,1.4-1.09l.25-.22c.34-.28.67-.57,1-.86l.1-.09.53-.52c.24-.24.49-.48.72-.72s.33-.36.49-.55l.49-.53a1.09,1.09,0,0,1,.13-.17c.18-.22.35-.45.52-.68s.34-.43.49-.65.3-.46.45-.69.23-.33.33-.5l.08-.15c.17-.3.33-.61.48-.91s.19-.35.27-.53c.17-.38.32-.76.46-1.14,0-.1.09-.2.12-.3v0l0-.09c.13-.4.24-.8.34-1.2,0-.08,0-.16,0-.23a10.54,10.54,0,0,0,.22-1.25l0-.25c0-.14,0-.27.05-.41,0-.3,0-.6,0-.9l.2-12A11.37,11.37,0,0,1,251.61,6.93Z" style="stroke:#000;stroke-miterlimit:10"/><path d="M247.78,5.8l-.08.09c-.19.24-.41.47-.62.7s-.32.36-.49.53-.48.48-.73.71l-.53.51c-.35.31-.72.62-1.09.93l-.26.22c-.47.38-1,.76-1.48,1.13l-.4.27c-.39.28-.78.55-1.19.81l-.6.39c-.37.23-.74.46-1.12.68l-.66.38c-.39.23-.79.45-1.2.67l-.67.36-1.49.75-.46.22c-.67.32-1.35.64-2.06,1l-.54.22q-.81.36-1.65.69l-.79.31-1.53.59-.89.32c-.54.19-1.09.39-1.65.57l-.83.28-2,.65-.59.18c-.89.27-1.8.53-2.73.79l-1,.27-1.9.5c-.41.11-.82.2-1.24.3l-1.78.43c-.76.18-1.54.35-2.33.52L210,23c-1.18.24-2.37.48-3.59.71-1,.19-2.07.37-3.13.55l-.81.13-3.13.5-.12,0-3.12.44-2.33.29c-.57.07-1.13.15-1.7.21l-2.51.28-1.65.18-2.85.27-1.43.13-4.41.34c-1.73.12-3.48.22-5.23.32l-.58,0c-1.67.08-3.35.15-5,.21l-.8,0c-1.82.06-3.65.11-5.48.14l-.83,0-4.74,0h-.2c-1,0-2,0-3,0h-.71l-4.37-.08c-1.08,0-2.15-.06-3.22-.07-.5,0-1.51-.06-2-.09h-.31c-1.57-.06-3.13-.13-4.7-.21l-1,0c-1.6-.08-3.2-.17-4.8-.28l-.81-.05c-1.75-.12-3.49-.24-5.24-.38a10.31,10.31,0,0,0-1.36-.05,12.85,12.85,0,0,1-4.28-.4A3.31,3.31,0,0,0,120,26q-3.18-.3-6.36-.64h-.12c-2.22-.25-4.43-.5-6.64-.78l-.21,0c-2.27-.28-4.54-.59-6.79-.91l-.59-.08c-2.47-.35-4.93-.73-7.37-1.12l-.37-.06Q87.41,21.7,83.31,21l-.68-.12L78.35,20l-.77-.16-3.92-.8-.59-.13q-2.66-.55-5.27-1.16l-.57-.13q-2.57-.59-5.09-1.21l-.73-.17L58,15.38l-.35-.09-3-.81-1-.28-2.43-.68-1-.28c-1.1-.31-2.18-.63-3.26-1l-.08,0-3.1-.95-1-.31-2.26-.72-1-.32-2.64-.9-.42-.14-3-1-.85-.32-2.13-.79-.92-.35c-.77-.29-1.52-.59-2.27-.89l-.59-.23c-.93-.37-1.84-.75-2.75-1.13l-.7-.3-2-.87-.85-.38L18.63,1.8H.5V3.5A12,12,0,0,0,2,4.83l.6.39c.48.32,1,.64,1.48,1l.64.41L6.59,7.69l.29.18c.72.42,1.47.84,2.22,1.26l.65.35,1.71.92.75.39c.63.33,1.28.65,1.93,1l.51.26,2.49,1.2.65.29,2,.9.84.38,2,.87.69.29,2.74,1.13.58.23,2.27.88.91.35,2.14.8.83.3c1,.35,2,.71,3,1.05l.39.14,2.65.89,1,.32,2.26.73.94.3,3.12,1h.06c1.07.33,2.15.64,3.25,1l1,.27,2.43.68,1,.28,3.06.81.32.08c1.12.3,2.26.58,3.41.87l.32.08.39.09q2.52.63,5.07,1.21l.57.13c1.74.39,3.48.78,5.25,1.15l.15,0,.44.09,3.91.8.75.15,4.28.82.38.07.28.05c2.73.5,5.47,1,8.24,1.43l.13,0,.24,0q3.65.6,7.34,1.12l.32,0,.26,0c2.25.32,4.51.63,6.77.91l.14,0h.07c2.2.27,4.4.53,6.62.77h.11c2.11.23,4.22.45,6.33.64h.19l5.61.48.26,0h.11c1.74.14,3.48.26,5.22.38l.48,0,.32,0,4.79.28.41,0,.53,0,4.68.2h.23c1.43.06,2.85.1,4.27.14l.57,0h.44c1.46,0,2.91.07,4.35.08h.67a7.47,7.47,0,0,0,3.84-.67l.59,1h.32a25.9,25.9,0,0,1,4.71-.35h.83c1.82,0,3.64-.08,5.44-.14h.33l.47,0c1.67-.06,3.34-.13,5-.21l.58,0c1.74-.09,3.48-.19,5.2-.31l4.38-.34,1.42-.13c.95-.09,1.9-.17,2.83-.27l1.65-.17,2.48-.28,1.69-.21,2.32-.29.56-.08c.86-.11,1.7-.23,2.54-.36l.12,0,3.11-.49.8-.13,3.11-.55h0c1.21-.23,2.39-.46,3.56-.71.38-.07.75-.16,1.12-.24.78-.17,1.55-.33,2.31-.51l.31-.07,1.47-.35,1.22-.3,1.89-.5,1-.27.12,0c.88-.24,1.74-.49,2.58-.74l.58-.19,1.75-.54.28-.1.81-.27c.56-.19,1.11-.38,1.65-.58l.87-.32.73-.26.8-.32.78-.3,1.65-.69.53-.23.13-.05c.66-.29,1.3-.59,1.92-.88l.45-.22,1.17-.58.32-.17.66-.36,1.19-.66.66-.38.42-.24.69-.44.6-.38c.4-.27.8-.53,1.18-.81l.39-.27.08-.05c.48-.35.95-.71,1.4-1.07l.25-.21,1-.84.1-.09.53-.51c.24-.23.49-.46.72-.7l.49-.53.49-.53.13-.17c.18-.21.35-.43.52-.65s.34-.43.49-.64.3-.45.45-.67.23-.33.33-.5.05-.1.08-.14q.25-.45.48-.9c.09-.17.19-.34.27-.51.17-.37.32-.74.46-1.11,0-.1.09-.2.12-.3v0l0-.08c.13-.39.24-.79.34-1.18a1.89,1.89,0,0,0,.05-.23,10.26,10.26,0,0,0,.22-1.21l0-.25c0-.13,0-.27.05-.4A7.14,7.14,0,0,1,251.5,8l0-2.24Z" style="fill:#fff;stroke:#000;stroke-miterlimit:10"/><path d="M251.61,100.93l0,.25c-.05.42-.12.84-.21,1.25l-.06.23c-.1.4-.21.81-.34,1.21l0,.08-.13.33c-.14.38-.29.77-.46,1.14-.08.18-.18.35-.27.53s-.3.61-.48.91-.27.44-.41.66-.29.46-.45.69-.32.43-.49.65-.34.45-.52.67-.41.47-.62.71l-.49.54c-.23.25-.48.48-.72.72l-.53.52c-.35.32-.71.63-1.08,1l-.26.22c-.47.39-1,.77-1.47,1.15l-.4.28c-.38.27-.77.55-1.18.82l-.6.39-1.11.69-.65.39-1.19.68-.67.36c-.48.26-1,.51-1.48.76-.15.08-.3.16-.46.23q-1,.5-2,1l-.54.23c-.54.24-1.08.48-1.64.71l-.78.31c-.5.2-1,.4-1.53.59l-.88.33-1.64.59-.82.28-2,.65-.59.19c-.88.27-1.78.54-2.7.8l-1,.28-1.89.51-1.22.31-1.78.43c-.75.18-1.53.35-2.31.52l-1.12.25c-1.16.25-2.35.49-3.56.72l-3.11.56-.8.14-3.11.5-.12,0c-1,.16-2.06.3-3.1.44l-2.32.31-1.69.21-2.49.28c-.54.06-1.08.13-1.64.18-.93.1-1.88.19-2.83.27l-1.42.14-4.38.35c-1.72.12-3.45.22-5.19.32l-.58,0c-1.66.09-3.32.16-5,.22l-.8,0c-1.81.06-3.62.11-5.44.14l-.82,0-4.72,0c-.56,0-1.13,0-1.69,0-1,0-2,0-3,0h-.7l-4.35-.08c-1.07,0-2.13-.07-3.2-.07-.5,0-1.51-.07-2-.09l-.31,0-4.68-.21-.94-.05c-1.59-.08-3.18-.18-4.78-.28l-.81-.06c-1.74-.11-3.47-.24-5.21-.38a7.62,7.62,0,0,0-1.35-.05,12.92,12.92,0,0,1-4.28-.42,4.51,4.51,0,0,0-.53-.07q-3.18-.3-6.34-.66h-.11q-3.31-.37-6.62-.79l-.21,0q-3.39-.44-6.76-.92l-.58-.09Q95,127,91.37,126.35l-.37-.06c-2.76-.47-5.51-1-8.23-1.47l-.67-.12c-1.43-.28-2.86-.55-4.27-.84l-.76-.16c-1.31-.26-2.61-.54-3.91-.82l-.59-.12q-2.64-.58-5.24-1.18l-.57-.14q-2.55-.6-5.06-1.23L61,120l-3.4-.88-.35-.1-3-.82-1-.29-2.42-.68-1-.29-3.24-1-.08,0-3.09-1-1-.31L40.16,114l-1-.33c-.89-.3-1.77-.6-2.63-.91l-.42-.14-3-1.08-.84-.31-2.12-.81-.93-.36L27,109.1l-.58-.23c-.92-.38-1.84-.76-2.74-1.15l-.69-.3-2-.89-.86-.39-2-.91-.65-.31c-.84-.4-1.67-.81-2.49-1.22l-.51-.27-1.92-1-.76-.41-1.7-.93-.66-.36L7.28,99.45,7,99.27,5.15,98.13l-.65-.42c-.5-.32-1-.64-1.47-1l-.6-.4c-.66-.45-1.3-.9-1.93-1.36v12.56A12,12,0,0,0,2,108.87l.6.39c.48.32,1,.63,1.48.95l.64.4c.61.38,1.22.75,1.85,1.12l.29.17c.72.43,1.47.85,2.22,1.26l.65.36,1.71.92.75.39,1.93,1,.51.26c.82.4,1.65.8,2.49,1.19l.65.3,2,.9.84.37c.67.3,1.34.59,2,.87l.69.3c.9.38,1.82.75,2.74,1.12l.58.23c.75.3,1.5.6,2.27.89l.91.35,2.14.79.83.31,3,1,.39.13c.88.31,1.76.6,2.65.9l1,.32,2.26.73.94.3,3.12,1,.05,0h0c1.07.32,2.15.64,3.25.95l1,.28,2.43.68,1,.28,3.06.81.32.08c1.12.29,2.26.58,3.41.86l.32.09.39.09,5.07,1.21.57.12c1.74.4,3.48.79,5.25,1.16l.15,0c.14,0,.29.06.44.09,1.29.28,2.6.55,3.91.81l.75.15,4.28.82.38.07.28.05c2.73.5,5.47,1,8.24,1.43l.13,0,.24,0q3.65.59,7.34,1.12l.32.05.26,0q3.38.48,6.77.91l.14,0h.07c2.2.28,4.4.54,6.62.78h.11q3.16.34,6.33.64h0l.14,0q2.81.25,5.61.48l.26,0h.11c1.74.14,3.48.26,5.22.37l.48,0,.32,0,4.79.28.41,0,.53,0q2.34.12,4.68.21h.23c1.43.05,2.85.1,4.27.13l.57,0h.44l4.35.08h.67a7.12,7.12,0,0,0,3.84-.71l.59,1s.51,0,.69,0a23.58,23.58,0,0,0,4,0,6.27,6.27,0,0,1,.87,0h.43c1.82,0,3.63-.08,5.43-.14h.34l.46,0c1.67-.06,3.34-.13,5-.22l.59,0c1.74-.1,3.47-.2,5.19-.33,1.48-.1,2.94-.22,4.38-.35l1.42-.13c.95-.09,1.9-.17,2.83-.27l1.64-.18,2.49-.28,1.69-.22c.78-.09,1.55-.19,2.32-.3l.56-.07,2.53-.37.13,0,3.11-.5.8-.14,3.1-.56h0c1.21-.23,2.4-.48,3.56-.72l1.12-.25,2.31-.52.31-.07,1.47-.37,1.22-.3,1.89-.51,1-.28.12,0c.88-.25,1.74-.51,2.58-.77l.58-.19,1.74-.56.28-.09.82-.29,1.64-.58.88-.33.73-.27.8-.32.78-.32,1.64-.7.53-.23.13-.06q1-.43,1.92-.9c.16-.07.3-.15.45-.23.4-.19.79-.39,1.17-.59l.32-.17.66-.36,1.2-.68.65-.39.42-.25.69-.45.6-.38c.41-.28.8-.55,1.18-.83l.4-.28.07,0c.49-.36.95-.72,1.4-1.09l.25-.22c.34-.28.67-.57,1-.86l.1-.09.53-.52c.24-.24.49-.48.72-.72s.33-.36.49-.55l.49-.53a1.09,1.09,0,0,1,.13-.17c.18-.22.35-.45.52-.68s.34-.43.49-.65.3-.46.45-.69.23-.33.33-.5l.08-.15c.17-.3.33-.61.48-.91s.19-.35.27-.53c.17-.38.32-.76.46-1.14,0-.1.09-.2.12-.3v0l0-.09c.13-.4.24-.8.34-1.2,0-.08,0-.16,0-.23a10.54,10.54,0,0,0,.22-1.25l0-.25c0-.14,0-.27.05-.41,0-.3,0-.6,0-.9l.2-12A11.37,11.37,0,0,1,251.61,100.93Z" style="stroke:#000;stroke-miterlimit:10"/></svg>