<svg width="210" height="70" viewBox="0 0 210 70" fill="none" xmlns="http://www.w3.org/2000/svg">
<rect width="210" height="70" fill="black"/>
<path d="M80.8714 40.0293V36.7188C80.8616 35.5078 80.9007 33.1982 80.9886 29.79V29.1895C80.9886 29.082 81.0081 29.0186 81.0472 28.999H86.0862C86.1351 28.999 86.2327 29.1846 86.3792 29.5557C86.5306 29.9268 86.7112 30.4053 86.9212 30.9912C87.136 31.5723 87.2874 31.9727 87.3753 32.1924L88.4007 34.873V32.0312C88.4007 31.7871 88.4056 31.3403 88.4153 30.6909C88.43 30.0366 88.4349 29.5264 88.43 29.1602C88.43 29.0234 88.8206 28.9551 89.6019 28.9551C89.846 28.9551 90.1805 28.96 90.6053 28.9697C91.0301 28.9795 91.2913 28.9844 91.389 28.9844H91.9456C92.0237 28.9844 92.0628 28.999 92.0628 29.0283C92.0921 30.3857 92.1067 32.3291 92.1067 34.8584V39.9414C92.0726 40.0684 91.9163 40.1318 91.638 40.1318H91.4476C91.1937 40.1318 90.8201 40.1367 90.327 40.1465C89.8338 40.1562 89.4603 40.1611 89.2063 40.1611H87.053C86.9847 40.1367 86.8431 39.8291 86.6282 39.2383C86.3987 38.5986 86.0569 37.6733 85.6028 36.4624C85.1487 35.2515 84.8948 34.5752 84.8411 34.4336C84.8411 34.7217 84.8387 35.1514 84.8338 35.7227C84.8289 36.2939 84.8265 36.7236 84.8265 37.0117C84.8265 37.2266 84.8313 37.5488 84.8411 37.9785C84.8509 38.4082 84.8558 38.7305 84.8558 38.9453V39.8682C84.8558 40.0928 84.7581 40.2051 84.5628 40.2051H81.1937L80.8714 40.0293ZM92.0628 29.0137V29.043V29.0137ZM95.5509 39.7363V39.458C95.5509 38.623 95.5606 37.3901 95.5802 35.7593C95.5997 34.1284 95.6095 32.8955 95.6095 32.0605V29.0283H104.135V31.4307C104.135 31.4453 104.135 31.4819 104.135 31.5405C104.135 31.5991 104.135 31.6382 104.135 31.6577C104.135 31.6772 104.132 31.7139 104.128 31.7676C104.123 31.8164 104.113 31.8506 104.098 31.8701C104.088 31.8896 104.071 31.9189 104.047 31.958C104.027 31.9922 104.003 32.0166 103.974 32.0312C103.944 32.0459 103.905 32.0605 103.857 32.0752C103.808 32.085 103.754 32.0898 103.695 32.0898H103.49C102.226 32.0898 101.073 32.0703 100.033 32.0312C100.024 32.1094 100.006 32.2314 99.982 32.3975C99.9625 32.5586 99.9454 32.7026 99.9308 32.8296C99.921 32.9517 99.9161 33.0713 99.9161 33.1885H103.402C103.549 33.1885 103.647 33.208 103.695 33.2471C103.744 33.2861 103.769 33.3496 103.769 33.4375C103.769 33.4619 103.766 33.501 103.761 33.5547C103.756 33.6084 103.754 33.6475 103.754 33.6719C103.754 33.9062 103.761 34.2529 103.776 34.7119C103.791 35.1709 103.798 35.5176 103.798 35.752C103.783 35.8496 103.744 35.8984 103.681 35.8984C103.651 35.8984 103.627 35.8887 103.608 35.8691C102.065 35.9473 100.922 35.9863 100.18 35.9863H99.9894V37.041C100.424 37.041 101.051 37.0215 101.872 36.9824C102.697 36.9434 103.315 36.9238 103.725 36.9238C104.047 36.9238 104.233 36.9922 104.281 37.1289V37.6855C104.281 37.9199 104.286 38.2666 104.296 38.7256C104.306 39.1846 104.311 39.5312 104.311 39.7656C104.311 40.0098 104.213 40.1318 104.018 40.1318C103.764 40.1318 103.373 40.1294 102.846 40.1245C102.318 40.1196 101.918 40.1172 101.645 40.1172C100.942 40.1172 99.9356 40.1343 98.6271 40.1685C97.3185 40.2075 96.3712 40.2295 95.7853 40.2344L95.5802 40C95.5606 39.8633 95.5509 39.7754 95.5509 39.7363ZM106.129 40C106.129 39.8633 106.217 39.6582 106.392 39.3848C106.808 38.75 107.401 37.8271 108.172 36.6162C108.944 35.4053 109.395 34.6973 109.527 34.4922C108.15 32.124 107.105 30.3564 106.392 29.1895V29.1162C106.392 29.0625 106.422 29.0137 106.48 28.9697C106.793 28.9697 107.257 28.9771 107.872 28.9917C108.487 29.0063 108.951 29.0137 109.264 29.0137C109.347 29.0088 109.461 29.0112 109.608 29.021C109.759 29.0259 109.859 29.0283 109.908 29.0283H110.421C110.528 29.0186 110.699 29.0137 110.933 29.0137C110.997 29.0283 111.095 29.1479 111.226 29.3726C111.358 29.5972 111.49 29.8584 111.622 30.1562L112.362 31.8994C112.376 31.8701 112.638 31.3086 113.145 30.2148L113.424 29.6289C113.609 29.2188 113.736 29.0137 113.805 29.0137C113.809 29.0137 113.814 29.0161 113.819 29.021C113.829 29.021 113.841 29.0234 113.856 29.0283C113.871 29.0332 113.883 29.0381 113.892 29.043C114.146 29.0332 114.576 29.0186 115.182 28.999C115.787 28.9746 116.312 28.9575 116.756 28.9478C117.201 28.9331 117.633 28.9258 118.053 28.9258C118.189 28.9551 118.258 29.0625 118.258 29.248V29.3359C116.534 32.0605 115.435 33.8086 114.962 34.5801L116.427 36.8286C116.671 37.2095 117.02 37.7539 117.474 38.4619C117.928 39.1699 118.219 39.624 118.346 39.8242V39.9707C118.346 40.1465 118.194 40.2344 117.892 40.2344C117.496 40.2344 116.915 40.2393 116.148 40.249C115.382 40.2588 114.815 40.2637 114.449 40.2637H114.098C113.839 40.2637 113.643 40.2148 113.512 40.1172L112.171 37.2827C112.132 37.3657 112.079 37.4902 112.01 37.6562C111.947 37.8174 111.881 37.9761 111.812 38.1323C111.749 38.2837 111.676 38.4546 111.593 38.645C111.51 38.8306 111.424 39.0039 111.336 39.165C111.253 39.3262 111.165 39.48 111.073 39.6265C110.985 39.7729 110.892 39.8975 110.794 40C110.697 40.1074 110.601 40.1807 110.509 40.2197C109.415 40.2002 108.614 40.1904 108.106 40.1904C107.896 40.1904 107.596 40.1929 107.205 40.1978C106.815 40.2026 106.515 40.2051 106.305 40.2051C106.187 40.1611 106.129 40.0928 106.129 40ZM119.944 31.2256C119.944 31.1377 119.949 31.0083 119.959 30.8374C119.968 30.6616 119.973 30.542 119.973 30.4785C119.973 30.4541 119.968 30.3662 119.959 30.2148C119.949 30.0635 119.944 29.9316 119.944 29.8193C119.944 29.3018 119.993 29.043 120.091 29.043C120.13 29.043 120.164 29.0479 120.193 29.0576C121.214 29.0576 122.725 29.0454 124.727 29.021C126.734 28.9966 128.235 28.9844 129.231 28.9844C129.48 28.9844 129.636 29.0063 129.7 29.0503C129.768 29.0942 129.802 29.1797 129.802 29.3066V29.5117C129.802 29.7656 129.805 30.1416 129.81 30.6396C129.815 31.1328 129.817 31.5088 129.817 31.7676C129.817 32.0215 129.749 32.1484 129.612 32.1484C129.339 32.1484 128.931 32.1436 128.389 32.1338C127.847 32.124 127.439 32.1191 127.166 32.1191V39.9707C127.132 40.1172 127.049 40.1953 126.917 40.2051C126.746 40.2051 126.497 40.2026 126.17 40.1978C125.842 40.1929 125.593 40.1904 125.423 40.1904C125.413 40.1904 125.403 40.1953 125.393 40.2051C125.178 40.2051 124.876 40.2026 124.485 40.1978C124.099 40.1929 123.811 40.1904 123.621 40.1904H123.181C123.084 40.2002 122.942 40.2051 122.757 40.2051L122.464 39.8535C122.464 39.1113 122.488 38.0078 122.537 36.543C122.586 35.0781 122.61 33.9746 122.61 33.2324C122.61 33.1982 122.608 33.1421 122.603 33.064C122.603 32.9858 122.603 32.9224 122.603 32.8735C122.603 32.8247 122.598 32.7637 122.588 32.6904C122.583 32.6172 122.571 32.5586 122.551 32.5146C122.537 32.4658 122.517 32.4194 122.493 32.3755C122.468 32.3267 122.434 32.2925 122.39 32.2729C122.351 32.2485 122.302 32.2363 122.244 32.2363H120.149C120.012 32.1973 119.944 31.8604 119.944 31.2256Z" fill="white"/>
</svg>
