<svg xmlns="http://www.w3.org/2000/svg" width="263" height="204.97" viewBox="0 0 263 204.97"><defs><style>.cls-1,.cls-4{fill:none;}.cls-1,.cls-6{stroke:#fff;}.cls-1,.cls-3,.cls-4,.cls-5,.cls-6,.cls-7{stroke-miterlimit:10;}.cls-1,.cls-4,.cls-6{stroke-width:0.25px;}.cls-2{fill:#fff;}.cls-3{fill:#0445d7;}.cls-3,.cls-4,.cls-5,.cls-7{stroke:#000;}.cls-5{fill:#d9d9d9;}.cls-7{fill:#4d4d4d;}</style></defs><g id="레이어_2" data-name="레이어 2"><g id="레이어_1-2" data-name="레이어 1"><path class="cls-1" d="M199.68,128.54c-1.06-2.3.3-5.3,3-6.7s5.82-.65,6.88,1.66-.3,5.31-3,6.7S200.74,130.85,199.68,128.54Z"/><path class="cls-2" d="M196.6,23l.16,0h-.16a2.31,2.31,0,0,1-1.49-.49,0,0,0,0,0,0,0,2.56,2.56,0,0,1-1.49.67l-.16,0h.16a2.26,2.26,0,0,1,1.49.48h0A2.62,2.62,0,0,1,196.6,23Z"/><polygon class="cls-3" points="181.31 5.39 181.31 192.48 262.5 187.23 262.5 0.53 181.31 5.39"/><path class="cls-4" d="M254.87,9c0-.82,0-1.4,0-1.74a2,2,0,0,1,.37-1,2.07,2.07,0,0,1,.82-.69,3.12,3.12,0,0,1,1.2-.3,2.9,2.9,0,0,1,1.17.14,1.77,1.77,0,0,1,.84.59,1.83,1.83,0,0,1,.38.91,17,17,0,0,1,.06,1.75v1.39a17.13,17.13,0,0,1-.06,1.74,2.11,2.11,0,0,1-1.18,1.65,3.22,3.22,0,0,1-1.21.3,3.14,3.14,0,0,1-1.17-.14,1.84,1.84,0,0,1-.84-.59,1.86,1.86,0,0,1-.37-.91,17.09,17.09,0,0,1-.06-1.75ZM257,11.53a2.54,2.54,0,0,0,.06.72.23.23,0,0,0,.26.14.27.27,0,0,0,.25-.14,1.81,1.81,0,0,0,.09-.76V7.69a4.54,4.54,0,0,0-.05-.87.26.26,0,0,0-.27-.15.28.28,0,0,0-.28.21,4.12,4.12,0,0,0-.06.91Z"/><path class="cls-4" d="M248.24,14.14V8.71a9.47,9.47,0,0,1,.06-1.3,1.85,1.85,0,0,1,.36-.79,2.06,2.06,0,0,1,.78-.65,3.18,3.18,0,0,1,1.14-.27,3.09,3.09,0,0,1,1.29.17,1.8,1.8,0,0,1,.83.57,1.6,1.6,0,0,1,.33.8c0,.28.05.89.05,1.8v4.81L251,14V7.88a2.35,2.35,0,0,0-.05-.67.23.23,0,0,0-.24-.14.27.27,0,0,0-.26.18,3.82,3.82,0,0,0,0,.78v6Z"/><path class="cls-4" d="M246.39,14.26l-1.49.09a10.81,10.81,0,0,1-2,0,1.24,1.24,0,0,1-.86-.54,2.5,2.5,0,0,1-.34-1.49,2.43,2.43,0,0,1,.24-1.29,1.28,1.28,0,0,1,.93-.45,1.57,1.57,0,0,1-.85-.36,1.28,1.28,0,0,1-.27-.47,8.35,8.35,0,0,1-.05-1.2V6.41l2-.12V9a1.75,1.75,0,0,0,.1.8c.07.1.25.15.54.13V6.25l2.11-.12ZM244.28,13V11.18a1,1,0,0,0-.5.13c-.1.07-.14.29-.14.65v.44c0,.26,0,.43.13.5A.72.72,0,0,0,244.28,13Z"/><path class="cls-4" d="M256.29,25.7l-2.71.17a6.19,6.19,0,0,1-1.35,0,1.73,1.73,0,0,1-.79-.37,1.64,1.64,0,0,1-.52-.73,2.78,2.78,0,0,1-.17-1,3.86,3.86,0,0,1,.17-1.22,1.74,1.74,0,0,1,.53-.8,2.27,2.27,0,0,1,.75-.45,4.8,4.8,0,0,1,1.25-.2l2.84-.17A5.15,5.15,0,0,1,258,21a1.53,1.53,0,0,1,.89.72,2.62,2.62,0,0,1,.34,1.37,3,3,0,0,1-.24,1.21,2.06,2.06,0,0,1-.57.82,1.92,1.92,0,0,1-.76.4A6.48,6.48,0,0,1,256.29,25.7Zm.68-2.07a2.82,2.82,0,0,0,.81-.11.3.3,0,0,0,.17-.3.27.27,0,0,0-.18-.29,2.53,2.53,0,0,0-.8,0l-4,.24a2.44,2.44,0,0,0-.85.12.3.3,0,0,0-.14.3.25.25,0,0,0,.17.28,2.53,2.53,0,0,0,.76,0Z"/><path class="cls-4" d="M253.07,27.66v2l-.72.06a.4.4,0,0,0-.24.14.44.44,0,0,0-.1.3.35.35,0,0,0,.09.25.36.36,0,0,0,.25.1l.6,0,1.3-.07a.94.94,0,0,1-.49-.43,1.46,1.46,0,0,1-.16-.73,1.76,1.76,0,0,1,.3-1,1.42,1.42,0,0,1,.72-.58,4.32,4.32,0,0,1,1.14-.19l.65,0a11,11,0,0,1,1.27,0,1.52,1.52,0,0,1,.77.31,1.62,1.62,0,0,1,.55.74,3.05,3.05,0,0,1,.2,1.14A3.45,3.45,0,0,1,259,31a2,2,0,0,1-1.54,1.24c-.31,0-.92.1-1.81.15l-1.13.07c-1,.06-1.61.08-1.94.08a1.77,1.77,0,0,1-.93-.3,1.64,1.64,0,0,1-.65-.79,3,3,0,0,1-.22-1.21A3.15,3.15,0,0,1,251,28.8a1.83,1.83,0,0,1,.77-.83A3.08,3.08,0,0,1,253.07,27.66Zm2.54,1.87a1,1,0,0,0-.64.17.45.45,0,0,0-.12.28.31.31,0,0,0,.16.3,1.17,1.17,0,0,0,.6.06l1.47-.09a1.69,1.69,0,0,0,.7-.13.36.36,0,0,0,.17-.32.38.38,0,0,0-.13-.26c-.09-.09-.32-.13-.69-.1Z"/><path class="cls-4" d="M252.57,35.63l-1.66.1V34.2l1.66-.1Z"/><path class="cls-4" d="M255.52,40.84a1.48,1.48,0,0,1-.51.72,4.07,4.07,0,0,1-1.66.33,4.11,4.11,0,0,1-1.51-.13A1.46,1.46,0,0,1,251,41a2.85,2.85,0,0,1-.28-1.37,3.16,3.16,0,0,1,.32-1.53,1.76,1.76,0,0,1,.8-.78,5.63,5.63,0,0,1,1.63-.27l.64,0v2l-1.32.08a2,2,0,0,0-.67.11c-.1,0-.14.14-.14.28a.28.28,0,0,0,.18.3,3,3,0,0,0,.94,0l.56,0a1.77,1.77,0,0,0,.69-.15.6.6,0,0,0,.28-.33,3.74,3.74,0,0,0,.08-.8l1.18-.07a4.81,4.81,0,0,0,.05.89.37.37,0,0,0,.24.23,1.92,1.92,0,0,0,.59,0l.45,0a1.33,1.33,0,0,0,.56-.12.34.34,0,0,0,.14-.28.27.27,0,0,0-.15-.28,1.39,1.39,0,0,0-.61,0l-.67,0v-2l.7,0a1.79,1.79,0,0,1,1.57.43A2.71,2.71,0,0,1,259.2,39a2.75,2.75,0,0,1-.57,2,2.34,2.34,0,0,1-1.57.61,1.92,1.92,0,0,1-1-.12A1.55,1.55,0,0,1,255.52,40.84Z"/><path class="cls-4" d="M256.29,48.25l-2.71.16a6.35,6.35,0,0,1-1.35,0,1.84,1.84,0,0,1-.79-.37,1.64,1.64,0,0,1-.52-.73,2.82,2.82,0,0,1-.17-1,3.81,3.81,0,0,1,.17-1.22,1.74,1.74,0,0,1,.53-.8,2.49,2.49,0,0,1,.75-.46,4.9,4.9,0,0,1,1.25-.19l2.84-.18a5.79,5.79,0,0,1,1.68.09,1.53,1.53,0,0,1,.89.72,2.62,2.62,0,0,1,.34,1.37,2.94,2.94,0,0,1-.24,1.21,2.06,2.06,0,0,1-.57.82,1.92,1.92,0,0,1-.76.4A7.08,7.08,0,0,1,256.29,48.25Zm.68-2.07a3.86,3.86,0,0,0,.81-.11.31.31,0,0,0,.17-.31.28.28,0,0,0-.18-.29,2.53,2.53,0,0,0-.8,0l-4,.24a3.1,3.1,0,0,0-.85.12.3.3,0,0,0-.14.3c0,.16.05.25.17.29a2.32,2.32,0,0,0,.76,0Z"/><path class="cls-4" d="M252.57,51.58l-1.66.1V50.15l1.66-.1Z"/><path class="cls-4" d="M252.3,57.55l-1.39.08V53.17l1.16-.07q3.24,1.78,4,2.11a2.8,2.8,0,0,0,1.2.3.89.89,0,0,0,.49-.14A.42.42,0,0,0,258,55a.35.35,0,0,0-.18-.33,1.5,1.5,0,0,0-.72-.07l-.78,0V52.84l.3,0a7.42,7.42,0,0,1,1.08,0,1.72,1.72,0,0,1,.77.3,1.49,1.49,0,0,1,.58.68,2.52,2.52,0,0,1,.2,1,2.67,2.67,0,0,1-.6,1.86,2.17,2.17,0,0,1-1.52.72,3.65,3.65,0,0,1-1.48-.26,27.19,27.19,0,0,1-3.3-1.86Z"/><path class="cls-4" d="M256.29,63.9l-2.71.17a6.19,6.19,0,0,1-1.35,0,1.82,1.82,0,0,1-.79-.36,1.62,1.62,0,0,1-.52-.74,2.76,2.76,0,0,1-.17-1,3.81,3.81,0,0,1,.17-1.22,1.82,1.82,0,0,1,.53-.81,2.67,2.67,0,0,1,.75-.45,5.28,5.28,0,0,1,1.25-.2l2.84-.17a5.15,5.15,0,0,1,1.68.09,1.51,1.51,0,0,1,.89.71,2.66,2.66,0,0,1,.34,1.38,3,3,0,0,1-.24,1.21,2.06,2.06,0,0,1-.57.82,1.92,1.92,0,0,1-.76.4A6.48,6.48,0,0,1,256.29,63.9Zm.68-2.07a2.82,2.82,0,0,0,.81-.11.3.3,0,0,0,.17-.3.27.27,0,0,0-.18-.29,2.53,2.53,0,0,0-.8,0l-4,.24a3.1,3.1,0,0,0-.85.12.3.3,0,0,0-.14.3c0,.15.05.25.17.29a2.32,2.32,0,0,0,.76,0Z"/><path class="cls-4" d="M252.3,70.28l-1.39.09V65.9l1.16-.07q3.24,1.78,4,2.11a2.8,2.8,0,0,0,1.2.3.89.89,0,0,0,.49-.14.42.42,0,0,0,.17-.36.35.35,0,0,0-.18-.33,1.5,1.5,0,0,0-.72-.07l-.78,0V65.57l.3,0a7.42,7.42,0,0,1,1.08,0,1.72,1.72,0,0,1,.77.3,1.49,1.49,0,0,1,.58.68,2.49,2.49,0,0,1,.2,1,2.67,2.67,0,0,1-.6,1.86,2.17,2.17,0,0,1-1.52.72,3.49,3.49,0,0,1-1.48-.26,28.07,28.07,0,0,1-3.3-1.85Z"/><path class="cls-4" d="M259,74.81l-8.13.5v-2l4.36-.27a7.73,7.73,0,0,0,1.13-.11.46.46,0,0,0,.29-.27,2.49,2.49,0,0,0,.1-.91v-.2l.95-.06a3.35,3.35,0,0,0,1.3,2.15Z"/><path class="cls-2" d="M183.57,168.3l1.34-.08a8.12,8.12,0,0,1,1.76,0,1.26,1.26,0,0,1,.7.35,1.12,1.12,0,0,1,.3.58,9.05,9.05,0,0,1,.06,1.31v2.41a5.6,5.6,0,0,1-.09,1.25,1,1,0,0,1-.31.51,1.41,1.41,0,0,1-.53.28,5.42,5.42,0,0,1-1,.13l-2.26.14Zm1.8,1.06v4.53c.26,0,.41-.08.47-.18a2.36,2.36,0,0,0,.09-.85v-2.68a3.6,3.6,0,0,0,0-.6.27.27,0,0,0-.13-.18A.85.85,0,0,0,185.37,169.36Z"/><path class="cls-2" d="M189.27,167.94l3-.2v1.38l-1.2.08v1.3l1.12-.07v1.31l-1.12.07v1.52l1.31-.09v1.38l-3.1.2Z"/><path class="cls-2" d="M197.56,169.49l-1.66.1v-.51a1,1,0,0,0-.07-.45.21.21,0,0,0-.21-.08.32.32,0,0,0-.25.15.83.83,0,0,0-.08.4,1.11,1.11,0,0,0,.09.51,1.14,1.14,0,0,0,.51.39,4.66,4.66,0,0,1,1.51,1.07,2.54,2.54,0,0,1,.31,1.45,2.72,2.72,0,0,1-.17,1.09,1.53,1.53,0,0,1-.67.63,2.75,2.75,0,0,1-1.15.31,2.49,2.49,0,0,1-1.23-.2,1.14,1.14,0,0,1-.66-.65,3.27,3.27,0,0,1-.16-1.18v-.45l1.66-.11v.84a1.15,1.15,0,0,0,.07.49.28.28,0,0,0,.25.1.32.32,0,0,0,.27-.16.82.82,0,0,0,.09-.42,1.25,1.25,0,0,0-.17-.79,5.44,5.44,0,0,0-.84-.57,7.27,7.27,0,0,1-.88-.58,1.31,1.31,0,0,1-.36-.53,2.26,2.26,0,0,1-.15-.89,2.49,2.49,0,0,1,.21-1.17,1.5,1.5,0,0,1,.65-.62,2.86,2.86,0,0,1,1.09-.27,2.76,2.76,0,0,1,1.19.15,1.14,1.14,0,0,1,.65.52,2.88,2.88,0,0,1,.16,1.16Z"/><path class="cls-2" d="M200.93,167.19v6.88l-1.79.11V167.3Z"/><path class="cls-2" d="M206.64,169.36l-1.8.11v-.62a2.79,2.79,0,0,0-.05-.74c0-.1-.11-.14-.24-.13a.21.21,0,0,0-.22.14,2.09,2.09,0,0,0-.06.66v3.3a1.84,1.84,0,0,0,.06.6c0,.1.11.14.23.13a.27.27,0,0,0,.27-.18,1.88,1.88,0,0,0,.07-.65v-.81l-.36,0v-1.05l2.1-.13v3.69l-1.13.07-.17-.48a1.28,1.28,0,0,1-1.12.71,1.6,1.6,0,0,1-.84-.16,1.51,1.51,0,0,1-.6-.51,1.44,1.44,0,0,1-.25-.66,6.84,6.84,0,0,1-.06-1.06v-2a6.93,6.93,0,0,1,.11-1.44,1.59,1.59,0,0,1,.61-.86,2.24,2.24,0,0,1,1.31-.45,2.29,2.29,0,0,1,1.3.23,1.44,1.44,0,0,1,.68.73,4.07,4.07,0,0,1,.16,1.28Z"/><path class="cls-2" d="M212.2,166.47v6.87l-1.57.1-.93-3.06v3.12l-1.5.1v-6.88l1.5-.09,1,3v-3.1Z"/><path class="cls-2" d="M183.57,178.75l3-.19v1.37l-1.19.08v1.31l1.12-.08v1.31l-1.12.08v1.51l1.31-.09v1.38l-3.11.2Z"/><path class="cls-2" d="M191.7,178.23l-.63,3.08,1,3.78-1.66.1a20.1,20.1,0,0,1-.54-2.47c0,.44-.11.91-.19,1.4l-.17,1.13-1.75.11.66-3.88-.66-3,1.74-.11c0,.19.09.5.18.94s.14.63.19.92l.38-1.91Z"/><path class="cls-2" d="M197.27,177.87v6.88l-1.79.11V182l-.54,0v2.89l-1.79.11v-6.88l1.79-.11v2.46l.54,0V178Z"/><path class="cls-2" d="M200.65,177.65v6.88l-1.79.11v-6.87Z"/><path class="cls-2" d="M202.24,177.55l1.79-.12a4.83,4.83,0,0,1,1.28,0,1.15,1.15,0,0,1,.71.49,2.26,2.26,0,0,1,.27,1.27,1,1,0,0,1-.94,1.27,1.21,1.21,0,0,1,.84.41,1.71,1.71,0,0,1,.22,1v.64a2.51,2.51,0,0,1-.16,1,.91.91,0,0,1-.5.5,5.52,5.52,0,0,1-1.43.21l-2.08.14Zm1.8,1.06v1.53l.17,0c.18,0,.29-.06.34-.15a2.13,2.13,0,0,0,.07-.74,1.14,1.14,0,0,0-.06-.45.26.26,0,0,0-.15-.16A1.32,1.32,0,0,0,204,178.61Zm0,2.6v1.92a.74.74,0,0,0,.48-.15.86.86,0,0,0,.1-.53v-.64a.92.92,0,0,0-.09-.53A.87.87,0,0,0,204,181.21Z"/><path class="cls-2" d="M209.72,177.07v6.87l-1.79.12v-6.88Z"/><path class="cls-2" d="M214.92,176.73v1.38l-1.07.07v5.5l-1.79.11v-5.5l-1.06.07V177Z"/><path class="cls-2" d="M218,176.53v6.88l-1.79.12v-6.88Z"/><path class="cls-2" d="M223.66,180.19c0,.69,0,1.19,0,1.47a1.87,1.87,0,0,1-.31.81,1.79,1.79,0,0,1-.7.6,2.64,2.64,0,0,1-1,.25,2.46,2.46,0,0,1-1-.11,1.59,1.59,0,0,1-.71-.5,1.54,1.54,0,0,1-.31-.77,12.16,12.16,0,0,1-.06-1.48v-1.17c0-.7,0-1.19,0-1.48a1.84,1.84,0,0,1,1-1.4,2.73,2.73,0,0,1,1-.25,2.49,2.49,0,0,1,1,.11,1.59,1.59,0,0,1,.71.5,1.54,1.54,0,0,1,.31.77,12.79,12.79,0,0,1,0,1.48Zm-1.78-2.14a1.87,1.87,0,0,0-.06-.61.19.19,0,0,0-.22-.12.28.28,0,0,0-.21.12,1.56,1.56,0,0,0-.08.65v3.21a3.16,3.16,0,0,0,.05.73.21.21,0,0,0,.23.13.24.24,0,0,0,.23-.18,2.9,2.9,0,0,0,.06-.77Z"/><path class="cls-2" d="M229.2,175.81v6.88l-1.57.1-.93-3.07v3.13l-1.5.09v-6.87l1.5-.1,1,3v-3.09Z"/><path class="cls-2" d="M228.89,15.31l-3.53.21V13.9l1.42-.09V12.27l-1.32.08V10.8l1.32-.08V8.93L225.22,9V7.4l3.67-.22Z"/><path class="cls-2" d="M223.59,15.63l-2.14.13a4.78,4.78,0,0,1-1.33-.06,1.4,1.4,0,0,1-.7-.35,1.23,1.23,0,0,1-.31-.6,5,5,0,0,1-.09-1.12v-.71a3.24,3.24,0,0,1,.16-1.15,1.28,1.28,0,0,1,.59-.58,3.09,3.09,0,0,1,1.13-.26l.57,0V7.62l2.12-.13Zm-2.12-1.26V12.3h-.16a.5.5,0,0,0-.4.17,1,1,0,0,0-.12.6v.67a.77.77,0,0,0,.13.53A.83.83,0,0,0,221.47,14.37Z"/><path class="cls-2" d="M215.26,16.13V8l2.12-.12V16Z"/><path class="cls-2" d="M211.26,16.37V9.86L210,9.94V8.31l3.4-.2v8.13Z"/><path class="cls-2" d="M203.74,12.06a17.13,17.13,0,0,1,.06-1.74A2.11,2.11,0,0,1,205,8.67a2.84,2.84,0,0,1,1.21-.3,3,3,0,0,1,1.17.14,1.77,1.77,0,0,1,.84.59,1.83,1.83,0,0,1,.38.91,17.09,17.09,0,0,1,.06,1.75v1.4a17.4,17.4,0,0,1-.06,1.74,2.11,2.11,0,0,1-1.18,1.65,3.22,3.22,0,0,1-1.21.3,3.17,3.17,0,0,1-1.18-.14,1.84,1.84,0,0,1-.84-.59,1.86,1.86,0,0,1-.37-.91,14.16,14.16,0,0,1-.07-1.76Zm2.12,2.55a2.41,2.41,0,0,0,.07.72.23.23,0,0,0,.26.14.31.31,0,0,0,.25-.14,1.81,1.81,0,0,0,.09-.76v-3.8a3.61,3.61,0,0,0-.06-.88.26.26,0,0,0-.27-.15.28.28,0,0,0-.27.21,3.44,3.44,0,0,0-.07.92Z"/><path class="cls-2" d="M197.06,14.23l2.12-.13v.74a3.57,3.57,0,0,0,.06.87c0,.12.13.17.29.16a.27.27,0,0,0,.26-.16,2.47,2.47,0,0,0,.07-.78V11a2.26,2.26,0,0,0-.07-.72.25.25,0,0,0-.28-.15.33.33,0,0,0-.31.21,2.19,2.19,0,0,0-.09.77v1l.43,0v1.24l-2.48.15V9.09L198.39,9l.2.57a1.58,1.58,0,0,1,.54-.6,1.63,1.63,0,0,1,.78-.24,2,2,0,0,1,1,.2,1.85,1.85,0,0,1,.71.6,2,2,0,0,1,.3.79,9.42,9.42,0,0,1,.06,1.25V14a8.51,8.51,0,0,1-.12,1.7,1.89,1.89,0,0,1-.73,1,2.64,2.64,0,0,1-1.54.54A2.86,2.86,0,0,1,198,17a1.73,1.73,0,0,1-.8-.86,4.9,4.9,0,0,1-.18-1.52Z"/><path class="cls-2" d="M190.38,17.63V12.19a9.74,9.74,0,0,1,.06-1.31,1.9,1.9,0,0,1,.36-.79,2,2,0,0,1,.79-.64,2.81,2.81,0,0,1,1.14-.27,3.09,3.09,0,0,1,1.29.16,1.83,1.83,0,0,1,.84.58,1.6,1.6,0,0,1,.32.8,16.41,16.41,0,0,1,.06,1.8v4.82l-2.13.13V11.36a2.43,2.43,0,0,0-.05-.68.22.22,0,0,0-.24-.13.27.27,0,0,0-.26.18,3,3,0,0,0-.06.77v6Z"/><path class="cls-2" d="M188.53,17.74,185,18V16.33l1.42-.09V14.7l-1.33.08V13.23l1.33-.08V11.36l-1.56.09V9.82l3.68-.22Z"/><path class="cls-2" d="M241.72,28.38l-8.13.5V27l5.49-.34-5.49-.4V25l5.37-1.1-5.37.32V22.35l8.13-.49V24.6c-.48.11-1.06.23-1.72.35l-2.07.43,3.79.25Z"/><path class="cls-2" d="M241.72,30.26v3.53l-1.62.1V32.47l-1.55.1v1.32L237,34V32.66l-1.79.11v1.55l-1.63.1V30.75Z"/><path class="cls-2" d="M241.72,42.09l-8.13.49V40.74l5.49-.34-5.49-.4V38.69L239,37.58l-5.37.33V36.06l8.13-.5V38.3l-1.72.36-2.07.42,3.79.26Z"/><path class="cls-2" d="M237,49.09a17.21,17.21,0,0,1-1.74,0,1.81,1.81,0,0,1-.93-.31,1.74,1.74,0,0,1-.65-.78,2.87,2.87,0,0,1-.22-1.19,3.23,3.23,0,0,1,.21-1.19,2.15,2.15,0,0,1,.64-.87,2.1,2.1,0,0,1,.93-.44c.34-.06.92-.11,1.76-.16l1.39-.09c.82,0,1.4-.06,1.74,0a1.81,1.81,0,0,1,.93.31,1.74,1.74,0,0,1,.65.78,2.9,2.9,0,0,1,.23,1.19,3.23,3.23,0,0,1-.22,1.19,2.06,2.06,0,0,1-.64.87,2,2,0,0,1-.93.44c-.33.06-.92.11-1.76.16Zm2.67-2.28a2.43,2.43,0,0,0,.73-.11.25.25,0,0,0,.16-.26.27.27,0,0,0-.13-.25,1.8,1.8,0,0,0-.76,0l-3.8.23a4.24,4.24,0,0,0-.87.11.28.28,0,0,0-.17.28A.24.24,0,0,0,235,47a3.47,3.47,0,0,0,.91,0Z"/><path class="cls-2" d="M241.72,50.62v1.49a11.53,11.53,0,0,1-.11,2,1.56,1.56,0,0,1-.59.9,2.81,2.81,0,0,1-1.52.42,2.2,2.2,0,0,1-1.27-.16,1.16,1.16,0,0,1-.4-.9,1.76,1.76,0,0,1-.41.87,1.67,1.67,0,0,1-.48.3,8.84,8.84,0,0,1-1.21.12l-2.14.14v-2l2.7-.16a1.83,1.83,0,0,0,.81-.16c.1-.07.16-.26.16-.55l-3.67.23V51.11Zm-1.39,2.19-1.81.12a.94.94,0,0,0,.1.49c.07.09.28.13.64.1l.44,0a.77.77,0,0,0,.51-.17A.84.84,0,0,0,240.33,52.81Z"/><path class="cls-2" d="M241.72,59.3l-8.13.5V57.68l8.13-.5Z"/><path class="cls-2" d="M241.72,61.18V64.7l-1.62.1V63.39l-1.55.09v1.33L237,64.9V63.58l-1.79.11v1.55l-1.63.1V61.68Z"/><path class="cls-2" d="M239.26,71.11v-2l.61,0a1.12,1.12,0,0,0,.53-.11.29.29,0,0,0,.12-.26.3.3,0,0,0-.16-.28.88.88,0,0,0-.47-.07,1.42,1.42,0,0,0-.61.15,1.7,1.7,0,0,0-.5.63A6.38,6.38,0,0,1,237.4,71a3.25,3.25,0,0,1-1.73.48,3,3,0,0,1-1.28-.13,1.41,1.41,0,0,1-.7-.74,3.08,3.08,0,0,1-.27-1.34,3.12,3.12,0,0,1,.32-1.47,1.69,1.69,0,0,1,.82-.83,4.2,4.2,0,0,1,1.41-.28l.53,0v2l-1,.07a1.31,1.31,0,0,0-.59.11.38.38,0,0,0-.13.31.32.32,0,0,0,.17.3.86.86,0,0,0,.49.07,1.61,1.61,0,0,0,.94-.25,6.12,6.12,0,0,0,.74-1,11.16,11.16,0,0,1,.76-1.09,2,2,0,0,1,.65-.46,3.08,3.08,0,0,1,1.07-.24,2.88,2.88,0,0,1,1.37.16,1.46,1.46,0,0,1,.67.73,3,3,0,0,1,.25,1.27,3.43,3.43,0,0,1-.27,1.42,1.6,1.6,0,0,1-.67.81,3.75,3.75,0,0,1-1.38.27Z"/><path class="cls-2" d="M227.23,25.07l-1.46.09a3.19,3.19,0,0,1-.72,0,.91.91,0,0,1-.42-.2.79.79,0,0,1-.28-.39,1.47,1.47,0,0,1-.09-.53,2,2,0,0,1,.09-.65.92.92,0,0,1,.28-.43,1.56,1.56,0,0,1,.4-.25,2.81,2.81,0,0,1,.68-.1l1.52-.09a2.63,2.63,0,0,1,.9,0,.78.78,0,0,1,.48.38,1.4,1.4,0,0,1,.18.74,1.66,1.66,0,0,1-.13.64,1.07,1.07,0,0,1-.3.44A1.09,1.09,0,0,1,228,25,4,4,0,0,1,227.23,25.07Zm.36-1.11a1.37,1.37,0,0,0,.44-.06.15.15,0,0,0,.09-.16.15.15,0,0,0-.1-.15,1.19,1.19,0,0,0-.43,0l-2.12.13a1.56,1.56,0,0,0-.46.07.16.16,0,0,0-.08.16.14.14,0,0,0,.09.15,1.2,1.2,0,0,0,.41,0Z"/><path class="cls-2" d="M225.5,26.12V27.2l-.38,0a.19.19,0,0,0-.14.07.25.25,0,0,0,0,.16.17.17,0,0,0,0,.13.18.18,0,0,0,.13.06l.33,0,.69,0a.51.51,0,0,1-.26-.22.82.82,0,0,1-.09-.4.94.94,0,0,1,.17-.54.71.71,0,0,1,.38-.31,2.75,2.75,0,0,1,.61-.1l.35,0a5.41,5.41,0,0,1,.68,0,.85.85,0,0,1,.42.17.91.91,0,0,1,.29.39,1.67,1.67,0,0,1,.11.62,1.87,1.87,0,0,1-.12.72,1.25,1.25,0,0,1-.35.46,1,1,0,0,1-.48.2,8.41,8.41,0,0,1-1,.08l-.61,0c-.52,0-.86.05-1,0a.88.88,0,0,1-.49-.15,1,1,0,0,1-.36-.43,1.8,1.8,0,0,1-.11-.65,1.88,1.88,0,0,1,.14-.76,1,1,0,0,1,.42-.44A1.51,1.51,0,0,1,225.5,26.12Zm1.36,1a.53.53,0,0,0-.34.09.24.24,0,0,0-.06.15.15.15,0,0,0,.08.16.53.53,0,0,0,.32,0l.79,0a1.09,1.09,0,0,0,.38-.07.2.2,0,0,0,.09-.17.21.21,0,0,0-.07-.14c-.05-.05-.17-.07-.37-.06Z"/><path class="cls-2" d="M225.23,30.39l-.89.06v-.82l.89-.06Z"/><path class="cls-2" d="M226.81,33.18a.69.69,0,0,1-.27.39,2,2,0,0,1-.89.17,1.93,1.93,0,0,1-.81-.07.73.73,0,0,1-.43-.38,1.55,1.55,0,0,1-.15-.73,1.65,1.65,0,0,1,.17-.83.94.94,0,0,1,.43-.41,2.8,2.8,0,0,1,.87-.14l.34,0v1.09l-.7,0a1.25,1.25,0,0,0-.36.06.16.16,0,0,0-.08.15c0,.09,0,.14.1.16a1.4,1.4,0,0,0,.5,0h.31a1,1,0,0,0,.36-.08.29.29,0,0,0,.15-.18,1.64,1.64,0,0,0,.05-.43l.63,0a2.16,2.16,0,0,0,0,.48.18.18,0,0,0,.13.12.7.7,0,0,0,.31,0h.24a.59.59,0,0,0,.3-.07.18.18,0,0,0,0-.3.92.92,0,0,0-.33,0l-.36,0V31.08l.38,0a1,1,0,0,1,.84.24,1.4,1.4,0,0,1,.22.89,1.47,1.47,0,0,1-.3,1.07,1.29,1.29,0,0,1-.85.33,1,1,0,0,1-.53-.06A.79.79,0,0,1,226.81,33.18Z"/><path class="cls-2" d="M227.23,37.15l-1.46.09a3.19,3.19,0,0,1-.72,0,.82.82,0,0,1-.42-.2.79.79,0,0,1-.28-.39,1.44,1.44,0,0,1-.09-.53,2,2,0,0,1,.09-.65.92.92,0,0,1,.28-.43,1.29,1.29,0,0,1,.4-.24,2.71,2.71,0,0,1,.68-.11l1.52-.09a2.92,2.92,0,0,1,.9,0,.81.81,0,0,1,.48.38,1.4,1.4,0,0,1,.18.74,1.71,1.71,0,0,1-.13.65,1.14,1.14,0,0,1-.3.44,1.07,1.07,0,0,1-.41.21A4,4,0,0,1,227.23,37.15Zm.36-1.11A1.37,1.37,0,0,0,228,36a.15.15,0,0,0,.09-.16.15.15,0,0,0-.1-.15,1.5,1.5,0,0,0-.43,0l-2.12.13a1.56,1.56,0,0,0-.46.07.17.17,0,0,0-.08.16.14.14,0,0,0,.09.15,1.4,1.4,0,0,0,.41,0Z"/><path class="cls-2" d="M222.08,24.49l-4.36.27V23.67l2.34-.14a4.23,4.23,0,0,0,.61-.06.23.23,0,0,0,.15-.14,1.28,1.28,0,0,0,.06-.49v-.11l.51,0a1.8,1.8,0,0,0,.69,1.15Z"/><path class="cls-2" d="M220.61,28.12l-1.46.09a3.19,3.19,0,0,1-.72,0A.91.91,0,0,1,218,28a.87.87,0,0,1-.29-.39,1.74,1.74,0,0,1-.08-.53,2,2,0,0,1,.09-.65A.92.92,0,0,1,218,26a1.56,1.56,0,0,1,.4-.25,2.81,2.81,0,0,1,.68-.1l1.52-.09a2.63,2.63,0,0,1,.9.05A.78.78,0,0,1,222,26a1.4,1.4,0,0,1,.18.74,1.5,1.5,0,0,1-.13.64,1.07,1.07,0,0,1-.3.44,1,1,0,0,1-.41.22A4,4,0,0,1,220.61,28.12ZM221,27a1.37,1.37,0,0,0,.44-.06.15.15,0,0,0,.09-.16.15.15,0,0,0-.1-.15,1.19,1.19,0,0,0-.43,0l-2.13.13a1.53,1.53,0,0,0-.45.07c-.06,0-.08.08-.08.16a.14.14,0,0,0,.09.15,1.2,1.2,0,0,0,.41,0Z"/><path class="cls-2" d="M218.61,29.91l-.89.05v-.82l.89-.05Z"/><path class="cls-2" d="M220.61,33.2l-1.46.09a3.93,3.93,0,0,1-.72,0,1,1,0,0,1-.42-.2,1,1,0,0,1-.29-.39,1.78,1.78,0,0,1-.08-.53,2.1,2.1,0,0,1,.09-.66,1,1,0,0,1,.28-.43,1.29,1.29,0,0,1,.4-.24,2.71,2.71,0,0,1,.68-.11l1.52-.09a2.92,2.92,0,0,1,.9.05.85.85,0,0,1,.48.38,1.42,1.42,0,0,1,.18.74,1.54,1.54,0,0,1-.13.65,1.14,1.14,0,0,1-.3.44,1.07,1.07,0,0,1-.41.21A3.14,3.14,0,0,1,220.61,33.2Zm.36-1.11a2.46,2.46,0,0,0,.44-.06.17.17,0,0,0,.09-.17.15.15,0,0,0-.1-.15,1.29,1.29,0,0,0-.43,0l-2.13.13a1.34,1.34,0,0,0-.45.06.15.15,0,0,0-.08.16.16.16,0,0,0,.09.16,1.55,1.55,0,0,0,.41,0Z"/><path class="cls-2" d="M222.08,35.73l-4.36.26V34.9l2.34-.14a4.23,4.23,0,0,0,.61-.06.23.23,0,0,0,.15-.14,1.28,1.28,0,0,0,.06-.49V34l.51,0a1.85,1.85,0,0,0,.69,1.16Z"/><path class="cls-2" d="M215.46,24.89l-4.36.27V24.07l2.34-.14a4.23,4.23,0,0,0,.61-.06.23.23,0,0,0,.15-.14,1.34,1.34,0,0,0,.05-.49v-.11l.51,0a1.85,1.85,0,0,0,.7,1.15Z"/><path class="cls-2" d="M214,28.52l-1.45.09a3.19,3.19,0,0,1-.72,0,.94.94,0,0,1-.43-.2.85.85,0,0,1-.28-.39,1.44,1.44,0,0,1-.09-.53,2,2,0,0,1,.09-.65.94.94,0,0,1,.29-.43,1.19,1.19,0,0,1,.4-.24,2.23,2.23,0,0,1,.67-.11L214,26a2.59,2.59,0,0,1,.9.05.78.78,0,0,1,.48.38,1.4,1.4,0,0,1,.19.74,1.66,1.66,0,0,1-.13.64,1.19,1.19,0,0,1-.31.45,1,1,0,0,1-.4.21A4,4,0,0,1,214,28.52Zm.37-1.11a1.43,1.43,0,0,0,.44-.06c.06,0,.08-.08.08-.16a.14.14,0,0,0-.09-.15,1.19,1.19,0,0,0-.43,0l-2.13.13a1.72,1.72,0,0,0-.46.07s-.07.08-.07.16a.14.14,0,0,0,.09.15,1.2,1.2,0,0,0,.41,0Z"/><path class="cls-2" d="M212,30.31l-.89.05v-.82l.89-.05Z"/><path class="cls-2" d="M214,33.6l-1.45.09a3.93,3.93,0,0,1-.72,0,1.06,1.06,0,0,1-.43-.2,1,1,0,0,1-.28-.39,1.51,1.51,0,0,1-.09-.53,2.1,2.1,0,0,1,.09-.66,1,1,0,0,1,.29-.43,1.19,1.19,0,0,1,.4-.24,2.3,2.3,0,0,1,.67-.1L214,31a3.21,3.21,0,0,1,.9,0,.83.83,0,0,1,.48.39,1.36,1.36,0,0,1,.19.73,1.67,1.67,0,0,1-.13.65,1.15,1.15,0,0,1-.31.44,1.2,1.2,0,0,1-.4.22A4,4,0,0,1,214,33.6Zm.37-1.11a1.43,1.43,0,0,0,.44-.06.15.15,0,0,0,.08-.16.15.15,0,0,0-.09-.16,1.67,1.67,0,0,0-.43,0l-2.13.13a1.48,1.48,0,0,0-.46.06.17.17,0,0,0-.07.16c0,.09,0,.14.09.16a1.55,1.55,0,0,0,.41,0Z"/><path class="cls-2" d="M211.84,37l-.74,0V34.67l.62,0c1.16.64,1.88,1,2.16,1.13a1.47,1.47,0,0,0,.64.16.48.48,0,0,0,.27-.07.22.22,0,0,0,.08-.19.19.19,0,0,0-.09-.18.8.8,0,0,0-.39,0l-.41,0v-1h.16a3.36,3.36,0,0,1,.57,0,.91.91,0,0,1,.42.16.83.83,0,0,1,.31.36,1.36,1.36,0,0,1,.11.56,1.39,1.39,0,0,1-.33,1,1.12,1.12,0,0,1-.81.39,2.06,2.06,0,0,1-.79-.14,15.28,15.28,0,0,1-1.78-1Z"/><path class="cls-1" d="M222.69,78.78c-8.75-4.51-14-11.47-11.72-15.54s11.21-3.73,20,.78,14,11.46,11.71,15.53S231.44,83.28,222.69,78.78Z"/><path class="cls-1" d="M237.11,152.91c-2.06-4.5-1.82-9.12.54-10.32s5.95,1.47,8,6,1.82,9.11-.54,10.31S239.18,157.41,237.11,152.91Z"/><path class="cls-1" d="M262.5,104.45s-34.86,86.8-52.32,53.24S201.83,83,181.31,78.35"/><path class="cls-2" d="M242.46,10.27l.66-.12-.05,0,.05,0-.66,0c-3.06-.2-5.43-1-6.39-2.09a.1.1,0,0,0-.15,0c-1,1.23-3.34,2.29-6.4,2.86l-.66.12h0l0,0,.66.05c3.06.2,5.43,1,6.4,2.08a.09.09,0,0,0,.15,0C237,11.9,239.4,10.84,242.46,10.27Z"/><path class="cls-2" d="M191.55,21.27l.3-.05h0l-.3,0a4.53,4.53,0,0,1-2.94-1,0,0,0,0,0-.07,0,5.2,5.2,0,0,1-2.94,1.31l-.3.06h0l.3,0a4.57,4.57,0,0,1,2.94,1,0,0,0,0,0,.07,0A5.2,5.2,0,0,1,191.55,21.27Z"/><line class="cls-1" x1="183.48" y1="185.82" x2="258.58" y2="180.97"/><polygon class="cls-5" points="91.35 11.02 91.35 198.56 172.93 193.28 172.93 6.14 91.35 11.02"/><path class="cls-4" d="M165.26,14.61c0-.82,0-1.4.05-1.74a2.07,2.07,0,0,1,.37-1,2.14,2.14,0,0,1,.82-.69,2.88,2.88,0,0,1,1.21-.3,3,3,0,0,1,1.18.14,1.77,1.77,0,0,1,.84.59,1.83,1.83,0,0,1,.38.91,17.19,17.19,0,0,1,.06,1.76v1.39a17.13,17.13,0,0,1-.06,1.74,2.09,2.09,0,0,1-1.19,1.66,3.17,3.17,0,0,1-1.21.3,2.92,2.92,0,0,1-1.17-.15,1.81,1.81,0,0,1-1.22-1.5,17,17,0,0,1-.06-1.75Zm2.12,2.55a2.68,2.68,0,0,0,.06.73.24.24,0,0,0,.26.14.36.36,0,0,0,.26-.14,1.87,1.87,0,0,0,.09-.77v-3.8a3.45,3.45,0,0,0-.06-.87.24.24,0,0,0-.27-.15.26.26,0,0,0-.28.2,4.17,4.17,0,0,0-.06.92Z"/><path class="cls-4" d="M158.6,19.78V14.34a9.74,9.74,0,0,1,.06-1.31,1.9,1.9,0,0,1,.36-.79,2,2,0,0,1,.78-.64,3.38,3.38,0,0,1,2.44-.11,1.73,1.73,0,0,1,.84.58,1.53,1.53,0,0,1,.33.79c0,.29.05.89.05,1.81v4.82l-2.12.13V13.51a2.3,2.3,0,0,0-.06-.68.21.21,0,0,0-.24-.13.25.25,0,0,0-.26.18,3.13,3.13,0,0,0-.05.77v6Z"/><path class="cls-4" d="M156.74,19.9l-1.5.09a11,11,0,0,1-2,0,1.28,1.28,0,0,1-.87-.54A2.58,2.58,0,0,1,152,18a2.57,2.57,0,0,1,.23-1.3,1.36,1.36,0,0,1,.94-.44,1.57,1.57,0,0,1-.85-.37,1.28,1.28,0,0,1-.27-.47,8.35,8.35,0,0,1-.05-1.2V12l2-.12v2.71a1.79,1.79,0,0,0,.11.81c.06.1.25.14.54.12V11.87l2.12-.12Zm-2.12-1.27V16.82a.91.91,0,0,0-.5.13c-.1.07-.15.28-.15.64V18a.65.65,0,0,0,.14.5A.82.82,0,0,0,154.62,18.63Z"/><path class="cls-4" d="M166.69,31.37l-2.73.17a6.91,6.91,0,0,1-1.35,0,1.79,1.79,0,0,1-.79-.37,1.57,1.57,0,0,1-.53-.74,2.78,2.78,0,0,1-.16-1,3.92,3.92,0,0,1,.16-1.22,1.82,1.82,0,0,1,.53-.8,2.42,2.42,0,0,1,.76-.46,4.9,4.9,0,0,1,1.25-.19l2.86-.18a5.36,5.36,0,0,1,1.68.1,1.52,1.52,0,0,1,.9.71,2.66,2.66,0,0,1,.34,1.38,3,3,0,0,1-.24,1.21,2.1,2.1,0,0,1-.57.83,2.22,2.22,0,0,1-.76.4A7.4,7.4,0,0,1,166.69,31.37Zm.68-2.07a3.11,3.11,0,0,0,.82-.12c.11,0,.16-.15.16-.3a.28.28,0,0,0-.17-.29,2.63,2.63,0,0,0-.81,0l-4,.24a3.13,3.13,0,0,0-.86.12.3.3,0,0,0-.15.3.28.28,0,0,0,.17.29,2.44,2.44,0,0,0,.78,0Z"/><path class="cls-4" d="M163.45,33.33v2a6.86,6.86,0,0,0-.72.06.42.42,0,0,0-.25.14.45.45,0,0,0-.1.3.32.32,0,0,0,.1.25.33.33,0,0,0,.24.1l.62,0,1.3-.08a.85.85,0,0,1-.49-.42,1.47,1.47,0,0,1-.17-.74,1.73,1.73,0,0,1,.3-1,1.45,1.45,0,0,1,.73-.59,4.41,4.41,0,0,1,1.15-.19l.65,0a8.71,8.71,0,0,1,1.27,0,1.45,1.45,0,0,1,.78.3,1.62,1.62,0,0,1,.55.74,3.11,3.11,0,0,1,.2,1.15,3.52,3.52,0,0,1-.23,1.35,2,2,0,0,1-.65.85,2.1,2.1,0,0,1-.9.39c-.31.05-.92.1-1.81.15l-1.14.07c-1,.06-1.62.09-1.95.08a1.76,1.76,0,0,1-.93-.29,1.8,1.8,0,0,1-.66-.8,3,3,0,0,1-.22-1.21,3.12,3.12,0,0,1,.28-1.42,1.78,1.78,0,0,1,.78-.84A3.08,3.08,0,0,1,163.45,33.33ZM166,35.21c-.34,0-.56.07-.64.17a.43.43,0,0,0-.12.28.31.31,0,0,0,.16.3,1.17,1.17,0,0,0,.6.06l1.48-.09a1.69,1.69,0,0,0,.7-.13.34.34,0,0,0,.17-.32.38.38,0,0,0-.13-.27c-.08-.09-.31-.12-.69-.1Z"/><path class="cls-4" d="M163,41.33l-1.67.1V39.89l1.67-.1Z"/><path class="cls-4" d="M165.91,46.54a1.29,1.29,0,0,1-.51.72,3.76,3.76,0,0,1-1.67.33,3.91,3.91,0,0,1-1.51-.13,1.43,1.43,0,0,1-.82-.71,2.89,2.89,0,0,1-.28-1.38,3.09,3.09,0,0,1,.33-1.54,1.72,1.72,0,0,1,.79-.77,5.44,5.44,0,0,1,1.64-.27l.65,0v2l-1.33.08a2,2,0,0,0-.67.11.27.27,0,0,0-.15.28.3.3,0,0,0,.18.31,3.69,3.69,0,0,0,.95,0l.57,0a1.67,1.67,0,0,0,.68-.15.58.58,0,0,0,.29-.33,3.74,3.74,0,0,0,.08-.8l1.18-.08a3.83,3.83,0,0,0,.06.9.37.37,0,0,0,.24.23,1.89,1.89,0,0,0,.59,0l.45,0a1.29,1.29,0,0,0,.56-.12.31.31,0,0,0,.14-.28.28.28,0,0,0-.14-.28,1.57,1.57,0,0,0-.62,0l-.67,0v-2l.7,0a1.8,1.8,0,0,1,1.58.44,2.63,2.63,0,0,1,.41,1.67,2.77,2.77,0,0,1-.57,2,2.42,2.42,0,0,1-1.58.61,1.8,1.8,0,0,1-1-.13A1.5,1.5,0,0,1,165.91,46.54Z"/><path class="cls-4" d="M166.69,54l-2.73.17a6.91,6.91,0,0,1-1.35,0,1.69,1.69,0,0,1-.79-.37,1.59,1.59,0,0,1-.53-.73,2.87,2.87,0,0,1-.16-1,3.92,3.92,0,0,1,.16-1.22,1.82,1.82,0,0,1,.53-.8,2.21,2.21,0,0,1,.76-.45,4.41,4.41,0,0,1,1.25-.2l2.86-.18a5.76,5.76,0,0,1,1.68.09,1.58,1.58,0,0,1,.9.72,2.66,2.66,0,0,1,.34,1.38,3,3,0,0,1-.24,1.21A2,2,0,0,1,168,53.79,7.21,7.21,0,0,1,166.69,54Zm.68-2.08a2.85,2.85,0,0,0,.82-.11.29.29,0,0,0,.16-.3.28.28,0,0,0-.17-.29,2.86,2.86,0,0,0-.81,0l-4,.25a3.13,3.13,0,0,0-.86.12.3.3,0,0,0-.15.3.28.28,0,0,0,.17.29,2.44,2.44,0,0,0,.78,0Z"/><path class="cls-4" d="M163,57.31l-1.67.1V55.88l1.67-.1Z"/><path class="cls-4" d="M162.67,63.29l-1.39.09V58.9l1.17-.07c2.17,1.2,3.52,1.9,4,2.12a2.87,2.87,0,0,0,1.21.3.93.93,0,0,0,.5-.14.42.42,0,0,0,.16-.36.35.35,0,0,0-.18-.33,1.48,1.48,0,0,0-.72-.07l-.78,0V58.57h.3a6.37,6.37,0,0,1,1.08,0,1.8,1.8,0,0,1,.78.3,1.6,1.6,0,0,1,.58.68,2.55,2.55,0,0,1,.2,1.05,2.62,2.62,0,0,1-.61,1.87,2.17,2.17,0,0,1-1.52.72,3.56,3.56,0,0,1-1.49-.26,28.47,28.47,0,0,1-3.32-1.86Z"/><path class="cls-4" d="M166.69,69.66l-2.73.17a6.19,6.19,0,0,1-1.35,0,1.69,1.69,0,0,1-.79-.37,1.54,1.54,0,0,1-.53-.73,2.78,2.78,0,0,1-.16-1,3.88,3.88,0,0,1,.16-1.22,1.91,1.91,0,0,1,.53-.81,2.58,2.58,0,0,1,.76-.45,4.8,4.8,0,0,1,1.25-.2l2.86-.17a5.13,5.13,0,0,1,1.68.09,1.52,1.52,0,0,1,.9.71,2.66,2.66,0,0,1,.34,1.38,3,3,0,0,1-.24,1.21,2.1,2.1,0,0,1-.57.83,2.22,2.22,0,0,1-.76.4A6.6,6.6,0,0,1,166.69,69.66Zm.68-2.07a3.88,3.88,0,0,0,.82-.11.31.31,0,0,0,.16-.31.28.28,0,0,0-.17-.29,2.63,2.63,0,0,0-.81,0l-4,.24a3.13,3.13,0,0,0-.86.12.33.33,0,0,0-.15.31.26.26,0,0,0,.17.28,2.65,2.65,0,0,0,.78,0Z"/><path class="cls-4" d="M162.67,76.06l-1.39.08V71.67l1.17-.07c2.17,1.19,3.52,1.89,4,2.11a2.87,2.87,0,0,0,1.21.3.93.93,0,0,0,.5-.14.42.42,0,0,0,.16-.36.35.35,0,0,0-.18-.33,1.48,1.48,0,0,0-.72-.07l-.78,0V71.33h.3a6.37,6.37,0,0,1,1.08,0,1.8,1.8,0,0,1,.78.3,1.6,1.6,0,0,1,.58.68,2.55,2.55,0,0,1,.2,1,2.62,2.62,0,0,1-.61,1.87,2.17,2.17,0,0,1-1.52.72,3.56,3.56,0,0,1-1.49-.26,29.43,29.43,0,0,1-3.32-1.85Z"/><path class="cls-4" d="M169.45,80.59l-8.17.51v-2l4.38-.28a6.76,6.76,0,0,0,1.14-.11.46.46,0,0,0,.29-.27,2.49,2.49,0,0,0,.1-.91v-.2l.95-.06a3.46,3.46,0,0,0,1.31,2.16Z"/><path d="M139.16,21l-3.55.21V19.54l1.42-.09V17.91L135.7,18V16.44l1.33-.08v-1.8l-1.56.1V13l3.69-.22Z"/><path d="M133.82,21.28l-2.14.13a5.29,5.29,0,0,1-1.34-.06,1.4,1.4,0,0,1-.7-.35,1.34,1.34,0,0,1-.32-.6,6,6,0,0,1-.08-1.13v-.71a3,3,0,0,1,.16-1.15,1.21,1.21,0,0,1,.6-.58,2.81,2.81,0,0,1,1.13-.26l.57,0V13.25l2.12-.13ZM131.7,20V17.94h-.16a.53.53,0,0,0-.41.17,1.14,1.14,0,0,0-.11.6v.67c0,.28,0,.46.13.54A.78.78,0,0,0,131.7,20Z"/><path d="M125.46,21.78V13.62l2.13-.12v8.15Z"/><path d="M121.44,22V15.5l-1.29.08V13.94l3.42-.2V21.9Z"/><path d="M113.89,17.7A17.13,17.13,0,0,1,114,16a2.08,2.08,0,0,1,.36-1,2.11,2.11,0,0,1,.83-.7,3.22,3.22,0,0,1,1.21-.3,3,3,0,0,1,1.18.14,1.86,1.86,0,0,1,.85.6,1.89,1.89,0,0,1,.38.91,17.09,17.09,0,0,1,.06,1.75v1.4a17.13,17.13,0,0,1-.06,1.74,2,2,0,0,1-.37,1,2.08,2.08,0,0,1-.82.7,3.27,3.27,0,0,1-1.22.3,3,3,0,0,1-1.18-.14,1.77,1.77,0,0,1-.84-.59,1.87,1.87,0,0,1-.38-.91,17.33,17.33,0,0,1-.06-1.76ZM116,20.25a2.68,2.68,0,0,0,.06.73.23.23,0,0,0,.26.14.33.33,0,0,0,.26-.14,1.87,1.87,0,0,0,.09-.77V16.4a3.57,3.57,0,0,0-.06-.87.24.24,0,0,0-.27-.15.28.28,0,0,0-.28.21,4.06,4.06,0,0,0-.06.91Z"/><path d="M107.17,19.88l2.13-.13v.74a3.73,3.73,0,0,0,.06.88.25.25,0,0,0,.29.15.28.28,0,0,0,.27-.16,2.84,2.84,0,0,0,.07-.78V16.66a2.51,2.51,0,0,0-.07-.72.28.28,0,0,0-.29-.16.34.34,0,0,0-.31.22,2.16,2.16,0,0,0-.09.77v1l.43,0V19l-2.49.15V14.72l1.34-.08.2.58a1.44,1.44,0,0,1,.54-.6,1.71,1.71,0,0,1,.79-.24,1.9,1.9,0,0,1,1,.2,1.69,1.69,0,0,1,.71.6,1.8,1.8,0,0,1,.31.78,9.7,9.7,0,0,1,.06,1.26v2.43a7.66,7.66,0,0,1-.13,1.7,1.87,1.87,0,0,1-.72,1,2.69,2.69,0,0,1-1.55.53,2.79,2.79,0,0,1-1.56-.29,1.65,1.65,0,0,1-.8-.86,4.53,4.53,0,0,1-.19-1.52Z"/><path d="M100.46,23.29V17.83a9.47,9.47,0,0,1,.06-1.3,1.88,1.88,0,0,1,.36-.8,2.07,2.07,0,0,1,.79-.64,3.09,3.09,0,0,1,1.15-.28,3.16,3.16,0,0,1,1.3.17,1.83,1.83,0,0,1,.84.58,1.71,1.71,0,0,1,.33.8c0,.28,0,.88,0,1.8V23l-2.13.13V17a2.34,2.34,0,0,0-.06-.68.22.22,0,0,0-.24-.13.27.27,0,0,0-.26.18,3,3,0,0,0-.06.77v6Z"/><path d="M98.6,23.4l-3.55.21V22l1.42-.09V20.35l-1.33.08V18.87l1.33-.08V17l-1.57.09V15.46l3.7-.22Z"/><path d="M152.05,34.06l-8.18.5V32.7l5.53-.33L143.87,32V30.65l5.4-1.11-5.4.33V28l8.18-.49v2.74l-1.74.36-2.08.43,3.82.25Z"/><path d="M152.05,35.94v3.54l-1.63.1V38.16l-1.55.09v1.33l-1.56.09V38.35l-1.8.11V40l-1.64.1V36.44Z"/><path d="M152.05,47.8l-8.18.5V46.44l5.53-.34-5.53-.4V44.39l5.4-1.11-5.4.33V41.75l8.18-.49V44l-1.74.36-2.08.42,3.82.26Z"/><path d="M147.26,54.82a16.4,16.4,0,0,1-1.74,0,1.79,1.79,0,0,1-1.59-1.08,3,3,0,0,1-.23-1.2,3,3,0,0,1,.22-1.19,2.09,2.09,0,0,1,1.58-1.31,16.86,16.86,0,0,1,1.76-.17l1.4-.08a17.4,17.4,0,0,1,1.75,0,1.9,1.9,0,0,1,.93.3,1.84,1.84,0,0,1,.66.79,2.87,2.87,0,0,1,.22,1.19,3.23,3.23,0,0,1-.21,1.19,2.12,2.12,0,0,1-.64.88,2.06,2.06,0,0,1-.94.43,17.14,17.14,0,0,1-1.77.17ZM150,52.53a2.43,2.43,0,0,0,.73-.11.25.25,0,0,0,.16-.26.26.26,0,0,0-.13-.25,1.78,1.78,0,0,0-.76,0l-3.82.23a4.51,4.51,0,0,0-.88.11.27.27,0,0,0-.16.28.25.25,0,0,0,.19.27,4.23,4.23,0,0,0,.91,0Z"/><path d="M152.05,56.34v1.5a12.63,12.63,0,0,1-.11,2,1.57,1.57,0,0,1-.6.91,2.81,2.81,0,0,1-1.52.42,2.35,2.35,0,0,1-1.28-.15,1.2,1.2,0,0,1-.4-.91,1.64,1.64,0,0,1-.42.87,1.29,1.29,0,0,1-.48.3,8,8,0,0,1-1.21.13l-2.16.13v-2l2.72-.17a1.83,1.83,0,0,0,.82-.15c.1-.08.15-.26.15-.55l-3.69.22V56.84Zm-1.4,2.21-1.82.11a1,1,0,0,0,.1.5c.07.09.28.12.64.1l.45,0a.68.68,0,0,0,.51-.17A.81.81,0,0,0,150.65,58.55Z"/><path d="M152.05,65.05l-8.18.5V63.43l8.18-.5Z"/><path d="M152.05,66.93v3.53l-1.63.11V69.15l-1.55.1v1.32l-1.56.1V69.34l-1.8.11V71l-1.64.1V67.43Z"/><path d="M149.58,76.89v-2l.6,0a1,1,0,0,0,.54-.11.28.28,0,0,0,.12-.25.29.29,0,0,0-.16-.28.79.79,0,0,0-.47-.07,1.25,1.25,0,0,0-.62.15,1.63,1.63,0,0,0-.5.63,6.53,6.53,0,0,1-1.38,1.86,3.29,3.29,0,0,1-1.74.48,3,3,0,0,1-1.29-.13,1.41,1.41,0,0,1-.7-.74A3.42,3.42,0,0,1,144,73.6a1.69,1.69,0,0,1,.82-.83,4.27,4.27,0,0,1,1.42-.28l.53,0v2l-1,.06a1.38,1.38,0,0,0-.59.12.33.33,0,0,0-.13.3.31.31,0,0,0,.16.3.91.91,0,0,0,.5.08,1.57,1.57,0,0,0,.94-.26,6.86,6.86,0,0,0,.75-1,10.46,10.46,0,0,1,.76-1.1,1.85,1.85,0,0,1,.66-.46,3,3,0,0,1,1.07-.24,2.76,2.76,0,0,1,1.37.16,1.48,1.48,0,0,1,.68.73,3,3,0,0,1,.24,1.27,3.57,3.57,0,0,1-.26,1.42,1.68,1.68,0,0,1-.68.82,3.75,3.75,0,0,1-1.38.27Z"/><path d="M137.48,30.74l-1.46.09a3.19,3.19,0,0,1-.72,0,.94.94,0,0,1-.43-.2.85.85,0,0,1-.28-.39,1.47,1.47,0,0,1-.09-.53,2.1,2.1,0,0,1,.09-.66,1,1,0,0,1,.29-.43,1.19,1.19,0,0,1,.4-.24,2.71,2.71,0,0,1,.68-.11l1.52-.09a3,3,0,0,1,.91,0,.85.85,0,0,1,.48.38,1.42,1.42,0,0,1,.18.74,1.67,1.67,0,0,1-.12.65,1.27,1.27,0,0,1-.31.44,1.09,1.09,0,0,1-.41.22A4,4,0,0,1,137.48,30.74Zm.37-1.11a1.37,1.37,0,0,0,.44-.06.16.16,0,0,0,.09-.16.15.15,0,0,0-.1-.16,1.29,1.29,0,0,0-.43,0l-2.14.13a1.48,1.48,0,0,0-.46.06.17.17,0,0,0-.07.16c0,.09,0,.14.09.16a1.55,1.55,0,0,0,.41,0Z"/><path d="M135.75,31.79v1.09l-.39,0a.2.2,0,0,0-.13.08.21.21,0,0,0,0,.16.15.15,0,0,0,0,.13.19.19,0,0,0,.13,0h.33l.7,0a.51.51,0,0,1-.27-.23.79.79,0,0,1-.09-.4.93.93,0,0,1,.17-.53.71.71,0,0,1,.39-.32,2.65,2.65,0,0,1,.61-.1l.35,0a3.74,3.74,0,0,1,.68,0,.75.75,0,0,1,.42.16.83.83,0,0,1,.3.4,1.63,1.63,0,0,1,.1.61,1.92,1.92,0,0,1-.12.73,1.06,1.06,0,0,1-.35.45,1.14,1.14,0,0,1-.48.21c-.17,0-.49,0-1,.08l-.6,0c-.53,0-.87,0-1.05,0a.85.85,0,0,1-.5-.16.91.91,0,0,1-.35-.42,1.64,1.64,0,0,1-.12-.65,1.69,1.69,0,0,1,.15-.76,1,1,0,0,1,.42-.45A1.66,1.66,0,0,1,135.75,31.79Zm1.37,1c-.19,0-.3,0-.34.09a.21.21,0,0,0-.07.15.17.17,0,0,0,.08.16.72.72,0,0,0,.33,0l.79,0a1,1,0,0,0,.38-.08.18.18,0,0,0,.09-.17.23.23,0,0,0-.07-.14c-.05,0-.17-.06-.37,0Z"/><path d="M135.48,36.08l-.89.05v-.82l.89-.06Z"/><path d="M137.07,38.87a.76.76,0,0,1-.28.39,1.91,1.91,0,0,1-.89.17,2.14,2.14,0,0,1-.81-.06.8.8,0,0,1-.44-.39,1.57,1.57,0,0,1-.15-.74,1.73,1.73,0,0,1,.17-.82.94.94,0,0,1,.43-.41,2.81,2.81,0,0,1,.88-.15l.35,0v1.09l-.72,0a1,1,0,0,0-.36.06c-.05,0-.07.07-.07.15s0,.14.09.16a1.48,1.48,0,0,0,.51,0l.31,0a.77.77,0,0,0,.36-.08.33.33,0,0,0,.16-.17,2.69,2.69,0,0,0,0-.43l.63,0a2.16,2.16,0,0,0,0,.48.2.2,0,0,0,.13.12,1,1,0,0,0,.32,0H138a.56.56,0,0,0,.3-.07.16.16,0,0,0,.08-.15.15.15,0,0,0-.08-.15.92.92,0,0,0-.33,0l-.36,0V36.76l.37,0a1,1,0,0,1,.85.23,1.42,1.42,0,0,1,.22.9,1.47,1.47,0,0,1-.3,1.07,1.29,1.29,0,0,1-.85.33,1,1,0,0,1-.53-.06A.79.79,0,0,1,137.07,38.87Z"/><path d="M137.48,42.85l-1.46.09a3.19,3.19,0,0,1-.72,0,.94.94,0,0,1-.71-.59,1.44,1.44,0,0,1-.09-.53,2.1,2.1,0,0,1,.09-.66,1,1,0,0,1,.29-.43,1.19,1.19,0,0,1,.4-.24,2.71,2.71,0,0,1,.68-.11l1.52-.09a3,3,0,0,1,.91,0,.85.85,0,0,1,.48.38,1.42,1.42,0,0,1,.18.74,1.67,1.67,0,0,1-.12.65,1.18,1.18,0,0,1-.31.44,1.09,1.09,0,0,1-.41.22A4,4,0,0,1,137.48,42.85Zm.37-1.11a1.37,1.37,0,0,0,.44-.06.16.16,0,0,0,.09-.16.15.15,0,0,0-.1-.16,1.67,1.67,0,0,0-.43,0l-2.14.13a2.65,2.65,0,0,0-.46.06.18.18,0,0,0-.07.17.14.14,0,0,0,.09.15,1.2,1.2,0,0,0,.41,0Z"/><path d="M132.32,30.16l-4.39.27V29.34l2.35-.14a4,4,0,0,0,.61-.06.24.24,0,0,0,.16-.15,1.31,1.31,0,0,0,0-.49v-.11l.51,0a1.84,1.84,0,0,0,.71,1.16Z"/><path d="M130.83,33.8l-1.46.09a3.3,3.3,0,0,1-.73,0,.91.91,0,0,1-.42-.2.83.83,0,0,1-.28-.39,1.51,1.51,0,0,1-.09-.53,2.1,2.1,0,0,1,.09-.66.92.92,0,0,1,.28-.43,1.33,1.33,0,0,1,.41-.24,2.61,2.61,0,0,1,.67-.11l1.53-.09a3,3,0,0,1,.91.05.81.81,0,0,1,.48.38,1.42,1.42,0,0,1,.18.74,1.51,1.51,0,0,1-.13.65,1.14,1.14,0,0,1-.3.44,1.25,1.25,0,0,1-.41.22A4.18,4.18,0,0,1,130.83,33.8Zm.37-1.11a2.64,2.64,0,0,0,.44-.06.16.16,0,0,0,.09-.16.15.15,0,0,0-.1-.16,1.29,1.29,0,0,0-.43,0l-2.14.13a1.42,1.42,0,0,0-.46.06.17.17,0,0,0-.08.16.15.15,0,0,0,.1.16,1.52,1.52,0,0,0,.41,0Z"/><path d="M128.83,35.59l-.9.06v-.83l.9,0Z"/><path d="M130.83,38.89l-1.46.09a4.08,4.08,0,0,1-.73,0,1,1,0,0,1-.42-.2.89.89,0,0,1-.28-.39,1.53,1.53,0,0,1-.09-.54,2,2,0,0,1,.09-.65.92.92,0,0,1,.28-.43,1.33,1.33,0,0,1,.41-.24,2.23,2.23,0,0,1,.67-.11l1.53-.09a2.7,2.7,0,0,1,.91,0,.78.78,0,0,1,.48.38,1.4,1.4,0,0,1,.18.74,1.54,1.54,0,0,1-.13.65,1.14,1.14,0,0,1-.3.44,1.07,1.07,0,0,1-.41.21A3.25,3.25,0,0,1,130.83,38.89Zm.37-1.11a2.64,2.64,0,0,0,.44-.06.18.18,0,0,0,.09-.17.15.15,0,0,0-.1-.15,1.19,1.19,0,0,0-.43,0l-2.14.13a1.63,1.63,0,0,0-.46.07.17.17,0,0,0-.08.16.14.14,0,0,0,.1.15,1.09,1.09,0,0,0,.41,0Z"/><path d="M132.32,41.42l-4.39.27V40.6l2.35-.14a5.06,5.06,0,0,0,.61-.07.22.22,0,0,0,.16-.14,1.31,1.31,0,0,0,0-.49v-.11l.51,0a1.84,1.84,0,0,0,.71,1.16Z"/><path d="M125.66,30.57l-4.38.26V29.74l2.35-.14a4.23,4.23,0,0,0,.61-.06.26.26,0,0,0,.16-.15,1.52,1.52,0,0,0,0-.49v-.1l.51,0a1.81,1.81,0,0,0,.7,1.15Z"/><path d="M124.18,34.2l-1.46.09a3.26,3.26,0,0,1-.73,0,.89.89,0,0,1-.43-.2.85.85,0,0,1-.28-.39,1.47,1.47,0,0,1-.09-.53,2.1,2.1,0,0,1,.09-.66,1,1,0,0,1,.29-.43,1.29,1.29,0,0,1,.4-.24,2.71,2.71,0,0,1,.68-.11l1.53-.09a2.92,2.92,0,0,1,.9.05.83.83,0,0,1,.48.39,1.28,1.28,0,0,1,.19.73,1.67,1.67,0,0,1-.13.65,1.08,1.08,0,0,1-.31.44.91.91,0,0,1-.41.22A4,4,0,0,1,124.18,34.2Zm.37-1.11A1.34,1.34,0,0,0,125,33a.19.19,0,0,0,0-.32,1.7,1.7,0,0,0-.43,0l-2.14.13a1.73,1.73,0,0,0-.46.06.17.17,0,0,0-.08.17.14.14,0,0,0,.09.15,1.2,1.2,0,0,0,.41,0Z"/><path d="M122.17,36l-.89.06v-.82l.89-.06Z"/><path d="M124.18,39.29l-1.46.09a3.26,3.26,0,0,1-.73,0,1,1,0,0,1-.43-.2.85.85,0,0,1-.28-.39,1.47,1.47,0,0,1-.09-.53,2.1,2.1,0,0,1,.09-.66,1,1,0,0,1,.29-.43,1.29,1.29,0,0,1,.4-.24,2.71,2.71,0,0,1,.68-.11l1.53-.09a2.92,2.92,0,0,1,.9.05.81.81,0,0,1,.48.38,1.34,1.34,0,0,1,.19.74,1.67,1.67,0,0,1-.13.65,1.09,1.09,0,0,1-.72.66A4,4,0,0,1,124.18,39.29Zm.37-1.11a1.73,1.73,0,0,0,.43-.06.16.16,0,0,0,.09-.16c0-.09,0-.14-.09-.16a1.31,1.31,0,0,0-.43,0l-2.14.13A1.37,1.37,0,0,0,122,38a.15.15,0,0,0-.08.16c0,.09,0,.14.09.16a1.55,1.55,0,0,0,.41,0Z"/><path d="M122,42.72l-.74,0v-2.4l.62,0c1.17.64,1.89,1,2.17,1.13a1.51,1.51,0,0,0,.65.16.45.45,0,0,0,.26-.07.24.24,0,0,0,.09-.2.17.17,0,0,0-.1-.17.74.74,0,0,0-.38,0l-.42,0v-1h.16a2.75,2.75,0,0,1,.58,0,1,1,0,0,1,.42.16.81.81,0,0,1,.31.37,1.33,1.33,0,0,1,.11.56,1.4,1.4,0,0,1-.33,1,1.15,1.15,0,0,1-.82.39,1.92,1.92,0,0,1-.79-.14,15.09,15.09,0,0,1-1.79-1Z"/><path class="cls-4" d="M132.93,84.58c-8.8-4.52-14.07-11.49-11.78-15.58s11.26-3.74,20,.78S155.25,81.27,153,85.35,141.71,89.09,132.93,84.58Z"/><path class="cls-4" d="M147.42,158.89c-2.08-4.51-1.84-9.14.54-10.35s6,1.48,8,6,1.83,9.14-.54,10.34S149.49,163.39,147.42,158.89Z"/><path class="cls-4" d="M105.79,134.47c-1.07-2.32.3-5.32,3-6.72s5.85-.65,6.91,1.66-.3,5.32-3,6.72S106.85,136.78,105.79,134.47Z"/><path class="cls-4" d="M172.93,110.3s-35,87-52.57,53.38-8.39-74.91-29-79.53"/><path d="M170.19,21.63l.31-.06h0l-.31,0a4.53,4.53,0,0,1-2.94-1s-.05,0-.07,0a5.13,5.13,0,0,1-2.94,1.31l-.31.06h0l.31,0a4.59,4.59,0,0,1,2.94,1s0,0,.07,0A5.13,5.13,0,0,1,170.19,21.63Z"/><path d="M152.79,15.9l.66-.12,0,0h0l-.66-.05c-3.07-.2-5.46-1-6.42-2.09a.09.09,0,0,0-.15,0c-1,1.23-3.35,2.29-6.43,2.86l-.66.13h0l0,0,.66,0c3.08.2,5.46,1,6.43,2.09a.09.09,0,0,0,.15,0C147.33,17.54,149.72,16.47,152.79,15.9Z"/><path d="M171.25,23.31l.15,0h-.15a2.34,2.34,0,0,1-1.5-.49h0a2.59,2.59,0,0,1-1.5.67l-.16,0h.16a2.34,2.34,0,0,1,1.5.49s0,0,0,0A2.66,2.66,0,0,1,171.25,23.31Z"/><path d="M101.63,26.94l.31-.06h0l-.31,0a4.56,4.56,0,0,1-2.95-1,0,0,0,0,0-.07,0,5.14,5.14,0,0,1-3,1.32l-.31.06h0l.31,0a4.58,4.58,0,0,1,3,1,0,0,0,0,0,.07,0A5.1,5.1,0,0,1,101.63,26.94Z"/><path d="M102.69,28.62l.16,0h-.16a2.34,2.34,0,0,1-1.5-.49,0,0,0,0,0,0,0,2.56,2.56,0,0,1-1.5.67l-.15,0h.15a2.33,2.33,0,0,1,1.5.48s0,0,0,0A2.72,2.72,0,0,1,102.69,28.62Z"/><path d="M94.4,174.69l1.32-.09a8.32,8.32,0,0,1,1.73,0,1.25,1.25,0,0,1,.69.34,1.18,1.18,0,0,1,.29.58,8.55,8.55,0,0,1,.06,1.28v2.36a5.39,5.39,0,0,1-.09,1.23.89.89,0,0,1-.3.49,1.24,1.24,0,0,1-.52.28,5.14,5.14,0,0,1-1,.13l-2.23.14Zm1.77,1v4.44c.25,0,.41-.07.47-.18a2.27,2.27,0,0,0,.08-.83v-2.63a3.75,3.75,0,0,0,0-.58.24.24,0,0,0-.14-.18A.8.8,0,0,0,96.17,175.73Z"/><path d="M100,174.33l2.94-.19v1.35l-1.18.08v1.28l1.1-.07v1.28l-1.1.07v1.49l1.29-.08v1.35l-3,.19Z"/><path d="M108.16,175.85l-1.63.11v-.51a.82.82,0,0,0-.07-.44.2.2,0,0,0-.2-.08.31.31,0,0,0-.25.14.86.86,0,0,0-.08.4,1.11,1.11,0,0,0,.09.51,1.33,1.33,0,0,0,.5.38,4.68,4.68,0,0,1,1.49,1,2.56,2.56,0,0,1,.3,1.42,2.53,2.53,0,0,1-.17,1.08,1.44,1.44,0,0,1-.65.61,2.7,2.7,0,0,1-1.13.31,2.51,2.51,0,0,1-1.21-.19,1.18,1.18,0,0,1-.66-.64,3.5,3.5,0,0,1-.15-1.16v-.44l1.63-.11v.82a1.15,1.15,0,0,0,.07.49.25.25,0,0,0,.25.09.31.31,0,0,0,.26-.16.76.76,0,0,0,.09-.41,1.2,1.2,0,0,0-.17-.77,4.91,4.91,0,0,0-.82-.56,7.21,7.21,0,0,1-.87-.57,1.46,1.46,0,0,1-.36-.52,2.42,2.42,0,0,1-.14-.88,2.58,2.58,0,0,1,.2-1.15,1.56,1.56,0,0,1,.64-.6,2.86,2.86,0,0,1,1.08-.27,2.69,2.69,0,0,1,1.17.15,1.1,1.1,0,0,1,.64.51,3,3,0,0,1,.15,1.13Z"/><path d="M111.48,173.59v6.76l-1.76.11v-6.75Z"/><path d="M117.09,175.72l-1.76.11v-.61a2.6,2.6,0,0,0,0-.72c0-.1-.11-.14-.24-.13a.22.22,0,0,0-.22.14,2,2,0,0,0-.06.64v3.24a1.92,1.92,0,0,0,.06.6.23.23,0,0,0,.24.13.3.3,0,0,0,.26-.18,2.19,2.19,0,0,0,.07-.64v-.8l-.36,0v-1l2.06-.13V180l-1.1.07-.17-.48a1.3,1.3,0,0,1-.45.5,1.35,1.35,0,0,1-.65.2,1.69,1.69,0,0,1-.83-.16,1.46,1.46,0,0,1-.59-.5,1.53,1.53,0,0,1-.25-.64,8.65,8.65,0,0,1,0-1v-2a6.76,6.76,0,0,1,.1-1.41,1.57,1.57,0,0,1,.61-.85,2.21,2.21,0,0,1,1.28-.44,2.24,2.24,0,0,1,1.28.23,1.38,1.38,0,0,1,.67.71,4,4,0,0,1,.15,1.26Z"/><path d="M122.57,172.88v6.75l-1.55.1-.91-3v3.07l-1.48.1v-6.76l1.48-.09,1,3v-3Z"/><path d="M94.4,184.94l2.94-.19v1.36l-1.17.07v1.28l1.1-.07v1.29l-1.1.07v1.48l1.29-.08v1.35l-3.06.2Z"/><path d="M102.4,184.43l-.62,3,.94,3.7-1.64.11a22,22,0,0,1-.53-2.43c0,.43-.11.89-.19,1.37l-.16,1.11-1.72.12.64-3.81-.64-2.95,1.7-.11c0,.19.1.49.19.92s.13.63.18.9l.37-1.87Z"/><path d="M107.88,184.08v6.75l-1.76.11v-2.83l-.53,0V191l-1.76.11v-6.75l1.76-.12v2.42l.53,0v-2.41Z"/><path d="M111.21,183.86v6.75l-1.76.12V184Z"/><path d="M112.77,183.76l1.76-.11a4.29,4.29,0,0,1,1.26,0,1.12,1.12,0,0,1,.7.47,2.32,2.32,0,0,1,.26,1.26,1.44,1.44,0,0,1-.18.83,1.41,1.41,0,0,1-.74.41,1.21,1.21,0,0,1,.83.4,1.76,1.76,0,0,1,.22,1v.62a2.66,2.66,0,0,1-.16,1,.94.94,0,0,1-.5.48,4.92,4.92,0,0,1-1.41.21l-2,.13Zm1.77,1v1.5h.17q.27,0,.33-.15a2.06,2.06,0,0,0,.07-.73,1.41,1.41,0,0,0,0-.44c0-.09-.09-.14-.16-.15A1.12,1.12,0,0,0,114.54,184.8Zm0,2.55v1.89a.81.81,0,0,0,.47-.14.86.86,0,0,0,.1-.52V188c0-.29,0-.46-.09-.52S114.8,187.35,114.54,187.35Z"/><path d="M120.13,183.29V190l-1.76.11V183.4Z"/><path d="M125.24,183v1.35l-1,.07v5.4l-1.77.11v-5.4l-1,.07v-1.35Z"/><path d="M128.26,182.76v6.75l-1.76.12v-6.75Z"/><path d="M133.85,186.36c0,.67,0,1.15,0,1.44a1.67,1.67,0,0,1-.3.79,1.75,1.75,0,0,1-.68.58,2.64,2.64,0,0,1-1,.26,2.51,2.51,0,0,1-1-.12,1.52,1.52,0,0,1-.7-.48,1.45,1.45,0,0,1-.31-.76,12.29,12.29,0,0,1-.05-1.45v-1.16c0-.67,0-1.16,0-1.44a1.8,1.8,0,0,1,.31-.79,1.62,1.62,0,0,1,.68-.58,2.59,2.59,0,0,1,1-.26,2.54,2.54,0,0,1,1,.12,1.52,1.52,0,0,1,.7.48,1.54,1.54,0,0,1,.31.76c0,.27,0,.76,0,1.45Zm-1.76-2.11a2.34,2.34,0,0,0-.05-.6.2.2,0,0,0-.22-.11.25.25,0,0,0-.21.11,1.6,1.6,0,0,0-.07.64v3.15a2.6,2.6,0,0,0,.05.72c0,.09.1.13.22.12a.22.22,0,0,0,.23-.17,3.64,3.64,0,0,0,.05-.76Z"/><path d="M139.29,182.05v6.75l-1.54.1-.91-3V189l-1.48.1v-6.75l1.48-.1,1,3v-3Z"/><line class="cls-6" x1="94.31" y1="192.08" x2="168.21" y2="187.31"/><polygon class="cls-7" points="0.5 16.47 0.5 204.44 82.46 199.14 82.46 11.56 0.5 16.47"/><path class="cls-4" d="M74.75,20.05a17.13,17.13,0,0,1,.06-1.74,2,2,0,0,1,.37-1,2.08,2.08,0,0,1,.82-.7,3.27,3.27,0,0,1,1.22-.3,3,3,0,0,1,1.19.14,1.82,1.82,0,0,1,.84.59,1.87,1.87,0,0,1,.38.91,17.56,17.56,0,0,1,.06,1.77v1.39a17.36,17.36,0,0,1-.06,1.75,2.17,2.17,0,0,1-.36,1,2.19,2.19,0,0,1-.83.7,3.27,3.27,0,0,1-1.22.3A3.17,3.17,0,0,1,76,24.72a1.86,1.86,0,0,1-.85-.6,1.8,1.8,0,0,1-.38-.91,17.19,17.19,0,0,1-.06-1.76Zm2.14,2.56a2.54,2.54,0,0,0,.06.72.24.24,0,0,0,.26.15.34.34,0,0,0,.26-.15,1.81,1.81,0,0,0,.09-.76V18.75a3.57,3.57,0,0,0-.06-.87.24.24,0,0,0-.27-.15.28.28,0,0,0-.28.21,4.11,4.11,0,0,0-.06.92Z"/><path class="cls-4" d="M68.07,25.24V19.78a9.64,9.64,0,0,1,.06-1.31,1.85,1.85,0,0,1,.36-.79,2,2,0,0,1,.79-.65,2.86,2.86,0,0,1,1.15-.27,3.17,3.17,0,0,1,1.3.16,1.83,1.83,0,0,1,.84.58,1.8,1.8,0,0,1,.33.8c0,.29,0,.89,0,1.81v4.83l-2.14.13V19a2.86,2.86,0,0,0,0-.68.23.23,0,0,0-.24-.14.26.26,0,0,0-.26.18,3,3,0,0,0-.06.78v6Z"/><path class="cls-4" d="M66.2,25.35l-1.51.09a12.39,12.39,0,0,1-2,0,1.33,1.33,0,0,1-.87-.54,2.63,2.63,0,0,1-.34-1.5,2.45,2.45,0,0,1,.24-1.3,1.33,1.33,0,0,1,.94-.45,1.47,1.47,0,0,1-.85-.37,1,1,0,0,1-.27-.46,6.78,6.78,0,0,1-.06-1.21V17.47l2-.12v2.71a1.84,1.84,0,0,0,.1.81c.07.1.25.14.55.12V17.31l2.13-.13Zm-2.13-1.27V22.26a1.09,1.09,0,0,0-.51.13c-.1.08-.14.29-.14.65v.45c0,.26,0,.43.14.5A.7.7,0,0,0,64.07,24.08Z"/><path class="cls-4" d="M76.19,36.85,73.45,37a7,7,0,0,1-1.36,0,1.79,1.79,0,0,1-.79-.37,1.66,1.66,0,0,1-.54-.74,3,3,0,0,1-.16-1,3.92,3.92,0,0,1,.17-1.23,1.82,1.82,0,0,1,.53-.8,2.42,2.42,0,0,1,.76-.46,5.07,5.07,0,0,1,1.26-.19L76.19,32a5.43,5.43,0,0,1,1.69.1,1.47,1.47,0,0,1,.9.71,2.57,2.57,0,0,1,.34,1.38,3,3,0,0,1-.23,1.22,2.18,2.18,0,0,1-.58.82,2,2,0,0,1-.76.4A7.34,7.34,0,0,1,76.19,36.85Zm.69-2.08a3.37,3.37,0,0,0,.82-.11.3.3,0,0,0,.16-.31.28.28,0,0,0-.17-.29,2.63,2.63,0,0,0-.81,0l-4,.24a3.21,3.21,0,0,0-.86.12.31.31,0,0,0-.15.31A.26.26,0,0,0,72,35a2.58,2.58,0,0,0,.77,0Z"/><path class="cls-4" d="M72.94,38.81v2a6.86,6.86,0,0,0-.72.06.35.35,0,0,0-.25.14.41.41,0,0,0-.11.3.36.36,0,0,0,.1.25.37.37,0,0,0,.25.1l.61,0,1.31-.08a.88.88,0,0,1-.49-.42,1.47,1.47,0,0,1-.17-.74,1.72,1.72,0,0,1,.31-1,1.42,1.42,0,0,1,.73-.59,4.86,4.86,0,0,1,1.15-.18l.65,0a7.84,7.84,0,0,1,1.28,0,1.63,1.63,0,0,1,.78.3,1.75,1.75,0,0,1,.56.75,3.08,3.08,0,0,1,.19,1.15,3.53,3.53,0,0,1-.22,1.35,2.13,2.13,0,0,1-.66.86,2.2,2.2,0,0,1-.9.38c-.31,0-.92.1-1.82.16l-1.15.07c-1,.06-1.63.08-2,.08a1.8,1.8,0,0,1-.94-.3,1.69,1.69,0,0,1-.66-.8,3,3,0,0,1-.22-1.21A3.2,3.2,0,0,1,70.88,40a1.8,1.8,0,0,1,.78-.83A3.13,3.13,0,0,1,72.94,38.81Zm2.56,1.88c-.35,0-.56.08-.64.18a.41.41,0,0,0-.12.28.32.32,0,0,0,.15.3,1.23,1.23,0,0,0,.61.06L77,41.42a1.88,1.88,0,0,0,.7-.13.35.35,0,0,0,.17-.33.38.38,0,0,0-.13-.26c-.08-.09-.32-.12-.69-.1Z"/><path class="cls-4" d="M72.43,46.83l-1.67.1V45.39l1.67-.1Z"/><path class="cls-4" d="M75.41,52.06a1.38,1.38,0,0,1-.51.72,3.82,3.82,0,0,1-1.68.33A4,4,0,0,1,71.7,53a1.45,1.45,0,0,1-.82-.72,2.89,2.89,0,0,1-.28-1.38,3.21,3.21,0,0,1,.32-1.54,1.7,1.7,0,0,1,.81-.77,5.31,5.31,0,0,1,1.64-.28l.65,0v2l-1.33.08a2.07,2.07,0,0,0-.68.11.29.29,0,0,0-.15.29.3.3,0,0,0,.19.3,3.5,3.5,0,0,0,1,0l.57,0a1.77,1.77,0,0,0,.69-.15.56.56,0,0,0,.28-.33,2.75,2.75,0,0,0,.08-.8l1.19-.08a3.77,3.77,0,0,0,.06.9.37.37,0,0,0,.24.23,1.65,1.65,0,0,0,.59,0l.46,0a1.33,1.33,0,0,0,.56-.12.3.3,0,0,0,.14-.28.28.28,0,0,0-.14-.28,1.57,1.57,0,0,0-.62,0l-.67,0v-2l.7,0a1.86,1.86,0,0,1,1.59.44,2.72,2.72,0,0,1,.41,1.68,2.77,2.77,0,0,1-.57,2,2.45,2.45,0,0,1-1.59.62,2.07,2.07,0,0,1-1-.13A1.57,1.57,0,0,1,75.41,52.06Z"/><path class="cls-4" d="M76.19,59.5l-2.74.17a6.31,6.31,0,0,1-1.36,0,1.81,1.81,0,0,1-1.33-1.1,3.13,3.13,0,0,1-.16-1,3.86,3.86,0,0,1,.17-1.22,1.91,1.91,0,0,1,.53-.81,2.38,2.38,0,0,1,.76-.45,4.56,4.56,0,0,1,1.26-.2l2.87-.18a5.84,5.84,0,0,1,1.69.09,1.52,1.52,0,0,1,.9.72,2.57,2.57,0,0,1,.34,1.38,3,3,0,0,1-.23,1.22,2.18,2.18,0,0,1-.58.82,2,2,0,0,1-.76.41A8.59,8.59,0,0,1,76.19,59.5Zm.69-2.08a3.37,3.37,0,0,0,.82-.11.3.3,0,0,0,.16-.31.28.28,0,0,0-.17-.29,2.63,2.63,0,0,0-.81,0l-4,.24a2.7,2.7,0,0,0-.86.13.3.3,0,0,0-.15.3.27.27,0,0,0,.18.29,2.71,2.71,0,0,0,.77,0Z"/><path class="cls-4" d="M72.43,62.85l-1.67.1V61.42l1.67-.11Z"/><path class="cls-4" d="M72.16,68.85l-1.4.08V64.45l1.17-.07c2.18,1.19,3.54,1.9,4,2.12a2.91,2.91,0,0,0,1.22.3.93.93,0,0,0,.5-.15.41.41,0,0,0,.16-.35.36.36,0,0,0-.18-.34,1.51,1.51,0,0,0-.73-.07l-.78,0V64.12l.3,0a6.5,6.5,0,0,1,1.09,0,1.71,1.71,0,0,1,.78.3,1.66,1.66,0,0,1,.59.69,2.56,2.56,0,0,1,.19,1,2.72,2.72,0,0,1-.6,1.88,2.21,2.21,0,0,1-1.53.71,3.6,3.6,0,0,1-1.5-.26,28.28,28.28,0,0,1-3.33-1.86Z"/><path class="cls-4" d="M76.19,75.23l-2.74.17a6.31,6.31,0,0,1-1.36,0A1.69,1.69,0,0,1,71.3,75a1.63,1.63,0,0,1-.54-.73,3,3,0,0,1-.16-1,3.92,3.92,0,0,1,.17-1.23,1.91,1.91,0,0,1,.53-.81,2.58,2.58,0,0,1,.76-.45,5,5,0,0,1,1.26-.2l2.87-.18a5.84,5.84,0,0,1,1.69.09,1.52,1.52,0,0,1,.9.72,2.57,2.57,0,0,1,.34,1.38,2.94,2.94,0,0,1-.23,1.21,2.15,2.15,0,0,1-.58.83,1.86,1.86,0,0,1-.76.4A7.34,7.34,0,0,1,76.19,75.23Zm.69-2.08A3.37,3.37,0,0,0,77.7,73a.3.3,0,0,0,.16-.31.29.29,0,0,0-.17-.29,2.63,2.63,0,0,0-.81,0l-4,.25a3.21,3.21,0,0,0-.86.12.3.3,0,0,0-.15.3.27.27,0,0,0,.18.29,2.37,2.37,0,0,0,.77,0Z"/><path class="cls-4" d="M72.16,81.64l-1.4.09V77.24l1.17-.07c2.18,1.19,3.54,1.9,4,2.12a2.91,2.91,0,0,0,1.22.3.85.85,0,0,0,.5-.15.41.41,0,0,0,.16-.35.36.36,0,0,0-.18-.34,1.65,1.65,0,0,0-.73-.07l-.78,0V76.91l.3,0a6.5,6.5,0,0,1,1.09,0,1.71,1.71,0,0,1,.78.3,1.66,1.66,0,0,1,.59.69,2.53,2.53,0,0,1,.19,1.05,2.7,2.7,0,0,1-.6,1.88,2.16,2.16,0,0,1-1.53.71,3.45,3.45,0,0,1-1.5-.26,28.28,28.28,0,0,1-3.33-1.86Z"/><path class="cls-4" d="M79,86.19l-8.21.5v-2l4.4-.28a8.18,8.18,0,0,0,1.15-.11A.51.51,0,0,0,76.6,84a2.81,2.81,0,0,0,.1-.92v-.2l1-.06A3.45,3.45,0,0,0,79,85Z"/><path class="cls-2" d="M48.54,26.41,45,26.63V25l1.43-.08V23.36l-1.34.08V21.88l1.34-.08V20l-1.57.09V18.46l3.71-.22Z"/><path class="cls-2" d="M43.18,26.74,41,26.87a5.26,5.26,0,0,1-1.34-.06,1.44,1.44,0,0,1-.71-.35,1.34,1.34,0,0,1-.32-.6,6,6,0,0,1-.08-1.13V24a3,3,0,0,1,.16-1.15,1.19,1.19,0,0,1,.6-.59A2.9,2.9,0,0,1,40.46,22L41,22V18.69l2.14-.13ZM41,25.47V23.39h-.16a.53.53,0,0,0-.41.17,1.16,1.16,0,0,0-.11.61v.67c0,.28,0,.46.13.53A.83.83,0,0,0,41,25.47Z"/><path class="cls-2" d="M34.78,27.24V19.07l2.13-.13v8.17Z"/><path class="cls-2" d="M30.74,27.49V21l-1.3.08V19.39l3.44-.21v8.18Z"/><path class="cls-2" d="M23.15,23.16c0-.83,0-1.41.05-1.75a2.13,2.13,0,0,1,1.2-1.66,2.93,2.93,0,0,1,1.22-.3,3,3,0,0,1,1.19.14,1.77,1.77,0,0,1,.84.59,1.89,1.89,0,0,1,.39.91,17.56,17.56,0,0,1,.06,1.77v1.4A17.5,17.5,0,0,1,28,26a2.07,2.07,0,0,1-.37,1,2.21,2.21,0,0,1-.83.7,3.22,3.22,0,0,1-1.22.3,3,3,0,0,1-1.19-.15,1.77,1.77,0,0,1-.84-.59,1.83,1.83,0,0,1-.38-.91,17.43,17.43,0,0,1-.06-1.77Zm2.14,2.55a2.58,2.58,0,0,0,.06.73.23.23,0,0,0,.26.14.3.3,0,0,0,.26-.14,1.84,1.84,0,0,0,.09-.77V21.86A3.61,3.61,0,0,0,25.9,21a.24.24,0,0,0-.27-.15.28.28,0,0,0-.28.21,4.11,4.11,0,0,0-.06.92Z"/><path class="cls-2" d="M16.4,25.34l2.14-.13V26a3.73,3.73,0,0,0,.06.88.25.25,0,0,0,.29.16.29.29,0,0,0,.27-.17,2.73,2.73,0,0,0,.07-.78V22.11a2.62,2.62,0,0,0-.07-.72.27.27,0,0,0-.29-.15.34.34,0,0,0-.32.21,2.56,2.56,0,0,0-.08.77v1l.43,0v1.24l-2.5.15V20.17l1.34-.08.2.58a1.5,1.5,0,0,1,1.34-.84,2,2,0,0,1,1,.2,1.69,1.69,0,0,1,.71.6,1.94,1.94,0,0,1,.31.78,9.77,9.77,0,0,1,.06,1.27v2.43a7.83,7.83,0,0,1-.13,1.71,1.87,1.87,0,0,1-.73,1,2.7,2.7,0,0,1-1.56.54,2.82,2.82,0,0,1-1.56-.29,1.71,1.71,0,0,1-.81-.86,5,5,0,0,1-.18-1.53Z"/><path class="cls-2" d="M9.66,28.76V23.29A9.64,9.64,0,0,1,9.72,22a1.93,1.93,0,0,1,.36-.8,2,2,0,0,1,.79-.64A3.09,3.09,0,0,1,12,20.26a3.16,3.16,0,0,1,1.3.17,1.73,1.73,0,0,1,.84.58,1.67,1.67,0,0,1,.34.8c0,.28.05.89.05,1.81v4.84l-2.14.13V22.46a2.25,2.25,0,0,0-.06-.68.22.22,0,0,0-.24-.14.26.26,0,0,0-.26.18,3,3,0,0,0-.06.78v6Z"/><path class="cls-2" d="M7.79,28.87l-3.57.21V27.45l1.43-.09V25.81l-1.34.08V24.33l1.34-.08v-1.8l-1.58.1V20.91l3.72-.22Z"/><path class="cls-2" d="M61.49,39.55,53.27,40V38.19l5.55-.34-5.55-.4V36.13L58.69,35l-5.42.33V33.49l8.22-.5v2.75l-1.75.36-2.09.43,3.84.25Z"/><path class="cls-2" d="M61.49,41.43V45l-1.65.1V43.66l-1.55.09v1.33l-1.57.09V43.85l-1.8.11v1.56l-1.65.1V41.93Z"/><path class="cls-2" d="M61.49,53.32l-8.22.5V52l5.55-.34-5.55-.4V49.9l5.42-1.11-5.42.33V47.26l8.22-.5v2.75l-1.75.36-2.09.43,3.84.25Z"/><path class="cls-2" d="M56.68,60.35a17.58,17.58,0,0,1-1.76,0,2,2,0,0,1-.94-.3,1.82,1.82,0,0,1-.65-.79,3,3,0,0,1-.23-1.2,3.23,3.23,0,0,1,.21-1.19A2.14,2.14,0,0,1,54,56a2.19,2.19,0,0,1,.94-.44c.34-.06.93-.11,1.78-.16l1.4-.09a17.58,17.58,0,0,1,1.76-.05,1.88,1.88,0,0,1,.94.31,1.79,1.79,0,0,1,.65.78,3,3,0,0,1,.23,1.2,3,3,0,0,1-.22,1.19,2.12,2.12,0,0,1-.64.88,2.08,2.08,0,0,1-.94.44c-.34.06-.93.11-1.78.17Zm2.7-2.29a2.43,2.43,0,0,0,.73-.11.3.3,0,0,0,0-.51,1.64,1.64,0,0,0-.76,0l-3.84.23a4.26,4.26,0,0,0-.88.11.28.28,0,0,0-.17.28.24.24,0,0,0,.19.27,4.33,4.33,0,0,0,.92,0Z"/><path class="cls-2" d="M61.49,61.88v1.51a11.23,11.23,0,0,1-.12,2,1.57,1.57,0,0,1-.6.91,2.85,2.85,0,0,1-1.53.42A2.37,2.37,0,0,1,58,66.61a1.17,1.17,0,0,1-.4-.91,1.71,1.71,0,0,1-.42.87,1.27,1.27,0,0,1-.49.3,8,8,0,0,1-1.21.13l-2.17.13v-2L56,65a2.18,2.18,0,0,0,.82-.15.71.71,0,0,0,.16-.56l-3.71.23V62.39Zm-1.41,2.21-1.82.12a1,1,0,0,0,.09.49c.07.09.28.13.65.11l.45,0a.72.72,0,0,0,.51-.17A.84.84,0,0,0,60.08,64.09Z"/><path class="cls-2" d="M61.49,70.61l-8.22.5V69l8.22-.51Z"/><path class="cls-2" d="M61.49,72.49V76l-1.65.1V74.72l-1.55.1v1.32l-1.57.1V74.91l-1.8.11v1.56l-1.65.1V73Z"/><path class="cls-2" d="M59,82.48v-2l.61,0a1.38,1.38,0,0,0,.54-.11.31.31,0,0,0,.12-.26.29.29,0,0,0-.16-.28.81.81,0,0,0-.48-.07,1.18,1.18,0,0,0-.61.15,1.8,1.8,0,0,0-.51.63,6.41,6.41,0,0,1-1.39,1.87,3.3,3.3,0,0,1-1.75.48,3.08,3.08,0,0,1-1.29-.13,1.49,1.49,0,0,1-.7-.74,3,3,0,0,1-.28-1.35,3.26,3.26,0,0,1,.32-1.48,1.82,1.82,0,0,1,.83-.84,4.65,4.65,0,0,1,1.43-.27l.54,0v2l-1,.06a1.43,1.43,0,0,0-.6.12.33.33,0,0,0-.13.3.32.32,0,0,0,.17.31.86.86,0,0,0,.49.07,1.62,1.62,0,0,0,1-.25,7.14,7.14,0,0,0,.75-1,10.08,10.08,0,0,1,.77-1.1,1.81,1.81,0,0,1,.66-.47,2.83,2.83,0,0,1,1.07-.23,2.93,2.93,0,0,1,1.38.15,1.47,1.47,0,0,1,.68.73,2.92,2.92,0,0,1,.25,1.28,3.48,3.48,0,0,1-.27,1.43,1.56,1.56,0,0,1-.68.81,3.71,3.71,0,0,1-1.38.28Z"/><path class="cls-2" d="M46.85,36.22l-1.47.09a3.3,3.3,0,0,1-.73,0,.82.82,0,0,1-.42-.2.87.87,0,0,1-.29-.39,1.48,1.48,0,0,1-.08-.53,2.1,2.1,0,0,1,.09-.66.92.92,0,0,1,.28-.43,1.23,1.23,0,0,1,.41-.24,2.31,2.31,0,0,1,.68-.11l1.53-.09a2.67,2.67,0,0,1,.91.05.78.78,0,0,1,.48.38,1.34,1.34,0,0,1,.19.74,1.67,1.67,0,0,1-.13.65,1.15,1.15,0,0,1-.31.44,1.09,1.09,0,0,1-.41.22A4,4,0,0,1,46.85,36.22Zm.37-1.11a2.46,2.46,0,0,0,.44-.06.17.17,0,0,0,.09-.17.14.14,0,0,0-.09-.15,1.38,1.38,0,0,0-.44,0l-2.15.13a1.42,1.42,0,0,0-.46.06.17.17,0,0,0-.08.16.15.15,0,0,0,.1.16,1.55,1.55,0,0,0,.41,0Z"/><path class="cls-2" d="M45.11,37.27v1.1l-.39,0a.21.21,0,0,0-.13.07.23.23,0,0,0-.06.16.17.17,0,0,0,.19.19h.33l.7,0a.56.56,0,0,1-.27-.23.82.82,0,0,1-.09-.4.94.94,0,0,1,.17-.54.76.76,0,0,1,.39-.31,2,2,0,0,1,.62-.1l.35,0a5.16,5.16,0,0,1,.69,0,.9.9,0,0,1,.41.16.94.94,0,0,1,.3.4,1.67,1.67,0,0,1,.11.62,1.77,1.77,0,0,1-.13.73,1.06,1.06,0,0,1-.35.45,1.14,1.14,0,0,1-.48.21c-.17,0-.5.05-1,.08l-.61,0c-.53,0-.88,0-1.05,0a.89.89,0,0,1-.5-.15,1,1,0,0,1-.36-.43,1.64,1.64,0,0,1-.12-.65,1.73,1.73,0,0,1,.15-.77,1,1,0,0,1,.42-.45A1.84,1.84,0,0,1,45.11,37.27Zm1.37,1a.52.52,0,0,0-.34.1.26.26,0,0,0-.07.15.17.17,0,0,0,.09.16.66.66,0,0,0,.32,0l.8,0a.9.9,0,0,0,.38-.07.19.19,0,0,0,.09-.17.17.17,0,0,0-.07-.14s-.17-.07-.37-.06Z"/><path class="cls-2" d="M44.84,41.57l-.9,0V40.8l.9,0Z"/><path class="cls-2" d="M46.43,44.37a.69.69,0,0,1-.27.39,2.11,2.11,0,0,1-.9.18,2.19,2.19,0,0,1-.82-.07.8.8,0,0,1-.44-.39,1.54,1.54,0,0,1-.15-.74,1.61,1.61,0,0,1,.18-.82.91.91,0,0,1,.43-.42,2.88,2.88,0,0,1,.88-.14l.35,0v1.1l-.72,0a1,1,0,0,0-.36.06.14.14,0,0,0-.08.15c0,.09,0,.14.1.16a1.48,1.48,0,0,0,.51,0l.31,0a.85.85,0,0,0,.37-.08.31.31,0,0,0,.15-.17,1.89,1.89,0,0,0,0-.44l.64,0a2.16,2.16,0,0,0,0,.48.18.18,0,0,0,.13.12,1,1,0,0,0,.32,0h.24a.61.61,0,0,0,.31-.07.18.18,0,0,0,.07-.15.14.14,0,0,0-.08-.15.73.73,0,0,0-.33,0l-.36,0V42.26l.37,0a1,1,0,0,1,.86.24,1.48,1.48,0,0,1,.22.9,1.42,1.42,0,0,1-.31,1.07,1.26,1.26,0,0,1-.85.33,1,1,0,0,1-.54-.06A.86.86,0,0,1,46.43,44.37Z"/><path class="cls-2" d="M46.85,48.36l-1.47.09a3.3,3.3,0,0,1-.73,0,.82.82,0,0,1-.42-.2.87.87,0,0,1-.29-.39,1.48,1.48,0,0,1-.08-.53,2.1,2.1,0,0,1,.09-.66.92.92,0,0,1,.28-.43,1.23,1.23,0,0,1,.41-.24,2.31,2.31,0,0,1,.68-.11l1.53-.09a2.67,2.67,0,0,1,.91.05.78.78,0,0,1,.48.38,1.31,1.31,0,0,1,.19.74,1.67,1.67,0,0,1-.13.65,1.15,1.15,0,0,1-.31.44,1.09,1.09,0,0,1-.41.22A4,4,0,0,1,46.85,48.36Zm.37-1.11a2.46,2.46,0,0,0,.44-.06.17.17,0,0,0,.09-.17.14.14,0,0,0-.09-.15,1.38,1.38,0,0,0-.44,0L45.07,47a1.42,1.42,0,0,0-.46.06.17.17,0,0,0-.08.16c0,.09,0,.14.1.16a1.55,1.55,0,0,0,.41,0Z"/><path class="cls-2" d="M41.66,35.64l-4.4.27V34.82l2.36-.14a3.65,3.65,0,0,0,.61-.07.24.24,0,0,0,.16-.14,1.57,1.57,0,0,0,0-.49v-.11l.51,0A1.84,1.84,0,0,0,41.66,35Z"/><path class="cls-2" d="M40.17,39.29l-1.47.09a3.28,3.28,0,0,1-.73,0,1,1,0,0,1-.43-.2.91.91,0,0,1-.28-.39,1.53,1.53,0,0,1-.09-.54,2,2,0,0,1,.09-.65.94.94,0,0,1,.29-.43,1.33,1.33,0,0,1,.4-.25,2.9,2.9,0,0,1,.68-.1l1.54-.1a3.35,3.35,0,0,1,.91,0,.83.83,0,0,1,.48.39,1.4,1.4,0,0,1,.18.74,1.71,1.71,0,0,1-.12.65,1.27,1.27,0,0,1-.31.44,1.25,1.25,0,0,1-.41.22A4.18,4.18,0,0,1,40.17,39.29Zm.37-1.11a2.64,2.64,0,0,0,.44-.06.18.18,0,0,0,.09-.17.15.15,0,0,0-.1-.15,1.19,1.19,0,0,0-.43,0l-2.15.13a1.56,1.56,0,0,0-.46.07.15.15,0,0,0-.08.16.14.14,0,0,0,.09.15,1.15,1.15,0,0,0,.42,0Z"/><path class="cls-2" d="M38.15,41.09l-.89,0v-.82l.89-.06Z"/><path class="cls-2" d="M40.17,44.39l-1.47.09a4.05,4.05,0,0,1-.73,0,1,1,0,0,1-.43-.2,1,1,0,0,1-.28-.39,1.53,1.53,0,0,1-.09-.54,2,2,0,0,1,.09-.65.94.94,0,0,1,.29-.43A1.16,1.16,0,0,1,38,42a2.45,2.45,0,0,1,.68-.1l1.54-.1a3,3,0,0,1,.91,0,.83.83,0,0,1,.48.39,1.36,1.36,0,0,1,.18.73,1.76,1.76,0,0,1-.12.66,1.27,1.27,0,0,1-.31.44,1.07,1.07,0,0,1-.41.21A3.25,3.25,0,0,1,40.17,44.39Zm.37-1.12a1.43,1.43,0,0,0,.44-.06.15.15,0,0,0,.09-.16.15.15,0,0,0-.1-.15,1.19,1.19,0,0,0-.43,0L38.39,43a1.56,1.56,0,0,0-.46.07c-.06,0-.08.08-.08.16a.14.14,0,0,0,.09.15,1.15,1.15,0,0,0,.42,0Z"/><path class="cls-2" d="M41.66,46.93l-4.4.27V46.1L39.62,46a4.23,4.23,0,0,0,.61-.06.27.27,0,0,0,.16-.14,1.65,1.65,0,0,0,0-.5v-.1l.51,0a1.87,1.87,0,0,0,.71,1.16Z"/><path class="cls-2" d="M35,36.05l-4.4.27v-1.1l2.36-.14a4.46,4.46,0,0,0,.62-.06.23.23,0,0,0,.15-.14,1.3,1.3,0,0,0,.06-.5v-.1l.51,0a1.86,1.86,0,0,0,.7,1.17Z"/><path class="cls-2" d="M33.48,39.7,32,39.78a3.3,3.3,0,0,1-.73,0,.89.89,0,0,1-.42-.19,1,1,0,0,1-.29-.4,1.48,1.48,0,0,1-.08-.53,2.1,2.1,0,0,1,.09-.66,1,1,0,0,1,.28-.43,1.23,1.23,0,0,1,.41-.24,2.31,2.31,0,0,1,.68-.11l1.53-.09a2.67,2.67,0,0,1,.91.05.82.82,0,0,1,.49.38,1.42,1.42,0,0,1,.18.74,1.51,1.51,0,0,1-.13.65,1.19,1.19,0,0,1-.31.45,1.07,1.07,0,0,1-.41.21A4.89,4.89,0,0,1,33.48,39.7Zm.37-1.12a1.37,1.37,0,0,0,.44-.06.16.16,0,0,0,.09-.16c0-.09,0-.14-.09-.16a1.38,1.38,0,0,0-.44,0l-2.15.13a1.81,1.81,0,0,0-.46.06.18.18,0,0,0-.08.17.14.14,0,0,0,.1.15,1.2,1.2,0,0,0,.41,0Z"/><path class="cls-2" d="M31.47,41.49l-.9.06v-.83l.9,0Z"/><path class="cls-2" d="M33.48,44.79,32,44.88a3.3,3.3,0,0,1-.73,0,.89.89,0,0,1-.42-.19,1,1,0,0,1-.29-.4,1.48,1.48,0,0,1-.08-.53,2.1,2.1,0,0,1,.09-.66.92.92,0,0,1,.28-.43,1.23,1.23,0,0,1,.41-.24,2.31,2.31,0,0,1,.68-.11l1.53-.09a2.67,2.67,0,0,1,.91.05.82.82,0,0,1,.49.38,1.42,1.42,0,0,1,.18.74,1.51,1.51,0,0,1-.13.65,1.08,1.08,0,0,1-.31.44,1,1,0,0,1-.41.22A4,4,0,0,1,33.48,44.79Zm.37-1.11a1.37,1.37,0,0,0,.44-.06.16.16,0,0,0,.09-.16c0-.09,0-.14-.09-.16a1.38,1.38,0,0,0-.44,0l-2.15.13a1.42,1.42,0,0,0-.46.06.18.18,0,0,0-.08.17.14.14,0,0,0,.1.15,1.2,1.2,0,0,0,.41,0Z"/><path class="cls-2" d="M31.32,48.23l-.75,0v-2.4l.63,0c1.17.64,1.89,1,2.17,1.14a1.54,1.54,0,0,0,.65.16.48.48,0,0,0,.27-.08.21.21,0,0,0,.09-.19.19.19,0,0,0-.1-.18.8.8,0,0,0-.39,0l-.41,0v-1h.16a3.48,3.48,0,0,1,.58,0,.91.91,0,0,1,.42.16.83.83,0,0,1,.31.36,1.63,1.63,0,0,1-.22,1.57,1.15,1.15,0,0,1-.82.39,2,2,0,0,1-.8-.14,15.09,15.09,0,0,1-1.79-1Z"/><path class="cls-4" d="M42.27,90.18c-8.83-4.52-14.13-11.51-11.83-15.61s11.32-3.74,20.15.78S64.7,86.86,62.41,91,51.1,94.7,42.27,90.18Z"/><path class="cls-4" d="M56.83,164.67c-2.08-4.52-1.84-9.16.54-10.37s6,1.47,8.09,6,1.84,9.16-.54,10.36S58.92,169.18,56.83,164.67Z"/><path class="cls-4" d="M15,140.19c-1.07-2.31.3-5.33,3.07-6.73s5.87-.65,6.94,1.67-.3,5.33-3.07,6.73S16.08,142.51,15,140.19Z"/><path class="cls-4" d="M82.46,116s-35.19,87.22-52.81,53.52S21.21,94.39.5,89.76"/><path class="cls-2" d="M79.71,27.08,80,27h0l-.31,0a4.56,4.56,0,0,1-2.95-1s-.06,0-.07,0a5.17,5.17,0,0,1-3,1.32l-.31.06h0l.31,0a4.67,4.67,0,0,1,3,1s0,0,.07,0A5.23,5.23,0,0,1,79.71,27.08Z"/><path class="cls-2" d="M62.23,21.35l.66-.13h0l0,0-.66,0c-3.09-.2-5.48-1-6.45-2.1a.1.1,0,0,0-.16,0c-1,1.23-3.36,2.3-6.45,2.87l-.67.12,0,0,0,0,.67,0c3.09.2,5.48,1,6.45,2.1a.1.1,0,0,0,.16,0C56.75,23,59.14,21.92,62.23,21.35Z"/><path class="cls-2" d="M80.77,28.77l.16,0h-.16a2.34,2.34,0,0,1-1.5-.49,0,0,0,0,0,0,0,2.56,2.56,0,0,1-1.5.67l-.16,0h.16a2.32,2.32,0,0,1,1.5.49h0A2.59,2.59,0,0,1,80.77,28.77Z"/><path class="cls-2" d="M10.83,32.42l.31-.06h0l-.31,0a4.62,4.62,0,0,1-3-1s-.05,0-.07,0a5.17,5.17,0,0,1-3,1.32l-.31.05h0l.31,0a4.57,4.57,0,0,1,3,1s.06,0,.07,0A5.17,5.17,0,0,1,10.83,32.42Z"/><path class="cls-2" d="M11.9,34.1l.15,0H11.9a2.38,2.38,0,0,1-1.51-.49h0a2.63,2.63,0,0,1-1.51.67l-.15,0h.15a2.38,2.38,0,0,1,1.51.49h0A2.69,2.69,0,0,1,11.9,34.1Z"/><path class="cls-2" d="M3.57,180.51l1.33-.08a7.87,7.87,0,0,1,1.73,0,1.25,1.25,0,0,1,.69.34,1.12,1.12,0,0,1,.3.58,9.22,9.22,0,0,1,0,1.29V185a5.53,5.53,0,0,1-.08,1.22,1,1,0,0,1-.3.5,1.35,1.35,0,0,1-.53.28,5.14,5.14,0,0,1-1,.13l-2.24.14Zm1.77,1.05V186c.26,0,.42-.08.47-.18A2.29,2.29,0,0,0,5.9,185v-2.63a3.45,3.45,0,0,0,0-.59.27.27,0,0,0-.13-.18A.74.74,0,0,0,5.34,181.56Z"/><path class="cls-2" d="M9.2,180.15l3-.19v1.36l-1.18.07v1.28l1.11-.07v1.29L11,184v1.49l1.3-.08v1.35l-3.07.2Z"/><path class="cls-2" d="M17.4,181.67l-1.65.11v-.5a1,1,0,0,0-.06-.45.21.21,0,0,0-.21-.08.32.32,0,0,0-.25.15.81.81,0,0,0-.08.39,1,1,0,0,0,.1.51,1.1,1.1,0,0,0,.5.38,5,5,0,0,1,1.49,1,2.56,2.56,0,0,1,.3,1.42,2.5,2.5,0,0,1-.17,1.08,1.43,1.43,0,0,1-.66.62,2.81,2.81,0,0,1-1.13.3,2.46,2.46,0,0,1-1.22-.19,1.17,1.17,0,0,1-.65-.64,3.19,3.19,0,0,1-.16-1.16v-.44l1.64-.11v.82a1.15,1.15,0,0,0,.07.49.25.25,0,0,0,.25.09.31.31,0,0,0,.26-.15.82.82,0,0,0,.09-.42,1.21,1.21,0,0,0-.16-.77,5,5,0,0,0-.83-.56A7.27,7.27,0,0,1,14,183a1.28,1.28,0,0,1-.35-.52,2.18,2.18,0,0,1-.15-.88,2.61,2.61,0,0,1,.2-1.15,1.59,1.59,0,0,1,.65-.6,2.86,2.86,0,0,1,1.08-.27,2.65,2.65,0,0,1,1.17.15,1.09,1.09,0,0,1,.65.51,3,3,0,0,1,.16,1.14Z"/><path class="cls-2" d="M20.73,179.41v6.77l-1.77.11v-6.77Z"/><path class="cls-2" d="M26.37,181.54l-1.77.11V181a3.11,3.11,0,0,0-.05-.72.23.23,0,0,0-.24-.14.27.27,0,0,0-.23.14A2.1,2.1,0,0,0,24,181v3.25a1.92,1.92,0,0,0,.06.6.21.21,0,0,0,.24.12.25.25,0,0,0,.26-.17,1.89,1.89,0,0,0,.07-.64v-.81l-.36,0v-1l2.08-.14v3.64l-1.12.07-.16-.48a1.3,1.3,0,0,1-1.11.7,1.59,1.59,0,0,1-.83-.16,1.45,1.45,0,0,1-.59-.49,1.63,1.63,0,0,1-.26-.66,8.46,8.46,0,0,1-.05-1v-2a6.77,6.77,0,0,1,.11-1.42,1.62,1.62,0,0,1,.6-.84,2.61,2.61,0,0,1,2.58-.21,1.38,1.38,0,0,1,.67.71,3.66,3.66,0,0,1,.16,1.26Z"/><path class="cls-2" d="M31.87,178.7v6.76l-1.55.1-.93-3v3.07l-1.48.1V179l1.48-.09,1,3v-3.05Z"/><path class="cls-2" d="M3.57,190.79l3-.19V192L5.34,192v1.28l1.11-.07v1.29l-1.11.07v1.49l1.3-.08v1.35l-3.07.2Z"/><path class="cls-2" d="M11.61,190.27l-.62,3,.93,3.71-1.64.11c-.19-.66-.37-1.48-.54-2.43,0,.43-.1.89-.18,1.37l-.17,1.12-1.73.11.65-3.82-.65-2.95,1.72-.11c0,.18.09.49.18.92a8.94,8.94,0,0,1,.18.9l.38-1.87Z"/><path class="cls-2" d="M17.11,189.92v6.77l-1.77.11V194l-.53,0v2.85L13,197v-6.77l1.77-.11v2.42l.53,0V190Z"/><path class="cls-2" d="M20.45,189.7v6.77l-1.77.12v-6.77Z"/><path class="cls-2" d="M22,189.6l1.76-.11a4.38,4.38,0,0,1,1.27,0,1.1,1.1,0,0,1,.7.48,2.31,2.31,0,0,1,.26,1.25,1.47,1.47,0,0,1-.18.84,1.53,1.53,0,0,1-.74.41,1.21,1.21,0,0,1,.83.4,1.66,1.66,0,0,1,.22,1v.62a2.49,2.49,0,0,1-.16,1,.92.92,0,0,1-.5.49,5.81,5.81,0,0,1-1.42.21l-2,.13Zm1.77,1.05v1.5l.17,0a.4.4,0,0,0,.34-.14,2.43,2.43,0,0,0,.07-.74,1.11,1.11,0,0,0-.06-.44.27.27,0,0,0-.15-.15A1.32,1.32,0,0,0,23.8,190.65Zm0,2.55v1.9a.81.81,0,0,0,.47-.15.82.82,0,0,0,.11-.52v-.63c0-.29,0-.47-.09-.52A.87.87,0,0,0,23.8,193.2Z"/><path class="cls-2" d="M29.42,189.13v6.76l-1.78.12v-6.77Z"/><path class="cls-2" d="M34.55,188.8v1.35l-1,.07v5.41l-1.77.11v-5.41l-1.05.07V189Z"/><path class="cls-2" d="M37.59,188.6v6.77l-1.77.11v-6.77Z"/><path class="cls-2" d="M43.2,192.2c0,.68,0,1.16-.05,1.45a1.67,1.67,0,0,1-.3.79,1.71,1.71,0,0,1-.69.58,2.73,2.73,0,0,1-2,.14,1.52,1.52,0,0,1-.7-.48,1.54,1.54,0,0,1-.31-.76,12.39,12.39,0,0,1,0-1.46v-1.15a12.51,12.51,0,0,1,0-1.45,1.7,1.7,0,0,1,.3-.8,1.88,1.88,0,0,1,.69-.58,2.54,2.54,0,0,1,1-.25,2.42,2.42,0,0,1,1,.11,1.49,1.49,0,0,1,1,1.24c0,.28.05.77.05,1.46Zm-1.77-2.11a2.34,2.34,0,0,0,0-.6.21.21,0,0,0-.22-.12.28.28,0,0,0-.21.12,1.6,1.6,0,0,0-.07.64v3.16a2.6,2.6,0,0,0,0,.72c0,.09.1.13.22.12a.23.23,0,0,0,.23-.17,3.64,3.64,0,0,0,0-.76Z"/><path class="cls-2" d="M48.67,187.89v6.76l-1.55.1-.92-3v3.08l-1.48.1v-6.77l1.48-.09,1,3V188Z"/><line class="cls-1" x1="3.48" y1="197.94" x2="77.72" y2="193.15"/></g></g></svg>