<svg xmlns="http://www.w3.org/2000/svg" xmlns:xlink="http://www.w3.org/1999/xlink" viewBox="0 0 338.22 101.88"><defs><clipPath id="a"><path d="M321.21,85.49l-10.7-13.24A16.71,16.71,0,0,0,326.25,56L337,69.26A16.71,16.71,0,0,1,321.21,85.49Z" style="fill:none"/></clipPath><clipPath id="b"><path d="M323.36,6.36l10.7,13.24a14.32,14.32,0,0,1,3.18,9.22l-10.7-13.24A14.32,14.32,0,0,0,323.36,6.36Z" style="fill:none"/></clipPath><clipPath id="c"><path d="M322,4.92a16.2,16.2,0,0,1,1.32,1.43l10.7,13.24a16.2,16.2,0,0,0-1.32-1.43Q327.39,11.55,322,4.92Z" style="fill:none"/></clipPath><clipPath id="d"><path d="M321.87,4.77l.17.15,1.25,1.55,1.32,1.64L326,9.81l1.4,1.74,1.4,1.73,1.37,1.7,1.33,1.64,1.25,1.54-.17-.15Z" style="fill:none"/></clipPath><clipPath id="e"><path d="M275.79,44.86a9.09,9.09,0,0,0,.71-3.62l10.7,13.24a9.09,9.09,0,0,1-.71,3.62,7.53,7.53,0,0,1-2,2.64,9.23,9.23,0,0,1-3,1.67,14.38,14.38,0,0,1-3.94.72c-3.18.17-5.66-.53-7.42-2.1l-10.7-13.24L270.11,61a7.56,7.56,0,0,1-.78-.82L258.63,47a7.56,7.56,0,0,0,.78.82c1.76,1.57,4.24,2.27,7.42,2.1a14.38,14.38,0,0,0,3.94-.72,9.23,9.23,0,0,0,3.05-1.67A7.53,7.53,0,0,0,275.79,44.86Z" style="fill:none"/></clipPath><clipPath id="f"><path d="M321.87,4.77c.15.16.28.34.42.52L332.57,18a14.54,14.54,0,0,0-4.78-2.89L317.09,1.88A14.54,14.54,0,0,1,321.87,4.77Z" style="fill:none"/></clipPath><clipPath id="g"><path d="M273.77,57.61l-10.7-13.24a4.29,4.29,0,0,0,3.79,1.43,5.43,5.43,0,0,0,3.46-1.35,4.55,4.55,0,0,0,1.41-3.54l10.7,13.24A4.55,4.55,0,0,1,281,57.69,5.43,5.43,0,0,1,277.56,59,4.29,4.29,0,0,1,273.77,57.61Z" style="fill:none"/></clipPath><clipPath id="h"><path d="M311,1a15.17,15.17,0,0,1,6.07.89l1.25,1.55,1.33,1.64L321,6.77l1.4,1.73,1.4,1.73,1.38,1.7,1.32,1.64,1.25,1.55a15.17,15.17,0,0,0-6.07-.89Z" style="fill:none"/></clipPath><clipPath id="i"><path d="M261.79,39.33l10.7,13.24a7.86,7.86,0,0,0,1.28,5l-10.7-13.24A7.86,7.86,0,0,1,261.79,39.33Z" style="fill:none"/></clipPath><clipPath id="j"><path d="M276.51,31.12a8.28,8.28,0,0,0-1.68-4.82l10.7,13.24a8.28,8.28,0,0,1,1.68,4.82C284,40.39,278.35,35.89,276.51,31.12Z" style="fill:none"/></clipPath><clipPath id="k"><path d="M269.33,60.21,258.63,47a9.85,9.85,0,0,1-1.84-6.45l10.7,13.24A9.85,9.85,0,0,0,269.33,60.21Z" style="fill:none"/></clipPath><clipPath id="l"><path d="M270.51,28.89l10.71,13.24a5.34,5.34,0,0,1,1,2.5l-10.7-13.24A5.24,5.24,0,0,0,270.51,28.89Z" style="fill:none"/></clipPath><clipPath id="m"><path d="M265.71,32.8l8.12,10.05h0Z" style="fill:none"/></clipPath><clipPath id="n"><path d="M270.14,28.5a2.75,2.75,0,0,1,.37.39l10.71,13.24a3.52,3.52,0,0,0-.38-.39,4.29,4.29,0,0,0-3.09-.74l-10.7-13.24L277.75,41a4.9,4.9,0,0,0-3.92,1.85L263.14,29.62l2.57,3.18,1,1.28,1,1.29,1.06,1.3,1.05,1.3,3.94,4.89A8.71,8.71,0,0,0,272.52,48L261.82,34.8a8.76,8.76,0,0,1,1.31-5.19,4.9,4.9,0,0,1,3.92-1.85A4.29,4.29,0,0,1,270.14,28.5Z" style="fill:none"/></clipPath><clipPath id="o"><path d="M274.83,26.3l10.7,13.24a7.26,7.26,0,0,0-1-1q-2.43-2-6.79-1.77l-10.7-13.24q4.37-.22,6.79,1.77A7.26,7.26,0,0,1,274.83,26.3Z" style="fill:none"/></clipPath><clipPath id="p"><path d="M267.54,47.32l-10.7-13.24a12.91,12.91,0,0,1,.71-4.37,8.83,8.83,0,0,1,2-3.22,9.14,9.14,0,0,1,3.21-2.06,13.67,13.67,0,0,1,4.28-.86l10.7,13.24a13.67,13.67,0,0,0-4.28.86,9.14,9.14,0,0,0-3.21,2.06,8.83,8.83,0,0,0-2,3.22A12.91,12.91,0,0,0,267.54,47.32Z" style="fill:none"/></clipPath><clipPath id="q"><path d="M243.85,41l.22.28.24.29.24.31.25.31.25.31.25.3.24.29.22.28,1,1.27L247.88,46,249,47.36l1.15,1.43,1.15,1.42,1.13,1.4L253.52,53l1,1.27a7,7,0,0,1,.36,2.4,8.06,8.06,0,0,1-.8,3.68l-10.7-13.24a8.06,8.06,0,0,0,.8-3.68A7,7,0,0,0,243.85,41Z" style="fill:none"/></clipPath><clipPath id="r"><path d="M243.67,40.55a5.71,5.71,0,0,0-.72-1.13l10.7,13.24a5.71,5.71,0,0,1,.72,1.13c.07.14.12.28.18.43Q249.2,47.61,243.85,41Z" style="fill:none"/></clipPath><clipPath id="s"><path d="M241.28,49.58a7,7,0,0,0,2.13-2.52l10.7,13.24A6.94,6.94,0,0,1,252,62.82a9.66,9.66,0,0,1-3.16,1.46,15.15,15.15,0,0,1-3.22.5l-.59,0a13.87,13.87,0,0,1-3.82-.38A7.62,7.62,0,0,1,238.25,63l-10.7-13.24a7.62,7.62,0,0,0,2.94,1.43,13.87,13.87,0,0,0,3.82.38l.59,0a15.25,15.25,0,0,0,3.22-.5A9.66,9.66,0,0,0,241.28,49.58Z" style="fill:none"/></clipPath><clipPath id="t"><path d="M238.6,42l10.7,13.24,0,0a2.43,2.43,0,0,1,.49,1.55l-10.7-13.24a2.43,2.43,0,0,0-.49-1.55Z" style="fill:none"/></clipPath><clipPath id="u"><path d="M241.37,59.18l-10.7-13.24a3.12,3.12,0,0,0,.44.45,4.73,4.73,0,0,0,3.34,1h.16a6.61,6.61,0,0,0,3.39-.9,3,3,0,0,0,1.12-2.86l10.7,13.24a3,3,0,0,1-1.12,2.86,6.61,6.61,0,0,1-3.39.9h-.16a4.73,4.73,0,0,1-3.34-1A3.12,3.12,0,0,1,241.37,59.18Z" style="fill:none"/></clipPath><clipPath id="v"><path d="M226.56,48.77a7.05,7.05,0,0,0,1,1l1.25,1.55,1.32,1.64,1.38,1.7,1.4,1.73,1.4,1.73,1.37,1.71L237,61.44,238.25,63a6.49,6.49,0,0,1-1-1Z" style="fill:none"/></clipPath><clipPath id="w"><path d="M229.8,43.2l10.7,13.24a4.42,4.42,0,0,0,.87,2.74l-10.7-13.24A4.42,4.42,0,0,1,229.8,43.2Z" style="fill:none"/></clipPath><clipPath id="x"><path d="M237.38,41.07a3.57,3.57,0,0,1,1.22,1l10.7,13.24a3.57,3.57,0,0,0-1.22-.95,8.47,8.47,0,0,0-1.81-.65l-2.17-.53L233.4,39.89l2.17.53A8.47,8.47,0,0,1,237.38,41.07Z" style="fill:none"/></clipPath><clipPath id="y"><path d="M243,39.42l10.7,13.24a6.13,6.13,0,0,0-.84-.85,8.81,8.81,0,0,0-2.39-1.4,26,26,0,0,0-3.08-1l-10.7-13.24a26,26,0,0,1,3.08,1,8.81,8.81,0,0,1,2.39,1.4A6.13,6.13,0,0,1,243,39.42Z" style="fill:none"/></clipPath><clipPath id="z"><path d="M231.81,39.51c.54.14,1.07.27,1.59.38l10.7,13.24c-.52-.11-1-.24-1.59-.38Z" style="fill:none"/></clipPath><clipPath id="aa"><path d="M237.27,62,226.56,48.77a7.11,7.11,0,0,1-.94-1.56,9.9,9.9,0,0,1-.78-3.75l10.7,13.24a9.9,9.9,0,0,0,.78,3.75A6.77,6.77,0,0,0,237.27,62Z" style="fill:none"/></clipPath><clipPath id="ab"><path d="M231.81,39.51a2.77,2.77,0,0,1,.5.62l.54.67.27.34.57.69.28.36.57.7.55.68.54.67.5.62.75.92.79,1,.82,1,.83,1,.83,1,.82,1,.79,1,.75.92-1.12-.32a9.81,9.81,0,0,1-1.49-.58L229.2,38.61a9.81,9.81,0,0,0,1.49.58Z" style="fill:none"/></clipPath><clipPath id="ac"><path d="M243.07,29.23a6.24,6.24,0,0,0-.81-1.31L253,41.16a6.24,6.24,0,0,1,.81,1.31,7.64,7.64,0,0,1,.69,3.06l-10.7-13.24A7.64,7.64,0,0,0,243.07,29.23Z" style="fill:none"/></clipPath><clipPath id="ad"><path d="M238.1,30.61l10.7,13.24a3.35,3.35,0,0,1,.64,1.94l-10.7-13.24A3.35,3.35,0,0,0,238.1,30.61Z" style="fill:none"/></clipPath><clipPath id="ae"><path d="M229.2,38.61a4.4,4.4,0,0,1,.54.67l.57.71.3.36.6.75.3.37.61.75.59.74.58.71.54.67.71.88.75.93.78,1,.79,1,.8,1,.78,1,.75.93.71.88a8.37,8.37,0,0,1-1-.57L228.18,38A8.37,8.37,0,0,0,229.2,38.61Z" style="fill:none"/></clipPath><clipPath id="af"><path d="M237.55,30.12a2.36,2.36,0,0,1,.55.49l10.7,13.24a2.36,2.36,0,0,0-.55-.49Z" style="fill:none"/></clipPath><clipPath id="ag"><path d="M241.79,47.33l-10.7-13.24a2.65,2.65,0,0,0,.29.29,5.62,5.62,0,0,0,1.62.9,11.59,11.59,0,0,0,2,.55c.68.13,1.24.25,1.68.35l10.7,13.24c-.44-.1-1-.22-1.68-.35a11.59,11.59,0,0,1-2-.55,5.43,5.43,0,0,1-1.61-.9A2.07,2.07,0,0,1,241.79,47.33Z" style="fill:none"/></clipPath><clipPath id="ah"><path d="M226.72,36.73A6.09,6.09,0,0,0,228.18,38l5.35,6.62,5.35,6.62A6.29,6.29,0,0,1,237.42,50Z" style="fill:none"/></clipPath><clipPath id="ai"><path d="M230.69,33a4.5,4.5,0,0,1,.11-1.14q5.35,6.61,10.7,13.24a4.5,4.5,0,0,0-.11,1.14,1.85,1.85,0,0,0,.4,1.13l-10.7-13.24A1.85,1.85,0,0,1,230.69,33Z" style="fill:none"/></clipPath><clipPath id="aj"><path d="M242.26,27.92,253,41.16a6.06,6.06,0,0,0-1-1,7.9,7.9,0,0,0-2.86-1.35,13.06,13.06,0,0,0-3.87-.33l-10.7-13.24a13.06,13.06,0,0,1,3.87.33A7.9,7.9,0,0,1,241.27,27,6.06,6.06,0,0,1,242.26,27.92Z" style="fill:none"/></clipPath><clipPath id="ak"><path d="M237.42,50l-10.7-13.24a5.66,5.66,0,0,1-.4-.56,5,5,0,0,1-.72-2.84,8,8,0,0,1,.7-3.32,7.28,7.28,0,0,1,1.87-2.46A8.94,8.94,0,0,1,231,26a12.78,12.78,0,0,1,3.54-.69l10.7,13.24a12.78,12.78,0,0,0-3.54.69,8.94,8.94,0,0,0-2.83,1.59A7.28,7.28,0,0,0,237,43.25a8,8,0,0,0-.7,3.32,5,5,0,0,0,.72,2.84C237.15,49.61,237.28,49.79,237.42,50Z" style="fill:none"/></clipPath><clipPath id="al"><path d="M205,66.44,194.25,53.2a11.58,11.58,0,0,0,7.43-2.68c1.8-1.62,2.7-4,2.72-7.14l10.7,13.24c0,3.14-.92,5.52-2.72,7.14A11.58,11.58,0,0,1,205,66.44Z" style="fill:none"/></clipPath><clipPath id="am"><path d="M204.66,62.19,194,49a8.53,8.53,0,0,0,2.49-.45,3.77,3.77,0,0,0,1.65-1.09,4.47,4.47,0,0,0,.92-1.82,10.69,10.69,0,0,0,.3-2.65L210,56.18a10.69,10.69,0,0,1-.3,2.65,4.47,4.47,0,0,1-.92,1.82,3.77,3.77,0,0,1-1.65,1.09A8.53,8.53,0,0,1,204.66,62.19Z" style="fill:none"/></clipPath><clipPath id="an"><path d="M198.11,33.75,208.81,47l.09.12a7.86,7.86,0,0,1,1.15,4.7l-10.7-13.24a7.86,7.86,0,0,0-1.15-4.7Z" style="fill:none"/></clipPath><clipPath id="ao"><path d="M198.1,33.75l10.56,13a22.35,22.35,0,0,0-3.55-3.47,23.51,23.51,0,0,0-4.33-2.62l-6.7-8.3C196,32.31,197.31,32.76,198.1,33.75Z" style="fill:none"/></clipPath><clipPath id="ap"><path d="M202.61,31.06l10.7,13.24a9.72,9.72,0,0,1,1.84,6.35l-10.7-13.24A9.78,9.78,0,0,0,202.61,31.06Z" style="fill:none"/></clipPath><clipPath id="aq"><path d="M202.61,31.06l10.7,13.24a7,7,0,0,0-.75-.79l-10.7-13.24A7,7,0,0,1,202.61,31.06Z" style="fill:none"/></clipPath><clipPath id="ar"><path d="M200.78,40.71a23.51,23.51,0,0,1,4.33,2.62,22.35,22.35,0,0,1,3.55,3.47l.15.19c-.8-1-2.15-1.44-4-1.34Z" style="fill:none"/></clipPath><clipPath id="as"><path d="M205.13,41.42l-10.7-13.24c3.21-.17,5.68.54,7.43,2.09l10.7,13.24C210.81,42,208.34,41.25,205.13,41.42Z" style="fill:none"/></clipPath><clipPath id="at"><path d="M155.77,51.1a9.93,9.93,0,0,0,.82-3.63l10.7,13.24a9.93,9.93,0,0,1-.82,3.63,7.51,7.51,0,0,1-2,2.67,9.18,9.18,0,0,1-3.06,1.7,16.32,16.32,0,0,1-8.16.41l-10.7-13.24a16.32,16.32,0,0,0,8.16-.41,9.18,9.18,0,0,0,3.06-1.7A7.63,7.63,0,0,0,155.77,51.1Z" style="fill:none"/></clipPath><clipPath id="au"><path d="M142,55.72l.58.16,10.7,13.24-.58-.16Z" style="fill:none"/></clipPath><clipPath id="av"><path d="M142,55.72a.64.64,0,0,1,.1.13l.21.25.11.14.22.27.11.15.12.14.22.28.23.27.21.27.2.25,1.05,1.29,1.11,1.38L147,62l1.18,1.46,1.17,1.45,1.15,1.42,1.11,1.38,1,1.29a6.8,6.8,0,0,1-2.49-1.35l-10.7-13.24A6.72,6.72,0,0,0,142,55.72Z" style="fill:none"/></clipPath><clipPath id="aw"><path d="M153.72,64.1,143,50.86l0,0a3,3,0,0,0,1.51,1,7.39,7.39,0,0,0,2.2.19A5.42,5.42,0,0,0,150,50.91a4.71,4.71,0,0,0,1.44-3.18L162.18,61a4.66,4.66,0,0,1-1.44,3.18,5.42,5.42,0,0,1-3.28,1.13,7.39,7.39,0,0,1-2.2-.19,3,3,0,0,1-1.51-1Z" style="fill:none"/></clipPath><clipPath id="ax"><path d="M138.76,53.62a6.38,6.38,0,0,0,.72.75l1.25,1.54,1.32,1.64,1.38,1.7,1.4,1.74,1.4,1.73,1.37,1.7,1.33,1.64,1.25,1.55a6.38,6.38,0,0,1-.72-.75Z" style="fill:none"/></clipPath><clipPath id="ay"><path d="M143,50.86a4.31,4.31,0,0,1-.8-1.78l10.7,13.24a4.31,4.31,0,0,0,.8,1.78Z" style="fill:none"/></clipPath><clipPath id="az"><path d="M152.92,62.32l-10.7-13.24a12.25,12.25,0,0,1-.25-2.85l10.7,13.24A12.25,12.25,0,0,0,152.92,62.32Z" style="fill:none"/></clipPath><clipPath id="ba"><path d="M149.46,66.86l-10.7-13.24a7.07,7.07,0,0,1-1.14-2.06,11.7,11.7,0,0,1-.61-4.21l10.7,13.24a11.7,11.7,0,0,0,.61,4.21A7.31,7.31,0,0,0,149.46,66.86Z" style="fill:none"/></clipPath><clipPath id="bb"><path d="M156.73,37.44A8.38,8.38,0,0,0,155,32.59l10.7,13.24a8.31,8.31,0,0,1,1.69,4.85C164.22,46.7,158.57,42.2,156.73,37.44Z" style="fill:none"/></clipPath><clipPath id="bc"><path d="M150.79,35.25l10.7,13.24a5.18,5.18,0,0,1,.94,2.45L151.73,37.7A5.18,5.18,0,0,0,150.79,35.25Z" style="fill:none"/></clipPath><clipPath id="bd"><path d="M150.37,34.84a3.25,3.25,0,0,1,.42.41l10.7,13.24a3.25,3.25,0,0,0-.42-.41Z" style="fill:none"/></clipPath><clipPath id="be"><path d="M147.27,34.12a4.5,4.5,0,0,1,3.1.72l1.25,1.55L153,38l1.37,1.7,1.4,1.73,1.4,1.73,1.38,1.7,1.32,1.64,1.25,1.55a4.5,4.5,0,0,0-3.1-.72Z" style="fill:none"/></clipPath><clipPath id="bf"><path d="M147.27,34.12h0L158,47.36h0Z" style="fill:none"/></clipPath><clipPath id="bg"><path d="M142,40.8q0-3.44,1.34-5l1.25,1.55L145.93,39l1.37,1.7,1.4,1.74,1.4,1.73,1.38,1.7,1.32,1.64,1.25,1.54q-1.31,1.56-1.34,5C149.5,50.06,143.69,45.62,142,40.8Z" style="fill:none"/></clipPath><clipPath id="bh"><path d="M143.35,35.81h0l10.7,13.24h0Z" style="fill:none"/></clipPath><clipPath id="bi"><path d="M143.35,35.81a5.25,5.25,0,0,1,3.92-1.69l1.25,1.55,1.32,1.64,1.38,1.7,1.4,1.73,1.4,1.73,1.37,1.7,1.33,1.64L158,47.36a5.25,5.25,0,0,0-3.92,1.69Z" style="fill:none"/></clipPath><clipPath id="bj"><path d="M131.82,54.61q2.38-2.47,2.43-7.65L145,60.2c0,3.45-.83,6-2.43,7.65s-4.08,2.57-7.44,2.75-5.87-.48-7.43-2a6.39,6.39,0,0,1-.5-.54l-10.7-13.24a6.39,6.39,0,0,0,.5.54c1.56,1.49,4,2.15,7.43,2S130.23,56.26,131.82,54.61Z" style="fill:none"/></clipPath><clipPath id="bk"><path d="M131.4,65.14,120.7,51.9a4.21,4.21,0,0,0,3.72,1.31c3.18-.17,4.77-2,4.8-5.39l10.7,13.24c0,3.43-1.62,5.22-4.8,5.39A4.21,4.21,0,0,1,131.4,65.14Z" style="fill:none"/></clipPath><clipPath id="bl"><path d="M155,32.59l10.71,13.24a7.18,7.18,0,0,0-1-1c-1.62-1.34-3.88-1.94-6.79-1.78L147.3,29.85c2.91-.16,5.17.44,6.79,1.78A6.56,6.56,0,0,1,155,32.59Z" style="fill:none"/></clipPath><clipPath id="bm"><path d="M147.76,53.28,137.06,40a12.57,12.57,0,0,1,.71-4.32,8.38,8.38,0,0,1,2-3.11A9.19,9.19,0,0,1,143,30.66a14.6,14.6,0,0,1,4.28-.81L158,43.09a14.6,14.6,0,0,0-4.28.81,9.19,9.19,0,0,0-3.21,2,8.24,8.24,0,0,0-2,3.11A12.33,12.33,0,0,0,147.76,53.28Z" style="fill:none"/></clipPath><clipPath id="bn"><path d="M120.7,51.9a5.53,5.53,0,0,1-1-3.59l10.7,13.24a5.53,5.53,0,0,0,1,3.59Z" style="fill:none"/></clipPath><clipPath id="bo"><path d="M127.15,68.09l-10.7-13.24c-1.22-1.51-1.83-3.8-1.81-6.86l10.7,13.24C125.32,64.29,125.93,66.58,127.15,68.09Z" style="fill:none"/></clipPath><clipPath id="bp"><path d="M109.38,55.36l10.7,13.24a11.63,11.63,0,0,1-7.43,2.68L102,58A11.63,11.63,0,0,0,109.38,55.36Z" style="fill:none"/></clipPath><clipPath id="bq"><path d="M112.1,48.22l6.06,7.49,2.74,3.4c.39.47.9,1.11,1.29,1.59.18.23.61.47.61.76,0,3.14-.92,5.52-2.72,7.13l-10.7-13.23h0C111.18,53.74,112.08,51.36,112.1,48.22Z" style="fill:none"/></clipPath><clipPath id="br"><path d="M112.36,67l-10.7-13.24a8.9,8.9,0,0,0,2.49-.44,3.77,3.77,0,0,0,1.65-1.09,4.54,4.54,0,0,0,.92-1.82,10.69,10.69,0,0,0,.3-2.65L117.72,61a10.69,10.69,0,0,1-.3,2.65,4.54,4.54,0,0,1-.92,1.82,3.77,3.77,0,0,1-1.65,1.09A8.9,8.9,0,0,1,112.36,67Z" style="fill:none"/></clipPath><clipPath id="bs"><path d="M87.88,56.77a8.33,8.33,0,0,0,.93-1l5.35,6.62,1.4,1.73,1.37,1.7,1.33,1.64L99.51,69a8.33,8.33,0,0,1-.93,1h0q-5.34-6.63-10.7-13.24Z" style="fill:none"/></clipPath><clipPath id="bt"><path d="M88.81,55.73A9.2,9.2,0,0,0,90,53.55l1.25,1.55,1.33,1.64L94,58.44l1.4,1.73,1.4,1.74,1.37,1.7,1.33,1.64,1.24,1.54A9.2,9.2,0,0,1,99.51,69Z" style="fill:none"/></clipPath><clipPath id="bu"><path d="M84.56,58.81a9.68,9.68,0,0,0,3.32-2Q93.24,63.39,98.58,70a9.68,9.68,0,0,1-3.32,2,13.8,13.8,0,0,1-2.83.72L81.73,59.53A13.8,13.8,0,0,0,84.56,58.81Z" style="fill:none"/></clipPath><clipPath id="bv"><path d="M112.15,42.25a9.72,9.72,0,0,0-1.84-6.35L121,49.14a9.72,9.72,0,0,1,1.83,6.35Z" style="fill:none"/></clipPath><clipPath id="bw"><path d="M81.73,59.53l10.7,13.24a14.59,14.59,0,0,1-1.51.14h-.08L80.14,59.68h.08A14.59,14.59,0,0,0,81.73,59.53Z" style="fill:none"/></clipPath><clipPath id="bx"><path d="M105.81,38.59l10.7,13.24.09.11a7.92,7.92,0,0,1,1.15,4.71l-10.7-13.24a7.92,7.92,0,0,0-1.15-4.71Z" style="fill:none"/></clipPath><clipPath id="by"><path d="M110.31,35.9,121,49.14a7.09,7.09,0,0,0-.76-.79l-10.7-13.24A6.21,6.21,0,0,1,110.31,35.9Z" style="fill:none"/></clipPath><clipPath id="bz"><path d="M90,53.55a11.7,11.7,0,0,0,.79-4.34l10.7,13.24a11.7,11.7,0,0,1-.79,4.34Z" style="fill:none"/></clipPath><clipPath id="ca"><path d="M101.78,37.25c1.88-.1,3.23.35,4,1.34l10.7,13.24c-.8-1-2.15-1.44-4-1.34Z" style="fill:none"/></clipPath><clipPath id="cb"><path d="M80.14,59.68l10.7,13.24a13.49,13.49,0,0,1-4.23-.41,8.58,8.58,0,0,1-3.29-1.7Q78,64.18,72.62,57.57a8.58,8.58,0,0,0,3.29,1.7A13.49,13.49,0,0,0,80.14,59.68Z" style="fill:none"/></clipPath><clipPath id="cc"><path d="M112.83,46.26,102.13,33c3.21-.17,5.68.53,7.43,2.09l10.7,13.24C118.51,46.79,116,46.09,112.83,46.26Z" style="fill:none"/></clipPath><clipPath id="cd"><path d="M86.68,67.25,76,54l.22.24a5,5,0,0,0,4,1.27,5.6,5.6,0,0,0,4-1.69q1.41-1.56,1.44-4.95l10.7,13.24q0,3.39-1.44,4.95a5.6,5.6,0,0,1-4,1.69,5,5,0,0,1-4-1.27Z" style="fill:none"/></clipPath><clipPath id="ce"><path d="M71.8,56.73a7.22,7.22,0,0,0,.82.84l1.25,1.54,1.33,1.64,1.37,1.71L78,64.19l1.4,1.73,1.38,1.7,1.32,1.64,1.25,1.55A8.13,8.13,0,0,1,82.5,70Z" style="fill:none"/></clipPath><clipPath id="cf"><path d="M71.73,56.65l.07.08L82.5,70l-.07-.08Z" style="fill:none"/></clipPath><clipPath id="cg"><path d="M74.83,49.45q5.36,6.61,10.7,13.24a7.19,7.19,0,0,0,1.15,4.56L76,54A7.19,7.19,0,0,1,74.83,49.45Z" style="fill:none"/></clipPath><clipPath id="ch"><path d="M90.13,38.48a8,8,0,0,0-1.21-2.08l10.7,13.24a8,8,0,0,1,1.21,2.08,11.07,11.07,0,0,1,.73,4.3L90.86,42.78A11.26,11.26,0,0,0,90.13,38.48Z" style="fill:none"/></clipPath><clipPath id="ci"><path d="M84.62,39.17l10.7,13.24A7.14,7.14,0,0,1,96.46,57L85.76,43.74A7.14,7.14,0,0,0,84.62,39.17Z" style="fill:none"/></clipPath><clipPath id="cj"><path d="M82.43,69.89,71.73,56.65a8,8,0,0,1-1.19-2.08,11.13,11.13,0,0,1-.7-4.26l10.7,13.24a11.13,11.13,0,0,0,.7,4.26A8,8,0,0,0,82.43,69.89Z" style="fill:none"/></clipPath><clipPath id="ck"><path d="M84.38,38.9a2.91,2.91,0,0,1,.24.27l10.7,13.24a2.91,2.91,0,0,0-.24-.27L84.38,38.91l10.7,13.23a5,5,0,0,0-4-1.28L80.38,37.62A5,5,0,0,1,84.38,38.9Z" style="fill:none"/></clipPath><clipPath id="cl"><path d="M87,52.57l-8.12-10,8.12,10Z" style="fill:none"/></clipPath><clipPath id="cm"><path d="M76.31,39.33a5.7,5.7,0,0,1,4.07-1.71l10.7,13.24A5.7,5.7,0,0,0,87,52.57L76.31,39.33l.31.38.31.38.31.39.32.4.33.4.33.41.33.41.34.42,8.12,10c-1,1-1.42,2.7-1.44,5L74.87,44.32C74.89,42,75.36,40.37,76.31,39.33Z" style="fill:none"/></clipPath><clipPath id="cn"><path d="M66.93,45.74A6,6,0,0,0,67.57,44l1.25,1.55,1.32,1.64,1.38,1.7,1.4,1.74,5.35,6.61A6,6,0,0,1,77.63,59a6.46,6.46,0,0,1-1.26,1.62,9.42,9.42,0,0,1-2,1.43L63.64,48.79a9.42,9.42,0,0,0,2-1.43A6.46,6.46,0,0,0,66.93,45.74Z" style="fill:none"/></clipPath><clipPath id="co"><path d="M67.57,44l10.7,13.24v0h0L67.57,44h0Z" style="fill:none"/></clipPath><clipPath id="cp"><path d="M88.92,36.4l10.7,13.24a7,7,0,0,0-.88-.92A8.18,8.18,0,0,0,95.44,47a13.6,13.6,0,0,0-4.33-.42,14.34,14.34,0,0,0-4.32.87,9.57,9.57,0,0,0-3.31,2.06,8.85,8.85,0,0,0-2.13,3.22,12.06,12.06,0,0,0-.77,4.38L69.88,43.88a12.06,12.06,0,0,1,.77-4.38,8.83,8.83,0,0,1,2.12-3.22,9.61,9.61,0,0,1,3.32-2.06,14.28,14.28,0,0,1,4.32-.87,13.6,13.6,0,0,1,4.33.42A8.18,8.18,0,0,1,88,35.48,7.66,7.66,0,0,1,88.92,36.4Z" style="fill:none"/></clipPath><clipPath id="cq"><path d="M68.74,59.59,58,46.35a11.22,11.22,0,0,0,1.85-.24,4.08,4.08,0,0,0,1.46-.6,2.93,2.93,0,0,0,1-1.1L73,57.65a2.93,2.93,0,0,1-1,1.1,4.08,4.08,0,0,1-1.46.6A11.22,11.22,0,0,1,68.74,59.59Z" style="fill:none"/></clipPath><clipPath id="cr"><path d="M67.38,39.74a5.78,5.78,0,0,0-1.08-2.05L77,50.93a5.78,5.78,0,0,1,1.08,2,8.31,8.31,0,0,1,.38,2.45,9.82,9.82,0,0,1-.19,1.8L67.57,44a9.82,9.82,0,0,0,.19-1.8A8.31,8.31,0,0,0,67.38,39.74Z" style="fill:none"/></clipPath><clipPath id="cs"><path d="M62.08,40.6l10.7,13.24a2.65,2.65,0,0,1,.26.39,3.65,3.65,0,0,1,.33,1.69A3.93,3.93,0,0,1,73,57.65L62.31,44.41a3.93,3.93,0,0,0,.36-1.73A3.65,3.65,0,0,0,62.34,41,2.65,2.65,0,0,0,62.08,40.6Z" style="fill:none"/></clipPath><clipPath id="ct"><path d="M61.38,40a2.5,2.5,0,0,1,.7.59l10.7,13.24a2.46,2.46,0,0,0-.69-.59Z" style="fill:none"/></clipPath><clipPath id="cu"><path d="M60.68,39.73a3.41,3.41,0,0,1,.7.28L72.09,53.25a3.75,3.75,0,0,0-.71-.28Z" style="fill:none"/></clipPath><clipPath id="cv"><path d="M60.68,39.73a3.56,3.56,0,0,1,.59.73l.62.77.33.4.65.81.33.41.66.82.65.8.63.77.59.73.66.82.7.86.72.9.74.92.74.92.73.89.7.87.66.82a4.21,4.21,0,0,0-.74-.15c-.25,0-.5,0-.77,0L59.17,39.53c.27,0,.52,0,.77,0A4.21,4.21,0,0,1,60.68,39.73Z" style="fill:none"/></clipPath><clipPath id="cw"><path d="M59.17,39.53l.55.67.58.72,1.21,1.5.61.76.6.74.58.72.55.67.7.87.75.93.77,1,.79,1,.79,1,.77.95.75.93.7.87c-.34,0-.7,0-1.08,0L58.09,39.54C58.47,39.52,58.83,39.52,59.17,39.53Z" style="fill:none"/></clipPath><clipPath id="cx"><path d="M46.44,47.43l.1.11.1.13.1.12.1.13.11.13.1.13.1.12.09.11,4.95,6.13,1.3,1.61,1.27,1.57L56,59.24l1.15,1.43a9.13,9.13,0,0,1-1.38,2.59,8.8,8.8,0,0,1-2.59,2.22,6.67,6.67,0,0,1-.93.45L49.39,62.4q-3.93-4.86-7.85-9.71a6.67,6.67,0,0,0,.93-.45A8.8,8.8,0,0,0,45.06,50,9.13,9.13,0,0,0,46.44,47.43Z" style="fill:none"/></clipPath><clipPath id="cy"><path d="M46.44,47.43l.08-.23,10.7,13.24-.08.23Q51.8,54,46.44,47.43Z" style="fill:none"/></clipPath><clipPath id="cz"><path d="M41.54,52.69l6.33,7.83,1,1.25.51.63.5.62,1.45,1.79.9,1.12a9.51,9.51,0,0,1-2.91.59L38.63,53.28A9.57,9.57,0,0,0,41.54,52.69Z" style="fill:none"/></clipPath><clipPath id="da"><path d="M66.29,37.68,77,50.92c-.08-.08-.15-.17-.23-.26A6.63,6.63,0,0,0,74.32,49a8.49,8.49,0,0,0-3.77-.52L59.85,35.24a8.49,8.49,0,0,1,3.77.52,6.63,6.63,0,0,1,2.45,1.66Z" style="fill:none"/></clipPath><clipPath id="db"><path d="M47.84,62.42,37.14,49.18a5.48,5.48,0,0,0,3.5-1.25l10.7,13.24A5.48,5.48,0,0,1,47.84,62.42Z" style="fill:none"/></clipPath><clipPath id="dc"><path d="M46.56,41.63A8,8,0,0,0,45.13,39l10.7,13.24a8,8,0,0,1,1.43,2.68,9.63,9.63,0,0,1,.43,2.76,10.32,10.32,0,0,1-.47,2.81L46.52,47.2A10.32,10.32,0,0,0,47,44.39,9.63,9.63,0,0,0,46.56,41.63Z" style="fill:none"/></clipPath><clipPath id="dd"><path d="M41.11,42,51.81,55.2a4.1,4.1,0,0,1,.79,2.7,4.25,4.25,0,0,1-1.26,3.27L40.64,47.93a4.25,4.25,0,0,0,1.26-3.27A4.1,4.1,0,0,0,41.11,42Z" style="fill:none"/></clipPath><clipPath id="de"><path d="M40.69,41.53a3.41,3.41,0,0,1,.42.43L51.81,55.2a3.41,3.41,0,0,0-.42-.43L40.69,41.54l10.7,13.23a4.93,4.93,0,0,0-3.48-.9L37.21,40.63A4.93,4.93,0,0,1,40.69,41.53Z" style="fill:none"/></clipPath><clipPath id="df"><path d="M49.43,49.58,38.73,36.34a7.81,7.81,0,0,1,3.84.64,7.28,7.28,0,0,1,2.56,2l10.7,13.24a7.28,7.28,0,0,0-2.56-2A7.81,7.81,0,0,0,49.43,49.58Z" style="fill:none"/></clipPath><clipPath id="dg"><path d="M10.91,17.93A16.48,16.48,0,0,1,17,16.39L27.7,29.63a16.53,16.53,0,0,0-6.09,1.54Q16.27,24.54,10.91,17.93Z" style="fill:none"/></clipPath></defs><g style="isolation:isolate"><g style="clip-path:url(#a)"><path d="M321.21,85.49l-10.7-13.24c.53,0,1.05-.08,1.56-.16l10.7,13.24c-.51.08-1,.13-1.56.16" style="fill:#111"/><path d="M322.77,85.33l-10.7-13.24a15.33,15.33,0,0,0,1.95-.42l10.7,13.24a15.33,15.33,0,0,1-2,.42" style="fill:#111"/><path d="M324.72,84.91,314,71.67a16.72,16.72,0,0,0,1.73-.58l10.7,13.24a16.72,16.72,0,0,1-1.73.58" style="fill:#101010"/><path d="M326.45,84.33l-10.7-13.24a15.77,15.77,0,0,0,1.61-.76l10.7,13.24a15.77,15.77,0,0,1-1.61.76" style="fill:#101010"/><path d="M328.06,83.57l-10.7-13.24a14.07,14.07,0,0,0,1.58-1l10.7,13.24a14.07,14.07,0,0,1-1.58.95" style="fill:#0f0f0f"/><path d="M329.64,82.62l-10.7-13.24a17.41,17.41,0,0,0,1.6-1.23l10.7,13.24a17.41,17.41,0,0,1-1.6,1.23" style="fill:#0f0f0f"/><path d="M331.24,81.39l-10.7-13.24a16.71,16.71,0,0,0,1.73-1.74L333,79.65a16.71,16.71,0,0,1-1.73,1.74" style="fill:#0e0e0e"/><path d="M333,79.65l-10.7-13.24a16.1,16.1,0,0,0,4-10.39L337,69.26a16.1,16.1,0,0,1-4,10.39" style="fill:#0e0e0e"/></g></g><polygon points="304.56 61.22 293.86 47.98 298.46 47.74 309.16 60.98 304.56 61.22" style="fill:#b3b3b3"/><polygon points="336.95 69.26 326.25 56.02 326.54 15.57 337.24 28.82 336.95 69.26" style="fill:#0d0d0d"/><polygon points="290.47 61.96 279.77 48.72 284.86 48.45 295.56 61.69 290.47 61.96" style="fill:#b3b3b3"/><g style="isolation:isolate"><g style="clip-path:url(#b)"><path d="M337.24,28.82l-10.7-13.24a14.32,14.32,0,0,0-3.18-9.22l10.7,13.24a14.32,14.32,0,0,1,3.18,9.22" style="fill:#0e0e0e"/></g></g><g style="isolation:isolate"><g style="clip-path:url(#c)"><path d="M331.87,17.41,321.17,4.17a14.56,14.56,0,0,1,1.71,1.62L333.58,19a14.56,14.56,0,0,0-1.71-1.62" style="fill:#a8a8a8"/><path d="M333.58,19,322.88,5.79a6.57,6.57,0,0,1,.48.57l10.7,13.24a6.57,6.57,0,0,0-.48-.57" style="fill:#a3a3a3"/></g></g><g style="isolation:isolate"><g style="clip-path:url(#d)"><path d="M331.87,17.41,321.17,4.17a14.56,14.56,0,0,1,1.71,1.62L333.58,19a14.56,14.56,0,0,0-1.71-1.62" style="fill:#a8a8a8"/></g></g><polygon points="309.16 60.98 298.46 47.74 298.64 22.72 309.34 35.96 309.16 60.98" style="fill:gray"/><polygon points="304.56 61.22 293.86 47.98 284.98 32.57 295.68 45.81 304.56 61.22"/><polygon points="295.56 61.69 284.86 48.45 284.98 32.57 295.68 45.81 295.56 61.69" style="fill:gray"/><polygon points="304.44 36.22 293.74 22.98 298.64 22.72 309.34 35.96 304.44 36.22"/><polygon points="304.32 52.14 293.62 38.9 293.74 22.98 304.44 36.22 304.32 52.14"/><polygon points="290.47 61.96 279.77 48.72 279.95 23.7 290.65 36.94 290.47 61.96"/><g style="isolation:isolate"><g style="clip-path:url(#e)"><path d="M269.33,60.21,258.63,47l.23.27,10.7,13.24-.23-.27" style="fill:#a3a3a3"/><path d="M269.56,60.48l-10.7-13.24a7.13,7.13,0,0,0,.55.55l.3.25,10.71,13.24-.31-.25a7.13,7.13,0,0,1-.55-.55" style="fill:#a8a8a8"/><path d="M270.42,61.28,259.71,48a9.66,9.66,0,0,0,6.19,1.88l10.7,13.24a9.61,9.61,0,0,1-6.18-1.88" style="fill:#adadad"/><path d="M276.6,63.16,265.9,49.92l.93,0c.56,0,1.1-.08,1.62-.16L279.15,63c-.52.08-1.06.13-1.62.16l-.93,0" style="fill:#a8a8a8"/><path d="M279.15,63l-10.7-13.24a14.24,14.24,0,0,0,1.68-.36l10.7,13.24a14.24,14.24,0,0,1-1.68.36" style="fill:#a3a3a3"/><path d="M280.83,62.61l-10.7-13.24c.21-.06.43-.12.64-.2s.4-.14.59-.21l10.7,13.24c-.19.07-.39.15-.59.21s-.42.14-.64.2" style="fill:#9e9e9e"/><path d="M282.06,62.2,271.36,49a9,9,0,0,0,.94-.44L283,61.76a9,9,0,0,1-.94.44" style="fill:#999"/><path d="M283,61.76,272.3,48.52a8.7,8.7,0,0,0,.83-.5l10.7,13.24a7.61,7.61,0,0,1-.83.5" style="fill:#949494"/><path d="M283.83,61.26,273.13,48c.24-.16.47-.34.69-.52l.07-.06,10.7,13.24-.07.06c-.22.18-.45.36-.69.52" style="fill:#8f8f8f"/><path d="M284.59,60.68l-10.7-13.24a7.08,7.08,0,0,0,.72-.73L285.31,60a7.08,7.08,0,0,1-.72.73" style="fill:#8a8a8a"/><path d="M285.31,60l-10.7-13.24a8,8,0,0,0,1.18-1.85,9.09,9.09,0,0,0,.71-3.62l10.7,13.24a9.09,9.09,0,0,1-.71,3.62A8,8,0,0,1,285.31,60" style="fill:#858585"/></g></g><polygon points="282.43 54.15 271.73 40.91 271.74 39.2 282.44 52.45 282.43 54.15"/><polygon points="287.2 54.48 276.5 41.24 276.54 34.86 287.24 48.1 287.2 54.48" style="fill:gray"/><g style="isolation:isolate"><g style="clip-path:url(#f)"><path d="M322.62,14.2,311.92,1a14.9,14.9,0,0,1,9.25,3.21l10.7,13.24a14.9,14.9,0,0,0-9.25-3.21" style="fill:#adadad"/><path d="M331.87,17.41,321.17,4.17a14.56,14.56,0,0,1,1.71,1.62L333.58,19a14.56,14.56,0,0,0-1.71-1.62" style="fill:#a8a8a8"/></g></g><g style="isolation:isolate"><g style="clip-path:url(#g)"><path d="M273.77,57.61l-10.7-13.24.14.15,10.7,13.24-.14-.15"/><path d="M273.91,57.76l-10.7-13.24a2.49,2.49,0,0,0,.44.42l10.7,13.24a2.49,2.49,0,0,1-.44-.42"/><path d="M274.35,58.18l-10.7-13.24a4.37,4.37,0,0,0,2.81.87l10.7,13.24a4.37,4.37,0,0,1-2.81-.87"/><path d="M277.16,59.05l-10.7-13.24h.4a4.6,4.6,0,0,0,.66-.07L278.23,59a4.9,4.9,0,0,1-.67.07h-.4"/><path d="M278.23,59,267.52,45.73a4.18,4.18,0,0,0,.72-.15l10.7,13.24a4.27,4.27,0,0,1-.71.15"/><path d="M278.94,58.82l-10.7-13.24a4.76,4.76,0,0,0,.57-.19l10.7,13.24a4.76,4.76,0,0,1-.57.19"/><path d="M279.51,58.63l-10.7-13.24.5-.23L280,58.4c-.16.08-.32.16-.5.23"/><path d="M280,58.4l-10.7-13.24c.17-.09.32-.19.48-.29l10.7,13.24c-.16.1-.31.2-.48.29"/><path d="M280.49,58.11l-10.7-13.24a4,4,0,0,0,.47-.37L281,57.74a4,4,0,0,1-.47.37"/><path d="M281,57.74,270.26,44.5l.06,0a3.06,3.06,0,0,0,.36-.36l10.7,13.24a3.06,3.06,0,0,1-.36.36l-.06.05"/><path d="M281.38,57.33l-10.7-13.24a4.76,4.76,0,0,0,1.05-3.18l10.7,13.24a4.76,4.76,0,0,1-1.05,3.18"/></g></g><polygon points="277.92 52.68 267.22 39.44 271.74 39.2 282.44 52.45 277.92 52.68" style="fill:#b3b3b3"/><polygon points="304.32 52.14 293.62 38.9 284.67 23.45 295.37 36.69 304.32 52.14" style="fill:gray"/><g style="isolation:isolate"><g style="clip-path:url(#h)"><path d="M321.72,14.23,311,1l.9,0,10.7,13.24-.9,0" style="fill:#a8a8a8"/><path d="M322.62,14.2,311.92,1a14.9,14.9,0,0,1,9.25,3.21l10.7,13.24a14.9,14.9,0,0,0-9.25-3.21" style="fill:#adadad"/></g></g><polygon points="265.85 63.25 255.15 50.01 255.18 46.05 265.88 59.29 265.85 63.25" style="fill:gray"/><polygon points="277.95 48.59 267.25 35.35 276.54 34.86 287.24 48.1 277.95 48.59"/><polygon points="277.92 52.68 267.22 39.44 267.25 35.35 277.95 48.59 277.92 52.68"/><g style="isolation:isolate"><g style="clip-path:url(#i)"><path d="M273.77,57.61l-10.7-13.24a7.86,7.86,0,0,1-1.28-5l10.7,13.24a7.86,7.86,0,0,0,1.28,5" style="fill:#858585"/></g></g><polygon points="282.19 44.63 271.49 31.39 276.51 31.12 287.21 44.36 282.19 44.63" style="fill:#b3b3b3"/><polygon points="263.58 59.41 252.88 46.17 255.18 46.05 265.88 59.29 263.58 59.41"/><polygon points="309.34 35.96 309.16 60.98 304.56 61.22 295.68 45.81 295.56 61.69 290.47 61.96 290.65 36.94 295.37 36.69 304.32 52.14 304.44 36.22 309.34 35.96"/><polygon points="290.65 36.94 279.95 23.7 284.67 23.45 295.37 36.69 290.65 36.94"/><polygon points="256.34 63.75 245.64 50.51 255.15 50.01 265.85 63.25 256.34 63.75" style="fill:#b3b3b3"/><g style="isolation:isolate"><g style="clip-path:url(#j)"><path d="M287.21,44.36l-10.7-13.24a8.28,8.28,0,0,0-1.68-4.82l10.7,13.24a8.28,8.28,0,0,1,1.68,4.82" style="fill:#858585"/></g></g><g style="isolation:isolate"><g style="clip-path:url(#k)"><path d="M269.33,60.21,258.63,47a9.85,9.85,0,0,1-1.84-6.45l10.7,13.24a9.85,9.85,0,0,0,1.84,6.45"/></g></g><g style="isolation:isolate"><g style="clip-path:url(#l)"><path d="M282.19,44.63l-10.7-13.24a5.24,5.24,0,0,0-1-2.5l10.71,13.24a5.34,5.34,0,0,1,1,2.5"/></g></g><polygon points="272.49 52.57 261.79 39.33 261.82 34.8 272.52 48.04 272.49 52.57" style="fill:gray"/><polygon points="256.37 59.79 245.67 46.55 247.89 46.43 258.59 59.67 256.37 59.79"/><polygon points="256.34 63.75 245.64 50.51 245.67 46.55 256.37 59.79 256.34 63.75"/><g style="isolation:isolate"><g style="clip-path:url(#m)"><path d="M272.52,48,261.82,34.8a8.76,8.76,0,0,1,1.31-5.19l.21-.25L274,42.6l-.21.25A8.76,8.76,0,0,0,272.52,48" style="fill:#858585"/></g></g><g style="isolation:isolate"><g style="clip-path:url(#n)"><path d="M272.52,48,261.82,34.8a8.76,8.76,0,0,1,1.31-5.19l.21-.25L274,42.6l-.21.25A8.76,8.76,0,0,0,272.52,48" style="fill:#858585"/><path d="M274,42.6l-10.7-13.24a3.49,3.49,0,0,1,.43-.43l10.7,13.24a3.49,3.49,0,0,0-.43.43" style="fill:#8a8a8a"/><path d="M274.47,42.17l-10.7-13.24a2.88,2.88,0,0,1,.39-.3l10.7,13.24a2.88,2.88,0,0,0-.39.3" style="fill:#8f8f8f"/><path d="M274.86,41.87l-10.7-13.24.4-.25,10.7,13.24-.4.25" style="fill:#949494"/><path d="M275.26,41.62l-10.7-13.24.45-.21,10.7,13.24-.45.21" style="fill:#999"/><path d="M275.71,41.41,265,28.17a5.05,5.05,0,0,1,.55-.18l10.7,13.24a5.05,5.05,0,0,0-.55.18" style="fill:#9e9e9e"/><path d="M276.26,41.23,265.56,28a6.08,6.08,0,0,1,.74-.16L277,41.07a6.08,6.08,0,0,0-.74.16" style="fill:#a3a3a3"/><path d="M277,41.07,266.3,27.83a6,6,0,0,1,.75-.07l.47,0L278.22,41l-.47,0a6,6,0,0,0-.75.07" style="fill:#a8a8a8"/><path d="M278.22,41l-10.7-13.24a4.09,4.09,0,0,1,2.56.71l10.7,13.24a4.09,4.09,0,0,0-2.56-.71" style="fill:#adadad"/><path d="M280.78,41.69l-10.7-13.24.06.05a2.37,2.37,0,0,1,.28.27L281.12,42a2.37,2.37,0,0,0-.28-.27l-.06-.05" style="fill:#a8a8a8"/><path d="M281.12,42l-10.7-13.24.09.12,10.71,13.24-.1-.12" style="fill:#a3a3a3"/></g></g><polygon points="267.49 53.76 256.79 40.52 256.84 34.08 267.54 47.32 267.49 53.76"/><g style="isolation:isolate"><g style="clip-path:url(#o)"><path d="M277.78,36.81l-10.7-13.24c.31,0,.61,0,.91,0l10.7,13.24c-.3,0-.6,0-.91,0"/><path d="M278.69,36.79,268,23.55a9.08,9.08,0,0,1,5.8,1.72l10.7,13.24a9.08,9.08,0,0,0-5.8-1.72"/><path d="M284.49,38.51l-10.7-13.24.08.07a6,6,0,0,1,.73.7l10.7,13.24a6,6,0,0,0-.73-.7l-.08-.07"/><path d="M285.3,39.28,274.6,26c.08.08.15.17.23.26l10.7,13.24c-.08-.09-.15-.18-.23-.26"/></g></g><g style="isolation:isolate"><g style="clip-path:url(#p)"><path d="M267.54,47.32l-10.7-13.24a12.91,12.91,0,0,1,.71-4.37A9.19,9.19,0,0,1,259.16,27l10.7,13.24A9.19,9.19,0,0,0,268.25,43a12.91,12.91,0,0,0-.71,4.37"/><path d="M269.86,40.19,259.16,27c.14-.16.28-.31.43-.46l.43-.4,10.7,13.24-.43.4c-.15.15-.29.3-.43.46"/><path d="M270.72,39.33,260,26.09a9.77,9.77,0,0,1,.81-.63l10.7,13.24a9.77,9.77,0,0,0-.81.63"/><path d="M271.53,38.7l-10.7-13.24a9.52,9.52,0,0,1,.87-.52l10.7,13.24a9.52,9.52,0,0,0-.87.52"/><path d="M272.4,38.18,261.7,24.94a10.2,10.2,0,0,1,1-.47l10.7,13.24c-.34.14-.68.3-1,.47"/><path d="M273.4,37.71,262.7,24.47l.1,0c.36-.13.72-.26,1.1-.36l10.7,13.24c-.38.1-.74.23-1.1.36l-.1,0"/><path d="M274.6,37.31,263.9,24.07a13.49,13.49,0,0,1,1.61-.34L276.21,37a13.49,13.49,0,0,0-1.61.34"/><path d="M276.21,37l-10.7-13.24a15.74,15.74,0,0,1,1.57-.16l10.7,13.24a15.74,15.74,0,0,0-1.57.16"/></g></g><polygon points="263.58 59.41 252.88 46.17 253.01 29.08 263.71 42.32 263.58 59.41" style="fill:gray"/><polygon points="258.59 59.67 247.89 46.43 248.01 29.34 258.71 42.58 258.59 59.67"/><g style="isolation:isolate"><g style="clip-path:url(#q)"><path d="M254.11,60.3l-10.7-13.24a8.06,8.06,0,0,0,.8-3.68,6.53,6.53,0,0,0-.54-2.83,5.71,5.71,0,0,0-.72-1.13l10.7,13.24a5.71,5.71,0,0,1,.72,1.13,6.53,6.53,0,0,1,.54,2.83,8.06,8.06,0,0,1-.8,3.68" style="fill:#858585"/></g></g><path d="M277.78,36.81q4.37-.23,6.79,1.77a7.67,7.67,0,0,1,2.64,5.78l-5,.27a4.67,4.67,0,0,0-1.35-2.89,4.29,4.29,0,0,0-3.09-.74,4.9,4.9,0,0,0-3.92,1.85A8.76,8.76,0,0,0,272.52,48l0,4.53q0,6.75,5.07,6.47A5.43,5.43,0,0,0,281,57.69a4.55,4.55,0,0,0,1.41-3.54V52.44l-4.52.24,0-4.09,9.29-.49,0,6.38a9.09,9.09,0,0,1-.71,3.62,7.53,7.53,0,0,1-2,2.64,9.23,9.23,0,0,1-3,1.67,14.38,14.38,0,0,1-3.94.72c-3.18.17-5.66-.53-7.42-2.1s-2.64-4-2.62-7.27l.05-6.44a12.91,12.91,0,0,1,.71-4.37,8.83,8.83,0,0,1,2-3.22,9.14,9.14,0,0,1,3.21-2.06A13.67,13.67,0,0,1,277.78,36.81Z"/><g style="isolation:isolate"><g style="clip-path:url(#r)"><path d="M254.11,60.3l-10.7-13.24a8.06,8.06,0,0,0,.8-3.68,6.53,6.53,0,0,0-.54-2.83,5.71,5.71,0,0,0-.72-1.13l10.7,13.24a5.71,5.71,0,0,1,.72,1.13,6.53,6.53,0,0,1,.54,2.83,8.06,8.06,0,0,1-.8,3.68" style="fill:#858585"/></g></g><g style="isolation:isolate"><g style="clip-path:url(#s)"><path d="M237.48,62.27,226.78,49a6.56,6.56,0,0,0,.77.72h0L238.26,63h0a6.56,6.56,0,0,1-.77-.72" style="fill:#a8a8a8"/><path d="M238.26,63l-10.7-13.24a7.7,7.7,0,0,0,2.93,1.42,13.6,13.6,0,0,0,3.31.39l10.7,13.24a13.6,13.6,0,0,1-3.31-.39A7.7,7.7,0,0,1,238.26,63" style="fill:#adadad"/><path d="M244.5,64.81,233.8,51.57h.51l.59,0c.54,0,1.08-.08,1.6-.16l10.7,13.24c-.52.08-1.06.13-1.6.16l-.59,0h-.51" style="fill:#a8a8a8"/><path d="M247.2,64.62,236.5,51.38a14.09,14.09,0,0,0,1.62-.34l.1,0,10.7,13.24-.1,0a14.09,14.09,0,0,1-1.62.34" style="fill:#a3a3a3"/><path d="M248.92,64.25,238.22,51a9.79,9.79,0,0,0,1.12-.37L250,63.88a9.79,9.79,0,0,1-1.12.37" style="fill:#9e9e9e"/><path d="M250,63.88l-10.7-13.24c.32-.13.63-.28.92-.43L251,63.45c-.29.15-.6.3-.92.43" style="fill:#999"/><path d="M251,63.45l-10.7-13.24a7.67,7.67,0,0,0,.83-.51l10.7,13.24a7.67,7.67,0,0,1-.83.51" style="fill:#949494"/><path d="M251.79,62.94,241.09,49.7l.19-.12q.24-.18.48-.39l10.7,13.24q-.24.21-.48.39l-.19.12" style="fill:#8f8f8f"/><path d="M252.46,62.43l-10.7-13.24a5.62,5.62,0,0,0,.69-.69l10.7,13.24a5.62,5.62,0,0,1-.69.69" style="fill:#8a8a8a"/><path d="M253.15,61.74,242.45,48.5a7.22,7.22,0,0,0,1-1.44l10.7,13.24a7.22,7.22,0,0,1-1,1.44" style="fill:#858585"/></g></g><g style="isolation:isolate"><g style="clip-path:url(#t)"><path d="M249.82,56.85l-10.7-13.24a2.43,2.43,0,0,0-.49-1.55l0,0,10.7,13.24,0,0a2.43,2.43,0,0,1,.49,1.55"/></g></g><polygon points="263.71 42.32 253.01 29.08 255.3 28.96 266 42.2 263.71 42.32" style="fill:#b3b3b3"/><g style="isolation:isolate"><g style="clip-path:url(#u)"><path d="M241.37,59.18l-10.7-13.24.11.13,10.7,13.24-.11-.13"/><path d="M241.48,59.31l-10.7-13.24c.11.12.22.22.33.32l.09.07L241.9,59.7l-.09-.07c-.11-.1-.22-.2-.33-.32"/><path d="M241.9,59.7,231.2,46.46a4.63,4.63,0,0,0,2.94.93l10.7,13.24a4.63,4.63,0,0,1-2.94-.93"/><path d="M244.84,60.63l-10.7-13.24h.47c.4,0,.78-.06,1.13-.11l10.7,13.24c-.35,0-.73.09-1.13.11h-.47"/><path d="M246.44,60.5l-10.7-13.24a7.85,7.85,0,0,0,.92-.19l10.7,13.24a7.45,7.45,0,0,1-.92.19"/><path d="M247.36,60.31l-10.7-13.24a4.77,4.77,0,0,0,.57-.2l10.7,13.24a4.77,4.77,0,0,1-.57.2"/><path d="M247.93,60.11l-10.7-13.24a4.08,4.08,0,0,0,.42-.19l10.7,13.24a4.08,4.08,0,0,1-.42.19"/><path d="M248.35,59.92l-10.7-13.24.33-.2,10.7,13.24-.33.2"/><path d="M248.68,59.72,238,46.48h0l.23-.18,10.7,13.24-.23.18h0"/><path d="M248.93,59.53l-10.7-13.24a1.67,1.67,0,0,0,.23-.23l10.7,13.24a1.67,1.67,0,0,1-.23.23"/><path d="M249.16,59.3l-10.7-13.24a3.46,3.46,0,0,0,.66-2.45l10.7,13.24a3.46,3.46,0,0,1-.66,2.45"/></g></g><g style="isolation:isolate"><g style="clip-path:url(#v)"><path d="M237.27,62,226.56,48.77l.22.26,10.7,13.24-.21-.26" style="fill:#a3a3a3"/><path d="M237.48,62.27,226.78,49a6.56,6.56,0,0,0,.77.72h0L238.26,63h0a6.56,6.56,0,0,1-.77-.72" style="fill:#a8a8a8"/></g></g><polygon points="266 42.2 255.3 28.96 255.33 24.99 266.03 38.23 266 42.2" style="fill:gray"/><g style="isolation:isolate"><g style="clip-path:url(#w)"><path d="M241.37,59.18l-10.7-13.24a4.42,4.42,0,0,1-.87-2.74l10.7,13.24a4.42,4.42,0,0,0,.87,2.74" style="fill:#858585"/></g></g><g style="isolation:isolate"><g style="clip-path:url(#x)"><path d="M244.1,53.13,233.4,39.89l2.17.53a8.47,8.47,0,0,1,1.81.65,3.67,3.67,0,0,1,.72.45l10.7,13.24a3.67,3.67,0,0,0-.72-.45,8.47,8.47,0,0,0-1.81-.65l-2.17-.53" style="fill:#adadad"/><path d="M248.8,54.76,238.1,41.52a3.59,3.59,0,0,1,.4.38l10.7,13.24a3.59,3.59,0,0,0-.4-.38" style="fill:#a8a8a8"/><path d="M249.2,55.14,238.5,41.9l.1.12,10.7,13.24-.1-.12" style="fill:#a3a3a3"/></g></g><polygon points="256.49 42.7 245.79 29.46 248.01 29.34 258.71 42.58 256.49 42.7" style="fill:#b3b3b3"/><polygon points="234.04 64.92 223.34 51.68 223.37 47.41 234.07 60.65 234.04 64.92" style="fill:gray"/><g style="isolation:isolate"><g style="clip-path:url(#y)"><path d="M247.34,49.42l-10.7-13.24a26,26,0,0,1,3.08,1,9.18,9.18,0,0,1,2.27,1.3l10.7,13.24a9.18,9.18,0,0,0-2.27-1.3,26,26,0,0,0-3.08-1"/><path d="M252.69,51.71,242,38.47l.12.1a5.37,5.37,0,0,1,.64.62l10.71,13.24a6.35,6.35,0,0,0-.65-.62l-.12-.1"/><path d="M253.46,52.43,242.75,39.19a2.2,2.2,0,0,1,.2.23l10.7,13.24-.19-.23"/></g></g><g style="isolation:isolate"><g style="clip-path:url(#z)"><path d="M238.38,50.92l-10.7-13.24a4.54,4.54,0,0,0,.5.36,9.94,9.94,0,0,0,2.51,1.15c.93.28,1.83.51,2.71.7l10.7,13.24c-.88-.19-1.78-.42-2.71-.7a9.94,9.94,0,0,1-2.51-1.15,4.54,4.54,0,0,1-.5-.36" style="fill:#adadad"/></g></g><polygon points="249.44 45.79 238.74 32.55 243.75 32.28 254.46 45.52 249.44 45.79" style="fill:#b3b3b3"/><g style="isolation:isolate"><g style="clip-path:url(#aa)"><path d="M237.27,62,226.56,48.77a7.11,7.11,0,0,1-.94-1.56,9.9,9.9,0,0,1-.78-3.75l10.7,13.24a9.9,9.9,0,0,0,.78,3.75,6.77,6.77,0,0,0,1,1.56"/></g></g><polygon points="235.54 56.7 224.84 43.46 229.8 43.2 240.5 56.44 235.54 56.7"/><polygon points="256.52 38.73 245.82 25.49 255.33 24.99 266.03 38.23 256.52 38.73"/><polygon points="256.49 42.7 245.79 29.46 245.82 25.49 256.52 38.73 256.49 42.7"/><g style="isolation:isolate"><g style="clip-path:url(#ab)"><path d="M238.38,50.92l-10.7-13.24a4.54,4.54,0,0,0,.5.36,9.94,9.94,0,0,0,2.51,1.15c.93.28,1.83.51,2.71.7l10.7,13.24c-.88-.19-1.78-.42-2.71-.7a9.94,9.94,0,0,1-2.51-1.15,4.54,4.54,0,0,1-.5-.36" style="fill:#adadad"/></g></g><g style="isolation:isolate"><g style="clip-path:url(#ac)"><path d="M254.46,45.53l-10.7-13.24a7.64,7.64,0,0,0-.69-3.06,6.24,6.24,0,0,0-.81-1.31L253,41.16a6.24,6.24,0,0,1,.81,1.31,7.64,7.64,0,0,1,.69,3.06" style="fill:#858585"/></g></g><g style="isolation:isolate"><g style="clip-path:url(#ad)"><path d="M249.44,45.79l-10.7-13.24a3.35,3.35,0,0,0-.64-1.94l10.7,13.24a3.35,3.35,0,0,1,.64,1.94"/></g></g><g style="isolation:isolate"><g style="clip-path:url(#ae)"><path d="M238.38,50.92l-10.7-13.24a4.54,4.54,0,0,0,.5.36,9.94,9.94,0,0,0,2.51,1.15c.93.28,1.83.51,2.71.7l10.7,13.24c-.88-.19-1.78-.42-2.71-.7a9.94,9.94,0,0,1-2.51-1.15,4.54,4.54,0,0,1-.5-.36" style="fill:#adadad"/></g></g><g style="isolation:isolate"><g style="clip-path:url(#af)"><path d="M245.7,42.77,235,29.53a5.09,5.09,0,0,1,2.55.59l.22.16,10.7,13.24-.22-.16a5.09,5.09,0,0,0-2.55-.59" style="fill:#adadad"/><path d="M248.47,43.52l-10.7-13.24a2,2,0,0,1,.26.25l10.7,13.24a2,2,0,0,0-.26-.25" style="fill:#a8a8a8"/><path d="M248.73,43.77,238,30.53a.27.27,0,0,1,.07.08l10.7,13.24a.27.27,0,0,0-.07-.08" style="fill:#a3a3a3"/></g></g><g style="isolation:isolate"><g style="clip-path:url(#ag)"><path d="M241.79,47.33l-10.7-13.24.06.07L241.86,47.4l-.07-.07"/><path d="M241.86,47.4,231.15,34.16a2.39,2.39,0,0,0,.23.22l0,0,10.7,13.24,0,0a1.21,1.21,0,0,1-.23-.22"/><path d="M242.12,47.65l-10.7-13.24a6,6,0,0,0,1.58.87,11.59,11.59,0,0,0,2,.55c.68.13,1.24.25,1.68.35l10.7,13.24c-.44-.1-1-.22-1.68-.35a11.59,11.59,0,0,1-2-.55,6,6,0,0,1-1.58-.87"/></g></g><g style="isolation:isolate"><g style="clip-path:url(#ah)"><path d="M237.42,50l-10.7-13.24.21.25,10.7,13.24-.21-.25" style="fill:#a3a3a3"/><path d="M237.63,50.22,226.93,37a7.14,7.14,0,0,0,.75.7l10.7,13.24a7.14,7.14,0,0,1-.75-.7" style="fill:#a8a8a8"/><path d="M238.38,50.92l-10.7-13.24a4.54,4.54,0,0,0,.5.36,9.94,9.94,0,0,0,2.51,1.15c.93.28,1.83.51,2.71.7l10.7,13.24c-.88-.19-1.78-.42-2.71-.7a9.94,9.94,0,0,1-2.51-1.15,4.54,4.54,0,0,1-.5-.36" style="fill:#adadad"/></g></g><polygon points="217.59 65.78 206.88 52.54 223.34 51.68 234.04 64.92 217.59 65.78" style="fill:#b3b3b3"/><polygon points="222.7 61.24 212 48 223.37 47.41 234.07 60.65 222.7 61.24"/><g style="isolation:isolate"><g style="clip-path:url(#ai)"><path d="M241.79,47.33l-10.7-13.24a1.85,1.85,0,0,1-.4-1.13,3.1,3.1,0,0,1,.65-2.2L242,44a3.1,3.1,0,0,0-.65,2.2,1.85,1.85,0,0,0,.4,1.13" style="fill:#858585"/></g></g><polygon points="232.48 54.57 221.78 41.33 221.81 37.06 232.51 50.3 232.48 54.57" style="fill:gray"/><g style="isolation:isolate"><g style="clip-path:url(#aj)"><path d="M245.24,38.51l-10.7-13.24.89,0,10.7,13.24-.89,0"/><path d="M246.13,38.49l-10.7-13.24a12,12,0,0,1,3,.35A7.9,7.9,0,0,1,241.27,27l0,0L252,40.23l-.05,0a7.9,7.9,0,0,0-2.86-1.35,12,12,0,0,0-3-.35"/><path d="M252,40.23,241.32,27a6,6,0,0,1,.74.69l10.7,13.24a6,6,0,0,0-.74-.69"/><path d="M252.76,40.92l-10.7-13.24.2.24L253,41.16l-.2-.24"/></g></g><polygon points="222.74 55.08 212.04 41.84 221.78 41.33 232.48 54.57 222.74 55.08" style="fill:#b3b3b3"/><polygon points="222.7 61.24 212 48 212.04 41.84 222.74 55.08 222.7 61.24" style="fill:gray"/><g style="isolation:isolate"><g style="clip-path:url(#ak)"><path d="M237.42,50l-10.7-13.24a5.66,5.66,0,0,1-.4-.56,5,5,0,0,1-.72-2.84,8,8,0,0,1,.7-3.32,7.41,7.41,0,0,1,1.09-1.69l10.7,13.24A7.41,7.41,0,0,0,237,43.25a8,8,0,0,0-.7,3.32,5,5,0,0,0,.72,2.84c.13.2.26.38.4.56"/><path d="M238.09,41.56l-10.7-13.24a7.93,7.93,0,0,1,.71-.71l10.7,13.24a7.93,7.93,0,0,0-.71.71"/><path d="M238.8,40.85,228.1,27.61l.07-.06a6.8,6.8,0,0,1,.68-.52l10.7,13.24a6.8,6.8,0,0,0-.68.52l-.07.06"/><path d="M239.55,40.27,228.85,27a6.86,6.86,0,0,1,.79-.47l10.7,13.24a6.86,6.86,0,0,0-.79.47"/><path d="M240.34,39.8l-10.7-13.24a10,10,0,0,1,.93-.44l10.7,13.24a10,10,0,0,0-.93.44"/><path d="M241.27,39.36l-10.7-13.24L231,26c.25-.09.5-.17.76-.24L242.46,39c-.26.07-.51.15-.76.24l-.43.16"/><path d="M242.46,39l-10.7-13.24a11.25,11.25,0,0,1,1.47-.31l10.7,13.24a11.25,11.25,0,0,0-1.47.31"/><path d="M243.93,38.65l-10.7-13.24c.43-.07.86-.11,1.31-.14l10.7,13.24c-.45,0-.88.07-1.31.14"/></g></g><polygon points="222.77 50.81 212.07 37.57 221.81 37.06 232.51 50.3 222.77 50.81"/><polygon points="222.77 50.81 212.07 37.57 212.12 31.47 222.82 44.71 222.77 50.81" style="fill:gray"/><polygon points="217.59 65.78 206.88 52.54 207.06 27.52 217.76 40.76 217.59 65.78"/><g style="isolation:isolate"><g style="clip-path:url(#al)"><path d="M205,66.44,194.25,53.2c.6,0,1.17-.09,1.71-.17l10.71,13.24c-.55.08-1.12.14-1.72.17" style="fill:#a8a8a8"/><path d="M206.67,66.27,196,53a16,16,0,0,0,1.68-.35l10.7,13.24a16.4,16.4,0,0,1-1.67.35" style="fill:#a3a3a3"/><path d="M208.34,65.92l-10.7-13.24c.42-.12.83-.26,1.22-.41l10.7,13.24c-.39.15-.8.29-1.22.41" style="fill:#9e9e9e"/><path d="M209.56,65.51l-10.7-13.24a9.8,9.8,0,0,0,1-.46l10.7,13.24a9.8,9.8,0,0,1-1,.46" style="fill:#999"/><path d="M210.54,65.05l-10.7-13.24c.3-.16.59-.34.87-.52l10.7,13.24c-.28.18-.57.36-.87.52" style="fill:#949494"/><path d="M211.41,64.53l-10.7-13.24a10.59,10.59,0,0,0,.84-.66l10.7,13.24a10.59,10.59,0,0,1-.84.66" style="fill:#8f8f8f"/><path d="M212.25,63.87l-10.7-13.24.13-.11a8.2,8.2,0,0,0,.65-.67L213,63.09a8.2,8.2,0,0,1-.65.67l-.13.11" style="fill:#8a8a8a"/><path d="M213,63.09l-10.7-13.24a9.71,9.71,0,0,0,2.07-6.47l10.7,13.24A9.66,9.66,0,0,1,213,63.09" style="fill:#858585"/></g></g><polygon points="233.84 44.13 223.14 30.89 223.17 26.68 233.87 39.92 233.84 44.13" style="fill:gray"/><g style="isolation:isolate"><g style="clip-path:url(#am)"><path d="M204.66,62.19,194,49c.4,0,.77-.06,1.12-.11l10.7,13.24c-.34.05-.72.09-1.12.11"/><path d="M205.78,62.08l-10.7-13.24c.34-.06.66-.12.95-.2l10.7,13.24c-.29.08-.6.14-.95.2"/><path d="M206.73,61.88,196,48.64c.15,0,.28-.09.42-.14l.18-.06,10.7,13.24-.18.06-.42.14"/><path d="M207.33,61.68l-10.7-13.24c.15-.07.29-.13.43-.21l10.7,13.24c-.14.08-.28.14-.43.21"/><path d="M207.76,61.47l-10.7-13.24a3.1,3.1,0,0,0,.36-.21l10.7,13.24a3.1,3.1,0,0,1-.36.21"/><path d="M208.12,61.26,197.42,48a2.91,2.91,0,0,0,.33-.26L208.45,61a2.91,2.91,0,0,1-.33.26"/><path d="M208.45,61l-10.7-13.24a2.32,2.32,0,0,0,.35-.35h0l10.7,13.24h0a2.32,2.32,0,0,1-.35.35"/><path d="M208.81,60.65l-10.7-13.24a4.52,4.52,0,0,0,.91-1.82,10.69,10.69,0,0,0,.3-2.65L210,56.18a10.69,10.69,0,0,1-.3,2.65,4.52,4.52,0,0,1-.91,1.82"/></g></g><polygon points="196.6 66.88 185.9 53.64 194.25 53.2 204.95 66.44 196.6 66.88" style="fill:#b3b3b3"/><polygon points="201.72 62.34 191.02 49.1 193.96 48.95 204.66 62.19 201.72 62.34"/><polygon points="222.82 44.71 212.12 31.47 223.14 30.89 233.84 44.13 222.82 44.71" style="fill:#b3b3b3"/><polygon points="215.1 56.62 204.4 43.38 204.44 37.41 215.15 50.65 215.1 56.62" style="fill:gray"/><polygon points="210.02 56.18 199.32 42.94 199.35 38.57 210.05 51.81 210.02 56.18"/><g style="isolation:isolate"><g style="clip-path:url(#an)"><path d="M210.05,51.81l-10.7-13.24a7.86,7.86,0,0,0-1.15-4.7l-.09-.12L208.81,47l.09.12a7.86,7.86,0,0,1,1.15,4.7"/></g></g><g style="isolation:isolate"><g style="clip-path:url(#ao)"><path d="M204.78,45.65l-10.7-13.24h.51l10.7,13.24h-.51" style="fill:#a8a8a8"/><path d="M205.29,45.64,194.59,32.4a4.71,4.71,0,0,1,3,.87l10.7,13.24a4.71,4.71,0,0,0-3-.87" style="fill:#adadad"/><path d="M208.32,46.51l-10.7-13.24a4.26,4.26,0,0,1,.38.35l10.7,13.24a4.26,4.26,0,0,0-.38-.35" style="fill:#a8a8a8"/><path d="M208.7,46.86,198,33.62l.11.13L208.81,47l-.11-.13" style="fill:#a3a3a3"/></g></g><polygon points="217.76 40.76 207.06 27.52 223.17 26.68 233.87 39.92 217.76 40.76"/><g style="isolation:isolate"><g style="clip-path:url(#ap)"><path d="M215.15,50.65l-10.7-13.24a9.78,9.78,0,0,0-1.84-6.35l10.7,13.24a9.72,9.72,0,0,1,1.84,6.35" style="fill:#858585"/></g></g><g style="isolation:isolate"><g style="clip-path:url(#aq)"><path d="M212.56,43.51l-10.7-13.24c.19.17.36.34.53.52L213.09,44c-.17-.18-.34-.35-.53-.52"/><path d="M213.09,44l-10.7-13.24.22.27,10.7,13.24-.22-.27"/></g></g><g style="isolation:isolate"><g style="clip-path:url(#ar)"><path d="M204.78,45.65l-10.7-13.24h.51l10.7,13.24h-.51" style="fill:#a8a8a8"/><path d="M205.29,45.64,194.59,32.4a4.71,4.71,0,0,1,3,.87l10.7,13.24a4.71,4.71,0,0,0-3-.87" style="fill:#adadad"/><path d="M208.32,46.51l-10.7-13.24a4.26,4.26,0,0,1,.38.35l10.7,13.24a4.26,4.26,0,0,0-.38-.35" style="fill:#a8a8a8"/><path d="M208.7,46.86,198,33.62l.11.13L208.81,47l-.11-.13" style="fill:#a3a3a3"/></g></g><polygon points="174.77 68.02 164.07 54.78 169.16 54.52 179.86 67.76 174.77 68.02" style="fill:#b3b3b3"/><polygon points="201.72 62.34 191.02 49.1 191.14 32.56 201.84 45.8 201.72 62.34" style="fill:gray"/><polygon points="201.84 45.8 191.14 32.56 194.08 32.41 204.78 45.65 201.84 45.8" style="fill:#b3b3b3"/><g style="isolation:isolate"><g style="clip-path:url(#as)"><path d="M205.13,41.42l-10.7-13.24.95,0,10.7,13.24-1,0"/><path d="M206.08,41.4l-10.7-13.24A9.62,9.62,0,0,1,201.56,30l10.7,13.24a9.62,9.62,0,0,0-6.18-1.86"/><path d="M212.26,43.26,201.56,30l.3.25,10.7,13.24-.3-.25"/></g></g><path d="M212.56,43.51q2.63,2.34,2.59,7.14l-.05,6c0,3.14-.92,5.52-2.72,7.14A11.58,11.58,0,0,1,205,66.44l-8.35.44.18-25,8.35-.44C208.34,41.25,210.81,42,212.56,43.51ZM210,56.18l0-4.37a7.86,7.86,0,0,0-1.15-4.7c-.79-1.07-2.16-1.56-4.12-1.46l-2.94.15-.12,16.54,2.94-.15a8.53,8.53,0,0,0,2.49-.45,3.77,3.77,0,0,0,1.65-1.09,4.47,4.47,0,0,0,.92-1.82,10.69,10.69,0,0,0,.3-2.65"/><polygon points="196.6 66.88 185.9 53.64 186.08 28.62 196.78 41.86 196.6 66.88"/><polygon points="196.78 41.86 186.08 28.62 194.43 28.18 205.13 41.42 196.78 41.86"/><polygon points="186.36 46.62 175.66 33.38 175.69 29.16 186.39 42.4 186.36 46.62" style="fill:gray"/><g style="isolation:isolate"><g style="clip-path:url(#at)"><path d="M150.39,67.78l-10.7-13.24a7,7,0,0,0,2.86,1.34,13.7,13.7,0,0,0,3.12.33l10.7,13.24a13.7,13.7,0,0,1-3.12-.33,7,7,0,0,1-2.86-1.34" style="fill:#adadad"/><path d="M156.37,69.45l-10.7-13.24c.34,0,.7,0,1.06,0,.58,0,1.13-.09,1.66-.17l10.7,13.24c-.53.08-1.08.14-1.66.17-.36,0-.72,0-1.06,0" style="fill:#a8a8a8"/><path d="M159.09,69.26,148.39,56a13.82,13.82,0,0,0,1.68-.36l10.7,13.24a13.82,13.82,0,0,1-1.68.36" style="fill:#a3a3a3"/><path d="M160.77,68.9l-10.7-13.24.64-.19.58-.22L162,68.49l-.58.22-.64.19" style="fill:#9e9e9e"/><path d="M162,68.49l-10.7-13.24c.33-.13.64-.28.94-.43l10.7,13.24c-.3.15-.61.3-.94.43" style="fill:#999"/><path d="M162.93,68.06l-10.7-13.24a9.41,9.41,0,0,0,.82-.5l10.7,13.24a9.41,9.41,0,0,1-.82.5" style="fill:#949494"/><path d="M163.75,67.56l-10.7-13.24a7.61,7.61,0,0,0,.72-.55l.07-.05L164.54,67l-.07.05a7.61,7.61,0,0,1-.72.55" style="fill:#8f8f8f"/><path d="M164.54,67l-10.7-13.24a7.49,7.49,0,0,0,.74-.75l10.7,13.24a7.49,7.49,0,0,1-.74.75" style="fill:#8a8a8a"/><path d="M165.28,66.21,154.58,53a8,8,0,0,0,1.19-1.87,9.93,9.93,0,0,0,.82-3.63l10.7,13.24a9.93,9.93,0,0,1-.82,3.63,7.64,7.64,0,0,1-1.19,1.87" style="fill:#858585"/></g></g><polygon points="179.86 67.76 169.16 54.52 169.31 33.71 180.01 46.95 179.86 67.76" style="fill:gray"/><polygon points="180.01 46.95 169.31 33.71 175.66 33.38 186.36 46.62 180.01 46.95" style="fill:#b3b3b3"/><g style="isolation:isolate"><g style="clip-path:url(#au)"><path d="M150.39,67.78l-10.7-13.24a7,7,0,0,0,2.86,1.34,13.7,13.7,0,0,0,3.12.33l10.7,13.24a13.7,13.7,0,0,1-3.12-.33,7,7,0,0,1-2.86-1.34" style="fill:#adadad"/></g></g><polygon points="162.18 60.97 151.48 47.73 156.59 47.47 167.29 60.71 162.18 60.97"/><g style="isolation:isolate"><g style="clip-path:url(#av)"><path d="M149.67,67.1,139,53.86a6.14,6.14,0,0,0,.51.51l.21.17,10.7,13.24-.21-.17a6.14,6.14,0,0,1-.51-.51" style="fill:#a8a8a8"/><path d="M150.39,67.78l-10.7-13.24a7,7,0,0,0,2.86,1.34,13.7,13.7,0,0,0,3.12.33l10.7,13.24a13.7,13.7,0,0,1-3.12-.33,7,7,0,0,1-2.86-1.34" style="fill:#adadad"/></g></g><polygon points="174.77 68.02 164.07 54.78 164.22 33.98 174.92 47.22 174.77 68.02"/><g style="isolation:isolate"><g style="clip-path:url(#aw)"><path d="M153.72,64.1,143,50.86l0,0,.07.08,10.7,13.24-.07-.08,0,0"/><path d="M153.82,64.22,143.12,51a2.42,2.42,0,0,0,.33.31l10.7,13.24a2.42,2.42,0,0,1-.33-.31"/><path d="M154.15,64.53l-10.7-13.24a3.06,3.06,0,0,0,1.11.56,6.42,6.42,0,0,0,1.67.2l10.7,13.24a6.42,6.42,0,0,1-1.67-.2,3.06,3.06,0,0,1-1.11-.56"/><path d="M156.93,65.29l-10.7-13.24h.53l.79-.08,10.7,13.24-.79.08h-.53"/><path d="M158.25,65.2,147.55,52c.26,0,.52-.1.76-.16L159,65c-.24.06-.5.12-.76.16"/><path d="M159,65,148.31,51.8c.19-.06.38-.12.55-.19l10.7,13.24c-.17.07-.36.13-.55.19"/><path d="M159.56,64.85l-10.7-13.24a4.69,4.69,0,0,0,.45-.21L160,64.64a4.69,4.69,0,0,1-.45.21"/><path d="M160,64.64,149.31,51.4l.4-.24,10.7,13.24-.4.24"/><path d="M160.41,64.4l-10.7-13.24a4.08,4.08,0,0,0,.33-.25l0,0,10.7,13.24,0,0a4.08,4.08,0,0,1-.33.25"/><path d="M160.78,64.12l-10.7-13.24a3.34,3.34,0,0,0,.32-.33l10.7,13.24a3.34,3.34,0,0,1-.32.33"/><path d="M161.1,63.79,150.4,50.55a5.14,5.14,0,0,0,1.08-2.82L162.18,61a5.14,5.14,0,0,1-1.08,2.82"/></g></g><g style="isolation:isolate"><g style="clip-path:url(#ax)"><path d="M149.46,66.86l-10.7-13.24a2.25,2.25,0,0,0,.21.24l10.7,13.24c-.08-.08-.14-.16-.21-.24" style="fill:#a3a3a3"/><path d="M149.67,67.1,139,53.86a6.14,6.14,0,0,0,.51.51l.21.17,10.7,13.24-.21-.17a6.14,6.14,0,0,1-.51-.51" style="fill:#a8a8a8"/></g></g><g style="isolation:isolate"><g style="clip-path:url(#ay)"><path d="M153.72,64.1,143,50.86a4.31,4.31,0,0,1-.8-1.78l10.7,13.24a4.31,4.31,0,0,0,.8,1.78" style="fill:#858585"/></g></g><polygon points="168.58 47.55 157.88 34.31 164.22 33.98 174.92 47.22 168.58 47.55" style="fill:#b3b3b3"/><g style="isolation:isolate"><g style="clip-path:url(#az)"><path d="M152.92,62.32l-10.7-13.24a12.25,12.25,0,0,1-.25-2.85l10.7,13.24a12.25,12.25,0,0,0,.25,2.85" style="fill:#858585"/></g></g><polygon points="162.43 50.94 151.73 37.7 156.73 37.44 167.43 50.67 162.43 50.94" style="fill:#b3b3b3"/><g style="isolation:isolate"><g style="clip-path:url(#ba)"><path d="M149.46,66.86l-10.7-13.24a7.07,7.07,0,0,1-1.14-2.06,11.7,11.7,0,0,1-.61-4.21l10.7,13.24a11.7,11.7,0,0,0,.61,4.21,7.31,7.31,0,0,0,1.14,2.06"/></g></g><g style="isolation:isolate"><g style="clip-path:url(#bb)"><path d="M167.43,50.68l-10.7-13.24a8.32,8.32,0,0,0-1.7-4.85l10.7,13.24a8.25,8.25,0,0,1,1.7,4.85" style="fill:#858585"/></g></g><polygon points="168.61 43.34 157.91 30.1 175.69 29.16 186.39 42.4 168.61 43.34"/><polygon points="168.58 47.55 157.88 34.31 157.91 30.1 168.61 43.34 168.58 47.55"/><polygon points="186.39 42.4 186.36 46.62 180.01 46.95 179.86 67.76 174.77 68.02 174.92 47.22 168.58 47.55 168.61 43.34 186.39 42.4"/><g style="isolation:isolate"><g style="clip-path:url(#bc)"><path d="M162.43,50.94,151.73,37.7a5.18,5.18,0,0,0-.94-2.45l10.7,13.24a5.18,5.18,0,0,1,.94,2.45"/></g></g><g style="isolation:isolate"><g style="clip-path:url(#bd)"><path d="M161.07,48.08l-10.7-13.24h0a2.27,2.27,0,0,1,.32.3l10.7,13.24a2.27,2.27,0,0,0-.32-.3h0" style="fill:#a8a8a8"/><path d="M161.39,48.38l-10.7-13.24.1.11,10.7,13.24-.1-.11" style="fill:#a3a3a3"/></g></g><polygon points="152.67 59.47 141.97 46.23 142.01 40.8 152.71 54.04 152.67 59.47" style="fill:gray"/><g style="isolation:isolate"><g style="clip-path:url(#be)"><path d="M157.18,47.44,146.48,34.2a6.6,6.6,0,0,1,.79-.08h.48l10.7,13.24H158a6.6,6.6,0,0,0-.79.08" style="fill:#a8a8a8"/><path d="M158.45,47.35l-10.7-13.24a4.07,4.07,0,0,1,2.62.73l10.7,13.24a4.05,4.05,0,0,0-2.62-.73" style="fill:#adadad"/><path d="M161.07,48.08l-10.7-13.24h0a2.27,2.27,0,0,1,.32.3l10.7,13.24a2.27,2.27,0,0,0-.32-.3h0" style="fill:#a8a8a8"/></g></g><g style="isolation:isolate"><g style="clip-path:url(#bf)"><path d="M157.18,47.44,146.48,34.2a6.6,6.6,0,0,1,.79-.08h.48l10.7,13.24H158a6.6,6.6,0,0,0-.79.08" style="fill:#a8a8a8"/></g></g><g style="isolation:isolate"><g style="clip-path:url(#bg)"><path d="M152.71,54,142,40.8q0-3.44,1.34-5l0,0L154.09,49l0,0q-1.31,1.56-1.34,5" style="fill:#858585"/></g></g><g style="isolation:isolate"><g style="clip-path:url(#bh)"><path d="M152.71,54,142,40.8q0-3.44,1.34-5l0,0L154.09,49l0,0q-1.31,1.56-1.34,5" style="fill:#858585"/></g></g><g style="isolation:isolate"><g style="clip-path:url(#bi)"><path d="M152.71,54,142,40.8q0-3.44,1.34-5l0,0L154.09,49l0,0q-1.31,1.56-1.34,5" style="fill:#858585"/><path d="M154.09,49l-10.7-13.24a4.36,4.36,0,0,1,.43-.43l10.7,13.24a4.36,4.36,0,0,0-.43.43" style="fill:#8a8a8a"/><path d="M154.52,48.58l-10.7-13.24a3,3,0,0,1,.4-.3l10.7,13.24a3,3,0,0,0-.4.3" style="fill:#8f8f8f"/><path d="M154.92,48.28,144.22,35a3,3,0,0,1,.42-.26L155.34,48a3,3,0,0,0-.42.26" style="fill:#949494"/><path d="M155.34,48l-10.7-13.24.47-.22,10.7,13.24-.47.22" style="fill:#999"/><path d="M155.81,47.8l-10.7-13.24.58-.2,10.7,13.24-.58.2" style="fill:#9e9e9e"/><path d="M156.39,47.6l-10.7-13.24c.25-.06.52-.12.79-.16l10.7,13.24c-.27,0-.54.1-.79.16" style="fill:#a3a3a3"/><path d="M157.18,47.44,146.48,34.2a6.6,6.6,0,0,1,.79-.08h.48l10.7,13.24H158a6.6,6.6,0,0,0-.79.08" style="fill:#a8a8a8"/></g></g><polygon points="147.71 60.59 137 47.35 137.06 40.04 147.76 53.28 147.71 60.59"/><g style="isolation:isolate"><g style="clip-path:url(#bj)"><path d="M127.15,68.09l-10.7-13.24c.07.08.13.16.2.23l10.7,13.24c-.07-.07-.13-.15-.2-.23" style="fill:#a3a3a3"/><path d="M127.35,68.32l-10.7-13.24c.1.11.19.21.3.31a3.8,3.8,0,0,0,.37.33L128,69a3.8,3.8,0,0,1-.37-.33c-.11-.1-.2-.2-.3-.31" style="fill:#a8a8a8"/><path d="M128,69l-10.7-13.24a9.47,9.47,0,0,0,6,1.67L134,70.63A9.47,9.47,0,0,1,128,69" style="fill:#adadad"/><path d="M134,70.63l-10.7-13.24,1.09,0c.64,0,1.24-.1,1.82-.18l10.7,13.24c-.58.08-1.18.14-1.82.18l-1.09,0" style="fill:#a8a8a8"/><path d="M136.9,70.42,126.2,57.18a13.59,13.59,0,0,0,1.69-.36l10.7,13.24a13.59,13.59,0,0,1-1.69.36" style="fill:#a3a3a3"/><path d="M138.59,70.06l-10.7-13.24a9.7,9.7,0,0,0,1.15-.39l10.7,13.24a9.7,9.7,0,0,1-1.15.39" style="fill:#9e9e9e"/><path d="M139.74,69.67,129,56.43c.31-.13.61-.26.9-.41l10.7,13.24c-.29.15-.58.28-.9.41" style="fill:#999"/><path d="M140.64,69.26,129.94,56c.26-.15.51-.3.75-.46l10.7,13.24c-.24.16-.49.31-.75.46" style="fill:#949494"/><path d="M141.39,68.8l-10.7-13.24c.24-.17.47-.34.69-.53l10.7,13.24c-.22.19-.45.36-.69.53" style="fill:#8f8f8f"/><path d="M142.08,68.27,131.38,55a5.77,5.77,0,0,0,.44-.42l.25-.27,10.7,13.23a3.33,3.33,0,0,1-.25.28,5.77,5.77,0,0,1-.44.42" style="fill:#8a8a8a"/><path d="M142.77,67.57l-10.7-13.23c1.43-1.66,2.16-4.11,2.18-7.38L145,60.2c0,3.27-.75,5.72-2.18,7.37" style="fill:#858585"/></g></g><g style="isolation:isolate"><g style="clip-path:url(#bk)"><path d="M131.4,65.14,120.7,51.9l.11.13,10.7,13.24-.11-.13"/><path d="M131.51,65.27,120.81,52a2.72,2.72,0,0,0,.39.37l10.7,13.24a2.72,2.72,0,0,1-.39-.37"/><path d="M131.9,65.64,121.2,52.4a4.42,4.42,0,0,0,2.78.82l10.7,13.24a4.44,4.44,0,0,1-2.78-.82"/><path d="M134.68,66.46,124,53.22h.44c.27,0,.52,0,.76-.08l10.7,13.24c-.24,0-.49.06-.76.08h-.44"/><path d="M135.88,66.37l-10.7-13.24a5.2,5.2,0,0,0,.75-.16l10.7,13.24a5.2,5.2,0,0,1-.75.16"/><path d="M136.63,66.21,125.93,53a5.05,5.05,0,0,0,.55-.18L137.18,66a5.05,5.05,0,0,1-.55.18"/><path d="M137.18,66l-10.7-13.24.43-.2,10.7,13.24-.43.2"/><path d="M137.61,65.83l-10.7-13.24.38-.23L138,65.6a3.48,3.48,0,0,1-.38.23"/><path d="M138,65.6l-10.7-13.24.37-.28,10.7,13.24-.37.28"/><path d="M138.36,65.32l-10.7-13.24a3.5,3.5,0,0,0,.38-.39l10.7,13.24a3.5,3.5,0,0,1-.38.39"/><path d="M138.74,64.93,128,51.69a5.9,5.9,0,0,0,1.18-3.87l10.7,13.24a5.9,5.9,0,0,1-1.18,3.87"/></g></g><g style="isolation:isolate"><g style="clip-path:url(#bl)"><path d="M158,43.09,147.3,29.85c.31,0,.6,0,.9,0l10.7,13.24-.9,0"/><path d="M158.9,43.06,148.2,29.82A9.14,9.14,0,0,1,154,31.55l10.7,13.24a9.14,9.14,0,0,0-5.79-1.73"/><path d="M164.69,44.79,154,31.55l.1.08a7.88,7.88,0,0,1,.72.69l10.7,13.24a7.88,7.88,0,0,0-.72-.69l-.1-.08"/><path d="M165.51,45.56l-10.7-13.24.22.27,10.71,13.24-.23-.27"/></g></g><g style="isolation:isolate"><g style="clip-path:url(#bm)"><path d="M147.76,53.28,137.06,40a12.57,12.57,0,0,1,.71-4.32,8.53,8.53,0,0,1,1.5-2.54L150,46.42A8.3,8.3,0,0,0,148.48,49a12.33,12.33,0,0,0-.72,4.32"/><path d="M150,46.42l-10.7-13.24a7.27,7.27,0,0,1,.54-.57l.28-.25,10.7,13.24-.28.25a7.27,7.27,0,0,0-.54.57"/><path d="M150.79,45.6l-10.7-13.24a7.9,7.9,0,0,1,.79-.61L151.58,45a7.9,7.9,0,0,0-.79.61"/><path d="M151.58,45l-10.7-13.24a8,8,0,0,1,.85-.51l10.7,13.24a8,8,0,0,0-.85.51"/><path d="M152.43,44.48l-10.7-13.24a10.2,10.2,0,0,1,1-.47L153.43,44a10.2,10.2,0,0,0-1,.47"/><path d="M153.43,44l-10.7-13.24.29-.11c.29-.1.58-.2.88-.28l10.7,13.24c-.3.08-.59.18-.88.28l-.29.11"/><path d="M154.6,43.62,143.9,30.38a14.76,14.76,0,0,1,1.71-.36l10.7,13.24a14.76,14.76,0,0,0-1.71.36"/><path d="M156.31,43.26,145.61,30a14.87,14.87,0,0,1,1.69-.17L158,43.09a14.87,14.87,0,0,0-1.69.17"/></g></g><g style="isolation:isolate"><g style="clip-path:url(#bn)"><path d="M131.4,65.14,120.7,51.9a5.53,5.53,0,0,1-1-3.59l10.7,13.24a5.53,5.53,0,0,0,1,3.59" style="fill:#858585"/></g></g><g style="isolation:isolate"><g style="clip-path:url(#bo)"><path d="M127.15,68.09l-10.7-13.24c-1.22-1.51-1.83-3.8-1.81-6.86l10.7,13.24c0,3.06.59,5.35,1.81,6.86"/></g></g><g style="isolation:isolate"><g style="clip-path:url(#bp)"><path d="M112.65,71.28,102,58c.6,0,1.17-.09,1.72-.17l10.7,13.24c-.55.08-1.12.14-1.72.17" style="fill:#a8a8a8"/><path d="M114.37,71.11l-10.7-13.24a14.07,14.07,0,0,0,1.67-.36L116,70.75a14.07,14.07,0,0,1-1.67.36" style="fill:#a3a3a3"/><path d="M116,70.75l-10.7-13.24a9.71,9.71,0,0,0,1.22-.41l10.7,13.24a9.71,9.71,0,0,1-1.22.41" style="fill:#9e9e9e"/><path d="M117.26,70.34,106.56,57.1c.34-.14.67-.29,1-.45l10.7,13.24c-.31.16-.64.31-1,.45" style="fill:#999"/><path d="M118.24,69.89l-10.7-13.24c.3-.17.59-.34.87-.53l10.7,13.24c-.28.19-.57.36-.87.53" style="fill:#949494"/><path d="M119.11,69.36l-10.7-13.24a10.46,10.46,0,0,0,.84-.65L120,68.71a10.46,10.46,0,0,1-.84.65" style="fill:#8f8f8f"/><path d="M120,68.71l-10.7-13.24.13-.12a8.08,8.08,0,0,0,.65-.66l10.7,13.24a8.08,8.08,0,0,1-.65.66l-.13.12" style="fill:#8a8a8a"/></g></g><polygon points="144.95 60.2 134.25 46.97 134.36 31.33 145.06 44.57 144.95 60.2" style="fill:gray"/><g style="isolation:isolate"><g style="clip-path:url(#bq)"><path d="M120,68.71l-10.7-13.24.13-.12a8.08,8.08,0,0,0,.65-.66l10.7,13.24a8.08,8.08,0,0,1-.65.66l-.13.12" style="fill:#8a8a8a"/><path d="M120.73,67.93,110,54.69a9.66,9.66,0,0,0,2.07-6.47l10.7,13.24a9.66,9.66,0,0,1-2.07,6.47" style="fill:#858585"/></g></g><polygon points="140.03 44.83 129.33 31.59 134.36 31.33 145.06 44.57 140.03 44.83"/><polygon points="139.92 61.06 129.22 47.82 129.33 31.59 140.03 44.83 139.92 61.06"/><g style="isolation:isolate"><g style="clip-path:url(#br)"><path d="M112.36,67l-10.7-13.24a9.62,9.62,0,0,0,1.13-.11l10.7,13.24a9.62,9.62,0,0,1-1.13.11"/><path d="M113.49,66.91l-10.7-13.24a7.74,7.74,0,0,0,.94-.2l10.7,13.24a7.74,7.74,0,0,1-.94.2"/><path d="M114.43,66.71l-10.7-13.24.42-.13.18-.07L115,66.51l-.18.07-.42.13"/><path d="M115,66.51l-10.7-13.24a3.36,3.36,0,0,0,.43-.2l10.7,13.24a3.36,3.36,0,0,1-.43.2"/><path d="M115.46,66.31l-10.7-13.24a3.13,3.13,0,0,0,.36-.22l10.7,13.24a3.13,3.13,0,0,1-.36.22"/><path d="M115.82,66.09l-10.7-13.24a2,2,0,0,0,.33-.25l10.7,13.24a2,2,0,0,1-.33.25"/><path d="M116.15,65.84,105.45,52.6a2.57,2.57,0,0,0,.33-.33l10.7,13.24a2.57,2.57,0,0,1-.33.33"/><path d="M116.48,65.51l-10.7-13.24,0,0a4.54,4.54,0,0,0,.92-1.82,10.69,10.69,0,0,0,.3-2.65L117.72,61a10.69,10.69,0,0,1-.3,2.65,4.54,4.54,0,0,1-.92,1.82l0,0"/></g></g><polygon points="104.3 71.72 93.6 58.48 101.95 58.04 112.65 71.28 104.3 71.72" style="fill:#b3b3b3"/><polygon points="109.42 67.18 98.72 53.94 101.66 53.78 112.36 67.02 109.42 67.18"/><polygon points="130.43 61.55 119.73 48.31 119.85 32.09 130.55 45.33 130.43 61.55" style="fill:gray"/><polygon points="125.34 61.23 114.64 47.99 114.76 32.36 125.46 45.6 125.34 61.23"/><polygon points="122.8 61.46 112.1 48.22 112.15 42.25 122.85 55.49 122.8 61.46" style="fill:gray"/><polygon points="117.72 61.02 107.02 47.78 107.05 43.41 117.75 56.65 117.72 61.02"/><g style="isolation:isolate"><g style="clip-path:url(#bs)"><path d="M98.28,70.28,87.58,57l.3-.27a8.08,8.08,0,0,0,.57-.6l10.7,13.24a8.08,8.08,0,0,1-.57.6l-.3.27" style="fill:#8a8a8a"/><path d="M99.15,69.41,88.45,56.17A9.13,9.13,0,0,0,90,53.55a11.7,11.7,0,0,0,.79-4.34l10.7,13.24a11.7,11.7,0,0,1-.79,4.34,9,9,0,0,1-1.57,2.62" style="fill:#858585"/></g></g><polygon points="109.42 67.18 98.72 53.94 98.84 37.4 109.54 50.64 109.42 67.18" style="fill:gray"/><polygon points="104.3 71.72 93.6 58.48 93.78 33.46 104.48 46.7 104.3 71.72"/><g style="isolation:isolate"><g style="clip-path:url(#bt)"><path d="M99.15,69.41,88.45,56.17A9.13,9.13,0,0,0,90,53.55a11.7,11.7,0,0,0,.79-4.34l10.7,13.24a11.7,11.7,0,0,1-.79,4.34,9,9,0,0,1-1.57,2.62" style="fill:#858585"/></g></g><g style="isolation:isolate"><g style="clip-path:url(#bu)"><path d="M90,72.94,79.28,59.7l.94,0c.56,0,1.1-.08,1.62-.16l10.7,13.24c-.52.08-1.06.13-1.62.16l-.94,0" style="fill:#a8a8a8"/><path d="M92.54,72.75,81.84,59.51a14.07,14.07,0,0,0,1.67-.36l10.7,13.24a14.07,14.07,0,0,1-1.67.36" style="fill:#a3a3a3"/><path d="M94.21,72.39,83.51,59.15c.36-.1.71-.21,1-.34l.23-.09L95.49,72l-.23.09c-.34.13-.69.24-1.05.34" style="fill:#9e9e9e"/><path d="M95.49,72,84.79,58.72c.36-.15.71-.31,1-.49l10.7,13.24a11.23,11.23,0,0,1-1.05.49" style="fill:#999"/><path d="M96.54,71.47,85.84,58.23a8.24,8.24,0,0,0,.9-.54l10.7,13.24a8.24,8.24,0,0,1-.9.54" style="fill:#949494"/><path d="M97.44,70.93,86.74,57.69a7.81,7.81,0,0,0,.84-.65l10.7,13.24a7.81,7.81,0,0,1-.84.65" style="fill:#8f8f8f"/><path d="M98.28,70.28,87.58,57l.3-.27a8.08,8.08,0,0,0,.57-.6l10.7,13.24a8.08,8.08,0,0,1-.57.6l-.3.27" style="fill:#8a8a8a"/></g></g><polygon points="125.46 45.6 114.76 32.36 119.85 32.09 130.55 45.33 125.46 45.6"/><path d="M145.06,44.57,145,60.2c0,3.45-.83,6-2.43,7.65s-4.08,2.57-7.44,2.75-5.87-.48-7.43-2-2.33-3.95-2.31-7.4l.12-15.63,5.09-.27-.12,16.22c0,3.44,1.54,5.06,4.69,4.9s4.77-2,4.8-5.39L140,44.83Z"/><g style="isolation:isolate"><g style="clip-path:url(#bv)"><path d="M122.85,55.49l-10.7-13.24a9.72,9.72,0,0,0-1.84-6.35L121,49.14a9.72,9.72,0,0,1,1.83,6.35" style="fill:#858585"/></g></g><g style="isolation:isolate"><g style="clip-path:url(#bw)"><path d="M90,72.94,79.28,59.7l.94,0c.56,0,1.1-.08,1.62-.16l10.7,13.24c-.52.08-1.06.13-1.62.16l-.94,0" style="fill:#a8a8a8"/></g></g><g style="isolation:isolate"><g style="clip-path:url(#bx)"><path d="M117.75,56.65l-10.7-13.24a7.92,7.92,0,0,0-1.15-4.71l-.09-.11,10.7,13.24.09.11a7.92,7.92,0,0,1,1.15,4.71"/></g></g><g style="isolation:isolate"><g style="clip-path:url(#by)"><path d="M120.26,48.35l-10.7-13.24a6.5,6.5,0,0,1,.53.52l10.7,13.24a6.5,6.5,0,0,0-.53-.52"/><path d="M120.79,48.87l-10.7-13.24.22.27L121,49.14l-.23-.27"/></g></g><g style="isolation:isolate"><g style="clip-path:url(#bz)"><path d="M99.15,69.41,88.45,56.17A9.13,9.13,0,0,0,90,53.55a11.7,11.7,0,0,0,.79-4.34l10.7,13.24a11.7,11.7,0,0,1-.79,4.34,9,9,0,0,1-1.57,2.62" style="fill:#858585"/></g></g><g style="isolation:isolate"><g style="clip-path:url(#ca)"><path d="M112.48,50.49l-10.7-13.24.51,0L113,50.47l-.51,0" style="fill:#a8a8a8"/><path d="M113,50.47l-10.7-13.24a4.77,4.77,0,0,1,3,.88L116,51.35a4.77,4.77,0,0,0-3-.88" style="fill:#adadad"/><path d="M116,51.35l-10.7-13.24a2.5,2.5,0,0,1,.38.35L116.4,51.7a2.5,2.5,0,0,0-.38-.35" style="fill:#a8a8a8"/><path d="M116.4,51.7,105.7,38.46l.11.13,10.7,13.24-.11-.13" style="fill:#a3a3a3"/></g></g><polygon points="109.54 50.64 98.84 37.4 101.78 37.25 112.48 50.49 109.54 50.64" style="fill:#b3b3b3"/><g style="isolation:isolate"><g style="clip-path:url(#cb)"><path d="M82.67,70.17,72,56.93a7.84,7.84,0,0,0,.65.64l.19.16L83.51,71l-.19-.16a7.84,7.84,0,0,1-.65-.64" style="fill:#a8a8a8"/><path d="M83.51,71,72.81,57.73a8.76,8.76,0,0,0,3.1,1.54,13.16,13.16,0,0,0,3.37.43L90,72.94a13.16,13.16,0,0,1-3.37-.43A8.76,8.76,0,0,1,83.51,71" style="fill:#adadad"/><path d="M90,72.94,79.28,59.7l.94,0c.56,0,1.1-.08,1.62-.16l10.7,13.24c-.52.08-1.06.13-1.62.16l-.94,0" style="fill:#a8a8a8"/></g></g><polygon points="101.51 62.45 90.81 49.22 90.86 42.78 101.56 56.02 101.51 62.45" style="fill:gray"/><g style="isolation:isolate"><g style="clip-path:url(#cc)"><path d="M112.83,46.26,102.13,33l1,0,10.7,13.24-1,0"/><path d="M113.78,46.23,103.08,33a9.63,9.63,0,0,1,6.18,1.87L120,48.1a9.63,9.63,0,0,0-6.18-1.87"/><path d="M120,48.1l-10.7-13.24.3.25,10.7,13.24-.3-.25"/></g></g><g style="isolation:isolate"><g style="clip-path:url(#cd)"><path d="M86.68,67.25,76,54l.11.13,10.7,13.24-.11-.13"/><path d="M86.79,67.38,76.09,54.14a1.14,1.14,0,0,0,.11.11,2.5,2.5,0,0,0,.34.31L87.24,67.8a3.28,3.28,0,0,1-.34-.31,1.14,1.14,0,0,1-.11-.11"/><path d="M87.24,67.8,76.54,54.56a5,5,0,0,0,3.22,1l10.7,13.24a5,5,0,0,1-3.22-1"/><path d="M90.46,68.77,79.76,55.53h.49a7.12,7.12,0,0,0,.82-.08l10.7,13.24a7.12,7.12,0,0,1-.82.08h-.49"/><path d="M91.77,68.68,81.07,55.44a5.3,5.3,0,0,0,.83-.18L92.6,68.5a5.3,5.3,0,0,1-.83.18"/><path d="M92.6,68.5,81.9,55.26a6.21,6.21,0,0,0,.61-.2L93.21,68.3a6.21,6.21,0,0,1-.61.2"/><path d="M93.21,68.3,82.51,55.06a4.59,4.59,0,0,0,.5-.24l10.7,13.24a4.59,4.59,0,0,1-.5.24"/><path d="M93.71,68.06,83,54.82a3.35,3.35,0,0,0,.45-.27l10.7,13.24a3.35,3.35,0,0,1-.45.27"/><path d="M94.16,67.79,83.46,54.55a4.59,4.59,0,0,0,.44-.33L94.6,67.46a4.59,4.59,0,0,1-.44.33"/><path d="M94.6,67.46,83.9,54.22a4.78,4.78,0,0,0,.39-.39l.07-.08L95.06,67l-.07.08a4.78,4.78,0,0,1-.39.39"/><path d="M95.06,67,84.36,53.75a7.5,7.5,0,0,0,1.37-4.87l10.7,13.24A7.5,7.5,0,0,1,95.06,67"/></g></g><g style="isolation:isolate"><g style="clip-path:url(#ce)"><path d="M82.43,69.89,71.73,56.65l.24.28,10.7,13.24-.24-.28" style="fill:#a3a3a3"/><path d="M82.67,70.17,72,56.93a7.84,7.84,0,0,0,.65.64l.19.16L83.51,71l-.19-.16a7.84,7.84,0,0,1-.65-.64" style="fill:#a8a8a8"/></g></g><g style="isolation:isolate"><g style="clip-path:url(#cf)"><path d="M82.43,69.89,71.73,56.65l.24.28,10.7,13.24-.24-.28" style="fill:#a3a3a3"/></g></g><polygon points="96.43 62.12 85.73 48.88 85.76 43.74 96.46 56.98 96.43 62.12"/><polygon points="74.05 73.3 63.35 60.06 68.76 59.78 79.46 73.02 74.05 73.3" style="fill:#b3b3b3"/><g style="isolation:isolate"><g style="clip-path:url(#cg)"><path d="M86.68,67.25,76,54a7.19,7.19,0,0,1-1.15-4.56l10.7,13.24a7.19,7.19,0,0,0,1.15,4.56" style="fill:#858585"/></g></g><polygon points="104.48 46.7 93.78 33.46 102.13 33.02 112.83 46.26 104.48 46.7"/><path d="M120.26,48.35q2.63,2.34,2.59,7.14l0,6c0,3.14-.92,5.52-2.72,7.13a11.58,11.58,0,0,1-7.43,2.69l-8.35.44.18-25,8.35-.44C116,46.09,118.51,46.79,120.26,48.35ZM117.72,61l0-4.37a7.92,7.92,0,0,0-1.15-4.71c-.79-1.06-2.16-1.55-4.12-1.45l-2.94.15-.12,16.54,2.94-.16a8.9,8.9,0,0,0,2.49-.44,3.77,3.77,0,0,0,1.65-1.09,4.54,4.54,0,0,0,.92-1.82,10.69,10.69,0,0,0,.3-2.65"/><g style="isolation:isolate"><g style="clip-path:url(#ch)"><path d="M101.56,56,90.86,42.78a11.26,11.26,0,0,0-.73-4.3,8,8,0,0,0-1.21-2.08l10.7,13.24a8,8,0,0,1,1.21,2.08,11.07,11.07,0,0,1,.73,4.3" style="fill:#858585"/></g></g><g style="isolation:isolate"><g style="clip-path:url(#ci)"><path d="M96.46,57,85.76,43.74a7.14,7.14,0,0,0-1.14-4.57l10.7,13.24A7.14,7.14,0,0,1,96.46,57"/></g></g><g style="isolation:isolate"><g style="clip-path:url(#cj)"><path d="M82.43,69.89,71.73,56.65a8,8,0,0,1-1.19-2.08,11.13,11.13,0,0,1-.7-4.26l10.7,13.24a11.13,11.13,0,0,0,.7,4.26,8,8,0,0,0,1.19,2.08"/></g></g><polygon points="85.53 62.69 74.83 49.45 74.87 44.31 85.57 57.55 85.53 62.69" style="fill:gray"/><g style="isolation:isolate"><g style="clip-path:url(#ck)"><path d="M91.08,50.86,80.38,37.62h.46l10.7,13.24h-.46" style="fill:#a8a8a8"/><path d="M91.54,50.85,80.84,37.61a5,5,0,0,1,3.2,1l10.7,13.24a5,5,0,0,0-3.2-1" style="fill:#adadad"/><path d="M94.74,51.84,84,38.6c.12.09.23.2.34.3l.13.14,10.7,13.24-.13-.14c-.11-.1-.22-.21-.34-.3" style="fill:#a8a8a8"/><path d="M95.21,52.28,84.51,39l.11.13,10.7,13.24-.11-.13" style="fill:#a3a3a3"/></g></g><g style="isolation:isolate"><g style="clip-path:url(#cl)"><path d="M86.94,52.65,76.24,39.41l.07-.08A3.5,3.5,0,0,1,76.7,39L87.4,52.19a4.64,4.64,0,0,0-.39.38l-.07.08" style="fill:#8a8a8a"/></g></g><g style="isolation:isolate"><g style="clip-path:url(#cm)"><path d="M85.57,57.56,74.87,44.32a7.53,7.53,0,0,1,1.37-4.91l10.7,13.24a7.53,7.53,0,0,0-1.37,4.91" style="fill:#858585"/><path d="M86.94,52.65,76.24,39.41l.07-.08A3.5,3.5,0,0,1,76.7,39L87.4,52.19a4.64,4.64,0,0,0-.39.38l-.07.08" style="fill:#8a8a8a"/><path d="M87.4,52.19,76.7,39a3.79,3.79,0,0,1,.45-.34l10.7,13.24a3.79,3.79,0,0,0-.45.34" style="fill:#8f8f8f"/><path d="M87.85,51.85,77.15,38.61a3.4,3.4,0,0,1,.45-.28L88.3,51.57a4.21,4.21,0,0,0-.45.28" style="fill:#949494"/><path d="M88.3,51.57,77.6,38.33a4.9,4.9,0,0,1,.52-.24l10.7,13.24a4.9,4.9,0,0,0-.52.24" style="fill:#999"/><path d="M88.82,51.33,78.12,38.09a5.46,5.46,0,0,1,.61-.21l10.7,13.24a5.46,5.46,0,0,0-.61.21" style="fill:#9e9e9e"/><path d="M89.43,51.12,78.73,37.88a7.17,7.17,0,0,1,.83-.17L90.26,51a7.17,7.17,0,0,0-.83.17" style="fill:#a3a3a3"/><path d="M90.26,51,79.56,37.71c.26,0,.53-.07.82-.09l10.7,13.24c-.29,0-.56,0-.82.09" style="fill:#a8a8a8"/></g></g><polygon points="59.86 74.05 49.16 60.81 54.25 60.54 64.95 73.78 59.86 74.05" style="fill:#b3b3b3"/><polygon points="80.54 63.55 69.83 50.31 69.88 43.88 80.58 57.12 80.54 63.55"/><polygon points="79.46 73.02 68.76 59.78 63.64 48.78 74.34 62.02 79.46 73.02" style="fill:gray"/><g style="isolation:isolate"><g style="clip-path:url(#cn)"><path d="M74.34,62,63.64,48.79c.37-.2.71-.41,1-.62l10.7,13.24c-.31.21-.65.42-1,.62" style="fill:#949494"/><path d="M75.36,61.41,64.66,48.17a7,7,0,0,0,.78-.6l10.7,13.24a6.16,6.16,0,0,1-.78.6" style="fill:#8f8f8f"/><path d="M76.14,60.81,65.44,47.57l.23-.21a6.08,6.08,0,0,0,.5-.52l10.7,13.24a6.08,6.08,0,0,1-.5.52l-.23.21" style="fill:#8a8a8a"/><path d="M76.87,60.08,66.17,46.84a5.86,5.86,0,0,0,.76-1.1A6,6,0,0,0,67.57,44a9.94,9.94,0,0,0,.19-1.82,8.31,8.31,0,0,0-.38-2.45,5.77,5.77,0,0,0-1.09-2.06L77,50.92A5.91,5.91,0,0,1,78.08,53a8.31,8.31,0,0,1,.38,2.45,9.94,9.94,0,0,1-.19,1.82A6,6,0,0,1,77.63,59a5.86,5.86,0,0,1-.76,1.1" style="fill:#858585"/></g></g><g style="isolation:isolate"><g style="clip-path:url(#co)"><path d="M76.87,60.08,66.17,46.84a5.86,5.86,0,0,0,.76-1.1A6,6,0,0,0,67.57,44a9.94,9.94,0,0,0,.19-1.82,8.31,8.31,0,0,0-.38-2.45,5.77,5.77,0,0,0-1.09-2.06L77,50.92A5.91,5.91,0,0,1,78.08,53a8.31,8.31,0,0,1,.38,2.45,9.94,9.94,0,0,1-.19,1.82A6,6,0,0,1,77.63,59a5.86,5.86,0,0,1-.76,1.1" style="fill:#858585"/></g></g><polygon points="74.05 73.3 63.35 60.06 58.92 50.51 69.62 63.75 74.05 73.3"/><g style="isolation:isolate"><g style="clip-path:url(#cp)"><path d="M80.58,57.12,69.88,43.88a12.06,12.06,0,0,1,.77-4.38,9,9,0,0,1,1.57-2.63l10.7,13.24a9,9,0,0,0-1.57,2.63,12.06,12.06,0,0,0-.77,4.38"/><path d="M82.92,50.11,72.22,36.87a7.68,7.68,0,0,1,.55-.59l.35-.31,10.7,13.24-.34.31a6.21,6.21,0,0,0-.56.59"/><path d="M83.82,49.21,73.12,36a8.58,8.58,0,0,1,.84-.65l10.7,13.24a8.58,8.58,0,0,0-.84.65"/><path d="M84.66,48.56,74,35.32a10.3,10.3,0,0,1,.9-.55L85.56,48a10.3,10.3,0,0,0-.9.55"/><path d="M85.56,48,74.86,34.77c.33-.17.68-.33,1-.48l10.7,13.24c-.35.15-.7.31-1,.48"/><path d="M86.59,47.53,75.89,34.29l.2-.07q.51-.19,1.08-.36L87.87,47.1q-.57.16-1.08.36l-.2.07"/><path d="M87.87,47.1,77.17,33.86a16,16,0,0,1,1.65-.35l10.7,13.24a16.58,16.58,0,0,0-1.65.35"/><path d="M89.52,46.75,78.82,33.51a15.84,15.84,0,0,1,1.59-.16l.9,0L92,46.57l-.9,0a15.84,15.84,0,0,0-1.59.16"/><path d="M92,46.57,81.31,33.33a12.83,12.83,0,0,1,3.43.44,8.27,8.27,0,0,1,3,1.49L98.47,48.5a8.27,8.27,0,0,0-3-1.49A12.83,12.83,0,0,0,92,46.57"/><path d="M98.47,48.5,87.77,35.26l.27.22c.22.2.44.41.64.63l10.7,13.24c-.2-.22-.42-.43-.64-.63l-.27-.22"/><path d="M99.38,49.35,88.68,36.11c.08.1.17.19.24.29l10.7,13.24c-.07-.1-.16-.19-.24-.29"/></g></g><polygon points="65.02 63.99 54.32 50.76 58.92 50.51 69.62 63.75 65.02 63.99" style="fill:#b3b3b3"/><polygon points="64.95 73.78 54.25 60.54 54.32 50.76 65.02 63.99 64.95 73.78" style="fill:gray"/><g style="isolation:isolate"><g style="clip-path:url(#cq)"><path d="M68.74,59.59,58,46.35a11.65,11.65,0,0,0,1.23-.12L70,59.47a11.4,11.4,0,0,1-1.23.12"/><path d="M70,59.47,59.27,46.23a6.18,6.18,0,0,0,.62-.12l.28-.07,10.7,13.24-.28.07a6.18,6.18,0,0,1-.62.12"/><path d="M70.87,59.28,60.17,46a3.68,3.68,0,0,0,.47-.15l10.7,13.24a3.68,3.68,0,0,1-.47.15"/><path d="M71.34,59.13,60.64,45.89c.13-.06.25-.11.37-.18L71.71,59c-.12.07-.24.12-.37.18"/><path d="M71.71,59,61,45.71a3.79,3.79,0,0,0,.34-.2h0l10.7,13.24h0a3.79,3.79,0,0,1-.34.2"/><path d="M72.06,58.74,61.36,45.5l.27-.2,10.7,13.24-.27.2"/><path d="M72.33,58.54,61.63,45.3a3.83,3.83,0,0,0,.28-.29l10.7,13.24a3.83,3.83,0,0,1-.28.29"/><path d="M72.61,58.25,61.91,45a2.73,2.73,0,0,0,.4-.6L73,57.65a2.73,2.73,0,0,1-.4.6"/></g></g><g style="isolation:isolate"><g style="clip-path:url(#cr)"><path d="M76.87,60.08,66.17,46.84a5.86,5.86,0,0,0,.76-1.1A6,6,0,0,0,67.57,44a9.94,9.94,0,0,0,.19-1.82,8.31,8.31,0,0,0-.38-2.45,5.77,5.77,0,0,0-1.09-2.06L77,50.92A5.91,5.91,0,0,1,78.08,53a8.31,8.31,0,0,1,.38,2.45,9.94,9.94,0,0,1-.19,1.82A6,6,0,0,1,77.63,59a5.86,5.86,0,0,1-.76,1.1" style="fill:#858585"/></g></g><g style="isolation:isolate"><g style="clip-path:url(#cs)"><path d="M73,57.65,62.31,44.41a3.93,3.93,0,0,0,.36-1.73A3.65,3.65,0,0,0,62.34,41a2.65,2.65,0,0,0-.26-.39l10.7,13.24a2.65,2.65,0,0,1,.26.39,3.65,3.65,0,0,1,.33,1.69A3.93,3.93,0,0,1,73,57.65"/></g></g><polygon points="65.05 59.78 54.35 46.54 58.04 46.35 68.74 59.59 65.05 59.78"/><g style="isolation:isolate"><g style="clip-path:url(#ct)"><path d="M72.09,53.25,61.38,40a2.75,2.75,0,0,1,.33.23L72.42,53.48l-.33-.23" style="fill:#adadad"/><path d="M72.42,53.48,61.71,40.24a1.86,1.86,0,0,1,.29.27L72.7,53.75a2.37,2.37,0,0,0-.28-.27" style="fill:#a8a8a8"/><path d="M72.7,53.75,62,40.51l.08.09,10.7,13.24-.08-.09" style="fill:#a3a3a3"/></g></g><g style="isolation:isolate"><g style="clip-path:url(#cu)"><path d="M69.48,52.76,58.78,39.52a10.71,10.71,0,0,1,1.16.06,4,4,0,0,1,1.44.43L72.09,53.25a4.11,4.11,0,0,0-1.45-.43,10.71,10.71,0,0,0-1.16-.06" style="fill:#adadad"/></g></g><g style="isolation:isolate"><g style="clip-path:url(#cv)"><path d="M69.48,52.76,58.78,39.52a10.71,10.71,0,0,1,1.16.06,4,4,0,0,1,1.44.43L72.09,53.25a4.11,4.11,0,0,0-1.45-.43,10.71,10.71,0,0,0-1.16-.06" style="fill:#adadad"/></g></g><g style="isolation:isolate"><g style="clip-path:url(#cw)"><path d="M68.79,52.78,58.09,39.54l.69,0,10.7,13.24-.69,0" style="fill:#a8a8a8"/><path d="M69.48,52.76,58.78,39.52a10.71,10.71,0,0,1,1.16.06,4,4,0,0,1,1.44.43L72.09,53.25a4.11,4.11,0,0,0-1.45-.43,10.71,10.71,0,0,0-1.16-.06" style="fill:#adadad"/></g></g><polygon points="39.55 75.11 28.84 61.87 33.94 61.6 44.63 74.84 39.55 75.11" style="fill:#b3b3b3"/><polygon points="65.05 59.78 54.35 46.54 54.4 39.73 65.1 52.97 65.05 59.78" style="fill:gray"/><polygon points="59.86 74.05 49.16 60.81 49.34 35.79 60.04 49.03 59.86 74.05"/><g style="isolation:isolate"><g style="clip-path:url(#cx)"><path d="M51.5,66.18,40.8,52.94a7,7,0,0,0,.81-.28L52.31,65.9a7,7,0,0,1-.81.28" style="fill:#9e9e9e"/><path d="M52.31,65.9,41.61,52.66a6.85,6.85,0,0,0,.67-.31L53,65.59a6.85,6.85,0,0,1-.67.31" style="fill:#999"/><path d="M53,65.59,42.28,52.35l.19-.11c.21-.12.42-.25.61-.38L53.79,65.1c-.2.13-.4.26-.62.38l-.19.11" style="fill:#949494"/><path d="M53.79,65.1,43.08,51.86a9.75,9.75,0,0,0,.86-.66l10.7,13.24c-.27.23-.55.45-.85.66" style="fill:#8f8f8f"/><path d="M54.64,64.44,43.94,51.2a8.13,8.13,0,0,0,.83-.83l10.7,13.24a8.13,8.13,0,0,1-.83.83" style="fill:#8a8a8a"/><path d="M55.47,63.61,44.77,50.37c.1-.12.2-.23.29-.35a9.36,9.36,0,0,0,1.46-2.82l10.7,13.24a9.36,9.36,0,0,1-1.46,2.82c-.09.12-.19.23-.29.35" style="fill:#858585"/></g></g><g style="isolation:isolate"><g style="clip-path:url(#cy)"><path d="M55.47,63.61,44.77,50.37c.1-.12.2-.23.29-.35a9.36,9.36,0,0,0,1.46-2.82l10.7,13.24a9.36,9.36,0,0,1-1.46,2.82c-.09.12-.19.23-.29.35" style="fill:#858585"/></g></g><g style="isolation:isolate"><g style="clip-path:url(#cz)"><path d="M49.33,66.52,38.63,53.28c.37,0,.73-.06,1.08-.11l10.7,13.24c-.35,0-.71.09-1.08.11" style="fill:#a8a8a8"/><path d="M50.41,66.41,39.71,53.17c.38-.06.74-.14,1.09-.23L51.5,66.18c-.35.09-.71.17-1.09.23" style="fill:#a3a3a3"/><path d="M51.5,66.18,40.8,52.94a7,7,0,0,0,.81-.28L52.31,65.9a7,7,0,0,1-.81.28" style="fill:#9e9e9e"/></g></g><polygon points="65.1 52.97 54.4 39.73 58.09 39.54 68.79 52.78 65.1 52.97" style="fill:#b3b3b3"/><g style="isolation:isolate"><g style="clip-path:url(#da)"><path d="M70.55,48.48,59.85,35.24c.24,0,.47,0,.7,0l10.7,13.24c-.23,0-.46,0-.7,0"/><path d="M71.25,48.46,60.55,35.22a7.84,7.84,0,0,1,3.07.54,7,7,0,0,1,1.76,1L76.08,50a7,7,0,0,0-1.76-1,7.84,7.84,0,0,0-3.07-.54"/><path d="M76.08,50,65.38,36.77a6.09,6.09,0,0,1,.69.65h0l10.7,13.24h0a6.09,6.09,0,0,0-.69-.65"/><path d="M76.78,50.67,66.08,37.43l.21.25L77,50.92l-.22-.25"/></g></g><polygon points="44.63 74.84 33.94 61.6 33.99 53.52 44.69 66.76 44.63 74.84" style="fill:gray"/><polygon points="44.69 66.76 33.99 53.52 38.63 53.27 49.33 66.52 44.69 66.76" style="fill:#b3b3b3"/><g style="isolation:isolate"><g style="clip-path:url(#db)"><path d="M47.84,62.42,37.14,49.18,38,49.1l10.7,13.24-.83.08"/><path d="M48.67,62.34,38,49.1c.28-.05.54-.1.8-.17l10.7,13.24c-.26.07-.52.12-.8.17"/><path d="M49.47,62.17,38.77,48.93a5.49,5.49,0,0,0,.57-.2L50,62a4.77,4.77,0,0,1-.57.2"/><path d="M50,62,39.34,48.73a3.82,3.82,0,0,0,.46-.21L50.5,61.76A3.82,3.82,0,0,1,50,62"/><path d="M50.5,61.76,39.8,48.52l.4-.24L50.9,61.52l-.4.24"/><path d="M50.9,61.52,40.2,48.28a3.57,3.57,0,0,0,.38-.3l10.7,13.24a3.57,3.57,0,0,1-.38.3"/><path d="M51.28,61.22,40.58,48l.06,0,10.7,13.24-.06,0"/></g></g><polygon points="44.72 62.58 34.02 49.34 37.14 49.18 47.84 62.42 44.72 62.58"/><polygon points="60.04 49.03 49.34 35.79 59.85 35.23 70.55 48.48 60.04 49.03"/><g style="isolation:isolate"><g style="clip-path:url(#dc)"><path d="M57.22,60.44,46.52,47.2A10.32,10.32,0,0,0,47,44.39a9.63,9.63,0,0,0-.43-2.76A8,8,0,0,0,45.13,39l10.7,13.24a8,8,0,0,1,1.43,2.68,9.63,9.63,0,0,1,.43,2.76,10.32,10.32,0,0,1-.47,2.81" style="fill:#858585"/></g></g><g style="isolation:isolate"><g style="clip-path:url(#dd)"><path d="M51.34,61.17,40.64,47.93a2.91,2.91,0,0,0,.3-.31l10.7,13.24a2.91,2.91,0,0,1-.3.31"/><path d="M51.64,60.86,40.94,47.62a4.44,4.44,0,0,0,1-3,4.1,4.1,0,0,0-.79-2.7L51.81,55.2a4.1,4.1,0,0,1,.79,2.7,4.39,4.39,0,0,1-1,3"/></g></g><g style="isolation:isolate"><g style="clip-path:url(#de)"><path d="M47.91,53.87,37.21,40.63h.47l10.7,13.24h-.47" style="fill:#a8a8a8"/><path d="M48.38,53.86,37.68,40.62a4.7,4.7,0,0,1,3,.87l10.7,13.24a4.7,4.7,0,0,0-3-.87" style="fill:#adadad"/><path d="M51.34,54.73,40.64,41.49l0,0c.11.1.22.2.32.31l10.7,13.24c-.1-.11-.21-.21-.32-.31l0,0" style="fill:#a8a8a8"/><path d="M51.71,55.08,41,41.84l.1.12L51.81,55.2l-.1-.12" style="fill:#a3a3a3"/></g></g><polygon points="44.72 62.58 34.02 49.34 34.08 40.8 44.78 54.04 44.72 62.58" style="fill:gray"/><polygon points="44.78 54.04 34.08 40.8 37.2 40.63 47.91 53.87 44.78 54.04" style="fill:#b3b3b3"/><g style="isolation:isolate"><g style="clip-path:url(#df)"><path d="M49.43,49.58,38.73,36.34h.62l10.7,13.24h-.62"/><path d="M50.05,49.57,39.35,36.33a7.46,7.46,0,0,1,3.22.65,8.06,8.06,0,0,1,1.53,1L54.8,51.17a8.06,8.06,0,0,0-1.53-1,7.46,7.46,0,0,0-3.22-.65"/><path d="M54.8,51.17,44.1,37.93a7.1,7.1,0,0,1,.8.75L55.6,51.92a7.1,7.1,0,0,0-.8-.75"/><path d="M55.6,51.92,44.9,38.68l.23.27,10.7,13.24-.23-.27"/></g></g><polygon points="39.73 50.09 29.02 36.85 38.73 36.34 49.43 49.58 39.73 50.09"/><polygon points="39.55 75.11 28.84 61.87 29.02 36.85 39.73 50.09 39.55 75.11"/><polygon points="27.7 29.64 17 16.39 311.02 0.98 321.72 14.22 27.7 29.64" style="fill:#b3b3b3"/><g style="isolation:isolate"><g style="clip-path:url(#dg)"><path d="M20.85,31.55,10.15,18.31a14.92,14.92,0,0,1,1.62-.75L22.47,30.8a15.86,15.86,0,0,0-1.62.75" style="fill:#999"/><path d="M22.47,30.8,11.77,17.56A14.53,14.53,0,0,1,13.49,17l10.7,13.24a14.53,14.53,0,0,0-1.72.59" style="fill:#9e9e9e"/><path d="M24.19,30.21,13.49,17a16.11,16.11,0,0,1,1.95-.42l10.7,13.24a16.11,16.11,0,0,0-1.95.42" style="fill:#a3a3a3"/><path d="M26.14,29.79,15.44,16.55c.51-.07,1-.13,1.56-.16L27.7,29.63c-.53,0-1.05.09-1.56.16" style="fill:#a8a8a8"/></g></g><path d="M321.73,13.26a15.38,15.38,0,0,1,16.49,15.5l-.29,40.45A17.76,17.76,0,0,1,321.2,86.45l-294,15.41A15.38,15.38,0,0,1,10.7,86.36L11,45.91A17.76,17.76,0,0,1,27.71,28.67Zm15.22,56,.29-40.44a14.46,14.46,0,0,0-15.52-14.59l-294,15.4A16.71,16.71,0,0,0,12,45.86l-.29,40.45A14.47,14.47,0,0,0,27.19,100.9l294-15.41A16.71,16.71,0,0,0,337,69.26" style="fill:#161616"/><path d="M158,43.09c2.91-.16,5.17.44,6.79,1.78a7.76,7.76,0,0,1,2.64,5.81l-5,.26a4.44,4.44,0,0,0-1.36-2.86,4.5,4.5,0,0,0-3.1-.72,5.25,5.25,0,0,0-3.92,1.69q-1.31,1.56-1.34,5l0,5.43a12.25,12.25,0,0,0,.25,2.85,4.21,4.21,0,0,0,.83,1.82,3,3,0,0,0,1.51,1,7.39,7.39,0,0,0,2.2.19,5.42,5.42,0,0,0,3.28-1.13A4.66,4.66,0,0,0,162.18,61l5.11-.26a9.93,9.93,0,0,1-.82,3.63,7.51,7.51,0,0,1-2,2.67,9.18,9.18,0,0,1-3.06,1.7,16.32,16.32,0,0,1-8.16.41,6.87,6.87,0,0,1-3.07-1.51,6.73,6.73,0,0,1-1.86-2.81,11.7,11.7,0,0,1-.61-4.21l0-7.31a12.33,12.33,0,0,1,.72-4.32,8.24,8.24,0,0,1,2-3.11,9.19,9.19,0,0,1,3.21-2A14.6,14.6,0,0,1,158,43.09Z"/><polygon points="266.03 38.23 266 42.2 263.71 42.32 263.58 59.41 265.88 59.29 265.85 63.25 256.34 63.75 256.37 59.79 258.59 59.67 258.71 42.58 256.49 42.7 256.52 38.73 266.03 38.23"/><path d="M245.24,38.51a13.06,13.06,0,0,1,3.87.33A7.9,7.9,0,0,1,252,40.19a6.22,6.22,0,0,1,1.81,2.28,7.81,7.81,0,0,1,.68,3.06l-5,.26a2.86,2.86,0,0,0-1.19-2.43,5.36,5.36,0,0,0-3.05-.57,4.83,4.83,0,0,0-2.85.91,2.92,2.92,0,0,0-1,2.5,1.84,1.84,0,0,0,.7,1.42,5.43,5.43,0,0,0,1.61.9,11.59,11.59,0,0,0,2,.55c.68.13,1.24.25,1.68.35a26,26,0,0,1,3.08,1,8.81,8.81,0,0,1,2.39,1.4,5.77,5.77,0,0,1,1.56,2,6.53,6.53,0,0,1,.54,2.83,8.06,8.06,0,0,1-.8,3.68A6.94,6.94,0,0,1,252,62.82a9.66,9.66,0,0,1-3.16,1.46,15.15,15.15,0,0,1-3.22.5l-.59,0a13.87,13.87,0,0,1-3.82-.38A7.62,7.62,0,0,1,238.25,63a6.66,6.66,0,0,1-1.93-2.54,9.9,9.9,0,0,1-.78-3.75l5-.26a4.13,4.13,0,0,0,1.31,3.19,4.73,4.73,0,0,0,3.34,1h.16a6.61,6.61,0,0,0,3.39-.9,3,3,0,0,0,1.12-2.86,2.43,2.43,0,0,0-.49-1.55,3.48,3.48,0,0,0-1.25-1,8.47,8.47,0,0,0-1.81-.65l-2.17-.53c-.88-.19-1.78-.42-2.71-.7a9.94,9.94,0,0,1-2.51-1.15A6.38,6.38,0,0,1,237,49.41a5,5,0,0,1-.72-2.84,8,8,0,0,1,.7-3.32,7.28,7.28,0,0,1,1.87-2.46,8.94,8.94,0,0,1,2.83-1.59A12.78,12.78,0,0,1,245.24,38.51Z"/><polygon points="233.87 39.92 233.84 44.13 222.82 44.71 222.77 50.81 232.51 50.3 232.48 54.57 222.74 55.08 222.7 61.24 234.07 60.65 234.04 64.92 217.59 65.78 217.76 40.76 233.87 39.92"/><path d="M100.83,51.72a11.07,11.07,0,0,1,.73,4.3l0,6.43a11.7,11.7,0,0,1-.79,4.34A9,9,0,0,1,98.58,70a9.68,9.68,0,0,1-3.32,2,14.06,14.06,0,0,1-4.34.86,13.44,13.44,0,0,1-4.31-.4,8.58,8.58,0,0,1-3.29-1.7,7.53,7.53,0,0,1-2.08-3,11.13,11.13,0,0,1-.7-4.26l0-6.43a12.06,12.06,0,0,1,.77-4.38,8.85,8.85,0,0,1,2.13-3.22,9.57,9.57,0,0,1,3.31-2.06,14.34,14.34,0,0,1,4.32-.87,13.6,13.6,0,0,1,4.33.42,8.18,8.18,0,0,1,3.3,1.71A7.73,7.73,0,0,1,100.83,51.72Zm-4.4,10.4,0-5.14c0-2.28-.43-3.9-1.38-4.84a5,5,0,0,0-4-1.28A5.7,5.7,0,0,0,87,52.57c-1,1-1.42,2.7-1.44,5l0,5.13c0,2.26.44,3.86,1.37,4.8a5,5,0,0,0,4,1.27,5.6,5.6,0,0,0,4-1.69q1.41-1.56,1.44-4.95"/><path d="M74.34,62l5.12,11-5.41.28-4.43-9.55L65,64,65,73.78l-5.09.27L60,49l10.51-.55a8.49,8.49,0,0,1,3.77.52,6.63,6.63,0,0,1,2.45,1.66A6,6,0,0,1,78.08,53a8.31,8.31,0,0,1,.38,2.45,9.94,9.94,0,0,1-.19,1.82A6,6,0,0,1,77.63,59a6.46,6.46,0,0,1-1.26,1.62A9.42,9.42,0,0,1,74.34,62ZM73,57.65a3.93,3.93,0,0,0,.36-1.73A3.65,3.65,0,0,0,73,54.23a2.49,2.49,0,0,0-1-1,4.11,4.11,0,0,0-1.45-.43,11.15,11.15,0,0,0-1.85,0L65.1,53l0,6.81,3.69-.19a11.22,11.22,0,0,0,1.85-.24,4.08,4.08,0,0,0,1.46-.6,2.93,2.93,0,0,0,1-1.1"/><path d="M57.26,54.87a9.63,9.63,0,0,1,.43,2.76,10.32,10.32,0,0,1-.47,2.81,9.36,9.36,0,0,1-1.46,2.82,8.8,8.8,0,0,1-2.59,2.22,8.51,8.51,0,0,1-3.84,1l-4.64.24-.06,8.08-5.09.27.18-25,9.71-.51a7.81,7.81,0,0,1,3.84.64,7.28,7.28,0,0,1,2.56,2A8,8,0,0,1,57.26,54.87Zm-5.92,6.3A4.25,4.25,0,0,0,52.6,57.9a3.8,3.8,0,0,0-1.21-3.13,4.93,4.93,0,0,0-3.48-.9L44.78,54l-.06,8.54,3.12-.16a5.48,5.48,0,0,0,3.5-1.25"/><path d="M72.09,53.25a2.49,2.49,0,0,1,1,1,3.65,3.65,0,0,1,.33,1.69A3.93,3.93,0,0,1,73,57.65a2.93,2.93,0,0,1-1,1.1,4,4,0,0,1-1.46.6,11.22,11.22,0,0,1-1.85.24l-3.69.19,0-6.81,3.69-.19a11.15,11.15,0,0,1,1.85,0A4.11,4.11,0,0,1,72.09,53.25Z" style="fill:#fff"/><path d="M204.78,45.65c2-.1,3.33.39,4.12,1.46a7.86,7.86,0,0,1,1.15,4.7l0,4.37a10.69,10.69,0,0,1-.3,2.65,4.47,4.47,0,0,1-.92,1.82,3.77,3.77,0,0,1-1.65,1.09,8.53,8.53,0,0,1-2.49.45l-2.94.15.12-16.54Z" style="fill:#fff"/><path d="M112.48,50.49c2-.1,3.33.39,4.12,1.45a7.92,7.92,0,0,1,1.15,4.71l0,4.37a10.69,10.69,0,0,1-.3,2.65,4.54,4.54,0,0,1-.92,1.82,3.77,3.77,0,0,1-1.65,1.09,8.9,8.9,0,0,1-2.49.44l-2.94.16.12-16.54Z" style="fill:#fff"/><path d="M91.08,50.86a5,5,0,0,1,4,1.28c1,.94,1.4,2.56,1.38,4.84l0,5.14q0,3.39-1.44,4.95a5.6,5.6,0,0,1-4,1.69,5,5,0,0,1-4-1.27c-.93-.94-1.38-2.54-1.37-4.8l0-5.13c0-2.29.49-4,1.44-5A5.7,5.7,0,0,1,91.08,50.86Z" style="fill:#fff"/><path d="M47.91,53.87a4.93,4.93,0,0,1,3.48.9A3.8,3.8,0,0,1,52.6,57.9a4.25,4.25,0,0,1-1.26,3.27,5.48,5.48,0,0,1-3.5,1.25l-3.12.16L44.78,54Z" style="fill:#fff"/><path d="M322.7,13.24c.42,0,.83,0,1.24.06l.33,0c.32,0,.65.07,1,.13l.26,0a11.4,11.4,0,0,1,1.16.25l.26.07c.3.08.61.18.9.28l.3.1c.36.13.72.27,1.07.43l.12,0c.31.15.62.3.93.47l.28.16c.29.16.57.33.85.52l.13.08c.32.21.62.44.92.67l.23.19c.23.19.45.38.66.58l.21.19c.27.26.53.52.78.8s.37.41.54.63L324.14,5.73q-.24-.3-.51-.6l0,0c-.25-.28-.51-.54-.78-.8l-.21-.19c-.21-.2-.43-.39-.66-.58l-.14-.12-.09-.07c-.3-.23-.6-.46-.92-.67l-.13-.08c-.28-.19-.56-.36-.86-.53l-.27-.15c-.31-.17-.62-.32-.94-.47l-.11-.05c-.35-.16-.71-.3-1.07-.43l-.3-.1c-.3-.1-.6-.2-.9-.28L316,.51A11.4,11.4,0,0,0,314.8.26l-.26,0c-.32-.06-.65-.1-1-.13l-.33,0C312.83,0,312.42,0,312,0h0l-1,0L17,15.43l5.35,6.62L17,15.43c-.56,0-1.12.09-1.66.17h0l-.07,0c-.48.07-.95.17-1.42.28l-.31.08-.25.06-.45.16c-.37.11-.74.23-1.11.37l-.27.1-.38.17-1,.46-.35.17-.27.16c-.35.19-.69.4-1,.62-.12.08-.26.14-.38.23l-.14.1c-.53.37-1,.76-1.53,1.18l0,0c-.36.31-.71.65-1,1L5,21.09l-.51.55-.18.23-.43.53-.52.72c-.13.19-.26.38-.38.57s-.31.5-.46.76l-.33.6c-.14.26-.26.53-.39.8s-.19.41-.27.62-.22.57-.32.86-.15.41-.21.62-.17.62-.25.93-.11.4-.15.61-.12.7-.17,1.05c0,.17-.06.35-.07.52-.06.53-.09,1.07-.1,1.61L0,73.12a15.31,15.31,0,0,0,3.38,9.8l10.7,13.24a15.09,15.09,0,0,1-2.6-4.8l3.38,4.18h0c.15.2.31.38.48.57s.33.34.5.52.15.15.22.22c.32.31.65.6,1,.88l.14.09a3.15,3.15,0,0,0,.29.22c.32.23.65.46,1,.67l.35.22c.44.25.89.49,1.36.7l.12,0c.43.19.88.35,1.33.5l.42.13c.42.12.84.22,1.27.31.1,0,.19,0,.29.06a13.92,13.92,0,0,0,1.58.2l.41,0c.23,0,.46,0,.69,0l.9,0L16.49,87.66c-.54,0-1.07,0-1.59,0l-.41,0a13.92,13.92,0,0,1-1.58-.2c-.1,0-.19,0-.29-.06-.31-.06-.61-.14-.91-.22a7.86,7.86,0,0,1,0-.84L12,45.86c0-.44,0-.88.07-1.32,0-.13,0-.26.05-.4,0-.31.08-.61.13-.91,0-.15,0-.29.08-.43.07-.32.15-.63.23-.94l.09-.32c.12-.42.26-.82.41-1.22,0-.08.07-.17.11-.25.13-.31.26-.62.41-.93.06-.13.13-.25.19-.38s.28-.53.43-.79l.21-.35c.19-.31.4-.62.61-.91a1.4,1.4,0,0,0,.1-.16c.25-.34.52-.67.8-1l.29-.33c.16-.18.32-.35.49-.52s.23-.23.34-.34l.51-.47a3.47,3.47,0,0,1,.29-.25,14.37,14.37,0,0,1,1.39-1.08l.23-.15c.44-.29.88-.56,1.34-.81a.6.6,0,0,1,.11-.06,12.78,12.78,0,0,1,1.59-.74l-.61-.75.56-.24c.37-.14.74-.26,1.11-.37s.47-.16.7-.22l.31-.08c.47-.11.94-.21,1.42-.28l.07,0c.55-.08,1.11-.14,1.68-.17h0l294-15.41Z" style="fill:#111"/><path d="M321.72,14.23l-294,15.4a16.74,16.74,0,0,0-10.53,4.56A16.94,16.94,0,0,0,13,40.52c-.17.48-.33,1-.46,1.47-.07.25-.13.5-.18.76A15.27,15.27,0,0,0,12,45.86l-.29,40.45a14.87,14.87,0,0,0,.16,2.33,13.4,13.4,0,0,0,.51,2.21c.07.23.15.47.24.7a14,14,0,0,0,1.7,3.23,13.49,13.49,0,0,0,.89,1.14,14,14,0,0,0,1,1,14.15,14.15,0,0,0,2.3,1.76,14.43,14.43,0,0,0,1.28.71,14.76,14.76,0,0,0,2.63,1,12.62,12.62,0,0,0,1.75.36c.46.07.92.11,1.4.14l.85,0,.8,0,294-15.41a15.64,15.64,0,0,0,2.38-.3,16.27,16.27,0,0,0,3-.92c.48-.2.94-.42,1.4-.66s.9-.5,1.34-.78A17.14,17.14,0,0,0,334.22,78c.28-.42.55-.86.79-1.31a16.54,16.54,0,0,0,1-2.1c.17-.48.33-1,.46-1.47a15.5,15.5,0,0,0,.52-3.87l.29-40.44A14.46,14.46,0,0,0,321.72,14.23ZM57.22,60.44a9.36,9.36,0,0,1-1.46,2.82,8.8,8.8,0,0,1-2.59,2.22,8.51,8.51,0,0,1-3.84,1l-4.64.24-.06,8.08-5.09.27.18-25,9.71-.51a7.79,7.79,0,0,1,3.84.64,7.28,7.28,0,0,1,2.56,2,8,8,0,0,1,1.43,2.68,9.63,9.63,0,0,1,.43,2.76,10.32,10.32,0,0,1-.47,2.81M74.05,73.3l-4.43-9.55L65,64,65,73.78l-5.09.27L60,49l10.51-.55a8.49,8.49,0,0,1,3.77.52,6.63,6.63,0,0,1,2.45,1.66A6,6,0,0,1,78.08,53a8.31,8.31,0,0,1,.38,2.45,9.94,9.94,0,0,1-.19,1.82A6.22,6.22,0,0,1,77.63,59a6.6,6.6,0,0,1-1.26,1.61,9.42,9.42,0,0,1-2,1.43l5.12,11-5.41.28m27.46-10.84a11.69,11.69,0,0,1-.79,4.33A9,9,0,0,1,98.58,70a9.68,9.68,0,0,1-3.32,2,14.06,14.06,0,0,1-4.34.86,13.44,13.44,0,0,1-4.31-.4,8.58,8.58,0,0,1-3.29-1.7,7.53,7.53,0,0,1-2.08-3,11.13,11.13,0,0,1-.7-4.26l0-6.43a12.06,12.06,0,0,1,.77-4.38,8.72,8.72,0,0,1,2.13-3.22,9.57,9.57,0,0,1,3.31-2.06,14.34,14.34,0,0,1,4.32-.87,13.6,13.6,0,0,1,4.33.42,8.18,8.18,0,0,1,3.3,1.71,7.73,7.73,0,0,1,2.09,3,11.07,11.07,0,0,1,.73,4.3l0,6.44m21.29-1c0,3.14-.92,5.52-2.72,7.13a11.58,11.58,0,0,1-7.43,2.69l-8.35.44.18-25,8.35-.44c3.21-.17,5.68.53,7.43,2.09s2.61,3.94,2.59,7.14l0,6M145,60.2c0,3.45-.83,6-2.43,7.65s-4.08,2.57-7.44,2.75-5.87-.48-7.43-2-2.33-3.95-2.31-7.4l.12-15.63,5.09-.27-.12,16.22c0,3.44,1.54,5.06,4.69,4.9s4.77-2,4.8-5.39L140,44.83l5-.26L145,60.2m8,2.12a4.21,4.21,0,0,0,.83,1.82,3,3,0,0,0,1.51,1,7.39,7.39,0,0,0,2.2.19,5.42,5.42,0,0,0,3.28-1.13A4.71,4.71,0,0,0,162.18,61l5.11-.26a9.93,9.93,0,0,1-.82,3.63,7.51,7.51,0,0,1-2,2.67,9.18,9.18,0,0,1-3.06,1.7,16.32,16.32,0,0,1-8.16.41,6.87,6.87,0,0,1-3.07-1.51,6.73,6.73,0,0,1-1.86-2.81,11.7,11.7,0,0,1-.61-4.21l0-7.31a12.57,12.57,0,0,1,.71-4.32,8.38,8.38,0,0,1,2-3.11,9.19,9.19,0,0,1,3.21-2,14.6,14.6,0,0,1,4.28-.81c2.91-.16,5.17.44,6.79,1.78a7.76,7.76,0,0,1,2.64,5.81l-5,.26a4.44,4.44,0,0,0-1.36-2.86,4.5,4.5,0,0,0-3.1-.72,5.25,5.25,0,0,0-3.92,1.69q-1.31,1.56-1.34,5l0,5.43a12.25,12.25,0,0,0,.25,2.85m33.44-15.7L180,47l-.15,20.81-5.09.26.15-20.8-6.34.33,0-4.21,17.78-.94,0,4.22m28.74,10c0,3.14-.92,5.52-2.72,7.14A11.58,11.58,0,0,1,205,66.44l-8.35.44.18-25,8.35-.44c3.21-.17,5.68.54,7.43,2.09s2.61,3.94,2.59,7.14l-.05,6M234,64.92l-16.45.86.18-25,16.1-.84,0,4.21-11,.58,0,6.1,9.74-.51,0,4.27-9.74.51,0,6.16,11.37-.59,0,4.27m20.07-4.62A6.94,6.94,0,0,1,252,62.82a9.66,9.66,0,0,1-3.16,1.46,15.15,15.15,0,0,1-3.22.5l-.59,0a13.87,13.87,0,0,1-3.82-.38A7.62,7.62,0,0,1,238.25,63a6.66,6.66,0,0,1-1.93-2.54,9.9,9.9,0,0,1-.78-3.75l5-.26a4.09,4.09,0,0,0,1.31,3.19,4.73,4.73,0,0,0,3.34,1h.16a6.61,6.61,0,0,0,3.39-.9,3,3,0,0,0,1.12-2.86,2.43,2.43,0,0,0-.49-1.55,3.48,3.48,0,0,0-1.25-1,8.47,8.47,0,0,0-1.81-.65l-2.17-.53c-.88-.19-1.78-.42-2.71-.7a9.94,9.94,0,0,1-2.51-1.15A6.38,6.38,0,0,1,237,49.41a5,5,0,0,1-.72-2.84,8,8,0,0,1,.7-3.32,7.28,7.28,0,0,1,1.87-2.46,8.94,8.94,0,0,1,2.83-1.59,12.78,12.78,0,0,1,3.54-.69,13.06,13.06,0,0,1,3.87.33A7.9,7.9,0,0,1,252,40.19a6.09,6.09,0,0,1,1.8,2.28,7.64,7.64,0,0,1,.69,3.06l-5,.26a2.86,2.86,0,0,0-1.19-2.43,5.36,5.36,0,0,0-3.05-.57,4.83,4.83,0,0,0-2.85.91,2.92,2.92,0,0,0-1,2.5,1.86,1.86,0,0,0,.69,1.42,5.62,5.62,0,0,0,1.62.9,11.59,11.59,0,0,0,2,.55c.68.13,1.24.25,1.68.35a26,26,0,0,1,3.08,1,8.81,8.81,0,0,1,2.39,1.4,5.77,5.77,0,0,1,1.56,2,6.53,6.53,0,0,1,.54,2.83,8.06,8.06,0,0,1-.8,3.68M266,42.2l-2.29.12-.13,17.09,2.3-.12,0,4-9.51.5,0-4,2.22-.12.12-17.09-2.22.12,0-4,9.51-.5,0,4m21.2,12.28a9.09,9.09,0,0,1-.71,3.62,7.53,7.53,0,0,1-2,2.64,9.23,9.23,0,0,1-3,1.67,14.38,14.38,0,0,1-3.94.72c-3.18.17-5.66-.53-7.42-2.1s-2.64-4-2.62-7.27l.05-6.44a12.91,12.91,0,0,1,.71-4.37,8.83,8.83,0,0,1,2-3.22,9.14,9.14,0,0,1,3.21-2.06,13.67,13.67,0,0,1,4.28-.86q4.37-.23,6.79,1.77a7.67,7.67,0,0,1,2.64,5.78l-5,.27a4.67,4.67,0,0,0-1.35-2.89,4.29,4.29,0,0,0-3.09-.74,4.9,4.9,0,0,0-3.92,1.85A8.76,8.76,0,0,0,272.52,48l0,4.53q0,6.75,5.07,6.47A5.43,5.43,0,0,0,281,57.69a4.55,4.55,0,0,0,1.41-3.54V52.44l-4.52.24,0-4.09,9.29-.49,0,6.38m22,6.5-4.6.24-8.88-15.41-.12,15.88-5.09.27.18-25,4.72-.25,8.95,15.45.12-15.92,4.9-.26-.18,25" style="fill:#fff"/></svg>