<svg xmlns="http://www.w3.org/2000/svg" xmlns:xlink="http://www.w3.org/1999/xlink" viewBox="0 0 197.32 174.87"><defs><clipPath id="a"><path d="M156.58,92.6a9.11,9.11,0,0,1,.06-1.38c.05-.37.1-.86.16-1.23s.18-.93.29-1.32.23-.82.35-1.16.35-.88.5-1.25a11.1,11.1,0,0,1,.63-1.24c.36-.6.88-1.37,1.3-1.94A9.62,9.62,0,0,1,160.8,82c.24-.24.55-.57.81-.8s.84-.71,1.22-1a15,15,0,0,1,1.76-1.13,12.37,12.37,0,0,1,1.6-.77c.33-.13.76-.29,1.09-.4s.79-.23,1.14-.32a14.41,14.41,0,0,1,2-.35,13.87,13.87,0,0,1,1.78-.09,15,15,0,0,1,4.12.59,14.84,14.84,0,0,1,1.82.64c.49.21,1.12.54,1.59.79A13,13,0,0,1,186,90.76c0,8.22-6.26,15.72-13.94,16.75,7.68-1,13.92-8.53,13.94-16.75a13,13,0,0,0-6.27-11.61,13.41,13.41,0,0,1,1.2.75c.25.19.6.44.85.64s.73.6,1,.89.57.56.8.81.61.71.85,1a15.13,15.13,0,0,1,2.33,4.4,19.12,19.12,0,0,1,.6,2.37,12.13,12.13,0,0,1,.16,1.35c0,.38,0,.88,0,1.26a9.94,9.94,0,0,1-.08,1.54c0,.37-.1.87-.17,1.23s-.19.93-.3,1.32a13.4,13.4,0,0,1-.88,2.4c-.14.33-.37.75-.54,1.06s-.5.82-.72,1.16a12.86,12.86,0,0,1-.89,1.17,16.1,16.1,0,0,1-1.57,1.63c-.36.31-.86.71-1.24,1s-.6.42-.86.59a19.9,19.9,0,0,1-1.75,1,14.1,14.1,0,0,1-2.29.84,15.38,15.38,0,0,1-6.91.35,15.62,15.62,0,0,1-6.31-2.66c-.33-.25-.78-.57-1.08-.85s-.59-.52-.83-.76-.64-.67-.9-1a19.88,19.88,0,0,1-1.38-1.89c-.22-.33-.46-.8-.65-1.16a12.93,12.93,0,0,1-.54-1.2c-.24-.69-.55-1.61-.72-2.32s-.26-1.54-.34-2.2C156.58,93.49,156.58,93,156.58,92.6Z" style="fill:none"/></clipPath><clipPath id="b"><path d="M164.43,106.11c-.27-.16-.63-.37-.88-.54-.41-.28-.94-.67-1.33-1a20,20,0,0,1-1.63-1.56,10.16,10.16,0,0,1-.94-1.14,13.41,13.41,0,0,1-1.36-2.17c-.19-.35-.41-.85-.56-1.22s-.29-.79-.42-1.13a11.31,11.31,0,0,1-.35-1.3,20.23,20.23,0,0,1-.35-2.46,13.23,13.23,0,0,1,0-2.27c.05-.41.09-1,.17-1.35s.16-.85.26-1.2.24-.91.38-1.28.3-.79.44-1.12.4-.85.59-1.2a15.78,15.78,0,0,1,1.4-2.11,21.94,21.94,0,0,1,1.52-1.68,17,17,0,0,1,1.88-1.52c.35-.24.84-.54,1.21-.76s.55-.3.79-.42a15.67,15.67,0,0,1,2.63-1,15.44,15.44,0,0,1,6-.46,16.08,16.08,0,0,1,3,.67,16.4,16.4,0,0,1,1.58.62c.37.17.84.42,1.2.62a12,12,0,0,0-7.62-1.41,12,12,0,0,1,7.62,1.41,20.55,20.55,0,0,1,1.76,1.16c.34.27.79.64,1.11.94s.58.55.81.8.65.74.92,1.08a10.88,10.88,0,0,1,.68,1c.23.34.51.8.7,1.16s.38.75.53,1.07.36.87.49,1.25.25.81.36,1.16a10,10,0,0,1,.28,1.32c0,.37.12.86.15,1.24s.06,1,.06,1.37a19.16,19.16,0,0,1-.2,2.51,12.27,12.27,0,0,1-.32,1.46A13.94,13.94,0,0,1,186.2,99c-.16.32-.36.75-.53,1.06s-.47.8-.69,1.13a14.72,14.72,0,0,1-1.54,2,15.8,15.8,0,0,1-1.83,1.68c-.25.2-.59.45-.85.62s-.85.53-1.22.75a17.39,17.39,0,0,1-1.76.83,15.67,15.67,0,0,1-8,.92,14.87,14.87,0,0,1-2.62-.62,12,12,0,0,1-1.57-.62C165.26,106.56,164.78,106.31,164.43,106.11Z" style="fill:none"/></clipPath><clipPath id="c"><path d="M185.84,46.62,156.64,75.7A15.08,15.08,0,0,1,148,79.91c-9.73,1.37-20-5.69-22.92-15.77-1.88-6.45-.29-12.57,3.66-16.5l29.2-29.09c-3.94,3.93-5.53,10.05-3.66,16.51,2.93,10.08,13.19,17.13,22.92,15.76A15.1,15.1,0,0,0,185.84,46.62Z" style="fill:none"/></clipPath></defs><path d="M172.07,108.63a16.28,16.28,0,0,1-3-.29l-.16,0a15.09,15.09,0,0,1-2.36-.67l-.44-.17a14.92,14.92,0,0,1-1.9-.92l-.66-.39c-.29-.19-.49-.32-.62-.42a14.07,14.07,0,0,1-5.17-6,14.33,14.33,0,0,1-.79-1.94l-.09-.26a10.23,10.23,0,0,1-.38-1.38c-.06-.23-.11-.51-.16-.81h0l0-.23h0v0l.11,0,.36-.17-.49.08,0-.14a13.56,13.56,0,0,1-.12-3.31,12.38,12.38,0,0,1,.13-1.24l0-.14q.08-.47.18-.93l.13-.54.06-.24c.09-.34.2-.72.32-1a14.46,14.46,0,0,1,.8-1.93l.19-.35a3.07,3.07,0,0,1,.2-.36c.12-.22.25-.43.37-.62a14.15,14.15,0,0,1,1-1.36,10.25,10.25,0,0,1,1-1.15l.4-.41.2-.19c.1-.09.16-.16.23-.21l.42.29-.33-.37.24-.22.45-.38.09-.06a8.25,8.25,0,0,1,.71-.54l.37-.25.66-.42.58-.33.67-.35.48-.22c.31-.13.67-.28,1.07-.42l.42-.14.26-.08.38-.11.25.45-.13-.48.42-.11c.39-.1.76-.18,1.09-.23l.47-.08.48-.06.79-.06h.13l.13.49,0-.5h1.08l0,.11-.05.89.06-.41v-.44l.06.36v-.5h.12l.12.5,0-.49.37,0,.54,0,.3,0,.52.07.74.13.57.13.6.16a6.59,6.59,0,0,1,.72.22c.35.12.64.22,1.08.4l.45.2.43.2.68.36.41.24.31.18c.24.15.49.31.7.46L181,80l.31-.4A13.38,13.38,0,0,1,186,84.75a15.19,15.19,0,0,1,1,2.2,14.15,14.15,0,0,1,.64,2.15,7.54,7.54,0,0,1,.16.86c0,.15.05.27.07.41l.06.49a15.78,15.78,0,0,1-2.74,10.85,10.31,10.31,0,0,1-.68.92,11.45,11.45,0,0,1-.76.87l-.51.53-.45.43-.14.13a15.69,15.69,0,0,1-5.18,3.08l-.59.2-.49.15-.2,0-.23-.46.13.49-.5.12-.65.14-.22-.47.09.49-.37.06-.28-1,.12.47.07.49h0l-.53.07A15.75,15.75,0,0,1,172.07,108.63Z"/><path d="M172.15,77.13h1.06l.24,0,.21,0,.23,0h.21l.15,0h.08l.12,0c.28,0,.53.09.77.14h0l.17,0,.16,0,.08,0,.1,0h.05l.11,0,.42.11c.09,0,.34.09.68.21s.63.22,1,.4l.09,0,.09,0,.26.12h0l.37.18,0,0,.06,0,.41.21,0,0,.11.06h0l.14.08.24.14.08,0,.22.13c.23.14.47.29.66.43L181,80l.11.07A12.86,12.86,0,0,1,185.59,85a14.18,14.18,0,0,1,1,2.13,14,14,0,0,1,.62,2.09c.07.28.12.57.16.82v0a3.37,3.37,0,0,1,.06.36s0,.07,0,.1,0,.25,0,.38a15.23,15.23,0,0,1-2.65,10.5,10.3,10.3,0,0,1-.66.9c-.28.35-.53.63-.73.84l-.18.19,0,0,0,.05-.15.14-.06.06-.09.09-.13.12v0c-.08.08-.17.15-.24.23l-.15.12a15.16,15.16,0,0,1-5,3l-.22.08-.35.11-.18.06h-.07l-.22.06-.08,0-.17,0-.05,0-.14,0h-.07l-.26.06-.08,0-.1,0-.47.1h-.09l-.06,0h-.14l-.25,0h-.11l-.1,0h0l-.34,0h-.05a16.15,16.15,0,0,1-1.67.09,15.56,15.56,0,0,1-2.92-.28h0l-.13,0h0a13.89,13.89,0,0,1-2.24-.65l-.43-.16a15.36,15.36,0,0,1-1.84-.89l-.09,0-.12-.07h0l-.19-.12-.05,0-.19-.12,0,0c-.24-.14-.42-.27-.56-.37a13.62,13.62,0,0,1-5-5.78,14.55,14.55,0,0,1-.77-1.88l-.09-.27v0a9.58,9.58,0,0,1-.35-1.3c-.06-.25-.11-.53-.16-.83,0-.07,0-.15,0-.22,0,.08,0,.16,0,.24l0-.21V95s0-.06,0-.08v-.1a13.59,13.59,0,0,1-.13-3.23h0v0c0-.38.07-.77.13-1.16a.68.68,0,0,1,0-.14c0-.3.1-.6.17-.91h0l.06-.24s0-.08,0-.11a.57.57,0,0,1,0-.14v-.09l0-.16c.09-.33.19-.69.3-1a15.14,15.14,0,0,1,.79-1.88l.08-.16.09-.17.2-.35h0c.12-.21.24-.41.36-.59a10.88,10.88,0,0,1,.92-1.32l0,0A9.62,9.62,0,0,1,160.8,82l0,0,.38-.39.19-.19h0l.18-.17.09-.08.16-.14.08-.07.44-.37,0,0,0,0c.22-.18.46-.36.69-.53l.36-.24.12-.08.08,0c.19-.12.32-.21.45-.28h0l.29-.17h0l.23-.13c.16-.09.38-.21.65-.34l0,0,.27-.12.14-.07c.3-.13.65-.27,1-.4l.31-.11.09,0h0l.06,0,.17-.05h0l.34-.1h0l.1,0h0l.08,0,.06,0,.07,0h0l.13,0h0c.36-.09.72-.16,1-.22h.22l.24,0-.11,0,.09,0H170l.14,0h0l.23,0h0l.74-.06h1m-12.73,24.43a1.63,1.63,0,0,0,.11.17l-.11-.17-.07-.09v0l.08.11m13.05-24.43h0M156.8,95.26v0M174.28,108h0" style="fill:#fff"/><g style="isolation:isolate"><g style="isolation:isolate"><g style="clip-path:url(#a)"><g style="isolation:isolate"><path d="M156.58,92.6a15.49,15.49,0,1,0,23.14-13.45A13,13,0,0,1,186,90.76c0,8.22-6.26,15.72-13.94,16.75,7.68-1,13.92-8.53,13.94-16.75a13,13,0,0,0-6.27-11.61,15.71,15.71,0,0,0-7.53-2A15.48,15.48,0,0,0,156.58,92.6" style="fill:#a8a8a8"/><path d="M186,90.76c0,8.22-6.26,15.72-13.94,16.75H172c-13.47.68-18.6-13.88-12.64-20.7,6.51-7.43,20.26-1.23,21,9.48.58,8.22-5.44,10.25-8.33,11.22,7.68-1,13.92-8.53,13.94-16.75a13,13,0,0,0-6.27-11.61l-.79-.42c-.36-.17-.84-.38-1.2-.53l-.66-.24c-.23-.08-.53-.18-.76-.24l-.53-.14-.56-.13-.44-.08-.45-.08-.38-.05-.38,0-.36,0-.34,0-.34,0h-1.36l-.37,0-.39,0-.4,0-.51.07a16,16,0,0,0-3.31,1l-.8.35a14.38,14.38,0,0,0-1.7,1l-.86.59c-.38.3-.87.7-1.22,1l-.81.8c-.28.32-.66.74-.93,1.08l-.69.94c-.21.35-.51.81-.71,1.17l-.53,1.07c-.15.37-.36.87-.5,1.25l-.35,1.16c-.09.39-.22.92-.29,1.32l-.16,1.23c0,.42-.06,1-.06,1.38l0,1.27c.08.66.21,1.55.34,2.2l.32,1.18c.13.38.3.88.45,1.25l.49,1.09c.2.35.45.82.65,1.16l.66,1c.25.32.58.75.85,1.06l.77.83c.32.29.74.69,1.07,1l.84.64c.4.27.95.63,1.37.88l.79.42,1.2.53.65.24.77.24.53.14.56.12.44.09.44.07.39.05.38,0,.35,0,.35,0h1.35l.35,0,.36,0,.39,0,.41-.05.51-.08a15.93,15.93,0,0,0,3.13-.87l.79-.34a15.48,15.48,0,0,0,1.75-1l.86-.59c.38-.29.88-.69,1.24-1l.81-.78c.29-.32.68-.75,1-1.08l.7-.94c.21-.35.51-.8.72-1.16l.54-1.06c.16-.37.37-.86.51-1.24l.37-1.16c.09-.39.23-.92.3-1.32l.17-1.23c0-.46.08-1.08.08-1.54l0-1.26c0-.41-.1-1-.16-1.35l-.26-1.21c-.11-.38-.25-.9-.38-1.27l-.43-1.13c-.18-.35-.4-.84-.59-1.19l-.6-1c-.23-.34-.54-.78-.78-1.1l-.74-.89c-.3-.3-.68-.71-1-1l-.82-.71a15.21,15.21,0,0,0-2.05-1.39A13,13,0,0,1,186,90.76" style="fill:#a8a8a8"/><path d="M186,90.76a17.5,17.5,0,0,1-10.17,15.69l-.67.35c-10.29,4.34-21.73-7.34-17.48-17.85,3.4-8.41,17.44-8.07,22.16,2.88,2.49,5.79.81,11.94-4,14.62A17.5,17.5,0,0,0,186,90.76a13,13,0,0,0-6.27-11.61h0a15.18,15.18,0,0,0-2-1l-.66-.24c-.23-.08-.53-.18-.76-.24l-.53-.14-.56-.13-.44-.08-.45-.08-.38-.05-.38,0-.36,0-.34,0-.34,0h-1.36l-.37,0-.39,0-.4,0-.51.07a16,16,0,0,0-3.31,1l-.8.35a14.38,14.38,0,0,0-1.7,1l-.86.59c-.38.3-.87.7-1.22,1l-.81.8c-.28.32-.66.74-.93,1.08l-.69.94c-.21.35-.51.81-.71,1.17l-.53,1.07c-.15.37-.36.87-.5,1.25l-.35,1.16c-.09.39-.22.92-.29,1.32l-.16,1.23c0,.42-.06,1-.06,1.38l0,1.27c.08.66.21,1.55.34,2.2l.32,1.18c.13.38.3.88.45,1.25l.49,1.09c.2.35.45.82.65,1.16l.66,1c.25.32.58.75.85,1.06l.77.83c.32.29.74.69,1.07,1l.84.64c.4.27.95.63,1.37.88l.79.42,1.2.53.65.24.77.24.53.14.56.12.44.09.44.07.39.05.38,0,.35,0,.35,0h1.35l.35,0,.36,0,.39,0,.41-.05.51-.08a15.93,15.93,0,0,0,3.13-.87l.79-.34a15.48,15.48,0,0,0,1.75-1l.86-.59c.38-.29.88-.69,1.24-1l.81-.78c.29-.32.68-.75,1-1.08l.7-.94c.21-.35.51-.8.72-1.16l.54-1.06c.16-.37.37-.86.51-1.24l.37-1.16c.09-.39.23-.92.3-1.32l.17-1.23c0-.46.08-1.08.08-1.54l0-1.26c0-.41-.1-1-.16-1.35l-.26-1.21c-.11-.38-.25-.9-.38-1.27l-.43-1.13c-.18-.35-.4-.84-.59-1.19l-.6-1c-.23-.34-.54-.78-.78-1.1l-.74-.89c-.3-.3-.68-.71-1-1l-.82-.71a15.21,15.21,0,0,0-2.05-1.39A13,13,0,0,1,186,90.76" style="fill:#a3a3a3"/><path d="M157.22,97.05c-3-10.76,6.88-18.23,16.8-12.69,7.29,4.06,10.56,14.92,4,20.88A17.62,17.62,0,0,0,186,90.76a13,13,0,0,0-6.27-11.61l-.79-.42c-.36-.17-.84-.38-1.2-.53l-.66-.24c-.23-.08-.53-.18-.76-.24l-.53-.14-.56-.13-.44-.08-.45-.08-.38-.05-.38,0-.36,0-.34,0-.34,0h-1.36l-.37,0-.39,0-.4,0-.51.07a16,16,0,0,0-3.31,1l-.8.35a14.38,14.38,0,0,0-1.7,1l-.86.59c-.38.3-.87.7-1.22,1l-.81.8c-.28.32-.66.74-.93,1.08l-.69.94c-.21.35-.51.81-.71,1.17l-.53,1.07c-.15.37-.36.87-.5,1.25l-.35,1.16c-.09.39-.22.92-.29,1.32l-.16,1.23c0,.42-.06,1-.06,1.38l0,1.27c.08.66.21,1.55.34,2.2l.32,1.18.33,1-.37-1.11a.14.14,0,0,1,0-.06" style="fill:#9e9e9e"/><path d="M186,90.76a17.62,17.62,0,0,1-7.92,14.48l-.63.54c-1.78,1.33-6.69,4-13.56,0,.4.24.93.53,1.34.75l1.2.53.65.24.77.24.53.14.56.12.44.09.44.07.39.05.38,0,.35,0,.35,0h1.35l.35,0,.36,0,.39,0,.41-.05.51-.08a15.93,15.93,0,0,0,3.13-.87l.79-.34a15.48,15.48,0,0,0,1.75-1l.86-.59c.38-.29.88-.69,1.24-1l.81-.78c.29-.32.68-.75,1-1.08l.7-.94c.21-.35.51-.8.72-1.16l.54-1.06c.16-.37.37-.86.51-1.24l.37-1.16c.09-.39.23-.92.3-1.32l.17-1.23c0-.46.08-1.08.08-1.54l0-1.26c0-.41-.1-1-.16-1.35l-.26-1.21c-.11-.38-.25-.9-.38-1.27l-.43-1.13c-.18-.35-.4-.84-.59-1.19l-.6-1c-.23-.34-.54-.78-.78-1.1l-.74-.89c-.3-.3-.68-.71-1-1l-.82-.71a15.21,15.21,0,0,0-2.05-1.39A13,13,0,0,1,186,90.76" style="fill:#9e9e9e"/><path d="M156.76,95.05c-1.46-12.36,11.15-16.76,19.73-9.77,4.4,3.59,8.33,11.77,3.28,18.69A17.62,17.62,0,0,0,186,90.76a13,13,0,0,0-6.27-11.61l-.79-.42c-.36-.17-.84-.38-1.2-.53l-.66-.24c-.23-.08-.53-.18-.76-.24l-.53-.14-.56-.13-.44-.08-.45-.08-.38-.05-.38,0-.36,0-.34,0-.34,0h-1.36l-.37,0-.39,0-.4,0-.51.07a16,16,0,0,0-3.31,1l-.8.35a14.38,14.38,0,0,0-1.7,1l-.86.59c-.38.3-.87.7-1.22,1l-.81.8c-.28.32-.66.74-.93,1.08l-.69.94c-.21.35-.51.81-.71,1.17l-.53,1.07c-.15.37-.36.87-.5,1.25l-.35,1.16c-.09.39-.22.92-.29,1.32l-.16,1.23c0,.42-.06,1-.06,1.38l0,1.27c0,.42.11,1,.18,1.41l0-.23" style="fill:#999"/><path d="M186,90.76A17.62,17.62,0,0,1,179.77,104l-.25.34c-4.51,5.07-10.38,3.72-12.69,2.9l.65.22.36.11.53.14.56.12.44.09.44.07.39.05.38,0,.35,0,.35,0h1.35l.35,0,.36,0,.39,0,.41-.05.51-.08a15.93,15.93,0,0,0,3.13-.87l.79-.34a15.48,15.48,0,0,0,1.75-1l.86-.59c.38-.29.88-.69,1.24-1l.81-.78c.29-.32.68-.75,1-1.08l.7-.94c.21-.35.51-.8.72-1.16l.54-1.06c.16-.37.37-.86.51-1.24l.37-1.16c.09-.39.23-.92.3-1.32l.17-1.23c0-.46.08-1.08.08-1.54l0-1.26c0-.41-.1-1-.16-1.35l-.26-1.21c-.11-.38-.25-.9-.38-1.27l-.43-1.13c-.18-.35-.4-.84-.59-1.19l-.6-1c-.23-.34-.54-.78-.78-1.1l-.74-.89c-.3-.3-.68-.71-1-1l-.82-.71a15.21,15.21,0,0,0-2.05-1.39A13,13,0,0,1,186,90.76" style="fill:#999"/><path d="M156.58,92.59c.62-13.19,14.9-14,21.86-6.41,4.48,4.86,5.59,11.46,2.78,16.42A17.62,17.62,0,0,0,186,90.76a13,13,0,0,0-6.27-11.61l-.79-.42c-.36-.17-.84-.38-1.2-.53l-.66-.24c-.23-.08-.53-.18-.76-.24l-.53-.14-.56-.13-.44-.08-.45-.08-.38-.05-.38,0-.36,0-.34,0-.34,0h-1.36l-.37,0-.39,0-.4,0-.51.07a16,16,0,0,0-3.31,1l-.8.35a14.38,14.38,0,0,0-1.7,1l-.86.59c-.38.3-.87.7-1.22,1l-.81.8c-.28.32-.66.74-.93,1.08l-.69.94c-.21.35-.51.81-.71,1.17l-.53,1.07c-.15.37-.36.87-.5,1.25l-.35,1.16c-.09.39-.22.92-.29,1.32l-.16,1.23c0,.42-.06,1-.06,1.38h0" style="fill:#949494"/><path d="M186,90.76a17.62,17.62,0,0,1-4.77,11.84h0c-2.41,4.21-6.88,6.18-11.95,5.27l.43.07.11,0,.39.05.38,0,.35,0,.35,0h1.35l.35,0,.36,0,.39,0,.41-.05.51-.08a15.93,15.93,0,0,0,3.13-.87l.79-.34a15.48,15.48,0,0,0,1.75-1l.86-.59c.38-.29.88-.69,1.24-1l.81-.78c.29-.32.68-.75,1-1.08l.7-.94c.21-.35.51-.8.72-1.16l.54-1.06c.16-.37.37-.86.51-1.24l.37-1.16c.09-.39.23-.92.3-1.32l.17-1.23c0-.46.08-1.08.08-1.54l0-1.26c0-.41-.1-1-.16-1.35l-.26-1.21c-.11-.38-.25-.9-.38-1.27l-.43-1.13c-.18-.35-.4-.84-.59-1.19l-.6-1c-.23-.34-.54-.78-.78-1.1l-.74-.89c-.3-.3-.68-.71-1-1l-.82-.71a15.21,15.21,0,0,0-2.05-1.39A13,13,0,0,1,186,90.76" style="fill:#949494"/><path d="M156.92,89.4c2.65-11.26,17.64-11.71,24.31-.73a14,14,0,0,1,1.27,12.39A17.51,17.51,0,0,0,186,90.76a13,13,0,0,0-6.27-11.61h0a15.18,15.18,0,0,0-2-1l-.66-.24c-.23-.08-.53-.18-.76-.24l-.53-.14-.56-.13-.44-.08-.45-.08-.38-.05-.38,0-.36,0-.34,0-.34,0h-1.36l-.37,0-.39,0-.4,0-.51.07a16,16,0,0,0-3.31,1l-.8.35a14.38,14.38,0,0,0-1.7,1l-.86.59c-.38.3-.87.7-1.22,1l-.81.8c-.28.32-.66.74-.93,1.08l-.69.94c-.21.35-.51.81-.71,1.17l-.53,1.07c-.15.37-.36.87-.5,1.25l-.35,1.16c-.09.39-.22.92-.29,1.32l-.06.4c0-.3.12-.69.18-1" style="fill:#8f8f8f"/><path d="M186,90.76a17.51,17.51,0,0,1-3.49,10.3l-.09.27a11,11,0,0,1-10.74,6.79h1l.35,0,.36,0,.39,0,.41-.05.51-.08a15.93,15.93,0,0,0,3.13-.87l.79-.34a15.48,15.48,0,0,0,1.75-1l.86-.59c.38-.29.88-.69,1.24-1l.81-.78c.29-.32.68-.75,1-1.08l.7-.94c.21-.35.51-.8.72-1.16l.54-1.06c.16-.37.37-.86.51-1.24l.37-1.16c.09-.39.23-.92.3-1.32l.17-1.23c0-.46.08-1.08.08-1.54l0-1.26c0-.41-.1-1-.16-1.35l-.26-1.21c-.11-.38-.25-.9-.38-1.27l-.43-1.13c-.18-.35-.4-.84-.59-1.19l-.6-1c-.23-.34-.54-.78-.78-1.1l-.74-.89c-.3-.3-.68-.71-1-1l-.82-.71a15.21,15.21,0,0,0-2.05-1.39A13,13,0,0,1,186,90.76" style="fill:#8f8f8f"/><path d="M157.33,87.83c4.55-12,20-9.27,25.26,1.65a14.2,14.2,0,0,1,1.08,9.78,17.28,17.28,0,0,0,2.32-8.5,13,13,0,0,0-6.27-11.61h0a15.18,15.18,0,0,0-2-1l-.66-.24c-.23-.08-.53-.18-.76-.24l-.53-.14-.56-.13-.44-.08-.45-.08-.38-.05-.38,0-.36,0-.34,0-.34,0h-1.36l-.37,0-.39,0-.4,0-.51.07a16,16,0,0,0-3.31,1l-.8.35a14.38,14.38,0,0,0-1.7,1l-.86.59c-.38.3-.87.7-1.22,1l-.81.8c-.28.32-.66.74-.93,1.08l-.69.94c-.21.35-.51.81-.71,1.17l-.53,1.07c-.15.37-.36.87-.5,1.25l-.16.48a1,1,0,0,0,.05-.16" style="fill:#8a8a8a"/><path d="M186,90.76a17.28,17.28,0,0,1-2.32,8.5l-.2.95a11.24,11.24,0,0,1-9.24,7.77l.51-.09a16.27,16.27,0,0,0,3-.85l.79-.34a15.48,15.48,0,0,0,1.75-1l.86-.59c.38-.29.88-.69,1.24-1l.81-.78c.29-.32.68-.75,1-1.08l.7-.94c.21-.35.51-.8.72-1.16l.54-1.06c.16-.37.37-.86.51-1.24l.37-1.16c.09-.39.23-.92.3-1.32l.17-1.23c0-.46.08-1.08.08-1.54l0-1.26c0-.41-.1-1-.16-1.35l-.26-1.21c-.11-.38-.25-.9-.38-1.27l-.43-1.13c-.18-.35-.4-.84-.59-1.19l-.6-1c-.23-.34-.54-.78-.78-1.1l-.74-.89c-.3-.3-.68-.71-1-1l-.82-.71a15.21,15.21,0,0,0-2.05-1.39A13,13,0,0,1,186,90.76" style="fill:#8a8a8a"/><path d="M159.07,84.23c7.34-10.49,23.47-3.27,25.55,8.47a11.28,11.28,0,0,1,.16,4.25A17.05,17.05,0,0,0,186,90.76a13,13,0,0,0-6.27-11.61h0a15.18,15.18,0,0,0-2-1l-.66-.24c-.23-.08-.53-.18-.76-.24l-.53-.14-.56-.13-.44-.08-.45-.08-.38-.05-.38,0-.36,0-.34,0-.34,0h-1.36l-.37,0-.39,0-.4,0-.51.07a16,16,0,0,0-3.31,1l-.8.35a14.38,14.38,0,0,0-1.7,1l-.86.59c-.38.3-.87.7-1.22,1l-.81.8c-.28.32-.66.74-.93,1.08l-.69.94c-.21.35-.51.81-.71,1.17l.43-.7.17-.26" style="fill:#858585"/><path d="M186,90.76A17.05,17.05,0,0,1,184.78,97v.9a11.58,11.58,0,0,1-8.09,9.58l.56-.19.54-.2.79-.34a15.48,15.48,0,0,0,1.75-1l.86-.59c.38-.29.88-.69,1.24-1l.81-.78c.29-.32.68-.75,1-1.08l.7-.94c.21-.35.51-.8.72-1.16l.54-1.06c.16-.37.37-.86.51-1.24l.37-1.16c.09-.39.23-.92.3-1.32l.17-1.23c0-.46.08-1.08.08-1.54l0-1.26c0-.41-.1-1-.16-1.35l-.26-1.21c-.11-.38-.25-.9-.38-1.27l-.43-1.13c-.18-.35-.4-.84-.59-1.19l-.6-1c-.23-.34-.54-.78-.78-1.1l-.74-.89c-.3-.3-.68-.71-1-1l-.82-.71a15.21,15.21,0,0,0-2.05-1.39A13,13,0,0,1,186,90.76" style="fill:#858585"/><path d="M167.79,107.16c9.71,1.91,15.59-8.48,9.69-17.1-6.09-8.9-18.83-7.45-20.34,2.31-1,6.45,4.08,13.5,10.65,14.79" style="fill:#adadad"/><path d="M166.38,106.63c10.1,3.13,15.91-6.94,11.34-15.09-5.55-9.91-17.95-8.66-20.13-.27-1.82,7,3.08,13.6,8.79,15.36" style="fill:#b3b3b3"/><path d="M164.44,105.66c8.71,4.51,16.22-3.14,13.88-11.15-3.11-10.66-15.83-12.27-19.82-4.74-2.85,5.36-.07,12.78,5.94,15.89" style="fill:#b8b8b8"/><path d="M163.83,105.16c8.15,4.61,16.35-1.71,13.93-10.72-2.29-8.52-15.16-12.62-19.27-3.92-2.59,5.49.67,12,5.34,14.64" style="fill:#bdbdbd"/><path d="M162.91,104.36c7.45,5.06,15.79.2,14.63-8.53-1.18-8.9-12.94-13.08-18-6.4-3.61,4.8-1.21,11.84,3.34,14.93" style="fill:#c2c2c2"/><path d="M162.8,104.05c7.67,5.49,15.56-.48,14.26-8.28-1.55-9.26-13.58-11.76-17.5-5.62-3.14,4.91-.76,11,3.24,13.9" style="fill:#c7c7c7"/><path d="M162.92,103.87c7.91,5.59,15-1.35,13.65-8.15-1.75-9.18-13.08-11.13-17-4.81-2.5,4-1,9.73,3.34,13" style="fill:#ccc"/><path d="M162,102.8c6.89,6.24,14.37.87,14.23-5.73C176,88,165.33,85.48,160.91,90c-3.68,3.74-2.41,9.65,1.09,12.82" style="fill:#d1d1d1"/><path d="M162.21,102.63c6.51,5.89,14.46.47,13.55-7-.88-7.22-11.15-10.21-15.26-4.44-2.78,3.9-1.19,8.79,1.71,11.42" style="fill:#d6d6d6"/><path d="M162.47,102.44c6.62,5.8,13.84-.5,13-6.81C174.5,88.84,165,86.07,161,91.4c-3.08,4-1,8.88,1.49,11" style="fill:#dbdbdb"/><path d="M161.79,101.25c5.37,6.28,13,1.71,13.36-4.27.43-6.89-8.45-10.23-12.78-6.27s-2.24,8.6-.58,10.54" style="fill:#e0e0e0"/><path d="M162.15,101.06c5,5.7,12.27,1.4,12.67-4.1.44-5.87-7-10.45-12.24-5.81-3.52,3.17-2.37,7.7-.43,9.91" style="fill:#e6e6e6"/><path d="M162.58,100.87c4.64,5.17,11.48,1.12,11.91-3.93a6.93,6.93,0,0,0-11.88-5.18,6.71,6.71,0,0,0,0,9.11" style="fill:#ebebeb"/><path d="M163.08,100.68a6.44,6.44,0,0,0,11.09-3.75c.59-5.77-6.23-9.18-10.73-5.37a6.24,6.24,0,0,0-.36,9.12" style="fill:#f0f0f0"/><path d="M162.73,99.38a6.16,6.16,0,0,0,5.83,2.75c1.21-.26,4.87-1.06,5.38-5.21.61-5-5.21-8.44-9.58-5.7a6,6,0,0,0-1.63,8.16" style="fill:#f5f5f5"/><path d="M163.24,99.22a5.76,5.76,0,0,0,10.47-2.31c.34-2.34-.86-4.47-3.27-5.85a5.68,5.68,0,0,0-6.05.54,5.52,5.52,0,0,0-1.15,7.62" style="fill:#fafafa"/><path d="M163.68,99.1c3,3.8,9,2.44,9.8-2.2.17-1,.22-3.66-3-5.58-1-.58-3-1.29-5.71.42a5.15,5.15,0,0,0-1,7.36" style="fill:#fff"/><path d="M164.13,99a5.15,5.15,0,0,0,9.12-2.1c.76-4.11-4.23-7.45-7.84-5.24s-2.26,6.18-1.28,7.34" style="fill:#fff"/><path d="M164.18,98.34A4.8,4.8,0,0,0,173,96.89c.37-1.8-.43-3.46-2.36-5a5.24,5.24,0,0,0-4.57-.38c-2.13,1.25-2.24,1.61-2.72,3.34a4.35,4.35,0,0,0,.81,3.44" style="fill:#fff"/><path d="M164.87,98.84a5.61,5.61,0,0,0,4.56,1.48c1.85-.78,1.89-.79,2.83-2.11a4.15,4.15,0,0,0,.59-2.7,5.07,5.07,0,0,0-1.53-2.83c-.8-.74-.8-.74-2.93-1.31-1.35-.35-3.67,1.28-4.07,1.89a4.56,4.56,0,0,0,.55,5.58" style="fill:#fff"/><path d="M164.32,97.56a4.83,4.83,0,0,0,5.06,2.5,4.7,4.7,0,0,0,3.18-3.18,4.51,4.51,0,0,0-1.52-4.2,6.56,6.56,0,0,0-2.64-1.11,4,4,0,0,0-2,.33,5.2,5.2,0,0,0-1.68,1.3c-.15.17-.79,1.58-.8,1.59a4.79,4.79,0,0,0,.41,2.77" style="fill:#fff"/><path d="M164.58,97.51a4.77,4.77,0,0,0,4.75,2.3l1.48-.64a4.55,4.55,0,0,0,1.53-2.29,4.13,4.13,0,0,0-1.59-4.19,7.15,7.15,0,0,0-2.34-.92,4.28,4.28,0,0,0-2,.35,3.81,3.81,0,0,0-1.83,5.39" style="fill:#fff"/><path d="M164.85,97.46s1,1.11,1.07,1.19a12.39,12.39,0,0,0,1.79.88,3.46,3.46,0,0,0,1.57,0,2.8,2.8,0,0,0,1.51-.64,4.58,4.58,0,0,0,1.33-2,3.87,3.87,0,0,0-1.64-4.18,4.35,4.35,0,0,0-2.06-.74,4.54,4.54,0,0,0-2,.39,3.7,3.7,0,0,0-1.58,5.11" style="fill:#fff"/><path d="M165.12,97.42a4.13,4.13,0,0,0,4.12,1.92,2.93,2.93,0,0,0,1.53-.69,5.83,5.83,0,0,0,1.14-1.77A3.72,3.72,0,0,0,170.48,93a11,11,0,0,0-2-.79,4.26,4.26,0,0,0-2,.42s-3,2-1.33,4.84" style="fill:#fff"/><path d="M165.4,97.37A5.09,5.09,0,0,0,167.55,99a3.71,3.71,0,0,0,1.66.12,3,3,0,0,0,1.54-.74,8.3,8.3,0,0,0,.94-1.51,3.55,3.55,0,0,0-1.18-3.65,4.64,4.64,0,0,0-2.07-.87,4.15,4.15,0,0,0-2,.45s-2.66,2-1.07,4.56" style="fill:#fff"/><path d="M165.66,97.33a5.88,5.88,0,0,0,1.85,1.44,3.86,3.86,0,0,0,1.66.14s1.4-.67,1.56-.81a3.13,3.13,0,0,0,.75-1.22,3.31,3.31,0,0,0-1-3.41,10.21,10.21,0,0,0-2.05-.92,16.4,16.4,0,0,0-1.95.5,2.94,2.94,0,0,0-1.21,1.51,3.29,3.29,0,0,0,.37,2.77" style="fill:#fff"/><path d="M165.91,97.29s1.35,1.14,1.53,1.22a3.88,3.88,0,0,0,1.69.19,7.26,7.26,0,0,0,1.58-.91,2.3,2.3,0,0,0,.55-.91,3,3,0,0,0-.75-3.15s-1.93-1-2-1-1.86.51-1.94.56a2.9,2.9,0,0,0-.61,4" style="fill:#fff"/><path d="M166.18,97.25a3.38,3.38,0,0,0,1.19,1,4.26,4.26,0,0,0,1.73.26,13,13,0,0,0,1.59-1,1.33,1.33,0,0,0,.35-.58,3.14,3.14,0,0,0-.52-2.91,5,5,0,0,0-2-1,3.27,3.27,0,0,0-1.92.61,2.68,2.68,0,0,0-.38,3.67" style="fill:#fff"/><path d="M166.44,97.22a2.42,2.42,0,0,0,.86.7,3.42,3.42,0,0,0,1.76.33,4.82,4.82,0,0,0,1.61-1.1.57.57,0,0,0,.16-.26c.52-1.69-.17-2.5-.49-2.76a3.79,3.79,0,0,0-1.85-.93,4.89,4.89,0,0,0-1.9.65c-.69.27-.75,2-.75,2.06a3.13,3.13,0,0,0,.6,1.31" style="fill:#fff"/><path d="M166.71,97.18a1.26,1.26,0,0,0,.53.44A3.91,3.91,0,0,0,169,98c.56-.12,1.1-.75,1.54-1.11.05,0,.06-.14.07-.2a2.71,2.71,0,0,0,.17-1.18,3.11,3.11,0,0,0-.86-1.38,3.07,3.07,0,0,0-1.44-.72,4.87,4.87,0,0,0-1.89.69.69.69,0,0,0-.24.31,2.49,2.49,0,0,0,.33,2.76" style="fill:#fff"/><path d="M167,97.15a.65.65,0,0,0,.2.17,4.63,4.63,0,0,0,1.82.44,2.35,2.35,0,0,0,1.17-.85,3,3,0,0,0,.43-1.26.31.31,0,0,0,0-.19,6.21,6.21,0,0,0-1-1.3,2.06,2.06,0,0,0-1-.51,2.62,2.62,0,0,0-1.87.73,2.11,2.11,0,0,0-.33,1.46,3,3,0,0,0,.64,1.31" style="fill:#fff"/><path d="M167.06,96.8a.94.94,0,0,0,.36.3,3.33,3.33,0,0,0,1.53.4,1.42,1.42,0,0,0,.79-.57,2.38,2.38,0,0,0,.51-1.39c-.08-.52-.71-1-1.09-1.36a1.14,1.14,0,0,0-.61-.3c-.53,0-3,1-1.49,2.92" style="fill:#fff"/><path d="M166.91,96A5.33,5.33,0,0,0,168.12,97a1.27,1.27,0,0,0,.8.21.68.68,0,0,0,.4-.3c.22-.39.62-1,.55-1.4,0,0-1-1.43-1.3-1.45s-.36,0-1.72,1.53c-.07.08,0,.26.06.35" style="fill:#fff"/><path d="M168.83,97l0,0a13.45,13.45,0,0,0,.62-1.43c-.06-.42-.48-1.06-.9-1.08a1.45,1.45,0,0,0-1.24,1.24c0,.58,1,1,1.47,1.25" style="fill:#fff"/><path d="M168.8,96.35c.24,0,.36-.52.32-.76s-.25-.55-.47-.56a.76.76,0,0,0-.64.64c0,.31.48.75.79.68" style="fill:#fff"/><path d="M168.72,95.67s0,0,0-.06,0,0,0,0a.06.06,0,0,0-.05.05s0,.06.06,0" style="fill:#fff"/></g></g></g><g style="isolation:isolate"><g style="clip-path:url(#b)"><g style="isolation:isolate"><path d="M164.43,106.11a15.5,15.5,0,1,1,15.29-27,12,12,0,0,0-7.62-1.41,12,12,0,0,1,7.62,1.41,15.57,15.57,0,0,1,6.51,7.16,15.31,15.31,0,0,1,1.14,8.85,15.62,15.62,0,0,1-11.83,12.57,15.45,15.45,0,0,1-11.11-1.62" style="fill:#a8a8a8"/><path d="M179.72,79.15a16.46,16.46,0,0,1,2.87,2.1l.81.8c.28.32.65.74.92,1.08l.68,1c.21.34.51.8.7,1.16l.53,1.07c.15.37.36.87.49,1.25l.36,1.16c.08.4.21.92.28,1.32l.15,1.24c0,.41.06,1,.06,1.37l0,1.27c-.06.45-.12,1-.2,1.5l-.27,1.2c-.12.38-.26.9-.4,1.28L186.2,99c-.18.36-.41.84-.6,1.19l-.62,1c-.23.33-.54.78-.8,1.1l-.74.86c-.3.3-.7.71-1,1l-.81.68c-.38.28-.9.65-1.29.91l-.78.46a17.1,17.1,0,0,1-1.76.83l-.56.21a16.74,16.74,0,0,1-3.08.74l-.4.05-.4,0-.36,0-.35,0h-1.35l-.35,0-.35,0-.38,0-.39-.05-.43-.07-.45-.09-.52-.11-.57-.15-.64-.2-.78-.28-.79-.34c-.36-.18-.85-.42-1.2-.61l-.88-.54c-.41-.29-.94-.68-1.33-1l-.84-.75c-.3-.31-.71-.72-1-1l-.73-.9c-.24-.34-.56-.79-.78-1.14l-.58-1c-.17-.36-.41-.85-.56-1.22l-.42-1.13c-.1-.39-.26-.91-.35-1.3l-.23-1.21c-.07-.68-.13-1.58-.15-2.26l0-1.26c.05-.41.1-1,.17-1.35l.26-1.2c.11-.39.25-.9.38-1.28l.44-1.12c.18-.36.4-.85.59-1.2l.61-1c.23-.33.54-.78.79-1.1l.73-.87c.3-.31.69-.72,1-1l.81-.69c.38-.28.88-.65,1.27-.91l.79-.48a14.17,14.17,0,0,1,1.71-.83l.57-.22a15.4,15.4,0,0,1,3.25-.8l.4,0,.39,0,.36,0h1.37l.34,0,.34,0,.36,0,.37,0,.39.05.43.07.46.09.51.12.58.15.63.19.79.29.79.33c.36.18.84.42,1.2.62a12,12,0,0,0-7.62-1.41h0c-13.49,4-8.72,18.55-.46,22.62,9.4,4.64,18.09-2.79,15-12.82-1.13-3.69-4.53-9.87-14.53-9.8a12,12,0,0,1,7.62,1.41" style="fill:#a8a8a8"/><path d="M179.72,79.15a16.46,16.46,0,0,1,2.87,2.1l.81.8c.28.32.65.74.92,1.08l.68,1c.21.34.51.8.7,1.16l.53,1.07c.15.37.36.87.49,1.25l.36,1.16c.08.4.21.92.28,1.32l.15,1.24c0,.41.06,1,.06,1.37l0,1.27c-.06.45-.12,1-.2,1.5l-.27,1.2c-.12.38-.26.9-.4,1.28L186.2,99c-.18.36-.41.84-.6,1.19l-.62,1c-.23.33-.54.78-.8,1.1l-.74.86c-.3.3-.7.71-1,1l-.81.68c-.38.28-.9.65-1.29.91l-.78.46a17.1,17.1,0,0,1-1.76.83l-.56.21a16.74,16.74,0,0,1-3.08.74l-.4.05-.4,0-.36,0-.35,0h-1.35l-.35,0-.35,0-.38,0-.39-.05-.43-.07-.45-.09-.52-.11-.57-.15-.64-.2-.78-.28-.79-.34c-.36-.18-.85-.42-1.2-.61l-.88-.54c-.41-.29-.94-.68-1.33-1l-.84-.75c-.3-.31-.71-.72-1-1l-.73-.9c-.24-.34-.56-.79-.78-1.14l-.58-1c-.17-.36-.41-.85-.56-1.22l-.42-1.13c-.1-.39-.26-.91-.35-1.3l-.23-1.21c-.07-.68-.13-1.58-.15-2.26l0-1.26c.05-.41.1-1,.17-1.35l.26-1.2c.11-.39.25-.9.38-1.28l.44-1.12c.18-.36.4-.85.59-1.2l.61-1c.23-.33.54-.78.79-1.1l.73-.87c.3-.31.69-.72,1-1l.81-.69c.38-.28.88-.65,1.27-.91l.79-.48a14.17,14.17,0,0,1,1.71-.83l.57-.22a15.4,15.4,0,0,1,3.25-.8l.4,0,.39,0,.36,0h1.37l.34,0,.34,0,.36,0,.37,0,.39.05.43.07.46.09.51.12.58.15.63.19.79.29.79.33c.36.18.84.42,1.2.62a11.52,11.52,0,0,0-2.42-1l-.09,0C165.84,74.92,159.83,86,165.12,95c5.94,10.1,19.72,9.62,22-.77,1.45-6.59-3-13.83-9.84-16.12a11.52,11.52,0,0,1,2.42,1" style="fill:#a3a3a3"/><path d="M186.72,87.56a15.14,15.14,0,0,1,.64,2.48l.15,1.24c0,.41.06,1,.06,1.37l0,1.27c-.06.45-.12,1-.2,1.5l-.27,1.2c-.12.38-.26.9-.4,1.28L186.2,99c-.18.36-.41.84-.6,1.19l-.62,1c-.23.33-.54.78-.8,1.1l-.74.86c-.3.3-.7.71-1,1l-.81.68c-.38.28-.9.65-1.29.91l-.78.46a17.1,17.1,0,0,1-1.76.83l-.56.21a16.74,16.74,0,0,1-3.08.74l-.4.05-.4,0-.36,0-.35,0h-1.35l-.35,0-.35,0-.38,0-.39-.05-.43-.07-.45-.09-.52-.11-.57-.15-.64-.2-.78-.28-.79-.34c-.36-.18-.85-.42-1.2-.61l-.88-.54c-.41-.29-.94-.68-1.33-1l-.84-.75c-.3-.31-.71-.72-1-1l-.73-.9c-.24-.34-.56-.79-.78-1.14l-.58-1c-.17-.36-.41-.85-.56-1.22l-.42-1.13c-.1-.39-.26-.91-.35-1.3l-.23-1.21c-.07-.68-.13-1.58-.15-2.26l0-1.26c.05-.41.1-1,.17-1.35l.26-1.2c.11-.39.25-.9.38-1.28l.44-1.12c.18-.36.4-.85.59-1.2l.61-1c.23-.33.54-.78.79-1.1l.73-.87c.3-.31.69-.72,1-1l.81-.69c.38-.28.88-.65,1.27-.91l.79-.48a14.17,14.17,0,0,1,1.71-.83l.57-.22a15.4,15.4,0,0,1,3.25-.8l.4,0,.39,0,.36,0h1.37l.34,0,.34,0,.36,0,.37,0,.39.05.43.07.46.09.51.12.58.15.63.19.79.29.79.33c.36.18.84.42,1.2.62l-.27-.15-.93-.46c-11-4.79-18.87,5.16-14.93,14.75,4.76,11.62,19.09,12.27,22.9,3.54a13,13,0,0,0,0-9.81c.06.16.14.37.19.54" style="fill:#9e9e9e"/><path d="M179.72,79.15c.23.13.54.33.77.47l-.93-.56-.11-.06.27.15" style="fill:#9e9e9e"/><path d="M187.36,90a15.56,15.56,0,0,1,.21,2.61l0,1.27c-.06.45-.12,1-.2,1.5l-.27,1.2c-.12.38-.26.9-.4,1.28L186.2,99c-.18.36-.41.84-.6,1.19l-.62,1c-.23.33-.54.78-.8,1.1l-.74.86c-.3.3-.7.71-1,1l-.81.68c-.38.28-.9.65-1.29.91l-.78.46a17.1,17.1,0,0,1-1.76.83l-.56.21a16.74,16.74,0,0,1-3.08.74l-.4.05-.4,0-.36,0-.35,0h-1.35l-.35,0-.35,0-.38,0-.39-.05-.43-.07-.45-.09-.52-.11-.57-.15-.64-.2-.78-.28-.79-.34c-.36-.18-.85-.42-1.2-.61l-.88-.54c-.41-.29-.94-.68-1.33-1l-.84-.75c-.3-.31-.71-.72-1-1l-.73-.9c-.24-.34-.56-.79-.78-1.14l-.58-1c-.17-.36-.41-.85-.56-1.22l-.42-1.13c-.1-.39-.26-.91-.35-1.3l-.23-1.21c-.07-.68-.13-1.58-.15-2.26l0-1.26c.05-.41.1-1,.17-1.35l.26-1.2c.11-.39.25-.9.38-1.28l.44-1.12c.18-.36.4-.85.59-1.2l.61-1c.23-.33.54-.78.79-1.1l.73-.87c.3-.31.69-.72,1-1l.81-.69c.38-.28.88-.65,1.27-.91l.79-.48a14.17,14.17,0,0,1,1.71-.83l.57-.22a15.4,15.4,0,0,1,3.25-.8l.4,0,.39,0,.36,0h1.37l.34,0,.34,0,.36,0,.37,0,.39.05.43.07.46.09.51.12.58.15.63.19.38.13-.81-.26C165,74.51,158.64,86,163.81,95.27c6.15,11,20.23,10,23.13.91a13.06,13.06,0,0,0,.41-6.2.13.13,0,0,0,0,.06" style="fill:#999"/><path d="M187.57,92.65a15.29,15.29,0,0,1-.25,2.77l-.27,1.2c-.12.38-.26.9-.4,1.28L186.2,99c-.18.36-.41.84-.6,1.19l-.62,1c-.23.33-.54.78-.8,1.1l-.74.86c-.3.3-.7.71-1,1l-.81.68c-.38.28-.9.65-1.29.91l-.78.46a17.1,17.1,0,0,1-1.76.83l-.56.21a16.74,16.74,0,0,1-3.08.74l-.4.05-.4,0-.36,0-.35,0h-1.35l-.35,0-.35,0-.38,0-.39-.05-.43-.07-.45-.09-.52-.11-.57-.15-.64-.2-.78-.28-.79-.34c-.36-.18-.85-.42-1.2-.61l-.88-.54c-.41-.29-.94-.68-1.33-1l-.84-.75c-.3-.31-.71-.72-1-1l-.73-.9c-.24-.34-.56-.79-.78-1.14l-.58-1c-.17-.36-.41-.85-.56-1.22l-.42-1.13c-.1-.39-.26-.91-.35-1.3l-.23-1.21c-.07-.68-.13-1.58-.15-2.26l0-1.26c.05-.41.1-1,.17-1.35l.26-1.2c.11-.39.25-.9.38-1.28l.44-1.12c.18-.36.4-.85.59-1.2l.61-1c.23-.33.54-.78.79-1.1l.73-.87c.3-.31.69-.72,1-1l.81-.69c.38-.28.88-.65,1.27-.91l.79-.48a14.17,14.17,0,0,1,1.71-.83l.57-.22a15.4,15.4,0,0,1,3.25-.8l.4,0,.39,0,.36,0h1.37l.34,0,.34,0,.36,0,.37,0,.39.05.43.07.12,0-.12,0c-12.22-1.9-17,11.59-10.16,20.44,7.41,9.51,21.5,7.44,22.85-3.36a14.16,14.16,0,0,0,.12-1.9v.11" style="fill:#949494"/><path d="M187.32,95.42a15.67,15.67,0,0,1-.67,2.48L186.2,99c-.18.36-.41.84-.6,1.19l-.62,1c-.23.33-.54.78-.8,1.1l-.74.86c-.3.3-.7.71-1,1l-.81.68c-.38.28-.9.65-1.29.91l-.78.46a17.1,17.1,0,0,1-1.76.83l-.56.21a16.74,16.74,0,0,1-3.08.74l-.4.05-.4,0-.36,0-.35,0h-1.35l-.35,0-.35,0-.38,0-.39-.05-.43-.07-.45-.09-.52-.11-.57-.15-.64-.2-.78-.28-.79-.34c-.36-.18-.85-.42-1.2-.61l-.88-.54c-.41-.29-.94-.68-1.33-1l-.84-.75c-.3-.31-.71-.72-1-1l-.73-.9c-.24-.34-.56-.79-.78-1.14l-.58-1c-.17-.36-.41-.85-.56-1.22l-.42-1.13c-.1-.39-.26-.91-.35-1.3l-.23-1.21c-.07-.68-.13-1.58-.15-2.26l0-1.26c.05-.41.1-1,.17-1.35l.26-1.2c.11-.39.25-.9.38-1.28l.44-1.12c.18-.36.4-.85.59-1.2l.61-1c.23-.33.54-.78.79-1.1l.73-.87c.3-.31.69-.72,1-1l.81-.69c.38-.28.88-.65,1.27-.91l.79-.48a14.17,14.17,0,0,1,1.71-.83l.57-.22a15.4,15.4,0,0,1,3.25-.8l.4,0,.39,0,.36,0h1.06c-11.52.05-15.54,14-6.61,22.88,7.26,7.26,19.76,5.83,21.8-5.14,0,.17-.06.39-.09.55" style="fill:#8f8f8f"/><path d="M186.65,97.9a15.66,15.66,0,0,1-1.05,2.3l-.62,1c-.23.33-.54.78-.8,1.1l-.74.86c-.3.3-.7.71-1,1l-.81.68c-.38.28-.9.65-1.29.91l-.78.46a17.1,17.1,0,0,1-1.76.83l-.56.21a16.74,16.74,0,0,1-3.08.74l-.4.05-.4,0-.36,0-.35,0h-1.35l-.35,0-.35,0-.38,0-.39-.05-.43-.07-.45-.09-.52-.11-.57-.15-.64-.2-.78-.28-.79-.34c-.36-.18-.85-.42-1.2-.61l-.88-.54c-.41-.29-.94-.68-1.33-1l-.84-.75c-.3-.31-.71-.72-1-1l-.73-.9c-.24-.34-.56-.79-.78-1.14l-.58-1c-.17-.36-.41-.85-.56-1.22l-.42-1.13c-.1-.39-.26-.91-.35-1.3l-.23-1.21c-.07-.68-.13-1.58-.15-2.26l0-1.26c.05-.41.1-1,.17-1.35l.26-1.2c.11-.39.25-.9.38-1.28l.44-1.12c.18-.36.4-.85.59-1.2l.61-1c.23-.33.54-.78.79-1.1l.73-.87c.3-.31.69-.72,1-1l.81-.69c.38-.28.88-.65,1.27-.91l.79-.48a14.17,14.17,0,0,1,1.71-.83l.57-.22a15.68,15.68,0,0,1,3.16-.79l-.24,0c-11.84,2.06-13.29,17.55-2.35,25.12,7.65,5.3,17,2.84,19.53-5.16-.06.19-.14.44-.21.63" style="fill:#8a8a8a"/><path d="M185.6,100.2a16.83,16.83,0,0,1-1.42,2.1l-.74.86c-.3.3-.7.71-1,1l-.81.68c-.38.28-.9.65-1.29.91l-.78.46a17.1,17.1,0,0,1-1.76.83l-.56.21a16.74,16.74,0,0,1-3.08.74l-.4.05-.4,0-.36,0-.35,0h-1.35l-.35,0-.35,0-.38,0-.39-.05-.43-.07-.45-.09-.52-.11-.57-.15-.64-.2-.78-.28-.79-.34c-.36-.18-.85-.42-1.2-.61l-.88-.54c-.41-.29-.94-.68-1.33-1l-.84-.75c-.3-.31-.71-.72-1-1l-.73-.9c-.24-.34-.56-.79-.78-1.14l-.58-1c-.17-.36-.41-.85-.56-1.22l-.42-1.13c-.1-.39-.26-.91-.35-1.3l-.23-1.21c-.07-.68-.13-1.58-.15-2.26l0-1.26c.05-.41.1-1,.17-1.35l.26-1.2c.11-.39.25-.9.38-1.28l.44-1.12c.18-.36.4-.85.59-1.2l.61-1c.23-.33.54-.78.79-1.1l.73-.87c.3-.31.69-.72,1-1l.81-.69c.38-.28.88-.65,1.27-.91l.79-.48a14.17,14.17,0,0,1,1.71-.83l.57-.22.79-.27h0c-11.62,3.67-11.18,20.14.71,26.29,8.1,4.19,14.74.79,17.48-4.14l-.13.24" style="fill:#858585"/><path d="M178.93,78.94c9.73,4.58,11.14,18.09,2.25,21.58-9.33,3.65-20-7.46-16.11-16.74,2.5-5.94,9-7.13,13.86-4.84" style="fill:#adadad"/><path d="M180.26,79.75c9.37,5.7,8.91,18.87-.72,20.72-10.17,2-18.77-10.65-12.79-18.73,3.43-4.62,9.39-4.5,13.51-2" style="fill:#b3b3b3"/><path d="M181.47,80.69c8.44,6.49,6.09,17.69-1.85,19.25-8.83,1.73-18.15-9.24-12.47-18,2.53-3.87,8.89-5.32,14.32-1.3" style="fill:#b8b8b8"/><path d="M182.54,81.75c7.67,7.35,3.48,17.84-4.78,17.83-9.69,0-15.7-12.15-9.19-18.57,4-4,10.38-2.7,14,.74" style="fill:#bdbdbd"/><path d="M182.5,81.93c6.95,6.5,4.05,17.07-4.7,17.12-9.43.06-15-11.52-8.66-18,3.3-3.35,9.3-3,13.36.83" style="fill:#c2c2c2"/><path d="M183.38,83.12c5.68,7,1.68,16.12-6.69,15.3-9.72-1-12.72-12.84-6.46-17.65,4.27-3.28,10.15-1.33,13.15,2.35" style="fill:#c7c7c7"/><path d="M183.26,83.29c5.66,7,1,16.11-7.45,14.57-9.09-1.66-10.92-12.8-4.72-17.14,3.55-2.48,9-1.33,12.17,2.57" style="fill:#ccc"/><path d="M183.92,84.61c4.45,7.35-1.19,14.1-8.1,12.79-9.19-1.74-9.92-12.34-4.66-16.13,4.87-3.53,10.55-.33,12.76,3.34" style="fill:#d1d1d1"/><path d="M183.72,84.79c4.13,6.95-1.34,13.37-7.9,12.15-8.54-1.58-9.81-11.17-3.92-15.6,3.12-2.34,9-1.35,11.82,3.45" style="fill:#d6d6d6"/><path d="M183.46,85c3.72,6.4-1.45,12.47-7.64,11.6C168.07,95.48,166.57,86,171.87,82c4.44-3.31,9.67-.35,11.59,3" style="fill:#dbdbdb"/><path d="M183.78,86.41c2.51,6.69-4.35,11.69-10.05,9.21-6.77-3-5.71-11.81.13-14.16,3.66-1.48,8.39.88,9.92,5" style="fill:#e0e0e0"/><path d="M183.41,86.6a7,7,0,0,1-9.69,8.7c-6.38-2.81-5.3-11,.27-13.32,3.91-1.62,8.2,1.11,9.42,4.62" style="fill:#e6e6e6"/><path d="M183,86.79c2,5.95-4.29,10.42-9.26,8.23-6-2.66-4.88-10.51.43-12.56A6.91,6.91,0,0,1,183,86.79" style="fill:#ebebeb"/><path d="M182.52,87c1.88,5.63-4.08,9.86-8.8,7.78-5.21-2.3-4.86-9.71.55-11.83a6.53,6.53,0,0,1,8.25,4" style="fill:#f0f0f0"/><path d="M182.33,88.51a5.65,5.65,0,0,1-3.6,6,5.94,5.94,0,0,1-6.64-1.27c-3.84-3.3-1.72-9.45,3.49-10.13a6.08,6.08,0,0,1,6.75,5.39" style="fill:#f5f5f5"/><path d="M181.89,88.64a5.92,5.92,0,0,1-2.14,5c-1.61,1-1.65,1-4,1.15a10.28,10.28,0,0,1-2.37-.8c-5.83-4.22-2.06-9.35,1-10.29a5.9,5.9,0,0,1,7.43,4.92" style="fill:#fafafa"/><path d="M181.53,88.73a5.28,5.28,0,0,1-8.77,4.47c-4.57-3.61-1.11-9.31,3.11-9.3,1.79,0,5.29,1.42,5.66,4.83" style="fill:#fff"/><path d="M181.16,88.82a5,5,0,0,1-3.35,5.28,5.38,5.38,0,0,1-5.54-1.52A4.89,4.89,0,0,1,176,84.29a5.53,5.53,0,0,1,5.16,4.53" style="fill:#fff"/><path d="M180.78,88.91c.51,5.25-5.54,6.47-8.23,3.67a4.64,4.64,0,0,1,3.55-8,5.12,5.12,0,0,1,4.68,4.32" style="fill:#fff"/><path d="M180.49,89c.4,2.66-1.26,3.7-2.71,4.62a5,5,0,0,1-4.09-.34,4.73,4.73,0,0,1-2.33-4.88,4.79,4.79,0,0,1,3.36-3.43c1.76-.41,5.29.82,5.77,4" style="fill:#fff"/><path d="M180.24,90.47a15.71,15.71,0,0,1-.8,1.58,9.35,9.35,0,0,1-1.68,1.31,4.33,4.33,0,0,1-2,.32A5,5,0,0,1,172,91.15a4.16,4.16,0,0,1,4.29-6c2.47.35,4.51,3.07,4,5.3" style="fill:#fff"/><path d="M180,90.52c-.72,2.68-3.26,2.89-4.22,3a3.8,3.8,0,0,1-2.06-.7,10.79,10.79,0,0,1-1.49-1.64,3.91,3.91,0,0,1,4.17-5.68c.16,0,1.81.78,1.82.78a5,5,0,0,1,1.38,1.49,4.41,4.41,0,0,1,.4,2.78" style="fill:#fff"/><path d="M179.67,90.57a4.51,4.51,0,0,1-1.95,2.33,4.4,4.4,0,0,1-2,.39,3.87,3.87,0,0,1-2.06-.73,4.74,4.74,0,0,1-1.26-1.41,3.61,3.61,0,0,1,.29-4.1,3.79,3.79,0,0,1,3.74-1.32,5.83,5.83,0,0,1,1.79.87c.11.08,1.06,1.18,1.07,1.19a3.57,3.57,0,0,1,.37,2.78" style="fill:#fff"/><path d="M179.38,90.61a3.52,3.52,0,0,1-3.66,2.49,11.91,11.91,0,0,1-2.06-.8,3.79,3.79,0,0,1-1-1.15A3.47,3.47,0,0,1,173,87a3.43,3.43,0,0,1,1.93-1.13,3.47,3.47,0,0,1,1.6.07s3.88,1.26,2.88,4.63" style="fill:#fff"/><path d="M179.2,89.91a2.62,2.62,0,0,1-.08.75,6.23,6.23,0,0,1-1.19,1.6c-.25.22-.3.26-2.22.64a4.37,4.37,0,0,1-2.84-1.73,3.36,3.36,0,0,1,.37-4.13,5.73,5.73,0,0,1,1.7-.91,3.75,3.75,0,0,1,1.63.1,5.33,5.33,0,0,1,2.18,1.66,2.57,2.57,0,0,1,.45,2" style="fill:#fff"/><path d="M178.85,90.7a3.63,3.63,0,0,1-1.2,1.51,17.89,17.89,0,0,1-2,.49,4.62,4.62,0,0,1-2.63-1.55,3.25,3.25,0,0,1,.35-4,15.21,15.21,0,0,1,1.56-.81,3.9,3.9,0,0,1,1.66.15c1,.27,3.05,2.19,2.21,4.21" style="fill:#fff"/><path d="M178.59,90.73a2.89,2.89,0,0,1-1,1.21,19.17,19.17,0,0,1-1.94.57c-.11,0-2-1-2-1a4.19,4.19,0,0,1-.79-1.49,2.67,2.67,0,0,1,.59-2.58,8.08,8.08,0,0,1,1.57-.9,3.9,3.9,0,0,1,1.69.18c.15.05,1.53,1.22,1.53,1.23a4.65,4.65,0,0,1,.54,1.31,3.1,3.1,0,0,1-.18,1.45" style="fill:#fff"/><path d="M178.32,90.77a2.15,2.15,0,0,1-.71.89,3.45,3.45,0,0,1-1.94.63,4.63,4.63,0,0,1-2-1,5.48,5.48,0,0,1-.69-1.53s0-1.59.52-2a12,12,0,0,1,1.59-1,3.09,3.09,0,0,1,1.72.25,3.65,3.65,0,0,1,1.2,1,5.55,5.55,0,0,1,.57,1.32,2.14,2.14,0,0,1-.22,1.45" style="fill:#fff"/><path d="M178.05,90.8a1.35,1.35,0,0,1-.49.61c-.54.28-1.32.78-1.91.65a4.4,4.4,0,0,1-1.84-.93,4.12,4.12,0,0,1-.67-1.39,3.52,3.52,0,0,1,.34-1.64,3,3,0,0,1,1.6-1.1,3.61,3.61,0,0,1,1.76.33,2.48,2.48,0,0,1,.87.71,3.05,3.05,0,0,1,.59,1.31,3,3,0,0,1-.25,1.45" style="fill:#fff"/><path d="M177.77,90.84a.71.71,0,0,1-.24.3,4.57,4.57,0,0,1-1.89.69,3.22,3.22,0,0,1-1.44-.72,2.7,2.7,0,0,1-.61-.77,2.2,2.2,0,0,1,0-2,3.11,3.11,0,0,1,1.55-1.11,3.7,3.7,0,0,1,1.79.39,1.3,1.3,0,0,1,.53.43,3.17,3.17,0,0,1,.62,1.31,3,3,0,0,1-.29,1.46" style="fill:#fff"/><path d="M177.5,90.87a2.67,2.67,0,0,1-1.88.74,2.09,2.09,0,0,1-1-.51,4.93,4.93,0,0,1-1-1.3,4.78,4.78,0,0,1,.42-1.46,2.29,2.29,0,0,1,1.17-.84,4.46,4.46,0,0,1,1.82.44.42.42,0,0,1,.19.16,3.43,3.43,0,0,1,.65,1.31,3,3,0,0,1-.32,1.46" style="fill:#fff"/><path d="M177.4,90.26a2.7,2.7,0,0,1-1.8,1.12,1.1,1.1,0,0,1-.61-.3c-.38-.37-1-.84-1.09-1.36a2.31,2.31,0,0,1,.51-1.39,1.4,1.4,0,0,1,.78-.58,3.46,3.46,0,0,1,1.54.4,1.12,1.12,0,0,1,.35.3,1.9,1.9,0,0,1,.32,1.81" style="fill:#fff"/><path d="M177.3,89.63A6,6,0,0,1,176,91a.59.59,0,0,1-.38.14c-.31,0-1.3-1.43-1.31-1.44-.06-.45.33-1,.55-1.41a.73.73,0,0,1,.41-.3,1.18,1.18,0,0,1,.79.22,11.16,11.16,0,0,1,1.22,1.06.37.37,0,0,1,.06.35" style="fill:#fff"/><path d="M175.55,90.77c-.42,0-.84-.67-.9-1.08,0,0,.56-1.42.61-1.43h.06c.44.37,1.44.68,1.47,1.26a1.47,1.47,0,0,1-1.24,1.24" style="fill:#fff"/><path d="M175.49,90.23c-.21,0-.43-.35-.46-.56s.07-.71.32-.77.78.37.79.69a.76.76,0,0,1-.65.64" style="fill:#fff"/><path d="M175.44,89.69s0,0,0,0a.07.07,0,0,1,0-.06.07.07,0,0,1,.06.06.06.06,0,0,1-.05,0" style="fill:#fff"/></g></g></g></g><path d="M53.31,24.08c0-.07-.06-.13-.08-.19L53,23.28l-.09-.2L52.81,23v0l0-.06c-.09-.19-.19-.37-.3-.56l-.09-.15L52.26,22l0-.1,0-.05c-.05-.08-.1-.16-.16-.24l-.15-.23L51.61,21l-.06-.08-.07-.09-.13-.17c-.16-.2-.32-.39-.49-.58l0,0h0l0,0-.09-.1-.5-.51-.11-.11,0,0L50,19.23a5,5,0,0,0-.42-.37l-.19-.16-.11-.09v0l0,0-.49-.37,0,0-.2-.14L48.37,18l-.08-.06L48,17.72l-.23-.13-.32-.19,0,0-.09,0-.1-.06L47,17.16l-.46-.23-.12-.06-.08,0,0,0-.08,0-.82-.32-.06,0h0l-.16-.06-.63-.2-.28-.08h0l-.09,0h0l-.59-.15-.17,0L43,15.79l-.12,0-.1,0-.34-.06-.25,0-.62-.09h-.33l-.31,0L3.67,12.27l.05,2.47,0,.84,0,1.72c0,.16,0,.31,0,.45l0,2.71c0,.21,0,.4,0,.6L4,26.69v.47l.17,7.92c0,.29,0,.59,0,.89l.11,5.08c0,.27,0,.54,0,.81v.49c0,.61,0,1.21,0,1.74v.13l.06,2.54c0,.14,0,.28,0,.43l0,.88c0,.57,0,1.14,0,1.63l0,.47c0,.15,0,.3,0,.45l0,.39c0,.11,0,.22,0,.33l0,.32c0,.24.07.47.11.71a.28.28,0,0,1,0,.09l0,.15v0c.06.33.13.66.21,1a.57.57,0,0,1,0,.14v0l.09.29c0,.16.08.31.13.47l.12.32s0,.08,0,.13l.09.25c0,.06.05.13.08.19a3.68,3.68,0,0,0,.15.35c.07.17.14.34.22.51l0,.08c0,.09.09.18.14.27s.16.32.25.47l.15.26.12.2c.07.11.14.21.2.32l.23.33.19.27.09.11,0,0c.08.1.16.21.25.31s.21.26.32.38l.09.11,0,0,.14.14.35.36.28.27.07.06,0,0,.27.23.3.25.29.22.2.15.23.17.46.3.23.16h0s0,0,0,0l.55.3.25.14.18.09.25.12.41.2.07,0,.38.15.25.11.18.07.31.1.6.2.08,0h0l.27.07.57.15.32.06.27.06.39.07.44.07c.14,0,.27,0,.41.06h.17l.46,0,.58,0,.26,0h1.56l.37,0,.5,0,.27,0,.37,0,.5-.05.3,0h.11l.14,0,.12,0,.49-.07.72-.12.47-.09.14,0h0l.08,0,.57-.13.41-.09.63-.17.21,0,.39-.12c.44-.13.89-.27,1.33-.42h0l.2-.07L29.91,62l.18-.07.3-.13.95-.41.29-.12.22-.11.9-.43.34-.17.13-.06.91-.49.33-.18.06,0c.38-.22.76-.44,1.13-.67l.11-.06h0c.41-.24.81-.5,1.21-.76l0,0c.32-.21.62-.42.93-.64l.18-.12h0l1-.76,0,0,.24-.2.64-.49.15-.12.3-.25.39-.32.33-.29.25-.22.17-.14.71-.64,0,0,.09-.09.48-.45.37-.36.14-.14.09-.09c.19-.18.38-.37.56-.56l.21-.22.14-.14.17-.18.5-.55.15-.16.12-.15.23-.25.49-.57.08-.1.1-.12c.1-.12.2-.23.29-.35l.5-.63h0l0,0,.49-.63c.08-.1.15-.21.23-.32l.15-.2.12-.16.39-.56c.09-.13.18-.25.26-.38l0-.07.14-.21c.24-.37.48-.74.71-1.11l.13-.2.18-.3.36-.62.31-.56c.12-.21.23-.42.34-.63l.16-.3.09-.19c.26-.52.51-1,.74-1.56h0s0-.11.07-.17c.15-.35.3-.7.44-1,0,0,0,0,0,0,.12-.31.23-.62.34-.93l.07-.18h0c.14-.39.26-.78.38-1.16v0l.15-.55.18-.64h0q.17-.66.3-1.32a.31.31,0,0,1,0-.08l0-.2c.08-.43.15-.85.21-1.28l0-.23a4.78,4.78,0,0,0,.06-.53c0-.37.07-.72.08-1.08,0-.09,0-.19,0-.28a.57.57,0,0,1,0-.13v-.66a2.81,2.81,0,0,0,0-.29v-.16q0-.37,0-.75v-.23a1.36,1.36,0,0,0,0-.2l-.06-.66a.28.28,0,0,1,0-.09s0-.06,0-.09a.68.68,0,0,0,0-.14c0-.18,0-.36-.08-.55,0,0,0-.09,0-.13a.24.24,0,0,0,0-.08l0-.19c0-.13-.05-.25-.08-.37L53.93,26a.85.85,0,0,0,0-.17l-.06-.23a1,1,0,0,1,0-.17,1,1,0,0,1,0-.1c0-.12-.07-.25-.11-.37a1.43,1.43,0,0,0-.08-.22,5.71,5.71,0,0,0-.21-.58s0-.05,0-.08A.08.08,0,0,1,53.31,24.08Z" style="fill:#fff;stroke:#000;stroke-miterlimit:10"/><path d="M22.94,85.37a12.6,12.6,0,0,0-13,12.12L8.41,138.36h.25a12.59,12.59,0,0,0,24.65.9h.25l1.5-40.87A12.59,12.59,0,0,0,22.94,85.37Z" style="fill:#fff;stroke:#000;stroke-miterlimit:10"/><g style="isolation:isolate"><g style="clip-path:url(#c)"><g style="isolation:isolate"><path d="M185.84,46.62,156.64,75.7A15.08,15.08,0,0,1,148,79.91c-9.73,1.37-20-5.69-22.92-15.77-1.88-6.45-.29-12.57,3.66-16.5l29.2-29.09c-3.94,3.93-5.53,10.05-3.66,16.51,2.93,10.08,13.19,17.13,22.92,15.76a15.1,15.1,0,0,0,8.66-4.2" style="fill:#333;stroke:#000;stroke-miterlimit:10"/></g></g></g><path d="M166.58,14.35c9.73-1.37,20,5.68,22.91,15.76s-2.58,19.35-12.31,20.71-20-5.68-22.92-15.76S156.85,15.71,166.58,14.35Z" style="fill:#fcfcfc;stroke:#000;stroke-miterlimit:10"/><polygon points="161.16 144.29 155.07 156.92 62.86 45.81 68.94 33.18 161.16 144.29" style="fill:#333;stroke:#000;stroke-miterlimit:10"/><polygon points="94.19 16.07 186.41 127.19 161.16 144.29 68.94 33.18 94.19 16.07" style="fill:#fff;stroke:#000;stroke-miterlimit:10"/><polygon points="186.41 127.19 180.33 139.82 155.07 156.92 161.16 144.29 186.41 127.19"/><polygon points="196.59 138.52 190.5 151.15 165.25 168.25 171.33 155.62 196.59 138.52"/><polygon points="171.33 155.62 165.25 168.25 156.9 158.19 162.99 145.56 171.33 155.62" style="fill:#333;stroke:#000;stroke-miterlimit:10"/><polygon points="188.24 128.46 196.59 138.52 171.33 155.62 162.99 145.56 188.24 128.46" style="fill:#fff;stroke:#000;stroke-miterlimit:10"/><path d="M70.78,126.63l-2,1-6,3c-13,4-22-6-22-6-6.39-.92-11.11-12.65-11.89-14.7-.07-.19-.11-.39-.18-.58-7.93-21.72.07-26.72.07-26.72-1-34,14-55,14-55,30-43,77-22,77-22,49,24,32,76,32,76-4,19-23,40-23,40-2,9-12,16-12,16-14,10-22,3-22,3l-16-2-7.5-10.5a8.48,8.48,0,0,1-.85-1.94c-1.45-4.87,1.56-10.7,5-15.4a62.9,62.9,0,0,1,7.83-8.66c23-24,40-22,40-22l8.5,12.5s31-70-33-83c0,0-37-6-55,34a84.79,84.79,0,0,0-5,21s15-10,25,5c0,0,12,15,12,41" style="fill:#fff;stroke:#000;stroke-miterlimit:10"/><path d="M38.78,64.63s-11,4-10,18,3,22,12.26,42.49" style="fill:#fff;stroke:#000;stroke-miterlimit:10"/><path d="M131.73,92.33s-17.95,2.3-36.95,21.3c0,0-15,13-16,25" style="fill:#fff;stroke:#000;stroke-miterlimit:10"/><path d="M131.78,92.63s-8,17-14,20c0,0-12,2-18,9,0,0-11,12-5,19" style="fill:#fff;stroke:#000;stroke-miterlimit:10"/><path d="M46.42,154.17c0-.08,0-.15.07-.22.11-.31.2-.61.28-.92s.13-.44.18-.66.12-.63.17-1,.08-.41.1-.62,0-.68.05-1c0-.17,0-.35,0-.51a9.3,9.3,0,0,0-.14-1.5,10.24,10.24,0,0,0-5.47-7.39l-4.56-2.48a10.28,10.28,0,0,1,5.48,7.39,10.59,10.59,0,0,1,.13,1.5c0,.16,0,.34,0,.51,0,.34,0,.68-.05,1s-.07.41-.1.62-.09.63-.17.95-.12.44-.18.66-.17.61-.28.92-.28.76-.45,1.15l-.06.15c-.2.46-.44.91-.69,1.37l-.19.33c-.22.37-.45.74-.7,1.11l-.18.28q-.49.72-1,1.41c-.35.43-.72.84-1.1,1.25-.12.14-.25.27-.38.41-.36.37-.74.74-1.13,1.1l-.17.17c-.48.43-1,.85-1.49,1.25l-.4.3c-.38.28-.76.57-1.16.84q-.95.65-2,1.23l-.28.15c-.58.33-1.17.64-1.78.93-.39.19-.78.36-1.18.53l-.6.26c-.62.25-1.25.49-1.89.7a28.24,28.24,0,0,1-5,1.19c-.68.09-1.35.15-2,.19l-.58,0c-.49,0-1,0-1.44,0l-.56,0c-.63,0-1.25-.09-1.85-.17h0c-.59-.09-1.15-.2-1.71-.34l-.57-.16-.85-.26-.59-.22q-.39-.15-.78-.33c-.28-.13-.55-.25-.82-.4l4.56,2.48.5.26.32.14.78.33.58.22.86.26c.12,0,.24.09.37.12l.2,0c.55.14,1.12.25,1.71.34h0c.6.08,1.22.14,1.85.17l.56,0c.47,0,.95,0,1.44,0l.58,0c.67,0,1.34-.1,2-.19a28.24,28.24,0,0,0,5-1.19c.64-.21,1.27-.45,1.89-.7l.6-.26c.33-.14.66-.27,1-.43l.2-.1c.6-.29,1.2-.6,1.78-.93l.28-.15q1-.59,2-1.23l.13-.08c.35-.25.69-.51,1-.77l.4-.29c.5-.39,1-.8,1.44-1.21l0,0,.18-.17c.39-.36.77-.73,1.13-1.1l.38-.41c.14-.15.28-.29.41-.44s.47-.53.69-.81.66-.84,1-1.27l.09-.14.18-.28c.25-.37.48-.74.7-1.11l.19-.33.12-.21c.21-.39.4-.77.57-1.16l.06-.15C46.18,154.79,46.31,154.48,46.42,154.17Z"/><path d="M4.74,161.84c0-.31-.09-.62-.12-.94a3,3,0,0,1,0-.31c0-.21,0-.42,0-.63v-.38c0-.19,0-.38,0-.58s0-.27,0-.4,0-.37,0-.56,0-.27.05-.41,0-.37.08-.55.05-.28.08-.42.07-.37.11-.55.07-.28.1-.42l.15-.54.12-.42c.06-.19.13-.37.19-.55s.09-.26.13-.38c.15-.41.32-.81.49-1.21l.12-.23c.16-.35.33-.69.51-1a2.1,2.1,0,0,1,.13-.26c.2-.37.41-.74.64-1.1l.12-.19c.19-.31.39-.61.6-.91l.21-.3c.23-.33.47-.66.73-1l.08-.11c.28-.35.58-.7.88-1l.23-.26c.3-.34.62-.68.95-1l.1-.11q.54-.54,1.11-1.05l.25-.23c.44-.39.89-.77,1.36-1.14l.21-.16c.49-.39,1-.76,1.51-1.12l0,0c.71-.49,1.44-.95,2.19-1.39l.21-.12c.72-.41,1.46-.8,2.23-1.16l.23-.11c.52-.24,1-.47,1.58-.69l.32-.13c.56-.22,1.13-.43,1.7-.62a32,32,0,0,1,5.48-1.3c.74-.1,1.47-.16,2.19-.21l.42,0c.7,0,1.38,0,2.06,0l.38,0c.65,0,1.3.09,1.94.18l.15,0c.66.1,1.3.23,1.93.39l.41.11a16.73,16.73,0,0,1,1.61.5,15,15,0,0,1,1.41.61l.76.37-4.56-2.48L38,135l-.18-.07a15,15,0,0,0-1.41-.61,16.73,16.73,0,0,0-1.61-.5l-.19-.07-.22,0c-.63-.16-1.27-.29-1.93-.39l-.15,0c-.64-.09-1.29-.14-1.94-.18l-.38,0c-.68,0-1.36,0-2.06,0l-.42,0c-.72,0-1.45.11-2.18.21a32.07,32.07,0,0,0-5.49,1.3c-.57.19-1.14.4-1.7.62l-.32.13c-.53.22-1.06.45-1.58.69l-.12.05-.11.06c-.76.36-1.51.75-2.23,1.16l-.21.13c-.75.43-1.48.89-2.18,1.38l0,0h0c-.52.36-1,.73-1.51,1.12l-.21.16c-.47.37-.92.75-1.36,1.14l-.12.11-.13.12c-.38.34-.75.69-1.1,1l-.11.11c-.33.33-.64.67-1,1l-.14.15L5.6,144c-.3.35-.6.7-.88,1.05l-.08.11c-.25.32-.5.65-.73,1a1.34,1.34,0,0,1-.11.14c0,.06-.07.11-.1.16-.21.3-.41.6-.6.91l-.12.19c-.23.36-.44.73-.64,1.1a.41.41,0,0,1,0,.09l-.08.17c-.18.34-.35.68-.51,1l-.11.23c-.18.4-.35.81-.5,1.21a.36.36,0,0,1,0,.09l-.09.28c-.06.19-.13.37-.18.56s-.09.28-.13.41l-.15.55c0,.14-.07.28-.1.42s-.08.37-.11.55-.06.28-.08.42-.06.37-.08.55,0,.27,0,.41,0,.37,0,.56,0,.27,0,.4,0,.39,0,.58v.38c0,.21,0,.42,0,.63s0,.21,0,.31c0,.32.07.63.12.94a12.28,12.28,0,0,0,2.26,5.36,13.48,13.48,0,0,0,4.42,3.76L11.42,171A12.56,12.56,0,0,1,4.74,161.84Z"/><path d="M49.77,146.9c.79,4.7-.89,9.89-4.7,14.6a32.56,32.56,0,0,1-14.94,10.14,31,31,0,0,1-5.42,1.29c-10.15,1.42-18.63-3-20-11.09C3.15,152.33,12,141.22,24.38,137.1a32,32,0,0,1,5.48-1.3,22.93,22.93,0,0,1,11.09,1C45.86,138.6,49,142.19,49.77,146.9Zm-6.6,12.85c3.19-3.95,4.6-8.2,4-12s-3.23-6.7-7.33-8.23a20.75,20.75,0,0,0-10-.86,29.64,29.64,0,0,0-5,1.19C13.88,143.51,6,153,7.37,161c1.12,6.76,8.42,10.33,17.27,9.09a28.24,28.24,0,0,0,5-1.19,29.41,29.41,0,0,0,13.51-9.12" style="fill:#fff;stroke:#000;stroke-miterlimit:10"/><polygon points="74.72 174.06 66.58 165.55 71.92 148.95 80.06 157.46 74.72 174.06"/><polygon points="58.64 171.3 50.51 162.79 66.58 165.55 74.72 174.06 58.64 171.3"/><polygon points="63.98 154.71 55.84 146.2 71.92 148.95 80.06 157.46 63.98 154.71" style="fill:#b4b4b4"/><polygon points="58.64 171.3 50.51 162.79 55.84 146.2 63.98 154.71 58.64 171.3" style="fill:#828282"/><path d="M63.54,153.9l17.41,3-5.79,18-17.41-3Zm11.18,20.16,5.34-16.6L64,154.71,58.64,171.3l16.08,2.76"/><polygon points="80.06 157.46 74.72 174.06 58.64 171.3 63.98 154.71 80.06 157.46" style="fill:#fff"/><polygon points="57.75 171.88 49.61 163.38 55.4 145.39 63.53 153.9 57.75 171.88"/><polygon points="63.53 153.9 55.4 145.39 72.81 148.38 80.95 156.89 63.53 153.9"/></svg>