<svg width="97" height="97" viewBox="0 0 97 97" fill="none" xmlns="http://www.w3.org/2000/svg">
<path d="M42.8728 84.052C42.8728 83.4858 42.8728 82.9196 42.8728 82.3534V79.1827C42.8728 78.1635 42.8728 77.0311 42.8728 76.012V74.3134C42.8728 73.6339 42.8728 72.9544 42.8728 72.275V65.8203C42.8728 65.1409 42.8728 64.4614 42.8728 63.782C42.8728 63.6687 42.7456 63.5555 42.491 63.329C42.3638 63.329 42.3637 63.2158 42.2364 63.2158C42.2364 63.2158 42.2364 63.2158 42.1092 63.2158C41.9819 63.2158 41.9819 63.2158 41.8547 63.1025H41.7273C41.7273 63.1025 41.7273 63.1025 41.6 63.1025C41.6 63.1025 41.6001 63.1025 41.4728 63.1025H41.3455C41.3455 63.1025 41.3456 63.1025 41.2183 63.1025C41.2183 63.1025 41.2182 63.1025 41.0909 63.1025H40.9637C40.8364 63.1025 40.8365 63.1025 40.7092 63.1025C40.7092 63.1025 40.7092 63.1025 40.5819 63.1025H40.4545C40.3273 63.1025 40.3273 63.1025 40.2001 63.1025C40.2001 63.1025 40.2001 63.1025 40.0728 63.1025C39.9455 63.1025 39.9455 63.1025 39.8182 63.1025H39.6909C39.5637 63.1025 39.5637 63.1025 39.4365 63.1025C39.3092 63.1025 39.3091 63.1025 39.1818 63.1025H39.0546C38.9273 63.1025 38.9274 63.1025 38.8001 63.1025H38.6729H38.5455C38.2909 63.1025 38.0364 63.1025 37.7818 63.2158C37.6546 63.2158 37.4 63.2158 37.2727 63.329C37.1455 63.329 37.1455 63.329 37.0182 63.329H36.891C36.7637 63.329 36.7636 63.329 36.6364 63.4422H36.5091H36.3819C36.3819 63.4422 36.3819 63.4422 36.2546 63.4422H36.1274C36.1274 63.4422 36.1273 63.4422 36 63.4422C36 63.4422 36 63.4423 36 63.5555V65.9335C36 68.7646 36 71.7088 36 74.7663V75.559C36 76.1252 36 76.8046 36 77.3708V82.5799C36 82.8064 36 83.1461 36 83.3726V92.2053C36 92.998 36 93.7906 36 94.5833C36 94.5833 36 94.5834 36 94.6966C36 94.6966 36 94.6966 36 94.8098C36 94.8098 36.0001 94.8098 36.1274 94.923L36.2546 95.0363C36.3819 95.0363 36.3818 95.1495 36.5091 95.1495C36.5091 95.1495 36.5091 95.1495 36.6364 95.1495C36.7636 95.1495 36.7637 95.1496 36.891 95.2628H37.0182C37.0182 95.2628 37.0182 95.2628 37.1455 95.2628C37.1455 95.2628 37.1455 95.2628 37.2727 95.2628H37.4001C37.4001 95.2628 37.4001 95.2628 37.5274 95.2628C37.5274 95.2628 37.5273 95.2628 37.6546 95.2628H37.7818C37.9091 95.2628 37.9092 95.2628 38.0365 95.2628C38.0365 95.2628 38.0365 95.2628 38.1637 95.2628H38.291C38.4182 95.2628 38.4182 95.2628 38.5455 95.2628H38.6729C38.8001 95.2628 38.8001 95.2628 38.9273 95.2628H39.0546C39.1818 95.2628 39.1819 95.2628 39.3092 95.2628C39.4365 95.2628 39.4364 95.2628 39.5637 95.2628H39.6909C39.8182 95.2628 39.8183 95.2628 39.9456 95.2628C39.9456 95.2628 39.9455 95.2628 40.0728 95.2628H40.2001C40.4546 95.2628 40.7091 95.2628 40.9637 95.1495C41.0909 95.1495 41.2183 95.1496 41.3455 95.0363H41.4728C41.6001 95.0363 41.6 95.0363 41.7273 95.0363H41.8547C41.8547 95.0363 41.8546 95.0363 41.9819 95.0363H42.1092C42.1092 95.0363 42.1091 95.0363 42.2364 95.0363H42.5546H42.8728L43 93.3379C43 91.2996 42.8728 88.8083 42.8728 86.5435V84.052Z" fill="white" stroke="black" stroke-miterlimit="10"/>
<path d="M78 64.3933C78 64.2818 78 64.2818 78 64.3933C78 64.2818 78 64.2819 78 64.2819V64.1705V64.059V63.9477C78 63.9477 78 63.9476 78 63.8362C78 63.8362 78 63.8362 78 63.7248C78 63.7248 78 63.7248 78 63.6134V63.502C78 63.502 78 63.502 78 63.3906V63.2791C78 63.1677 77.8706 63.0564 77.8706 63.0564L39.6941 1C38.9177 2.11412 38.2707 3.33962 37.4942 4.45374C37.106 5.12221 36.5884 6.0135 36.0707 6.68197C35.9413 6.79339 35.9412 6.90478 35.8118 7.01619C31.9294 13.2553 28.1765 19.3829 24.2941 25.622C23.7765 26.4019 23.2589 27.2931 22.7412 28.1844C15.6236 39.7713 8.37657 51.2467 1.25892 62.8335C1.25892 62.9449 1.12954 63.0563 1.12954 63.1678C1.12954 63.2792 1.12941 63.2792 1 63.3906C1 63.3906 1 63.3906 1 63.502C1 63.6134 1 63.6134 1 63.7248C1 63.8362 1 63.8362 1 63.9477C1 63.9477 1 63.9476 1 64.059C1 64.059 1 64.0591 1 64.1705C1 64.2819 1 64.2818 1 64.3933C1 64.3933 1 64.3933 1 64.5047C1 64.5047 1 64.5047 1 64.6161C1 64.6161 1 64.6161 1 64.7275V64.8389C1 64.8389 1 64.8389 1 64.9503C1 64.9503 1 64.9504 1 65.0618V65.1732C1 65.1732 1 65.1732 1 65.2846V65.396C1 65.396 1 65.396 1 65.5074C1 65.5074 1.00013 65.6188 1.12954 65.6188V65.7302C1.12954 65.7302 1.12951 65.8417 1.25892 65.8417C1.25892 65.8417 1.25892 65.8416 1.25892 65.953C1.25892 65.953 1.25889 66.0644 1.3883 66.0644C1.3883 66.0644 1.3883 66.0645 1.3883 66.1759C1.3883 66.1759 1.38827 66.1759 1.51768 66.2873L1.64706 66.3987C1.64706 66.3987 1.64719 66.3987 1.7766 66.5101C1.7766 66.5101 1.77657 66.5101 1.90598 66.6215L2.03536 66.7329C2.03536 66.7329 2.03533 66.7329 2.16474 66.8443C2.16474 66.8443 2.16471 66.8444 2.29412 66.9558C2.42353 67.0672 2.42362 67.0671 2.55304 67.1786C2.55304 67.1786 2.553 67.1786 2.68242 67.29C2.81183 67.4014 2.81176 67.4014 2.94118 67.5128C2.94118 67.5128 2.9413 67.5128 3.07071 67.6242C3.07071 67.6242 3.07068 67.6242 3.20009 67.6242C3.32951 67.7356 3.45882 67.7356 3.58824 67.8471C3.58824 67.8471 3.58836 67.8471 3.71777 67.8471C3.84719 67.9585 3.9765 67.9585 4.10591 68.0699C4.10591 68.0699 4.10588 68.0699 4.23529 68.0699C4.23529 68.0699 4.23542 68.0699 4.36483 68.0699C4.49424 68.1813 4.75294 68.2927 4.88235 68.4041C5.14118 68.5155 5.40013 68.6269 5.65895 68.7383C5.78836 68.7383 5.7883 68.8497 5.91771 68.8497C6.04712 68.8497 6.1766 68.9612 6.30601 68.9612C6.43542 68.9612 6.43536 69.0726 6.56477 69.0726C6.69418 69.0726 6.82366 69.184 6.95307 69.184C7.21189 69.2954 7.3413 69.2954 7.60013 69.4068C7.72954 69.4068 7.85886 69.5182 7.98827 69.5182H8.11765C8.37647 69.6297 8.63539 69.7411 9.02362 69.7411C9.28245 69.8525 9.54124 69.8524 9.80006 69.9638C9.92947 69.9638 9.92941 69.9639 10.0588 70.0753C10.1882 70.0753 10.1883 70.0753 10.3177 70.1867C10.706 70.2981 10.9647 70.4095 11.3529 70.5209C11.3529 70.5209 11.3531 70.5209 11.4825 70.5209H11.6119C12.0001 70.6323 12.5177 70.7438 13.0354 70.8552H13.1647C13.2941 70.8552 13.4236 70.9666 13.553 70.9666C13.9413 71.078 14.2 71.078 14.5882 71.1894C14.7176 71.1894 14.7177 71.1894 14.8472 71.1894C14.9766 71.1894 15.1059 71.1894 15.2353 71.3008C15.4941 71.4122 15.8824 71.4122 16.1413 71.5236C16.2707 71.5236 16.4 71.5236 16.5294 71.635C16.6588 71.635 16.7883 71.6351 16.9177 71.7465C17.1765 71.7465 17.4353 71.8579 17.8235 71.8579C17.9529 71.8579 18.0824 71.8579 18.2118 71.9693C18.3412 71.9693 18.4707 71.9693 18.6001 71.9693C18.8589 71.9693 19.1177 72.0807 19.5059 72.0807C19.6354 72.0807 19.7648 72.0807 20.0236 72.1921C20.153 72.1921 20.2824 72.1921 20.2824 72.1921C20.5412 72.1921 20.8 72.3035 21.0588 72.3035C21.1882 72.3035 21.4471 72.3035 21.5765 72.4149C21.7059 72.4149 21.8354 72.4149 21.8354 72.4149C22.0942 72.4149 22.353 72.5264 22.6119 72.5264C22.7413 72.5264 23.0001 72.5263 23.1295 72.6378C23.259 72.6378 23.3883 72.6378 23.5177 72.6378C23.7765 72.6378 24.0353 72.6377 24.2941 72.7491C24.4235 72.7491 24.553 72.7491 24.8118 72.7491C24.9412 72.7491 25.2001 72.7491 25.3295 72.7491C25.5883 72.7491 25.7177 72.7492 25.9765 72.8606C26.1059 72.8606 26.2354 72.8606 26.3648 72.8606C26.6237 72.8606 26.8824 72.8606 27.1413 72.972C27.2707 72.972 27.4001 72.972 27.659 72.972H27.7883C28.1766 72.972 28.5648 73.0834 28.9531 73.0834H29.0824C29.2119 73.0834 29.3412 73.0834 29.4706 73.0834C29.7294 73.0834 29.9882 73.0834 30.1176 73.0834C30.3765 73.0834 30.6354 73.0834 30.8942 73.0834C30.8942 73.0834 30.8942 73.0834 31.0236 73.0834C31.2824 73.0834 31.6706 73.0834 31.9294 73.0834C32.1883 73.0834 32.4471 73.0834 32.7059 73.0834C32.7059 73.0834 32.706 73.0834 32.8354 73.0834C33.0942 73.0834 33.353 73.0834 33.6119 73.0834C33.8707 73.0834 34.0001 73.0834 34.2589 73.0834C34.3883 73.0834 34.3883 73.0834 34.5177 73.0834H34.6471C34.7765 73.0834 34.7766 73.0834 34.906 73.0834C35.1648 73.0834 35.2942 73.0834 35.553 73.0834C35.8119 73.0834 35.9413 73.0834 36.2001 73.0834H36.3295C36.3295 73.0834 36.3294 73.0834 36.4589 73.0834C36.5883 73.0834 36.5884 73.0834 36.7178 73.0834C36.8472 73.0834 37.1059 73.0834 37.2353 73.0834C37.3647 73.0834 37.6236 73.0834 37.753 73.0834C37.8824 73.0834 38.1412 73.0834 38.2707 73.0834C38.4001 73.0834 38.6589 73.0834 38.7883 73.0834C38.9177 73.0834 39.1766 73.0834 39.306 73.0834C39.4354 73.0834 39.5647 73.0834 39.8235 73.0834C39.9529 73.0834 40.0824 73.0834 40.2118 73.0834C40.2118 73.0834 40.2118 73.0834 40.3412 73.0834C40.4706 73.0834 40.6001 73.0834 40.8589 73.0834C40.9883 73.0834 41.1177 73.0834 41.3766 73.0834C41.506 73.0834 41.6354 73.0834 41.8942 73.0834C42.0237 73.0834 42.153 73.0834 42.2824 73.0834C42.2824 73.0834 42.2824 73.0834 42.4118 73.0834C42.5412 73.0834 42.8 73.0834 42.9294 73.0834C43.0589 73.0834 43.3177 73.0834 43.4471 73.0834C43.5765 73.0834 43.8354 73.0834 43.9648 73.0834C44.0942 73.0834 44.0942 73.0834 44.2236 73.0834C44.2236 73.0834 44.2235 73.0834 44.3529 73.0834C44.4824 73.0834 44.4824 73.0834 44.6119 73.0834C44.7413 73.0834 45.0001 73.0834 45.1295 73.0834C45.3884 73.0834 45.5178 73.0834 45.7766 73.0834C45.906 73.0834 46.0353 73.0834 46.1647 73.0834H46.2941C46.4235 73.0834 46.4236 73.0834 46.553 73.0834C46.8119 73.0834 47.0707 73.0834 47.3295 73.0834C47.5883 73.0834 47.7177 73.0834 47.9765 73.0834H48.1059C48.1059 73.0834 48.1059 73.0834 48.2353 73.0834C48.4941 73.0834 48.7531 73.0834 49.0119 73.0834C49.4001 73.0834 49.7883 73.0834 50.0471 72.972C50.3059 72.972 50.5648 72.972 50.9531 72.8606C51.3413 72.8606 51.6 72.8605 51.9883 72.7491H52.1176C52.5059 72.7491 52.7648 72.7492 53.153 72.6378C53.2824 72.6378 53.5413 72.6378 53.6707 72.6378C53.8001 72.6378 53.8 72.6378 53.9294 72.6378C54.0589 72.6378 54.059 72.6378 54.1884 72.6378C54.4472 72.6378 54.706 72.6378 54.9648 72.5264C55.2236 72.5264 55.353 72.5263 55.6119 72.4149H55.7412C55.7412 72.4149 55.7412 72.4149 55.8706 72.4149C56 72.4149 56.1295 72.4149 56.2589 72.4149C56.3883 72.4149 56.6472 72.4149 56.7766 72.3035C56.906 72.3035 57.1647 72.3035 57.2941 72.1921C57.4235 72.1921 57.4236 72.1921 57.553 72.1921C57.6824 72.1921 57.8118 72.1921 57.8118 72.1921C57.9412 72.1921 58.2001 72.1921 58.3295 72.0807C58.4589 72.0807 58.5884 72.0807 58.7178 72.0807C58.8472 72.0807 58.8471 72.0807 58.9765 72.0807H59.1059C59.1059 72.0807 59.1059 72.0807 59.2353 72.0807C59.3647 72.0807 59.6236 72.0807 59.753 71.9693H59.8824H60.0119C60.0119 71.9693 60.0119 71.9693 60.1413 71.9693C60.1413 71.9693 60.1412 71.9693 60.2707 71.9693C60.4001 71.9693 60.5295 71.9693 60.659 71.8579H60.7883C61.0472 71.8579 61.1766 71.7465 61.4354 71.7465C61.4354 71.7465 61.4354 71.7465 61.5648 71.7465H61.6942C61.8236 71.7465 61.953 71.7464 62.0825 71.635C62.2119 71.635 62.2118 71.635 62.3412 71.635C62.4706 71.635 62.4707 71.635 62.6001 71.635H62.7295H62.8589C62.9883 71.635 63.1178 71.635 63.2472 71.5236H63.3766C63.506 71.5236 63.5059 71.5236 63.6353 71.5236C63.7647 71.5236 63.8942 71.5236 63.8942 71.5236C63.8942 71.5236 63.8942 71.5236 64.0236 71.5236H64.153C64.2824 71.5236 64.2824 71.5236 64.4118 71.5236C64.5412 71.5236 64.6707 71.5237 64.8001 71.4123H64.9294C64.9294 71.4123 64.9294 71.4123 65.0588 71.4123H65.1884C65.4472 71.3008 65.8354 71.3008 66.0942 71.1894H66.2236C66.4824 71.1894 66.7412 71.078 67 71.078H67.1295C67.1295 71.078 67.1295 71.078 67.2589 71.078C67.5177 70.9666 67.9059 70.9666 68.1647 70.8552C68.2942 70.8552 68.2942 70.8552 68.4237 70.8552C68.4237 70.8552 68.4236 70.8552 68.553 70.8552C68.8119 70.7438 69.0707 70.7438 69.2001 70.6324C69.3295 70.6324 69.5884 70.5209 69.7178 70.5209C69.7178 70.5209 69.7177 70.5209 69.8472 70.5209H69.9765H70.1059C70.2353 70.5209 70.3648 70.4095 70.3648 70.4095C70.4942 70.4095 70.4942 70.4095 70.6236 70.2981C70.753 70.2981 70.7529 70.1867 70.8824 70.1867H71.0119H71.1413H71.2707C71.4001 70.0753 71.6589 70.0753 71.7883 69.9638C71.7883 69.9638 71.9177 69.9639 71.9177 69.8525C72.0471 69.8525 72.1766 69.7411 72.306 69.7411C72.306 69.7411 72.306 69.7411 72.4354 69.7411C72.4354 69.7411 72.4354 69.7411 72.5648 69.7411C72.6942 69.7411 72.8235 69.6296 72.8235 69.6296C72.8235 69.6296 72.9531 69.6297 72.9531 69.5182C72.9531 69.5182 73.0825 69.5182 73.0825 69.4068H73.2118H73.3412H73.4706C73.6 69.4068 73.7295 69.2954 73.8589 69.2954C73.8589 69.2954 73.8589 69.2954 73.9883 69.2954C74.1177 69.184 74.2472 69.184 74.3766 69.0726C74.3766 69.0726 74.3765 69.0726 74.506 69.0726C74.506 69.0726 74.6353 69.0726 74.6353 68.9612C74.7647 68.9612 74.7648 68.8497 74.8942 68.8497L75.0236 68.7383L75.153 68.627C75.153 68.627 75.2824 68.6269 75.2824 68.5155C75.4118 68.5155 75.4119 68.4041 75.5413 68.4041C75.5413 68.4041 75.6707 68.4041 75.6707 68.2927C75.6707 68.2927 75.6707 68.2927 75.8001 68.2927L75.9294 68.1813C75.9294 68.1813 75.9294 68.1813 76.0588 68.1813L76.1884 68.0699C76.1884 68.0699 76.1883 68.0699 76.3177 67.9585C76.4472 67.847 76.4471 67.847 76.5765 67.7356C76.7059 67.6242 76.8354 67.5128 76.9648 67.4014C77.0942 67.29 77.0942 67.1786 77.2236 67.0672C77.2236 67.0672 77.2236 67.0672 77.2236 66.9558C77.2236 66.8444 77.3529 66.8444 77.3529 66.7329C77.3529 66.7329 77.3529 66.7329 77.3529 66.6215L77.4825 66.5101V66.3987C77.4825 66.3987 77.4825 66.3987 77.4825 66.2873C77.4825 66.1759 77.6119 66.1758 77.6119 66.0644V65.953V65.8417V65.7302C78.0001 64.6161 78 64.5047 78 64.3933Z" fill="white"/>
<path d="M78 64.3933C78 64.2818 78 64.2818 78 64.3933ZM78 64.3933C78 64.2818 78 64.2819 78 64.2819V64.1705V64.059V63.9477C78 63.9477 78 63.9476 78 63.8362C78 63.8362 78 63.8362 78 63.7248C78 63.7248 78 63.7248 78 63.6134V63.502C78 63.502 78 63.502 78 63.3906V63.2791C78 63.1677 77.8706 63.0564 77.8706 63.0564L39.6942 1C38.9177 2.11412 38.2707 3.33962 37.4942 4.45374C37.106 5.12221 36.5884 6.0135 36.0707 6.68197C35.9413 6.79339 35.9412 6.90478 35.8118 7.0162C31.9294 13.2553 28.1765 19.3829 24.2941 25.622C23.7765 26.4019 23.2589 27.2931 22.7412 28.1844C15.6236 39.7713 8.37657 51.2467 1.25892 62.8335C1.25892 62.9449 1.12954 63.0563 1.12954 63.1678C1.12954 63.2792 1.12941 63.2792 1 63.3906C1 63.3906 1 63.3906 1 63.502C1 63.6134 1 63.6134 1 63.7248C1 63.8362 1 63.8362 1 63.9477C1 63.9477 1 63.9476 1 64.059C1 64.059 1 64.0591 1 64.1705C1 64.2819 1 64.2818 1 64.3933C1 64.3933 1 64.3933 1 64.5047C1 64.5047 1 64.5047 1 64.6161C1 64.6161 1 64.6161 1 64.7275V64.8389C1 64.8389 1 64.8389 1 64.9503C1 64.9503 1 64.9504 1 65.0618V65.1732C1 65.1732 1 65.1732 1 65.2846V65.396C1 65.396 1 65.396 1 65.5074C1 65.5074 1.00013 65.6188 1.12954 65.6188V65.7302C1.12954 65.7302 1.12951 65.8417 1.25892 65.8417C1.25892 65.8417 1.25892 65.8416 1.25892 65.9531C1.25892 65.9531 1.25889 66.0644 1.3883 66.0644C1.3883 66.0644 1.3883 66.0645 1.3883 66.1759C1.3883 66.1759 1.38827 66.1759 1.51768 66.2873L1.64706 66.3987C1.64706 66.3987 1.64719 66.3987 1.7766 66.5101C1.7766 66.5101 1.77657 66.5101 1.90598 66.6215L2.03536 66.7329C2.03536 66.7329 2.03533 66.7329 2.16474 66.8443C2.16474 66.8443 2.16471 66.8444 2.29412 66.9558C2.42353 67.0672 2.42362 67.0671 2.55304 67.1786C2.55304 67.1786 2.553 67.1786 2.68242 67.29C2.81183 67.4014 2.81176 67.4014 2.94118 67.5128C2.94118 67.5128 2.9413 67.5128 3.07071 67.6242C3.07071 67.6242 3.07068 67.6242 3.20009 67.6242C3.32951 67.7356 3.45882 67.7357 3.58824 67.8471C3.58824 67.8471 3.58836 67.8471 3.71777 67.8471C3.84719 67.9585 3.9765 67.9585 4.10591 68.0699C4.10591 68.0699 4.10588 68.0699 4.23529 68.0699C4.23529 68.0699 4.23542 68.0699 4.36483 68.0699C4.49424 68.1813 4.75294 68.2927 4.88235 68.4041C5.14118 68.5155 5.40013 68.6269 5.65895 68.7383C5.78836 68.7383 5.7883 68.8497 5.91771 68.8497C6.04712 68.8497 6.1766 68.9612 6.30601 68.9612C6.43542 68.9612 6.43536 69.0726 6.56477 69.0726C6.69418 69.0726 6.82366 69.184 6.95307 69.184C7.21189 69.2954 7.3413 69.2954 7.60013 69.4068C7.72954 69.4068 7.85886 69.5182 7.98827 69.5182H8.11765C8.37647 69.6297 8.63539 69.7411 9.02362 69.7411C9.28245 69.8525 9.54124 69.8524 9.80006 69.9638C9.92948 69.9638 9.92941 69.9639 10.0588 70.0753C10.1882 70.0753 10.1883 70.0753 10.3177 70.1867C10.706 70.2981 10.9647 70.4095 11.3529 70.5209C11.3529 70.5209 11.3531 70.5209 11.4825 70.5209H11.6119C12.0001 70.6323 12.5177 70.7438 13.0354 70.8552H13.1647C13.2941 70.8552 13.4236 70.9666 13.553 70.9666C13.9413 71.078 14.2 71.078 14.5882 71.1894C14.7176 71.1894 14.7177 71.1894 14.8472 71.1894C14.9766 71.1894 15.1059 71.1894 15.2353 71.3008C15.4941 71.4122 15.8824 71.4122 16.1413 71.5236C16.2707 71.5236 16.4 71.5236 16.5294 71.635C16.6588 71.635 16.7883 71.6351 16.9177 71.7465C17.1765 71.7465 17.4353 71.8579 17.8235 71.8579C17.9529 71.8579 18.0824 71.8579 18.2118 71.9693C18.3412 71.9693 18.4707 71.9693 18.6001 71.9693C18.859 71.9693 19.1177 72.0807 19.5059 72.0807C19.6354 72.0807 19.7648 72.0807 20.0236 72.1921C20.153 72.1921 20.2824 72.1921 20.2824 72.1921C20.5412 72.1921 20.8 72.3035 21.0588 72.3035C21.1882 72.3035 21.4471 72.3035 21.5765 72.4149C21.7059 72.4149 21.8354 72.4149 21.8354 72.4149C22.0942 72.4149 22.353 72.5264 22.6119 72.5264C22.7413 72.5264 23.0001 72.5263 23.1295 72.6378C23.259 72.6378 23.3883 72.6378 23.5177 72.6378C23.7765 72.6378 24.0353 72.6377 24.2941 72.7491C24.4235 72.7491 24.553 72.7491 24.8118 72.7491C24.9412 72.7491 25.2001 72.7491 25.3295 72.7491C25.5883 72.7491 25.7177 72.7492 25.9765 72.8606C26.1059 72.8606 26.2354 72.8606 26.3648 72.8606C26.6237 72.8606 26.8824 72.8606 27.1413 72.972C27.2707 72.972 27.4001 72.972 27.659 72.972H27.7883C28.1766 72.972 28.5648 73.0834 28.9531 73.0834H29.0824C29.2119 73.0834 29.3412 73.0834 29.4706 73.0834C29.7294 73.0834 29.9882 73.0834 30.1176 73.0834C30.3765 73.0834 30.6354 73.0834 30.8942 73.0834C30.8942 73.0834 30.8942 73.0834 31.0236 73.0834C31.2824 73.0834 31.6706 73.0834 31.9294 73.0834C32.1883 73.0834 32.4471 73.0834 32.7059 73.0834C32.7059 73.0834 32.706 73.0834 32.8354 73.0834C33.0942 73.0834 33.353 73.0834 33.6119 73.0834C33.8707 73.0834 34.0001 73.0834 34.2589 73.0834C34.3883 73.0834 34.3883 73.0834 34.5177 73.0834H34.6471C34.7765 73.0834 34.7766 73.0834 34.906 73.0834C35.1648 73.0834 35.2942 73.0834 35.553 73.0834C35.8119 73.0834 35.9413 73.0834 36.2001 73.0834H36.3295C36.3295 73.0834 36.3294 73.0834 36.4589 73.0834C36.5883 73.0834 36.5884 73.0834 36.7178 73.0834C36.8472 73.0834 37.1059 73.0834 37.2353 73.0834C37.3647 73.0834 37.6236 73.0834 37.753 73.0834C37.8824 73.0834 38.1412 73.0834 38.2707 73.0834C38.4001 73.0834 38.6589 73.0834 38.7883 73.0834C38.9177 73.0834 39.1766 73.0834 39.306 73.0834C39.4354 73.0834 39.5647 73.0834 39.8235 73.0834C39.9529 73.0834 40.0824 73.0834 40.2118 73.0834C40.2118 73.0834 40.2118 73.0834 40.3412 73.0834C40.4706 73.0834 40.6001 73.0834 40.8589 73.0834C40.9883 73.0834 41.1177 73.0834 41.3766 73.0834C41.506 73.0834 41.6354 73.0834 41.8942 73.0834C42.0237 73.0834 42.153 73.0834 42.2824 73.0834C42.2824 73.0834 42.2824 73.0834 42.4118 73.0834C42.5412 73.0834 42.8 73.0834 42.9294 73.0834C43.0589 73.0834 43.3177 73.0834 43.4471 73.0834C43.5765 73.0834 43.8354 73.0834 43.9648 73.0834C44.0942 73.0834 44.0942 73.0834 44.2236 73.0834C44.2236 73.0834 44.2235 73.0834 44.3529 73.0834C44.4824 73.0834 44.4824 73.0834 44.6119 73.0834C44.7413 73.0834 45.0001 73.0834 45.1295 73.0834C45.3884 73.0834 45.5178 73.0834 45.7766 73.0834C45.906 73.0834 46.0353 73.0834 46.1647 73.0834H46.2941C46.4235 73.0834 46.4236 73.0834 46.553 73.0834C46.8119 73.0834 47.0707 73.0834 47.3295 73.0834C47.5883 73.0834 47.7177 73.0834 47.9765 73.0834H48.1059C48.1059 73.0834 48.1059 73.0834 48.2353 73.0834C48.4941 73.0834 48.7531 73.0834 49.0119 73.0834C49.4001 73.0834 49.7883 73.0834 50.0471 72.972C50.3059 72.972 50.5648 72.972 50.9531 72.8606C51.3413 72.8606 51.6 72.8606 51.9883 72.7491H52.1176C52.5059 72.7491 52.7648 72.7492 53.153 72.6378C53.2824 72.6378 53.5413 72.6378 53.6707 72.6378C53.8001 72.6378 53.8 72.6378 53.9294 72.6378C54.0589 72.6378 54.059 72.6378 54.1884 72.6378C54.4472 72.6378 54.706 72.6378 54.9648 72.5264C55.2236 72.5264 55.353 72.5263 55.6119 72.4149H55.7412C55.7412 72.4149 55.7412 72.4149 55.8706 72.4149C56 72.4149 56.1295 72.4149 56.2589 72.4149C56.3883 72.4149 56.6472 72.4149 56.7766 72.3035C56.906 72.3035 57.1647 72.3035 57.2941 72.1921C57.4235 72.1921 57.4236 72.1921 57.553 72.1921C57.6824 72.1921 57.8118 72.1921 57.8118 72.1921C57.9412 72.1921 58.2001 72.1921 58.3295 72.0807C58.4589 72.0807 58.5884 72.0807 58.7178 72.0807C58.8472 72.0807 58.8471 72.0807 58.9765 72.0807H59.1059C59.1059 72.0807 59.1059 72.0807 59.2353 72.0807C59.3647 72.0807 59.6236 72.0807 59.753 71.9693H59.8824H60.0119C60.0119 71.9693 60.0119 71.9693 60.1413 71.9693C60.1413 71.9693 60.1412 71.9693 60.2707 71.9693C60.4001 71.9693 60.5295 71.9693 60.659 71.8579H60.7883C61.0472 71.8579 61.1766 71.7465 61.4354 71.7465C61.4354 71.7465 61.4354 71.7465 61.5648 71.7465H61.6942C61.8236 71.7465 61.953 71.7464 62.0824 71.635C62.2119 71.635 62.2118 71.635 62.3412 71.635C62.4706 71.635 62.4707 71.635 62.6001 71.635H62.7295H62.8589C62.9883 71.635 63.1178 71.6351 63.2472 71.5236H63.3766C63.506 71.5236 63.5059 71.5236 63.6353 71.5236C63.7647 71.5236 63.8942 71.5236 63.8942 71.5236C63.8942 71.5236 63.8942 71.5236 64.0236 71.5236H64.153C64.2824 71.5236 64.2824 71.5236 64.4118 71.5236C64.5412 71.5236 64.6707 71.5237 64.8001 71.4123H64.9294C64.9294 71.4123 64.9294 71.4123 65.0588 71.4123H65.1884C65.4472 71.3008 65.8354 71.3008 66.0942 71.1894H66.2236C66.4824 71.1894 66.7412 71.078 67 71.078H67.1295C67.1295 71.078 67.1295 71.078 67.2589 71.078C67.5177 70.9666 67.9059 70.9666 68.1647 70.8552C68.2942 70.8552 68.2942 70.8552 68.4237 70.8552C68.4237 70.8552 68.4236 70.8552 68.553 70.8552C68.8119 70.7438 69.0707 70.7438 69.2001 70.6324C69.3295 70.6324 69.5884 70.5209 69.7178 70.5209C69.7178 70.5209 69.7177 70.5209 69.8472 70.5209H69.9765H70.1059C70.2353 70.5209 70.3648 70.4095 70.3648 70.4095C70.4942 70.4095 70.4942 70.4095 70.6236 70.2981C70.753 70.2981 70.7529 70.1867 70.8824 70.1867H71.0119H71.1413H71.2707C71.4001 70.0753 71.6589 70.0753 71.7883 69.9638C71.7883 69.9638 71.9177 69.9639 71.9177 69.8525C72.0471 69.8525 72.1766 69.7411 72.306 69.7411C72.306 69.7411 72.306 69.7411 72.4354 69.7411C72.4354 69.7411 72.4354 69.7411 72.5648 69.7411C72.6942 69.7411 72.8235 69.6296 72.8235 69.6296C72.8235 69.6296 72.9531 69.6297 72.9531 69.5182C72.9531 69.5182 73.0825 69.5182 73.0825 69.4068H73.2118H73.3412H73.4706C73.6 69.4068 73.7295 69.2954 73.8589 69.2954C73.8589 69.2954 73.8589 69.2954 73.9883 69.2954C74.1177 69.184 74.2472 69.184 74.3766 69.0726C74.3766 69.0726 74.3765 69.0726 74.5059 69.0726C74.5059 69.0726 74.6353 69.0726 74.6353 68.9612C74.7647 68.9612 74.7648 68.8497 74.8942 68.8497L75.0236 68.7383L75.153 68.627C75.153 68.627 75.2824 68.6269 75.2824 68.5155C75.4118 68.5155 75.4119 68.4041 75.5413 68.4041C75.5413 68.4041 75.6707 68.4041 75.6707 68.2927C75.6707 68.2927 75.6707 68.2927 75.8001 68.2927L75.9294 68.1813C75.9294 68.1813 75.9294 68.1813 76.0588 68.1813L76.1884 68.0699C76.1884 68.0699 76.1883 68.0699 76.3177 67.9584C76.4472 67.847 76.4471 67.847 76.5765 67.7356C76.7059 67.6242 76.8354 67.5128 76.9648 67.4014C77.0942 67.29 77.0942 67.1786 77.2236 67.0672C77.2236 67.0672 77.2236 67.0672 77.2236 66.9558C77.2236 66.8444 77.3529 66.8444 77.3529 66.7329C77.3529 66.7329 77.3529 66.7329 77.3529 66.6215L77.4825 66.5101V66.3987C77.4825 66.3987 77.4825 66.3987 77.4825 66.2873C77.4825 66.1759 77.6119 66.1758 77.6119 66.0644V65.9531V65.8417V65.7302C78.0001 64.6161 78 64.5047 78 64.3933Z" stroke="black" stroke-miterlimit="10"/>
<path d="M81 91.408C81 91.184 81 90.848 81 90.624V89.168C81 88.72 81 88.16 81 87.712V86.928C81 86.592 81 86.368 81 86.032V83.12C81 82.784 81 82.448 81 82.224C81 82.112 80.9998 82.112 80.7998 82H80.5999C80.5999 82 80.5999 82 80.3999 82C80.3999 82 80.4 82 80.2 82C80.2 82 80.2 82 80 82C80 82 79.9998 82 79.7998 82C79.7998 82 79.7999 82 79.5999 82C79.5999 82 79.5999 82 79.3999 82C79.3999 82 79.4 82 79.2 82C79.2 82 79.2 82 79 82H78.7998C78.7998 82 78.7999 82 78.5999 82C78.3999 82 78.2 82 78 82C77.8 82 77.7999 82 77.5999 82C77.5999 82 77.5999 82 77.3999 82H77.2C77.2 82 77.2 82 77 82V83.008C77 84.24 77 85.584 77 87.04V87.376C77 87.712 77 87.936 77 88.272V90.624C77 90.736 77 90.848 77 90.96V94.992C77 95.328 77 95.664 77 96C77 96 77 96 77.2 96H77.3999H77.5999C77.5999 96 77.5998 96 77.7998 96C77.7998 96 77.8 96 78 96C78 96 78 96 78.2 96C78.2 96 78.1999 96 78.3999 96C78.3999 96 78.3999 96 78.5999 96C78.5999 96 78.5998 96 78.7998 96C78.7998 96 78.8 96 79 96H79.2C79.2 96 79.1999 96 79.3999 96C79.5999 96 79.8 96 80 96C80.2 96 80.2 96 80.2 96H80.3999C80.3999 96 80.8 96 81 96V95C81 94.104 81 93.508 81 92.5V91.408Z" fill="white" stroke="black" stroke-miterlimit="10"/>
<path d="M96.001 80.0283C96.001 79.9166 96.001 79.9166 96.001 80.0283C96.001 79.9166 96.001 79.9166 96.001 80.0283C96.001 79.9166 96.001 79.9166 96.001 80.0283C96.001 79.9166 96.001 79.9166 96.001 80.0283C96.001 79.9166 96.001 79.9166 96.001 80.0283C96.001 79.9166 96.001 79.9166 96.001 79.8049C96.001 79.8049 96.001 79.8049 96.001 79.6932C96.001 79.6932 96.001 79.6932 96.001 79.5815V79.4698L78.5517 50.9839C78.164 51.5424 77.9056 52.1009 77.5178 52.5478C77.2593 52.8829 77.13 53.2181 76.8715 53.5532C76.8715 53.6649 76.7423 53.6649 76.7423 53.7766C74.9328 56.5694 73.2523 59.4738 71.4428 62.2665C71.1843 62.6016 70.9258 63.0485 70.6673 63.3836C67.436 68.634 64.0754 73.996 60.8441 79.2464C60.8441 79.2464 60.8441 79.358 60.7148 79.358V79.4698V79.5815V79.6932C60.7148 79.6932 60.7148 79.6932 60.7148 79.8049C60.7148 79.8049 60.7148 79.8049 60.7148 79.9166C60.7148 79.9166 60.7148 79.9166 60.7148 80.0283C60.7148 80.0283 60.7148 80.0283 60.7148 80.14C60.7148 80.14 60.7148 80.1401 60.8441 80.2518C60.8441 80.2518 60.844 80.2517 60.9733 80.3635L61.1025 80.4751L61.2319 80.5869L61.3611 80.6986L61.4903 80.8103C61.6196 80.8103 61.6195 80.922 61.7488 80.922C61.878 81.0337 62.0073 81.0337 62.1366 81.1454H62.2658C62.2658 81.1454 62.395 81.1454 62.395 81.2571H62.5244C62.5244 81.2571 62.6536 81.2572 62.6536 81.3689C62.7829 81.3689 62.7828 81.4806 62.9121 81.4806C62.9121 81.4806 63.0413 81.4805 63.0413 81.5922C63.0413 81.5922 63.0414 81.5922 63.1707 81.5922C63.2999 81.5922 63.4291 81.704 63.5584 81.704C63.6876 81.704 63.8169 81.8157 63.9462 81.8157H64.0754H64.2046C64.3339 81.8157 64.5924 81.9274 64.7217 81.9274C64.9802 81.9274 65.1094 82.0391 65.3679 82.0391C65.3679 82.0391 65.3679 82.0391 65.4972 82.0391H65.6264C65.7556 82.0391 65.885 82.1508 66.0142 82.1508H66.1434H66.2727C66.4019 82.1508 66.5312 82.1508 66.6605 82.2625H66.7897H66.9189C67.0482 82.2625 67.1775 82.2625 67.3067 82.3742H67.436H67.5652C67.6944 82.3742 67.8238 82.3743 67.953 82.486C68.0823 82.486 68.0822 82.486 68.2115 82.486H68.3408C68.4701 82.486 68.5992 82.486 68.7285 82.486C68.8578 82.486 68.8579 82.486 68.9871 82.486H69.1163C69.2456 82.486 69.3747 82.486 69.504 82.486C69.6332 82.486 69.6333 82.486 69.7626 82.486H69.8918C70.0211 82.486 70.1504 82.486 70.2796 82.486C70.4089 82.486 70.4088 82.486 70.5381 82.486C70.6673 82.486 70.6673 82.486 70.7965 82.486C70.9258 82.486 70.9259 82.486 71.0551 82.486H71.1844C71.3136 82.486 71.4429 82.486 71.5722 82.486C71.7014 82.486 71.7014 82.486 71.8306 82.486C71.8306 82.486 71.8306 82.486 71.9598 82.486C72.0891 82.486 72.3476 82.486 72.4769 82.486C72.4769 82.486 72.4769 82.486 72.6061 82.486H72.7353C72.8646 82.486 72.9939 82.486 73.1232 82.486C73.2524 82.486 73.3817 82.486 73.511 82.486C73.6402 82.486 73.7694 82.486 73.8986 82.486C74.0279 82.486 74.1572 82.486 74.2865 82.486C74.4157 82.486 74.5449 82.486 74.6741 82.486C74.8034 82.486 74.9327 82.486 74.9327 82.486H75.062H75.1912C75.3204 82.486 75.4498 82.486 75.4498 82.486C75.579 82.486 75.579 82.486 75.7082 82.486C75.7082 82.486 75.7082 82.486 75.8374 82.486H75.9667C76.0959 82.486 76.096 82.486 76.2253 82.486C76.3545 82.486 76.3545 82.486 76.4837 82.486C76.613 82.486 76.6131 82.486 76.7423 82.486C76.8716 82.486 76.8715 82.486 77.0008 82.486C77.13 82.486 77.13 82.486 77.2592 82.486C77.3885 82.486 77.3886 82.486 77.5178 82.486H77.647C77.7763 82.486 77.7762 82.486 77.9055 82.486C78.0347 82.486 78.0348 82.486 78.1641 82.486C78.2933 82.486 78.2933 82.486 78.4225 82.486H78.5517C78.681 82.486 78.6811 82.486 78.8103 82.486C78.9396 82.486 78.9395 82.486 79.0688 82.486C79.198 82.486 79.1981 82.486 79.3274 82.486H79.4566H79.5858C79.7151 82.486 79.715 82.486 79.8443 82.486C79.9735 82.486 79.9736 82.486 80.1029 82.486H80.2321C80.2321 82.486 80.2321 82.486 80.3613 82.486H80.4905C80.6198 82.486 80.7491 82.486 80.8784 82.486C81.0076 82.486 81.1368 82.486 81.1368 82.486C81.2661 82.486 81.3954 82.486 81.5246 82.486C81.6539 82.486 81.9124 82.486 82.0417 82.486C82.1709 82.486 82.3001 82.486 82.4293 82.486C82.5586 82.486 82.6879 82.486 82.9464 82.486C83.0756 82.486 83.2049 82.486 83.4634 82.486C83.5927 82.486 83.5926 82.486 83.7219 82.486H83.8513H83.9805C84.1097 82.486 84.2389 82.486 84.3682 82.486C84.4974 82.486 84.4975 82.486 84.6268 82.486H84.756C84.8852 82.486 84.8852 82.486 85.0144 82.486C85.1437 82.486 85.1438 82.486 85.273 82.486H85.4022H85.5315C85.6607 82.486 85.6608 82.486 85.7901 82.486C85.9193 82.486 85.9193 82.486 86.0485 82.486H86.1777C86.307 82.486 86.3071 82.486 86.4363 82.486C86.4363 82.486 86.4363 82.486 86.5656 82.486C86.5656 82.486 86.5655 82.486 86.6948 82.486H86.824C86.824 82.486 86.824 82.486 86.9532 82.486C87.0825 82.486 87.0826 82.486 87.2118 82.486C87.2118 82.486 87.2118 82.486 87.341 82.486H87.4703C87.4703 82.486 87.4702 82.486 87.5995 82.486H87.7289C87.7289 82.486 87.7288 82.486 87.8581 82.486C87.8581 82.486 87.8581 82.486 87.9873 82.486H88.1165H88.2458H88.3751C88.3751 82.486 88.3751 82.486 88.5044 82.486C88.5044 82.486 88.5043 82.486 88.6336 82.486C88.7628 82.486 88.7628 82.486 88.892 82.486C88.892 82.486 88.8922 82.486 89.0214 82.486C89.0214 82.486 89.0214 82.486 89.1506 82.486C89.2799 82.486 89.409 82.3742 89.5383 82.3742C89.5383 82.3742 89.5384 82.3742 89.6677 82.3742C89.7969 82.3742 89.9261 82.3742 90.0553 82.2625C90.1846 82.2625 90.3139 82.1508 90.4432 82.1508C90.4432 82.1508 90.4431 82.1508 90.5724 82.1508C90.7016 82.1508 90.8308 82.0391 90.8308 82.0391C90.9601 82.0391 90.9602 82.0391 91.0894 81.9274C91.0894 81.9274 91.0894 81.9274 91.2187 81.9274H91.3479H91.4771H91.6065C91.6065 81.9274 91.6064 81.9274 91.7357 81.9274C91.865 81.9274 91.8649 81.8157 91.9941 81.8157C91.9941 81.8157 91.9941 81.8157 92.1234 81.8157C92.2526 81.8157 92.2527 81.8157 92.382 81.704C92.382 81.704 92.5112 81.7039 92.5112 81.5922C92.5112 81.5922 92.5112 81.5922 92.6404 81.5922C92.6404 81.5922 92.6404 81.5922 92.7696 81.5922C92.7696 81.5922 92.899 81.5923 92.899 81.4806C93.0283 81.4806 93.0282 81.3689 93.1575 81.3689C93.1575 81.3689 93.1574 81.3689 93.2867 81.3689C93.2867 81.3689 93.2867 81.3689 93.4159 81.3689C93.4159 81.3689 93.416 81.3689 93.5453 81.3689C93.5453 81.3689 93.5453 81.3689 93.6745 81.3689C93.6745 81.3689 93.6745 81.3689 93.8037 81.3689C93.8037 81.3689 93.8037 81.3689 93.9329 81.3689L94.0622 81.2571L94.1916 81.1454L94.3208 81.0337C94.3208 81.0337 94.3208 81.0337 94.3208 80.922C94.3208 80.922 94.3208 80.922 94.3208 80.8103V80.6986C96.0011 80.14 96.001 80.0283 96.001 80.0283Z" fill="white"/>
<path d="M96.001 80.0283C96.001 79.9166 96.001 79.9166 96.001 80.0283C96.001 79.9166 96.001 79.9166 96.001 80.0283ZM96.001 80.0283C96.001 79.9166 96.001 79.9166 96.001 80.0283ZM96.001 80.0283C96.001 79.9166 96.001 79.9166 96.001 80.0283ZM96.001 80.0283C96.001 79.9166 96.001 79.9166 96.001 80.0283ZM96.001 80.0283C96.001 79.9166 96.001 79.9166 96.001 79.8049C96.001 79.8049 96.001 79.8049 96.001 79.6932C96.001 79.6932 96.001 79.6932 96.001 79.5815V79.4698L78.5517 50.9839C78.164 51.5424 77.9056 52.1009 77.5178 52.5478C77.2593 52.8829 77.13 53.2181 76.8715 53.5532C76.8715 53.6649 76.7423 53.6649 76.7423 53.7766C74.9328 56.5694 73.2523 59.4738 71.4428 62.2665C71.1843 62.6016 70.9258 63.0485 70.6673 63.3836C67.436 68.634 64.0754 73.996 60.8441 79.2464C60.8441 79.2464 60.8441 79.358 60.7148 79.358V79.4698V79.5815V79.6932C60.7148 79.6932 60.7148 79.6932 60.7148 79.8049C60.7148 79.8049 60.7148 79.8049 60.7148 79.9166C60.7148 79.9166 60.7148 79.9166 60.7148 80.0283C60.7148 80.0283 60.7148 80.0283 60.7148 80.14C60.7148 80.14 60.7148 80.1401 60.8441 80.2518C60.8441 80.2518 60.844 80.2517 60.9733 80.3635L61.1025 80.4751L61.2319 80.5869L61.3611 80.6986L61.4903 80.8103C61.6196 80.8103 61.6195 80.922 61.7488 80.922C61.878 81.0337 62.0073 81.0337 62.1366 81.1454H62.2658C62.2658 81.1454 62.395 81.1454 62.395 81.2571H62.5244C62.5244 81.2571 62.6536 81.2572 62.6536 81.3689C62.7829 81.3689 62.7828 81.4806 62.9121 81.4806C62.9121 81.4806 63.0413 81.4805 63.0413 81.5922C63.0413 81.5922 63.0414 81.5922 63.1707 81.5922C63.2999 81.5922 63.4291 81.704 63.5584 81.704C63.6876 81.704 63.8169 81.8157 63.9462 81.8157H64.0754H64.2046C64.3339 81.8157 64.5924 81.9274 64.7217 81.9274C64.9802 81.9274 65.1094 82.0391 65.3679 82.0391C65.3679 82.0391 65.3679 82.0391 65.4972 82.0391H65.6264C65.7556 82.0391 65.885 82.1508 66.0142 82.1508H66.1434H66.2727C66.4019 82.1508 66.5312 82.1508 66.6605 82.2625H66.7897H66.9189C67.0482 82.2625 67.1775 82.2625 67.3067 82.3742H67.436H67.5652C67.6944 82.3742 67.8238 82.3743 67.953 82.486C68.0823 82.486 68.0822 82.486 68.2115 82.486H68.3408C68.4701 82.486 68.5992 82.486 68.7285 82.486C68.8578 82.486 68.8579 82.486 68.9871 82.486H69.1163C69.2456 82.486 69.3747 82.486 69.504 82.486C69.6332 82.486 69.6333 82.486 69.7626 82.486H69.8918C70.0211 82.486 70.1504 82.486 70.2796 82.486C70.4089 82.486 70.4088 82.486 70.5381 82.486C70.6673 82.486 70.6673 82.486 70.7965 82.486C70.9258 82.486 70.9259 82.486 71.0551 82.486H71.1844C71.3136 82.486 71.4429 82.486 71.5722 82.486C71.7014 82.486 71.7014 82.486 71.8306 82.486C71.8306 82.486 71.8306 82.486 71.9598 82.486C72.0891 82.486 72.3476 82.486 72.4769 82.486C72.4769 82.486 72.4769 82.486 72.6061 82.486H72.7353C72.8646 82.486 72.9939 82.486 73.1232 82.486C73.2524 82.486 73.3817 82.486 73.511 82.486C73.6402 82.486 73.7694 82.486 73.8986 82.486C74.0279 82.486 74.1572 82.486 74.2865 82.486C74.4157 82.486 74.5449 82.486 74.6741 82.486C74.8034 82.486 74.9327 82.486 74.9327 82.486H75.062H75.1912C75.3204 82.486 75.4498 82.486 75.4498 82.486C75.579 82.486 75.579 82.486 75.7082 82.486C75.7082 82.486 75.7082 82.486 75.8374 82.486H75.9667C76.0959 82.486 76.096 82.486 76.2253 82.486C76.3545 82.486 76.3545 82.486 76.4837 82.486C76.613 82.486 76.6131 82.486 76.7423 82.486C76.8716 82.486 76.8715 82.486 77.0008 82.486C77.13 82.486 77.13 82.486 77.2592 82.486C77.3885 82.486 77.3886 82.486 77.5178 82.486H77.647C77.7763 82.486 77.7762 82.486 77.9055 82.486C78.0347 82.486 78.0348 82.486 78.1641 82.486C78.2933 82.486 78.2933 82.486 78.4225 82.486H78.5517C78.681 82.486 78.6811 82.486 78.8103 82.486C78.9396 82.486 78.9395 82.486 79.0688 82.486C79.198 82.486 79.1981 82.486 79.3274 82.486H79.4566H79.5858C79.7151 82.486 79.715 82.486 79.8443 82.486C79.9735 82.486 79.9736 82.486 80.1029 82.486H80.2321C80.2321 82.486 80.2321 82.486 80.3613 82.486H80.4905C80.6198 82.486 80.7491 82.486 80.8784 82.486C81.0076 82.486 81.1368 82.486 81.1368 82.486C81.2661 82.486 81.3954 82.486 81.5246 82.486C81.6539 82.486 81.9124 82.486 82.0417 82.486C82.1709 82.486 82.3001 82.486 82.4294 82.486C82.5586 82.486 82.6879 82.486 82.9464 82.486C83.0756 82.486 83.2049 82.486 83.4634 82.486C83.5927 82.486 83.5926 82.486 83.7219 82.486H83.8513H83.9805C84.1097 82.486 84.2389 82.486 84.3682 82.486C84.4974 82.486 84.4975 82.486 84.6268 82.486H84.756C84.8852 82.486 84.8852 82.486 85.0144 82.486C85.1437 82.486 85.1438 82.486 85.273 82.486H85.4022H85.5315C85.6607 82.486 85.6608 82.486 85.7901 82.486C85.9193 82.486 85.9193 82.486 86.0485 82.486H86.1777C86.307 82.486 86.3071 82.486 86.4363 82.486C86.4363 82.486 86.4363 82.486 86.5656 82.486C86.5656 82.486 86.5655 82.486 86.6948 82.486H86.824C86.824 82.486 86.824 82.486 86.9532 82.486C87.0825 82.486 87.0826 82.486 87.2118 82.486C87.2118 82.486 87.2118 82.486 87.341 82.486H87.4703C87.4703 82.486 87.4702 82.486 87.5995 82.486H87.7289C87.7289 82.486 87.7288 82.486 87.8581 82.486C87.8581 82.486 87.8581 82.486 87.9873 82.486H88.1165H88.2458H88.3751C88.3751 82.486 88.3751 82.486 88.5044 82.486C88.5044 82.486 88.5043 82.486 88.6336 82.486C88.7628 82.486 88.7628 82.486 88.892 82.486C88.892 82.486 88.8922 82.486 89.0214 82.486C89.0214 82.486 89.0214 82.486 89.1506 82.486C89.2799 82.486 89.409 82.3742 89.5383 82.3742C89.5383 82.3742 89.5384 82.3742 89.6677 82.3742C89.7969 82.3742 89.9261 82.3742 90.0553 82.2625C90.1846 82.2625 90.3139 82.1508 90.4432 82.1508C90.4432 82.1508 90.4431 82.1508 90.5724 82.1508C90.7016 82.1508 90.8308 82.0391 90.8308 82.0391C90.9601 82.0391 90.9602 82.0391 91.0894 81.9274C91.0894 81.9274 91.0894 81.9274 91.2187 81.9274H91.3479H91.4771H91.6065C91.6065 81.9274 91.6064 81.9274 91.7357 81.9274C91.865 81.9274 91.8649 81.8157 91.9941 81.8157C91.9941 81.8157 91.9941 81.8157 92.1234 81.8157C92.2526 81.8157 92.2527 81.8157 92.382 81.704C92.382 81.704 92.5112 81.7039 92.5112 81.5922C92.5112 81.5922 92.5112 81.5922 92.6404 81.5922C92.6404 81.5922 92.6404 81.5922 92.7696 81.5922C92.7696 81.5922 92.899 81.5923 92.899 81.4806C93.0283 81.4806 93.0282 81.3689 93.1575 81.3689C93.1575 81.3689 93.1574 81.3689 93.2867 81.3689C93.2867 81.3689 93.2867 81.3689 93.4159 81.3689C93.4159 81.3689 93.416 81.3689 93.5453 81.3689C93.5453 81.3689 93.5453 81.3689 93.6745 81.3689C93.6745 81.3689 93.6745 81.3689 93.8037 81.3689C93.8037 81.3689 93.8037 81.3689 93.933 81.3689L94.0622 81.2571L94.1916 81.1454L94.3208 81.0337C94.3208 81.0337 94.3208 81.0337 94.3208 80.922C94.3208 80.922 94.3208 80.922 94.3208 80.8103V80.6986C96.0011 80.14 96.001 80.0283 96.001 80.0283Z" stroke="black" stroke-miterlimit="10"/>
</svg>
