<svg xmlns="http://www.w3.org/2000/svg" viewBox="0 0 315.16 104.05"><path d="M311.44,18.74l.09.1L299.94,5.32c-.17-.2-.35-.4-.53-.59l0,0c-.26-.27-.52-.52-.8-.77l-.22-.19c-.22-.2-.46-.39-.7-.57a.69.69,0,0,0-.13-.11l-.06,0c-.3-.22-.61-.43-.92-.63l-.21-.13-.81-.46-.25-.13c-.34-.17-.68-.33-1-.48l-.16-.06c-.31-.12-.62-.24-.94-.34l-.29-.1c-.37-.11-.75-.22-1.13-.3h0c-.37-.08-.76-.15-1.14-.21l-.32,0c-.35-.05-.7-.08-1.05-.1L289,0c-.4,0-.81,0-1.22,0h-.12l-.64,0L16.63,17.47q-.76.06-1.53.18l-.25,0-.18,0c-.42.08-.84.18-1.25.29l-.29.08-.52.14-.37.14q-.54.18-1.05.39c-.13.06-.26.09-.38.15l-.27.13c-.34.16-.67.33-1,.5l-.43.22-.15.1c-.44.25-.86.53-1.27.81-.07.06-.15.1-.22.15l0,0a17.49,17.49,0,0,0-1.5,1.23l-.13.1c-.25.23-.48.47-.71.71l-.18.18c-.31.32-.61.66-.9,1l-.07.1-.34.45c-.2.26-.39.53-.58.8l-.33.52c-.16.27-.33.53-.48.8s-.2.38-.29.58-.27.54-.4.82l-.25.6c-.11.28-.21.57-.31.86s-.14.41-.2.61-.17.62-.24.93-.1.39-.14.59c-.07.35-.11.7-.16,1,0,.18-.05.35-.07.52q-.08.8-.09,1.59L0,75.22a15.12,15.12,0,0,0,3.63,10L15.22,98.73l-.09-.11a15.51,15.51,0,0,0,13,5.4L298.52,86.57a17.82,17.82,0,0,0,16.56-17.39l.08-40.35A15.15,15.15,0,0,0,311.44,18.74ZM12.5,94l0,0c.07.22.15.43.24.64C12.67,94.46,12.58,94.25,12.5,94Zm4.39,5,.06,0c.05,0,.1.12.16.17S17,99.11,16.89,99Zm.28.27,0,0h0Zm2.16,1.62.25.15,0,0Zm7.06,2.14h.46C26.69,103.07,26.54,103.08,26.39,103.07ZM302.52,55.71c0,.5,0,1-.08,1.5,0,.16-.05.32-.07.48,0,.33-.09.66-.15,1s-.09.38-.13.56-.14.59-.23.87-.12.39-.18.58-.19.54-.3.81a5.55,5.55,0,0,1-.24.56c-.11.27-.24.53-.37.78l-.27.54-.45.75-.31.49c-.18.26-.37.51-.55.76l-.32.42c-.29.36-.59.71-.91,1l-.17.17c-.26.26-.52.51-.8.76a15.56,15.56,0,0,1-1.4,1.15l-.24.16c-.39.27-.78.53-1.2.77l-.54.29c-.31.17-.62.33-.94.48l-.61.26c-.33.13-.66.26-1,.37l-.84.27-.28.07c-.42.11-.86.21-1.29.28a16.54,16.54,0,0,1-1.74.22L16.5,89.53c-.56,0-1.1,0-1.65,0h-.2c-.53,0-1-.09-1.56-.17l-.41-.08-.08,0c0-.17,0-.34,0-.51v-.07l.07-40.35a14.76,14.76,0,0,1,.08-1.5c0-.16,0-.32.07-.49s.09-.65.15-1,.09-.37.13-.56.14-.58.22-.87.13-.38.19-.57.19-.55.3-.81.15-.38.23-.57.24-.52.37-.77.19-.37.28-.54l.45-.76c.1-.16.2-.33.31-.49s.36-.51.55-.75.21-.29.32-.42a13.18,13.18,0,0,1,.91-1l.17-.17c.25-.26.52-.52.79-.77a17.13,17.13,0,0,1,1.41-1.14l.24-.17c.39-.27.78-.53,1.19-.77l.54-.29c.32-.16.63-.33.95-.47a6.57,6.57,0,0,1,.61-.26c.32-.14.65-.26,1-.37s.55-.19.83-.27l.28-.08c.43-.11.86-.2,1.3-.28A16.35,16.35,0,0,1,28.23,32L298.65,14.52c.42,0,.84,0,1.25,0h.48c.42,0,.84.05,1.26.11h.16c.26,0,.51.1.77.15,0,.19,0,.38,0,.58Zm4.79-40.26,0,0a3.07,3.07,0,0,1,.31.17Zm.68.38.16.1a9.36,9.36,0,0,1,.92.63l0,0Q308.56,16.17,308,15.83Zm1.27.87h0c.24.18.47.37.7.57l.22.19,0,0C309.92,17.23,309.6,17,309.26,16.7Zm1.3,1.13c.14.14.29.27.42.41l.33.35C311.07,18.33,310.82,18.08,310.56,17.83Z" style="fill:#1a1a1a"/><path d="M257.78,58.54l0-14.64,4.5-.29L250.72,30.08l-4.5.29,0,10.25-8.33-9.71-4.32.27,0,7.92-4.77-5.57-.21-.23a6.1,6.1,0,0,0-.59-.54l-.17-.14-.1-.06a6.62,6.62,0,0,0-1-.6l-.08,0a7.79,7.79,0,0,0-1.15-.41l-.11,0a10.19,10.19,0,0,0-1.31-.23l-.22,0a13.1,13.1,0,0,0-1.42-.05h-.12l-.56,0a14.48,14.48,0,0,0-1.51.19l-.17,0-.14,0c-.44.09-.86.19-1.26.31h0l-.8.28-.29.12-.24.13-.47.23-.16.08-.21.14L216,33l-.15.11-.17.13-.4.33-.17.13-.28.28c-.18.18-.34.36-.5.55l0,0a7.47,7.47,0,0,0-.67,1l-.1.17-2.63-3.08-8.74.57v3.65l2,2.38v2.41l-5.36-6.25c-.06-.07-.12-.15-.19-.22a6,6,0,0,0-.65-.58l0,0a3.28,3.28,0,0,0-.31-.2,2,2,0,0,0-.24-.16l-.38-.2-.24-.13-.47-.19-.22-.08a7.17,7.17,0,0,0-.74-.22,10,10,0,0,0-1.28-.22l-.22,0a12.25,12.25,0,0,0-1.37,0h-.12l-.56,0a11.33,11.33,0,0,0-1.44.18l-.14,0-.45.11c-.24.06-.5.11-.73.18l-.49.17L188,34a8.76,8.76,0,0,0-.81.41h0l-.05,0c-.22.13-.43.27-.64.41l-.51.41-.16.14a1.42,1.42,0,0,1-.12.13,5.49,5.49,0,0,0-.4.43,1.14,1.14,0,0,0-.11.11.61.61,0,0,1-.07.1l-.32.45-.14.21q-.21.35-.39.72l-.09.24-2.8-3.27-14.8,1v8l-4.13-4.82-.22-.24c-.13-.14-.26-.26-.4-.39s-.26-.22-.4-.32l-.08-.05a7.6,7.6,0,0,0-1-.62l-.21-.09a7.79,7.79,0,0,0-1.23-.45h-.06a9.53,9.53,0,0,0-1.37-.24l-.22,0a12.42,12.42,0,0,0-1.51-.05h-.15l-.58,0-7.67.5,0,12.51L137.13,37.4,128.4,38V41l-2.48-2.89-4.61.29,0,10.71L112.59,39l-4.68.3,0,11.73-8.37-9.76-.14-.16,0,0a5.76,5.76,0,0,0-.53-.47l-.22-.14-.21-.13a4.63,4.63,0,0,0-.9-.42,5.65,5.65,0,0,0-1.08-.25c-.12,0-.25,0-.38,0s-.42,0-.63,0l-.24,0a7.88,7.88,0,0,0-1,.12.53.53,0,0,0-.12,0l-.31.07c-.16,0-.32.07-.47.12s-.3.1-.44.15l-.34.14c-.22.1-.43.2-.64.32h0l-.07,0a4.13,4.13,0,0,0-.49.32l-.35.26-.17.15a5.08,5.08,0,0,0-.5.54l0,0a4.45,4.45,0,0,0-.59.93A4.51,4.51,0,0,0,89.15,45c0,.17,0,.33,0,.49l-4.06-4.73L80,41.09c-.67,1.15-1.34,2.29-2,3.46L76.68,47l-4.6-5.37L67,41.93l3.76,6.15L65.54,42l-4.62.3,0,10.7L52.21,42.88l-4.68.3,0,14.39q0,4.32,1.77,6.39l11.6,13.53C59.69,76.11,59.09,74,59.1,71.1v-3l5.62,6.56.11.11a2.82,2.82,0,0,0,.36.33l.1,0,.18.11a3,3,0,0,0,.51.25l.23.08a4.41,4.41,0,0,0,.79.16h0a6.77,6.77,0,0,0,.79,0h.28a7.07,7.07,0,0,0,.82-.1l.12,0,.21,0,.32-.08a3.54,3.54,0,0,0,.39-.14l.06,0h0a3.54,3.54,0,0,0,.39-.19l.3-.2h0a3,3,0,0,0,.33-.27l.2-.22.09-.09.06-.06c.08-.11.15-.23.22-.35a3,3,0,0,0,.19-.3,3.58,3.58,0,0,0,.2-.49,1.89,1.89,0,0,0,.13-.33,6,6,0,0,0,.14-.64,2.8,2.8,0,0,0,.06-.28l5.66,6.6L84,68.15l8.1,9.46-4.43-7.3-2.95-3.44.42-.73L78.57,55.46l3.61-.24,5.46,6.38L88,61a4.31,4.31,0,0,0,.51.73l11.59,13.53a5.12,5.12,0,0,1-.82-1.34,7.23,7.23,0,0,1-.48-2.8,6.22,6.22,0,0,1,.26-1.8,6.69,6.69,0,0,1,.46-1.09l3.81,4.45.07.09h0a2,2,0,0,0,.26.24l.08,0,.16.09a2,2,0,0,0,.29.14l.17.07.36.08.18,0a5.47,5.47,0,0,0,.59,0h.21l.34,0,.39-.1h0l0,0,.31-.11.43-.22h0l.44-.29h0a5.58,5.58,0,0,0,.55-.44l.06-.05a.46.46,0,0,1,.07-.07c.16-.15.31-.32.47-.49l3.82,4.45-1.3-1.65-2.46-2.87.13-.14h0l-3.63-4.58L103,64.07l.18-.18a24.41,24.41,0,0,1-1.73-2.55,5.45,5.45,0,0,1-.75-2.81,4.88,4.88,0,0,1,.43-2L111,68a14.94,14.94,0,0,0,.66-2.2,17.6,17.6,0,0,0,.38-2.57l.31,0,8.86,10.34c-1.18-1.38-1.77-3.5-1.76-6.38v-3l5.62,6.56.11.11a2.17,2.17,0,0,0,.36.32.53.53,0,0,0,.1.06l.18.11a2.75,2.75,0,0,0,.52.24l.22.08a3.68,3.68,0,0,0,.79.16h0a5.07,5.07,0,0,0,.79,0h.28c.28,0,.56-.06.82-.1l.12,0,.21,0,.32-.08.39-.15.06,0h0a3.55,3.55,0,0,0,.39-.2l.3-.19,0,0h0a2.91,2.91,0,0,0,.33-.26l.2-.22.09-.1a.34.34,0,0,0,.06-.06,4,4,0,0,0,.22-.34,1.89,1.89,0,0,0,.19-.3c.08-.15.14-.32.21-.49l.13-.33c.05-.2.09-.42.13-.64s.05-.21.06-.32a7.73,7.73,0,0,0,.07-1.1v-.63L140,74.52V70.87l2-.13V65.1l4.58,5.34,2.1-.13L142,62.52V55l-2-2.38V51.5l7.3-.48,0,8.75,11.6,13.53,0-9.68,4.66,5.44,2.7-.17c.44,0,.84-.08,1.2-.14h0l.12,0c.24,0,.47-.1.67-.16l.27-.09.23-.1c.13,0,.25-.12.37-.18l.21-.13.05,0,.07,0,.31-.25.27-.29,0,0c.11-.15.2-.32.3-.48a2.26,2.26,0,0,0,.16-.26,4.26,4.26,0,0,0,.33-.91,9.06,9.06,0,0,0,.24-1.88l7,8.2V62.39l4.66,5.43,10.44-.67-7.8-9.1,1.8-.12,9,10.54a6.21,6.21,0,0,1-1-1.53,9.11,9.11,0,0,1-.73-3.44l3.28-.21L200,65.77l.1.12c.09.08.18.17.27.24l.13.1a2.14,2.14,0,0,0,.32.2c.08,0,.14.1.22.14a4,4,0,0,0,.57.22l.12,0a4.89,4.89,0,0,0,.78.15h.26l.52,0h.31a8.25,8.25,0,0,0,1.07-.13h.11l.31-.08a2.34,2.34,0,0,0,.38-.09l.1,0a4.77,4.77,0,0,0,.5-.19h0l.05,0,.3-.15.26-.17,0,0,.19-.16a1.45,1.45,0,0,0,.21-.22s0,0,0,0a.67.67,0,0,0,.07-.11,2.86,2.86,0,0,0,.24-.42,1.59,1.59,0,0,0,.07-.2,3.37,3.37,0,0,0,.12-.48,1.52,1.52,0,0,0,0-.21,4.05,4.05,0,0,0,0-.79,2.53,2.53,0,0,0-.25-1l6.27,7.32V66.11L215.8,66V60.34l4.57,5.34,2.11-.13-6.68-7.79V54.88l9.94,11.6a9,9,0,0,1-1.82-6V57.16L229.78,64l.12.14a3.59,3.59,0,0,0,.42.37l.07,0,.17.1a3.15,3.15,0,0,0,.55.28l.23.09a4.1,4.1,0,0,0,.73.16l.1,0a5.25,5.25,0,0,0,.8,0h.25a4.41,4.41,0,0,0,.73-.09l.1,0,.22-.06.32-.07.28-.11.14,0,.09,0,.44-.23.12-.07a.57.57,0,0,1,.13-.08l.18-.12c.15-.11.29-.23.43-.35h0a4.27,4.27,0,0,0,.36-.38,1.3,1.3,0,0,0,.1-.15,2.2,2.2,0,0,0,.17-.25,3.21,3.21,0,0,0,.24-.45,2.33,2.33,0,0,0,.11-.28,4.58,4.58,0,0,0,.16-.56c0-.09,0-.17.06-.27a6.76,6.76,0,0,0,.07-.93V59.07l7.42,8.67,0-16.6,1.31,2.23L258,66.9,249.8,52.82l-4.66-5.45V44.71l1.05-.06V45ZM60.89,57.25a9.22,9.22,0,0,1-.07,1.09c0,.12,0,.21-.07.32a4.26,4.26,0,0,1-.13.64c0,.12-.09.22-.13.33a4.34,4.34,0,0,1-.2.5l-.19.29a4.21,4.21,0,0,1-.28.41l-.09.1a3.64,3.64,0,0,1-.55.49l0,0,0,0V56.71l1.77-.11Zm47-3.6-.4-.48h.41Zm13.39-.29a9.36,9.36,0,0,1-.07,1.09c0,.11,0,.21-.06.32a6,6,0,0,1-.14.64,3.24,3.24,0,0,1-.13.33,3.58,3.58,0,0,1-.2.49c-.06.11-.13.2-.19.3s-.18.28-.28.41l-.09.09a4.35,4.35,0,0,1-.55.5h0l0,0V52.82l1.76-.12Zm38-1.15a4.64,4.64,0,0,1-.33.91l-.06.09V50.27l.62,0A9.24,9.24,0,0,1,159.29,52.21Zm7.28-1.34-.89-1,.89-.06Zm11.61,3V52.78l.86,1ZM192,53.46h-.16c-.24,0-.46,0-.68,0h-.25l-.15,0-3.21-3.74-2.47.16-1-1.19,4.56-.29,4.28,5A8.2,8.2,0,0,1,192,53.46Zm4.08-2.72a1.7,1.7,0,0,1,0,.22,3.57,3.57,0,0,1-.11.47l-.08.2a2.13,2.13,0,0,1-.23.42.41.41,0,0,1-.07.11s-.06.05-.08.08a5.79,5.79,0,0,1,.39-1.13c.06-.15.15-.28.22-.42Zm6.05,5.34-.21-.25.12.06a.32.32,0,0,1,.09,0Zm2-4.69-3.59-4.19.78-.22.41-.1,2.41,2.81Zm0-2.78-1.58-1.84c.27,0,.52-.09.8-.11l.67,0h.11Zm21.06,1.23a3.44,3.44,0,0,1-.47.54l-.23.17,0-.07a7.76,7.76,0,0,1,.46-1l.26.3Zm8.25-4.79-.27-.31h.27Z" style="fill:#1a1a1a"/><path d="M298.65,14.52a14.31,14.31,0,0,1,15.54,14.37l-.08,40.35a16.78,16.78,0,0,1-15.59,16.37L28.09,103.06A14.31,14.31,0,0,1,12.57,88.69l.07-40.35A16.8,16.8,0,0,1,28.23,32Z" style="fill:#2340ad"/><polygon points="262.31 43.61 262.27 66.63 258.03 66.9 249.8 52.81 249.78 67.44 245.1 67.74 245.14 44.71 249.47 44.43 257.79 58.54 257.81 43.9 262.31 43.61" style="fill:#fff"/><path d="M233.32,44.73a8.77,8.77,0,0,1,6.24,1.55,7.09,7.09,0,0,1,2.45,5.3l-4.61.3a4.26,4.26,0,0,0-1.25-2.64,4,4,0,0,0-2.84-.66,4.51,4.51,0,0,0-3.59,1.76,8.07,8.07,0,0,0-1.18,4.79v4.16c0,4.14,1.55,6.1,4.69,5.9a5,5,0,0,0,3.18-1.28,4.24,4.24,0,0,0,1.27-3.28V59.07l-4.16.27V55.58l8.54-.55V60.9a8.06,8.06,0,0,1-.65,3.32,6.8,6.8,0,0,1-1.79,2.46,8.64,8.64,0,0,1-2.78,1.57,13.44,13.44,0,0,1-3.63.7c-2.92.19-5.2-.42-6.83-1.85s-2.45-3.64-2.44-6.66V54.52a11.68,11.68,0,0,1,.65-4,7.92,7.92,0,0,1,1.85-3,8.69,8.69,0,0,1,2.94-1.93A13,13,0,0,1,233.32,44.73Z" style="fill:#fff"/><polygon points="222.52 46.17 222.51 49.82 220.41 49.96 220.38 65.68 222.49 65.55 222.48 69.2 213.74 69.76 213.75 66.11 215.8 65.98 215.83 50.25 213.78 50.38 213.78 46.74 222.52 46.17" style="fill:#fff"/><path d="M203.43,46.66a11.35,11.35,0,0,1,3.54.26,7.19,7.19,0,0,1,2.65,1.21,5.69,5.69,0,0,1,1.66,2.07,7,7,0,0,1,.65,2.81l-4.62.3a2.5,2.5,0,0,0-1.11-2.21,4.67,4.67,0,0,0-2.8-.5,4.5,4.5,0,0,0-2.61.86,2.74,2.74,0,0,0-.87,2.32,1.67,1.67,0,0,0,.65,1.29,5.08,5.08,0,0,0,1.49.82,11.62,11.62,0,0,0,1.8.49c.62.1,1.14.2,1.54.29a24.51,24.51,0,0,1,2.84.88,8.44,8.44,0,0,1,2.2,1.25,5.44,5.44,0,0,1,1.45,1.82,6,6,0,0,1,.51,2.6,7.63,7.63,0,0,1-.72,3.39,6.43,6.43,0,0,1-2,2.34,8.85,8.85,0,0,1-2.9,1.38,14.56,14.56,0,0,1-2.94.5l-.55,0a12.58,12.58,0,0,1-3.51-.31,7,7,0,0,1-2.71-1.28,6.13,6.13,0,0,1-1.79-2.32,9.11,9.11,0,0,1-.73-3.44l4.56-.29a3.67,3.67,0,0,0,1.22,2.92,4.29,4.29,0,0,0,3.07.87h.16a6.08,6.08,0,0,0,3.1-.87,2.82,2.82,0,0,0,1-2.64,2.27,2.27,0,0,0-.45-1.42,3.14,3.14,0,0,0-1.15-.89,7.86,7.86,0,0,0-1.68-.59l-2-.47c-.8-.15-1.64-.36-2.49-.6a8.59,8.59,0,0,1-2.32-1,5.44,5.44,0,0,1-1.71-1.7,4.55,4.55,0,0,1-.68-2.6,7.19,7.19,0,0,1,.63-3.06,6.62,6.62,0,0,1,1.71-2.29,8.06,8.06,0,0,1,2.58-1.49A11.65,11.65,0,0,1,203.43,46.66Z" style="fill:#fff"/><polygon points="192.98 48.08 192.98 51.95 182.85 52.6 182.84 58.22 191.78 57.64 191.78 61.57 182.83 62.15 182.82 67.82 193.26 67.15 193.26 71.08 178.15 72.06 178.19 49.03 192.98 48.08" style="fill:#fff"/><path d="M173.41,51.56q2.43,2.13,2.42,6.57v5.52c0,2.91-.83,5.11-2.47,6.64a10.86,10.86,0,0,1-6.85,2.56l-7.72.5,0-23.14,7.72-.5C169.5,49.52,171.78,50.13,173.41,51.56ZM171.13,63.3v-4A7.17,7.17,0,0,0,170,54.92c-.73-1-2-1.42-3.8-1.3l-2.72.17,0,15.3,2.72-.18a8.26,8.26,0,0,0,2.29-.43,3.6,3.6,0,0,0,1.52-1,4.12,4.12,0,0,0,.84-1.7,10.71,10.71,0,0,0,.27-2.45" style="fill:#fff"/><polygon points="148.59 50.87 148.59 54.53 146.47 54.67 146.44 70.47 148.56 70.34 148.55 74 139.77 74.57 139.78 70.91 141.83 70.77 141.86 54.97 139.8 55.1 139.81 51.43 148.59 50.87" style="fill:#fff"/><path d="M137.31,51.59l0,14.46c0,3.19-.75,5.56-2.2,7.1s-3.75,2.42-6.87,2.62-5.42-.37-6.86-1.73-2.17-3.63-2.16-6.82l0-14.46,4.7-.3,0,15q0,4.76,4.36,4.47c2.93-.18,4.39-1.86,4.4-5l0-15Z" style="fill:#fff"/><path d="M113.39,71.41l3.48,4.46-4.5.29-1.3-1.66a9.13,9.13,0,0,1-3,2,9.44,9.44,0,0,1-2.78.64l-.27,0a8.93,8.93,0,0,1-2.65-.27,5.54,5.54,0,0,1-2.1-1A4.78,4.78,0,0,1,98.89,74a7.33,7.33,0,0,1-.49-2.82,6.06,6.06,0,0,1,.27-1.81,7.22,7.22,0,0,1,.8-1.73,11.36,11.36,0,0,1,1.38-1.76q.84-.89,2-2a24.15,24.15,0,0,1-1.74-2.56,5.4,5.4,0,0,1-.75-2.83,4.7,4.7,0,0,1,.48-2.13,5.06,5.06,0,0,1,1.31-1.67,6.54,6.54,0,0,1,1.91-1.1,7.81,7.81,0,0,1,2.34-.5,6.11,6.11,0,0,1,2.35.29,4.61,4.61,0,0,1,1.86,1.17,4.86,4.86,0,0,1,1.13,2,5.85,5.85,0,0,1,.1,2.69,5.63,5.63,0,0,1-.51,1.61,7.37,7.37,0,0,1-.87,1.3c-.35.39-.72.76-1.1,1.12s-.81.69-1.21,1l-.24.21,2.78,3.54a14,14,0,0,0,.67-2.21,18,18,0,0,0,.38-2.58l3.86-.25c-.06.81-.14,1.56-.24,2.27a19.9,19.9,0,0,1-.38,2,15.84,15.84,0,0,1-.58,1.89,19,19,0,0,1-.84,1.87ZM106.94,73a7.25,7.25,0,0,0,1.79-1.57l-3.65-4.6a21.73,21.73,0,0,0-1.86,2,3.33,3.33,0,0,0-.82,1.89,2.64,2.64,0,0,0,.64,2.08,2.73,2.73,0,0,0,2.11.75h.21a3.77,3.77,0,0,0,1.58-.52m-2.37-14.76a3.26,3.26,0,0,0,0,.93,3.58,3.58,0,0,0,.27.82,4.42,4.42,0,0,0,.44.76c.18.23.34.48.49.71.45-.37.87-.74,1.27-1.11a3.63,3.63,0,0,0,.8-1,2.44,2.44,0,0,0,.27-1.15,1.89,1.89,0,0,0-.24-.91,1.56,1.56,0,0,0-.62-.6,1.64,1.64,0,0,0-.86-.17,1.75,1.75,0,0,0-1.26.55,2.51,2.51,0,0,0-.54,1.14" style="fill:#fff"/><path d="M96.32,54.24,89.8,65.82l7,11.52-5.13.34-4.46-7.34-4.47,7.91-5.13.33,7.06-12.43L78.08,55.41l5.13-.33,4,6.5,2-3.53q1-1.75,2-3.48Z" style="fill:#fff"/><path d="M77.13,55.55l0,14.39q0,4.75-2.2,7.06c-1.45,1.54-3.73,2.4-6.83,2.6s-5.39-.37-6.83-1.72-2.16-3.61-2.15-6.78l0-14.39,4.68-.3,0,14.93c0,3.16,1.44,4.64,4.34,4.45s4.37-1.86,4.37-5l0-14.93Z" style="fill:#fff"/></svg>