<svg width="453" height="474" viewBox="0 0 453 474" fill="none" xmlns="http://www.w3.org/2000/svg">
<rect x="247.373" y="40.8438" width="204.126" height="217.512" fill="#2340AD" stroke="black" stroke-width="3"/>
<line x1="205.674" y1="158.649" x2="122.947" y2="101.025" stroke="black" stroke-width="3"/>
<line x1="230.984" y1="59.1051" x2="151.833" y2="2.09398" stroke="white" stroke-width="3" stroke-linecap="round"/>
<line x1="326.711" y1="100.545" x2="244.988" y2="40.662" stroke="white" stroke-width="3"/>
<rect x="122.676" y="99.3179" width="204.126" height="218.216" fill="white" stroke="black" stroke-width="3"/>
<rect x="1.5" y="159.201" width="204.126" height="217.512" fill="black" stroke="black" stroke-width="3"/>
<line x1="205.014" y1="158.353" x2="123.03" y2="100.743" stroke="black" stroke-width="3" stroke-linecap="round"/>
<path d="M85.2033 281.823C85.2033 279.87 85.5126 278.047 86.1311 276.354C86.7821 274.662 87.5959 273.246 88.5725 272.106C89.549 270.967 90.6233 269.812 91.7951 268.64C92.967 267.435 94.0738 266.361 95.1155 265.417C96.1571 264.44 97.0849 263.285 97.8987 261.95C98.745 260.583 99.2984 259.167 99.5588 257.702C99.3309 256.433 98.7613 255.586 97.8498 255.163C96.9384 254.707 95.7502 254.479 94.2854 254.479C89.8908 254.642 85.4312 255.619 80.9065 257.409L78.6604 255.554C78.6604 253.503 78.6766 250.524 78.7092 246.618C78.7418 242.679 78.758 239.668 78.758 237.585C78.758 236.283 80.1089 235.209 82.8108 234.362C85.5126 233.516 88.2632 232.979 91.0627 232.751C93.8622 232.523 96.6291 232.409 99.3635 232.409C107.827 232.507 114.207 233.679 118.504 235.925L120.555 236.999C123.322 238.757 125.438 240.743 126.903 242.956V244.323C127.554 245.625 128.205 247.399 128.856 249.646C129.507 251.892 129.865 253.112 129.93 253.308C129.637 258.06 128.66 261.511 127 263.659C125.763 265.189 124.363 266.638 122.801 268.005C121.238 269.34 119.822 270.414 118.553 271.228C117.316 272.041 116.128 272.855 114.988 273.669C113.882 274.483 113.003 275.345 112.352 276.257C111.701 277.168 111.343 278.177 111.278 279.284C111.375 279.772 111.457 280.554 111.522 281.628C111.587 282.67 111.668 283.451 111.766 283.972C111.766 284.232 111.701 284.493 111.571 284.753C111.44 285.013 111.31 285.144 111.18 285.144H103.856C100.015 285.144 94.2528 285.339 86.5705 285.729C85.6591 285.729 85.2033 284.427 85.2033 281.823ZM84.9104 306.335V305.065C84.9104 304.284 84.9429 303.698 85.008 303.308V298.425C84.9429 298.034 84.9104 297.351 84.9104 296.374C84.9104 292.858 85.3987 290.743 86.3752 290.026C87.5145 290.059 89.8746 290.14 93.4553 290.271C97.036 290.368 99.8518 290.417 101.903 290.417C103.498 290.482 104.718 290.531 105.565 290.563C106.411 290.596 107.257 290.677 108.104 290.808C108.95 290.905 109.536 291.019 109.862 291.149C110.187 291.28 110.496 291.491 110.789 291.784C111.082 292.045 111.245 292.354 111.278 292.712C111.343 293.037 111.375 293.477 111.375 294.03V298.913C111.375 299.597 111.391 300.59 111.424 301.892C111.457 303.194 111.473 304.187 111.473 304.87V307.8C111.375 308.451 111.017 308.776 110.399 308.776C110.268 308.776 110.203 308.711 110.203 308.581C108.38 308.614 102.912 308.874 93.7971 309.362H86.4729L85.008 307.604C85.008 306.953 84.9755 306.53 84.9104 306.335Z" fill="white"/>
<path d="M215.203 233.823C215.203 231.87 215.513 230.047 216.131 228.354C216.782 226.662 217.596 225.246 218.572 224.106C219.549 222.967 220.623 221.812 221.795 220.64C222.967 219.435 224.074 218.361 225.115 217.417C226.157 216.44 227.085 215.285 227.899 213.95C228.745 212.583 229.298 211.167 229.559 209.702C229.331 208.433 228.761 207.586 227.85 207.163C226.938 206.707 225.75 206.479 224.285 206.479C219.891 206.642 215.431 207.619 210.906 209.409L208.66 207.554C208.66 205.503 208.677 202.524 208.709 198.618C208.742 194.679 208.758 191.668 208.758 189.585C208.758 188.283 210.109 187.209 212.811 186.362C215.513 185.516 218.263 184.979 221.063 184.751C223.862 184.523 226.629 184.409 229.363 184.409C237.827 184.507 244.207 185.679 248.504 187.925L250.555 188.999C253.322 190.757 255.438 192.743 256.903 194.956V196.323C257.554 197.625 258.205 199.399 258.856 201.646C259.507 203.892 259.865 205.112 259.93 205.308C259.637 210.06 258.66 213.511 257 215.659C255.763 217.189 254.363 218.638 252.801 220.005C251.238 221.34 249.822 222.414 248.553 223.228C247.316 224.041 246.128 224.855 244.988 225.669C243.882 226.483 243.003 227.345 242.352 228.257C241.701 229.168 241.343 230.177 241.278 231.284C241.375 231.772 241.457 232.554 241.522 233.628C241.587 234.67 241.668 235.451 241.766 235.972C241.766 236.232 241.701 236.493 241.571 236.753C241.44 237.013 241.31 237.144 241.18 237.144H233.856C230.015 237.144 224.253 237.339 216.571 237.729C215.659 237.729 215.203 236.427 215.203 233.823ZM214.91 258.335V257.065C214.91 256.284 214.943 255.698 215.008 255.308V250.425C214.943 250.034 214.91 249.351 214.91 248.374C214.91 244.858 215.399 242.743 216.375 242.026C217.515 242.059 219.875 242.14 223.455 242.271C227.036 242.368 229.852 242.417 231.903 242.417C233.498 242.482 234.718 242.531 235.565 242.563C236.411 242.596 237.257 242.677 238.104 242.808C238.95 242.905 239.536 243.019 239.862 243.149C240.187 243.28 240.496 243.491 240.789 243.784C241.082 244.045 241.245 244.354 241.278 244.712C241.343 245.037 241.375 245.477 241.375 246.03V250.913C241.375 251.597 241.391 252.59 241.424 253.892C241.457 255.194 241.473 256.187 241.473 256.87V259.8C241.375 260.451 241.017 260.776 240.399 260.776C240.268 260.776 240.203 260.711 240.203 260.581C238.38 260.614 232.912 260.874 223.797 261.362H216.473L215.008 259.604C215.008 258.953 214.975 258.53 214.91 258.335Z" fill="black"/>
<path d="M336.851 169.823C336.851 167.87 337.16 166.047 337.779 164.354C338.43 162.662 339.244 161.246 340.22 160.106C341.197 158.967 342.271 157.812 343.443 156.64C344.615 155.435 345.722 154.361 346.763 153.417C347.805 152.44 348.733 151.285 349.546 149.95C350.393 148.583 350.946 147.167 351.207 145.702C350.979 144.433 350.409 143.586 349.498 143.163C348.586 142.707 347.398 142.479 345.933 142.479C341.539 142.642 337.079 143.619 332.554 145.409L330.308 143.554C330.308 141.503 330.324 138.524 330.357 134.618C330.39 130.679 330.406 127.668 330.406 125.585C330.406 124.283 331.757 123.209 334.459 122.362C337.16 121.516 339.911 120.979 342.71 120.751C345.51 120.523 348.277 120.409 351.011 120.409C359.475 120.507 365.855 121.679 370.152 123.925L372.203 124.999C374.97 126.757 377.085 128.743 378.55 130.956V132.323C379.201 133.625 379.852 135.399 380.503 137.646C381.154 139.892 381.513 141.112 381.578 141.308C381.285 146.06 380.308 149.511 378.648 151.659C377.411 153.189 376.011 154.638 374.449 156.005C372.886 157.34 371.47 158.414 370.201 159.228C368.964 160.041 367.776 160.855 366.636 161.669C365.529 162.483 364.651 163.345 364 164.257C363.348 165.168 362.99 166.177 362.925 167.284C363.023 167.772 363.104 168.554 363.169 169.628C363.235 170.67 363.316 171.451 363.414 171.972C363.414 172.232 363.348 172.493 363.218 172.753C363.088 173.013 362.958 173.144 362.828 173.144H355.503C351.662 173.144 345.901 173.339 338.218 173.729C337.307 173.729 336.851 172.427 336.851 169.823ZM336.558 194.335V193.065C336.558 192.284 336.591 191.698 336.656 191.308V186.425C336.591 186.034 336.558 185.351 336.558 184.374C336.558 180.858 337.046 178.743 338.023 178.026C339.162 178.059 341.522 178.14 345.103 178.271C348.684 178.368 351.5 178.417 353.55 178.417C355.145 178.482 356.366 178.531 357.212 178.563C358.059 178.596 358.905 178.677 359.751 178.808C360.598 178.905 361.184 179.019 361.509 179.149C361.835 179.28 362.144 179.491 362.437 179.784C362.73 180.045 362.893 180.354 362.925 180.712C362.99 181.037 363.023 181.477 363.023 182.03V186.913C363.023 187.597 363.039 188.59 363.072 189.892C363.104 191.194 363.121 192.187 363.121 192.87V195.8C363.023 196.451 362.665 196.776 362.046 196.776C361.916 196.776 361.851 196.711 361.851 196.581C360.028 196.614 354.559 196.874 345.445 197.362H338.121L336.656 195.604C336.656 194.953 336.623 194.53 336.558 194.335Z" fill="white"/>
<ellipse cx="244.5" cy="450.5" rx="164.5" ry="23.5" fill="#C4C4C4"/>
</svg>
